<svg xmlns="http://www.w3.org/2000/svg" xmlns:xlink="http://www.w3.org/1999/xlink" width="508.761" height="346.438" viewBox="0 0 508.761 346.438">
  <defs>
    <linearGradient id="linear-gradient" x1="0.5" x2="0.5" y2="1" gradientUnits="objectBoundingBox">
      <stop offset="0" stop-color="#1a0202" stop-opacity="0.569"/>
      <stop offset="1" stop-color="#fff" stop-opacity="0"/>
    </linearGradient>
  </defs>
  <g id="Grupo_54427" data-name="Grupo 54427" transform="translate(-911.239 -173.332)">
    <g id="Grupo_54409" data-name="Grupo 54409" transform="translate(-618.089 -371.134)">
      <path id="Trazado_102043" data-name="Trazado 102043" d="M1998.735,881.942s73.351-111.687,16.671-172.824S1835.814,605.949,1802.7,598.307s-141.38-23.564-156.027-35.027-122.911,33.116-96.8,98.712,3.157,87.276-9.553,112.085-28.021,81.994,26.11,107.866S1998.735,881.942,1998.735,881.942Z" transform="translate(1.189 -2.537)" fill="url(#linear-gradient)"/>
      <g id="Grupo_54402" data-name="Grupo 54402" transform="translate(1555.214 881.942)">
        <path id="Rectángulo_5278" data-name="Rectángulo 5278" d="M4.481,0H461.594a4.481,4.481,0,0,1,4.481,4.481v0a4.481,4.481,0,0,1-4.481,4.481H4.481A4.481,4.481,0,0,1,0,4.481v0A4.481,4.481,0,0,1,4.481,0Z" transform="translate(466.075 8.962) rotate(180)" fill="#fee2bf"/>
      </g>
      <g id="Grupo_54408" data-name="Grupo 54408" transform="translate(1592.135 544.466)">
        <g id="Grupo_54404" data-name="Grupo 54404">
          <path id="Trazado_102005" data-name="Trazado 102005" d="M2041.747,544.466h-274.18c-11.711,0-21.2,8.767-21.2,19.582V739.308c0,10.814,9.494,19.582,21.2,19.582H1796l-3.846,52.3,51.091-52.3h198.5c11.711,0,21.2-8.768,21.2-19.582V564.048C2062.951,553.233,2053.458,544.466,2041.747,544.466Z" transform="translate(-1746.362 -544.466)" fill="#fed947"/>
          <path id="Trazado_102006" data-name="Trazado 102006" d="M1944.063,960.054h-45.644a5.467,5.467,0,0,1-5.467-5.467h0a5.467,5.467,0,0,1,5.467-5.467h45.644a5.467,5.467,0,0,1,5.467,5.467h0A5.467,5.467,0,0,1,1944.063,960.054Z" transform="translate(-1852.367 -837.088)" fill="#f3ffff"/>
          <path id="Trazado_102007" data-name="Trazado 102007" d="M2330.609,960.054H2179.9a5.467,5.467,0,0,1-5.467-5.467h0a5.467,5.467,0,0,1,5.467-5.467h150.707a5.467,5.467,0,0,1,5.466,5.467h0A5.467,5.467,0,0,1,2330.609,960.054Z" transform="translate(-2055.919 -837.088)" fill="#f3ffff"/>
          <path id="Trazado_102008" data-name="Trazado 102008" d="M2011.247,1064.269H1898.419a5.467,5.467,0,0,1-5.467-5.467h0a5.468,5.468,0,0,1,5.467-5.467h112.828a5.468,5.468,0,0,1,5.468,5.467h0A5.467,5.467,0,0,1,2011.247,1064.269Z" transform="translate(-1852.367 -912.45)" fill="#f3ffff"/>
          <path id="Trazado_102009" data-name="Trazado 102009" d="M2127.057,855.839H1898.419a5.467,5.467,0,0,1-5.467-5.467h0a5.467,5.467,0,0,1,5.467-5.467h228.638a5.466,5.466,0,0,1,5.467,5.467h0A5.467,5.467,0,0,1,2127.057,855.839Z" transform="translate(-1852.367 -761.726)" fill="#f3ffff"/>
          <path id="Trazado_102010" data-name="Trazado 102010" d="M2497.6,1064.269h-86.772a5.467,5.467,0,0,1-5.467-5.467h0a5.468,5.468,0,0,1,5.467-5.467H2497.6a5.467,5.467,0,0,1,5.467,5.467h0A5.466,5.466,0,0,1,2497.6,1064.269Z" transform="translate(-2222.915 -912.45)" fill="#f3ffff"/>
          <path id="Trazado_102011" data-name="Trazado 102011" d="M2127.056,1168.484H1898.419a5.468,5.468,0,0,1-5.467-5.467h0a5.467,5.467,0,0,1,5.467-5.467h228.638a5.466,5.466,0,0,1,5.467,5.467h0A5.467,5.467,0,0,1,2127.056,1168.484Z" transform="translate(-1852.367 -987.813)" fill="#f3ffff"/>
          <g id="Grupo_54403" data-name="Grupo 54403" transform="translate(40.585 23.105)">
            <path id="Trazado_102012" data-name="Trazado 102012" d="M2630.214,627.921l6.358,12.883,14.217,2.066L2640.5,652.9l2.428,14.16-12.716-6.685-12.716,6.685,2.428-14.16-10.288-10.028,14.218-2.066Z" transform="translate(-2411.218 -627.921)" fill="#20287a"/>
            <path id="Trazado_102013" data-name="Trazado 102013" d="M1913.528,627.921l6.358,12.883,14.217,2.066L1923.815,652.9l2.428,14.16-12.716-6.685-12.717,6.685,2.429-14.16-10.288-10.028,14.217-2.066Z" transform="translate(-1892.952 -627.921)" fill="#fbb213"/>
            <path id="Trazado_102014" data-name="Trazado 102014" d="M1942.715,698.441a23.421,23.421,0,0,0-19.931,11.193l-1.444,8.419,12.716-6.685,12.716,6.685-2.428-14.16,4.693-4.575A23.235,23.235,0,0,0,1942.715,698.441Z" transform="translate(-1913.48 -678.917)" fill="#fff5a2" style="mix-blend-mode: screen;isolation: isolate"/>
            <path id="Trazado_102015" data-name="Trazado 102015" d="M2092.7,627.921l6.358,12.883,14.217,2.066L2102.986,652.9l2.428,14.16-12.716-6.685-12.716,6.685,2.428-14.16-10.288-10.028,14.217-2.066Z" transform="translate(-2022.518 -627.921)" fill="#fbb213"/>
            <path id="Trazado_102016" data-name="Trazado 102016" d="M2121.887,698.441a23.421,23.421,0,0,0-19.932,11.193l-1.444,8.419,12.716-6.685,12.716,6.685-2.428-14.16,4.693-4.575A23.233,23.233,0,0,0,2121.887,698.441Z" transform="translate(-2043.046 -678.917)" fill="#fff5a2" style="mix-blend-mode: screen;isolation: isolate"/>
            <path id="Trazado_102017" data-name="Trazado 102017" d="M2271.872,627.921l6.358,12.883,14.217,2.066L2282.159,652.9l2.429,14.16-12.716-6.685-12.717,6.685,2.428-14.16L2251.3,642.87l14.218-2.066Z" transform="translate(-2152.085 -627.921)" fill="#fbb213"/>
            <path id="Trazado_102018" data-name="Trazado 102018" d="M2301.059,698.441a23.421,23.421,0,0,0-19.932,11.193l-1.444,8.419,12.716-6.685,12.716,6.685-2.429-14.16,4.694-4.575A23.238,23.238,0,0,0,2301.059,698.441Z" transform="translate(-2172.613 -678.917)" fill="#fff5a2" style="mix-blend-mode: screen;isolation: isolate"/>
            <path id="Trazado_102019" data-name="Trazado 102019" d="M2451.043,627.921,2457.4,640.8l14.217,2.066L2461.331,652.9l2.429,14.16-12.716-6.685-12.717,6.685,2.428-14.16-10.287-10.028,14.217-2.066Z" transform="translate(-2281.652 -627.921)" fill="#20287a"/>
          </g>
        </g>
        <g id="Grupo_54407" data-name="Grupo 54407" transform="translate(301.422 80.789)">
          <path id="Trazado_102020" data-name="Trazado 102020" d="M3138.313,1696.91s1.983,1.963,2.028,2.682.176,8.433-.634,9.152-3.188,1.23-2.424,2.04c.578.612,5.024.481,7.971.317.86-.049,1.939-7,2.28-8.027.494-1.485,2.277-4.718,1.828-5.752-.219-.5-1.847-1.653-3.325-2.621a13.612,13.612,0,0,1-3.042-3.283Z" transform="translate(-3053.51 -1454.665)" fill="#f7a491"/>
          <path id="Trazado_102021" data-name="Trazado 102021" d="M3026.055,1728.372s1.775,5.083,1.777,5.1c.131.8.651,2.795.651,3.527,0,2.75-12.235-2.334-9.493-3.553a2.941,2.941,0,0,0,1.108-1.927,6.5,6.5,0,0,0-1.031-3.251Z" transform="translate(-2967.786 -1481.308)" fill="#f7a491"/>
          <g id="Grupo_54405" data-name="Grupo 54405" transform="translate(35.64 150.961)">
            <path id="Trazado_102022" data-name="Trazado 102022" d="M2966.018,1381.536s-.922,8.41-.922,8.545c0,14.74-1.72,43.53-1.172,46.3,1.336,6.759,15.941,43.545,15.941,43.545l7.568-1.081L2977.3,1435.4l3.731-16.615,5.278-32.844Z" transform="translate(-2963.816 -1381.536)" fill="#2d2861"/>
            <path id="Trazado_102023" data-name="Trazado 102023" d="M3012.47,1390.458l1.476,8.636,3.994,35.541,19.547,36.066s-2.939,4.513-6.1,5.223l-27.744-36.452-15.036-45.635.527-10.138Z" transform="translate(-2981.746 -1383.1)" fill="#352e73"/>
          </g>
          <g id="Grupo_54406" data-name="Grupo 54406">
            <path id="Trazado_102024" data-name="Trazado 102024" d="M2939.274,1027.674a18.832,18.832,0,0,1-1.206,1.706s2.209,23.647,2.385,25.126l6.721,10.173-7.531,5.527s-7.672-12.286-7.742-12.885.246-18.305.246-18.305.564-9.188.564-9.645-1.352-3.42-1.619-4.611a38.766,38.766,0,0,1-.317-4.506l.563-.81,2.613-.572,1.848.211s4.267,1.725,4.434,2.271a28.566,28.566,0,0,1-.4,4.673A9.165,9.165,0,0,1,2939.274,1027.674Z" transform="translate(-2904.282 -968.318)" fill="#f7a491"/>
            <path id="Trazado_102025" data-name="Trazado 102025" d="M2945.939,1032.906a7.987,7.987,0,0,1-1.074,1.777,1.739,1.739,0,0,1-2.692-.422,6.739,6.739,0,0,1-1.038-2.006Z" transform="translate(-2911.775 -977.996)" fill="#fe875e"/>
            <path id="Trazado_102026" data-name="Trazado 102026" d="M2879.958,836.273l-1.269,21.141,16.7,13.031-20.5,5.326-7.234,19.906-11.4-17.85-21.167-.728,13.453-16.358-5.848-20.356,19.715,7.74Z" transform="translate(-2835.086 -836.273)" fill="#fcc13f"/>
            <path id="Trazado_102027" data-name="Trazado 102027" d="M2876.786,937.656a34.529,34.529,0,0,0-33.7-.227l-8,9.727,21.167.729,11.4,17.85,7.234-19.906,9.352-2.43A34.248,34.248,0,0,0,2876.786,937.656Z" transform="translate(-2835.087 -906.33)" fill="#5c5c5c" style="mix-blend-mode: screen;isolation: isolate"/>
            <path id="Trazado_102028" data-name="Trazado 102028" d="M2956.384,1024.577c-.03-.516.053-1.6.053-1.6s-1.094-2.14-.845-2.284c.871-.5,2.578,1.91,2.578,1.91S2956.482,1026.25,2956.384,1024.577Z" transform="translate(-2922.202 -969.587)" fill="#f7a491"/>
            <path id="Trazado_102029" data-name="Trazado 102029" d="M2930.037,1020s-1.184-4.439-.674-5.69c.326-.8,4.715-2.535,5.279-1.76.514.707-3.7,2.172-3.572,2.341.211.282,3.185-1.743,3.731-1.355.612.434-2.87,2.552-2.71,2.887.1.212,2.048-1.814,2.252-.915S2930.037,1020,2930.037,1020Z" transform="translate(-2903.169 -963.603)" fill="#f7a491"/>
            <path id="Trazado_102030" data-name="Trazado 102030" d="M2956.61,1225.435l1.535-21.013h0c.493-5.188.685-9.33.264-10.825-.895-3.181-7.426-13.87-7.426-13.87s6.264-6.97,10.7-6.97c0,0,4.919,9.475,10.763,10.311s4.587.872,6.967,1.122a27.744,27.744,0,0,1,7.576,1.632c4.464,1.86,1.1,18.573.594,21.292-.771,4.11.671,38.727.671,38.727s-12.809,2.884-32.449-6.731Z" transform="translate(-2918.897 -1079.599)" fill="#fc008b"/>
            <path id="Trazado_102031" data-name="Trazado 102031" d="M3027.685,1179.436l1.387,9.363s-5.135,10.908-8.217,9.953c-2.585-.8-.963-10.787-.963-10.787s1.378-5,.954-7.619S3027.685,1179.436,3027.685,1179.436Z" transform="translate(-2968.364 -1084.032)" fill="#f7a491"/>
            <path id="Trazado_102032" data-name="Trazado 102032" d="M3030.126,1182.27a20.565,20.565,0,0,1-5.983,1.8,13.229,13.229,0,0,0,.141-3.72c-.195-1.209,1.247-1.495,2.856-1.453,2.1.193,3.982.543,3.982.543l.267,1.8A4.4,4.4,0,0,1,3030.126,1182.27Z" transform="translate(-2971.802 -1084.035)" fill="#fe875e"/>
            <path id="Trazado_102033" data-name="Trazado 102033" d="M3032.33,1128.714c.218,0-2.089,10.461-5.66,12.26s-8.9.862-9.9-1.956c-1.105-3.116,2.927-13.787,7.949-15.142S3032.33,1128.714,3032.33,1128.714Z" transform="translate(-2966.339 -1044.111)" fill="#f7a491"/>
            <path id="Trazado_102034" data-name="Trazado 102034" d="M3044.743,1264.492l-3.461,20.9,15.25,14.7-20.942,3.165-9.265,19.046-9.481-18.939-20.977-2.926,15.083-14.87-3.7-20.854,18.8,9.749Z" transform="translate(-2951.354 -1145.936)" fill="#fcc13f"/>
            <path id="Trazado_102035" data-name="Trazado 102035" d="M3038.329,1359.034a34.528,34.528,0,0,0-33.493-3.731l-8.969,8.842,20.977,2.926,9.481,18.939,9.266-19.046,9.554-1.443A34.225,34.225,0,0,0,3038.329,1359.034Z" transform="translate(-2951.353 -1209.652)" fill="#5c5c5c" style="mix-blend-mode: screen;isolation: isolate"/>
            <path id="Trazado_102036" data-name="Trazado 102036" d="M3105.572,1282.359s4.574,6.2,4.856,7.287-1.724,26.824-1.83,29.095c0,0,.844,2.746,1.319,4.489s.687,3.036.449,3.379-.976.105-1.267.766-1.135.554-1.4.687-1.042,1.108-1.333,1.082a1.885,1.885,0,0,0-1.016.079,1.708,1.708,0,0,1-1.267.489,1.6,1.6,0,0,1-.888-.445s.466-4.731.123-4.718a2.229,2.229,0,0,0-1.333.7c-.118.29-.066.938-.184,1.228a.766.766,0,0,1-.871.448c-.356-.119-.3-1.742-.3-1.742a5.306,5.306,0,0,1,.528-2.1c1.646-2.7,2-2.321,2.217-2.667.106-.172-.026-6.838-.026-6.838s-.66-18.935-.73-19.955l-4.822-7.147Z" transform="translate(-3025.061 -1158.856)" fill="#f8a492"/>
            <path id="Trazado_102037" data-name="Trazado 102037" d="M3083.194,1237.253l-9.643,7.253s-5.267-7.944-8.093-10.773c-3.542-3.542,1.436-14.793,3.572-13.782C3074.284,1222.44,3083.194,1237.253,3083.194,1237.253Z" transform="translate(-3000.784 -1113.681)" fill="#fc008b"/>
            <path id="Trazado_102038" data-name="Trazado 102038" d="M3044.909,1106.006a11.81,11.81,0,0,1,4.6,5.426c1.339.678,2.959,2.145,3.737,6.1a8.57,8.57,0,0,1-6.047,9.73c-3.6,1.127-4.213,3.672-4.213,3.672l-.357-2.74a11.041,11.041,0,0,1,2.007-3.578c1.206-1.194-.571-2.933-.727-4.352-.12-1.092.633-3.214.47-5.006l-.437-1.483s-1.429-2.275-3.54-2.557S3041.249,1103.753,3044.909,1106.006Z" transform="translate(-2983.05 -1031.012)" fill="#2d2861"/>
            <path id="Trazado_102039" data-name="Trazado 102039" d="M3052.368,1160.642c-.466,1.208-.276,2.407.426,2.679s1.65-.488,2.117-1.7.276-2.408-.426-2.679S3052.835,1159.434,3052.368,1160.642Z" transform="translate(-2992.027 -1069.572)" fill="#f7a491"/>
          </g>
          <path id="Trazado_102040" data-name="Trazado 102040" d="M3143.86,1703.1s-4.572,13.046-6.361,13.676c-.475.167-2.755.591-3.184,1.613a4.447,4.447,0,0,0,0,1.336h9.528s1.2-5.748,1.681-8.274c0,0,2.522-6.171,2.243-6.732S3143.86,1703.1,3143.86,1703.1Z" transform="translate(-3051.428 -1463.113)" fill="#2d2861"/>
          <path id="Trazado_102041" data-name="Trazado 102041" d="M3004.415,1751.359l-1.4-4.486s-2.943,1.262-4.414,1.052a44.219,44.219,0,0,1-4.344-1.052c-5.873,1.959-10.684,2.911-9.809,4.486h19.968Z" transform="translate(-2943.021 -1494.765)" fill="#2d2861"/>
        </g>
      </g>
    </g>
  </g>
</svg>
