<svg xmlns="http://www.w3.org/2000/svg" width="84" height="84" viewBox="0 0 84 84">
  <g id="Grupo_53697" data-name="Grupo 53697" transform="translate(-106 8.21)">
    <circle id="Elipse_3961" data-name="Elipse 3961" cx="42" cy="42" r="42" transform="translate(106 -8.21)" fill="#fed947"/>
    <g id="analitica_2_" data-name="analitica (2)" transform="translate(123 4.79)">
      <path id="Trazado_99500" data-name="Trazado 99500" d="M39.81,10H12.07A2.07,2.07,0,0,0,10,12.07V58.859a2.07,2.07,0,0,0,2.07,2.07H47.677a2.07,2.07,0,0,0,2.07-2.07V19.938Z" transform="translate(-8.965 -8.965)" fill="#fff"/>
      <path id="Trazado_99501" data-name="Trazado 99501" d="M300.045,19.94h7.867L297.975,10v7.867A2.07,2.07,0,0,0,300.045,19.94Z" transform="translate(-267.13 -8.967)" fill="#feda9b"/>
      <rect id="Rectángulo_5110" data-name="Rectángulo 5110" width="6.625" height="9.277" transform="translate(13.043 42.687)" fill="#36d28f"/>
      <rect id="Rectángulo_5111" data-name="Rectángulo 5111" width="6" height="22" transform="translate(35 30)" fill="#72d8ff"/>
      <rect id="Rectángulo_5112" data-name="Rectángulo 5112" width="6" height="15" transform="translate(24 37)" fill="#ffc66c"/>
      <rect id="Rectángulo_5113" data-name="Rectángulo 5113" width="6.625" height="29.321" transform="translate(45.34 22.644)" fill="#4dbaf6"/>
      <path id="Trazado_99502" data-name="Trazado 99502" d="M72.087,100.663h8.486a8.486,8.486,0,1,1-8.486-8.486v8.486Z" transform="translate(-57.017 -82.635)" fill="#36d28f"/>
      <path id="Trazado_99503" data-name="Trazado 99503" d="M145.576,64.729V76.056H156.9A11.327,11.327,0,0,0,145.576,64.729Z" transform="translate(-130.507 -58.029)" fill="#ffc66c"/>
      <path id="Trazado_99504" data-name="Trazado 99504" d="M51.965,21.609H45.34A1.035,1.035,0,0,0,44.3,22.644v5.228a1.035,1.035,0,0,0,2.07,0V23.679H50.93V50.93H46.375V35.635a1.035,1.035,0,0,0-2.07,0V50.93h-2.07V29.5A1.035,1.035,0,0,0,41.2,28.467H34.574A1.035,1.035,0,0,0,33.539,29.5V50.93h-2.07V36.748a1.035,1.035,0,0,0-1.035-1.035H23.809a1.035,1.035,0,0,0-1.035,1.035V50.93H20.7V42.687a1.035,1.035,0,0,0-1.035-1.035H13.043a1.035,1.035,0,0,0-1.035,1.035V50.93h-8.9A1.036,1.036,0,0,1,2.07,49.895V3.105A1.036,1.036,0,0,1,3.105,2.07h26.7V8.9a3.109,3.109,0,0,0,3.105,3.105h6.832V24.74a1.035,1.035,0,0,0,2.07,0V10.973a1.035,1.035,0,0,0-.3-.732L31.577.3a1.035,1.035,0,0,0-.732-.3H3.105A3.109,3.109,0,0,0,0,3.105V49.895A3.109,3.109,0,0,0,3.105,53H51.965A1.035,1.035,0,0,0,53,51.965V22.644A1.035,1.035,0,0,0,51.965,21.609ZM31.88,8.9V3.534l6.4,6.4H32.915A1.036,1.036,0,0,1,31.88,8.9ZM14.078,50.93V43.722h4.555V50.93Zm10.766,0V37.783H29.4V50.93Zm10.766,0V30.537h4.555V50.93Z" fill="#20287a"/>
      <path id="Trazado_99505" data-name="Trazado 99505" d="M429.035,296.96a1.036,1.036,0,1,0-.732-.3A1.043,1.043,0,0,0,429.035,296.96Z" transform="translate(-383.695 -264.364)" fill="#20287a"/>
      <path id="Trazado_99506" data-name="Trazado 99506" d="M63.123,54.729a1.035,1.035,0,0,0-1.035,1.035v1.862a9.521,9.521,0,1,0,10.5,10.5H74.45a1.035,1.035,0,0,0,1.035-1.035A12.376,12.376,0,0,0,63.123,54.729Zm0,19.813a7.451,7.451,0,0,1-1.035-14.829v7.379a1.035,1.035,0,0,0,1.035,1.035H70.5A7.462,7.462,0,0,1,63.123,74.542Zm1.035-8.486V56.851a10.312,10.312,0,0,1,9.205,9.205H64.158Z" transform="translate(-48.053 -49.064)" fill="#20287a"/>
      <path id="Trazado_99507" data-name="Trazado 99507" d="M75.842,295.285a1.035,1.035,0,0,0-1.035-1.035H55.035a1.035,1.035,0,0,0,0,2.07H74.807A1.035,1.035,0,0,0,75.842,295.285Z" transform="translate(-48.41 -263.791)" fill="#20287a"/>
      <path id="Trazado_99508" data-name="Trazado 99508" d="M55.035,342.5a1.035,1.035,0,0,0,0,2.07H61.66a1.035,1.035,0,0,0,0-2.07Z" transform="translate(-48.41 -307.046)" fill="#20287a"/>
      <path id="Trazado_99509" data-name="Trazado 99509" d="M168.383,342.8a1.035,1.035,0,1,0,.732-.3A1.039,1.039,0,0,0,168.383,342.8Z" transform="translate(-150.681 -307.046)" fill="#20287a"/>
    </g>
  </g>
</svg>
