<svg xmlns="http://www.w3.org/2000/svg" width="84" height="84" viewBox="0 0 84 84">
  <g id="Grupo_53696" data-name="Grupo 53696" transform="translate(-106 8.21)">
    <circle id="Elipse_3960" data-name="Elipse 3960" cx="42" cy="42" r="42" transform="translate(106 -8.21)" fill="#fed947"/>
    <g id="metrica" transform="translate(95.059 4.79)">
      <path id="Trazado_99489" data-name="Trazado 99489" d="M78.234,10H39.266A2.266,2.266,0,0,0,37,12.266v51.2a2.266,2.266,0,0,0,2.266,2.266H78.234A2.266,2.266,0,0,0,80.5,63.469v-51.2A2.266,2.266,0,0,0,78.234,10Z" transform="translate(-8.867 -8.867)" fill="#fff"/>
      <path id="Trazado_99490" data-name="Trazado 99490" d="M108.036,77.975l-7.72-7.72L89,81.571V86.9h31.719v-21.6Z" transform="translate(-54.977 -57.896)" fill="#ade5ff"/>
      <circle id="Elipse_3963" data-name="Elipse 3963" cx="10.871" cy="10.871" r="10.871" transform="translate(55.94 35.148)" fill="#ff5d5d"/>
      <circle id="Elipse_3964" data-name="Elipse 3964" cx="6.306" cy="6.306" r="6.306" transform="translate(60.569 39.686)" fill="#fff"/>
      <circle id="Elipse_3965" data-name="Elipse 3965" cx="2.249" cy="2.249" r="2.249" transform="translate(64.638 43.695)" fill="#ff5d5d"/>
      <path id="Trazado_99491" data-name="Trazado 99491" d="M56,55.734H30.4A1.134,1.134,0,0,1,29.266,54.6V3.4A1.134,1.134,0,0,1,30.4,2.266H69.367A1.134,1.134,0,0,1,70.5,3.4V25.991a1.133,1.133,0,0,0,2.266,0V3.4a3.4,3.4,0,0,0-3.4-3.4H30.4A3.4,3.4,0,0,0,27,3.4V54.6A3.4,3.4,0,0,0,30.4,58H56a1.133,1.133,0,0,0,0-2.266Z" fill="#20287a"/>
      <path id="Trazado_99492" data-name="Trazado 99492" d="M412.133,254a1.133,1.133,0,1,0,.8.332A1.141,1.141,0,0,0,412.133,254Z" transform="translate(-340.5 -225.227)" fill="#20287a"/>
      <path id="Trazado_99493" data-name="Trazado 99493" d="M80.133,56.266a1.133,1.133,0,1,0-.8-.332A1.141,1.141,0,0,0,80.133,56.266Z" transform="translate(-46.109 -47.883)" fill="#20287a"/>
      <path id="Trazado_99494" data-name="Trazado 99494" d="M112.726,56.58a1.133,1.133,0,1,0-1.6-1.6L99.169,66.933,92.25,60.014a1.133,1.133,0,0,0-1.6,0L81.266,69.4V60.271a1.133,1.133,0,0,0-2.266,0V77.456a1.133,1.133,0,0,0,1.133,1.133h31.719a1.133,1.133,0,0,0,1.133-1.133v-14.5a1.133,1.133,0,0,0-2.266,0V76.323h-4.078V62.665ZM98.031,76.323H93.953v-11.4L98.031,69ZM91.449,62.417l.238.238V76.323H87.609V66.257ZM81.266,72.6l4.078-4.078v7.8H81.266Zm23.109,3.722H100.3V69.009l4.078-4.078Z" transform="translate(-46.109 -48.456)" fill="#20287a"/>
      <path id="Trazado_99495" data-name="Trazado 99495" d="M90.441,294H80.133a1.133,1.133,0,0,0,0,2.266H90.441a1.133,1.133,0,0,0,0-2.266Z" transform="translate(-46.109 -260.695)" fill="#20287a"/>
      <path id="Trazado_99496" data-name="Trazado 99496" d="M90.441,342H80.133a1.133,1.133,0,0,0,0,2.266H90.441a1.133,1.133,0,0,0,0-2.266Z" transform="translate(-46.109 -303.258)" fill="#20287a"/>
      <path id="Trazado_99497" data-name="Trazado 99497" d="M90.441,390H80.133a1.133,1.133,0,1,0,0,2.266H90.441a1.133,1.133,0,1,0,0-2.266Z" transform="translate(-46.109 -345.82)" fill="#20287a"/>
      <path id="Trazado_99498" data-name="Trazado 99498" d="M90.441,438H80.133a1.133,1.133,0,0,0,0,2.266H90.441a1.133,1.133,0,0,0,0-2.266Z" transform="translate(-46.109 -388.383)" fill="#20287a"/>
      <path id="Trazado_99499" data-name="Trazado 99499" d="M278.529,293.522a11.953,11.953,0,0,0-7.648,2.758l-.017-.017v-2.435a1.133,1.133,0,1,0-2.266,0V294l-.97-.97a1.133,1.133,0,0,0-1.6,1.6l.971.97h-.17a1.133,1.133,0,0,0,0,2.266h2.435l.017.017a12,12,0,1,0,9.25-4.36Zm0,21.75a9.734,9.734,0,0,1-7.638-15.778l1.614,1.614a7.487,7.487,0,1,0,1.6-1.6l-1.614-1.614a9.739,9.739,0,1,1,6.036,17.381Zm-3.066-11.206a3.4,3.4,0,1,0,1.6-1.6l-1.329-1.329a5.218,5.218,0,1,1-1.6,1.6Zm2.007,1.537a1.131,1.131,0,0,0,1.129-1.2,1.132,1.132,0,1,1-1.2,1.2C277.423,305.6,277.446,305.6,277.47,305.6Z" transform="translate(-211.654 -259.537)" fill="#20287a"/>
    </g>
  </g>
</svg>
