<svg xmlns="http://www.w3.org/2000/svg" xmlns:xlink="http://www.w3.org/1999/xlink" width="393.978" height="284.876" viewBox="0 0 393.978 284.876">
  <defs>
    <linearGradient id="linear-gradient" x1="-1.336" y1="1.766" x2="-2.08" y2="0.974" gradientUnits="objectBoundingBox">
      <stop offset="0" stop-color="#dae3fe"/>
      <stop offset="1" stop-color="#e9effd"/>
    </linearGradient>
    <linearGradient id="linear-gradient-2" x1="0.513" y1="-0.374" x2="0.485" y2="1.126" gradientUnits="objectBoundingBox">
      <stop offset="0" stop-color="#09005d"/>
      <stop offset="1" stop-color="#1a0f91"/>
    </linearGradient>
    <linearGradient id="linear-gradient-3" x1="0.491" y1="-0.369" x2="0.327" y2="-15.877" xlink:href="#linear-gradient-2"/>
    <linearGradient id="linear-gradient-4" x1="0.634" y1="-3.17" x2="0.445" y2="1.997" gradientUnits="objectBoundingBox">
      <stop offset="0" stop-color="#4f52ff"/>
      <stop offset="1" stop-color="#4042e2"/>
    </linearGradient>
    <linearGradient id="linear-gradient-5" x1="0.628" y1="-2.189" x2="0.44" y2="1.767" xlink:href="#linear-gradient-4"/>
    <linearGradient id="linear-gradient-6" x1="0.638" y1="-4.497" x2="0.449" y2="2.331" xlink:href="#linear-gradient-4"/>
    <linearGradient id="linear-gradient-7" x1="0.623" y1="-1.63" x2="0.434" y2="1.641" xlink:href="#linear-gradient-4"/>
    <linearGradient id="linear-gradient-8" x1="-0.575" y1="0.642" x2="3.114" y2="0.155" xlink:href="#linear-gradient-4"/>
    <linearGradient id="linear-gradient-9" x1="0.641" y1="-6.369" x2="0.452" y2="2.818" xlink:href="#linear-gradient-4"/>
    <linearGradient id="linear-gradient-10" x1="0.631" y1="-2.684" x2="0.442" y2="1.915" xlink:href="#linear-gradient-4"/>
    <linearGradient id="linear-gradient-11" x1="0.627" y1="-2.166" x2="0.438" y2="1.791" xlink:href="#linear-gradient-4"/>
    <linearGradient id="linear-gradient-12" x1="0.632" y1="-2.986" x2="0.443" y2="2.002" xlink:href="#linear-gradient-4"/>
    <linearGradient id="linear-gradient-13" x1="0.619" y1="-1.396" x2="0.43" y2="1.606" xlink:href="#linear-gradient-4"/>
    <linearGradient id="linear-gradient-14" x1="0.622" y1="-1.607" x2="0.433" y2="1.664" xlink:href="#linear-gradient-4"/>
    <linearGradient id="linear-gradient-15" x1="0.625" y1="-1.977" x2="0.436" y2="1.763" xlink:href="#linear-gradient-4"/>
    <linearGradient id="linear-gradient-16" x1="0.544" y1="-0.214" x2="0.464" y2="1.083" gradientUnits="objectBoundingBox">
      <stop offset="0" stop-color="#ff928e"/>
      <stop offset="1" stop-color="#fe7062"/>
    </linearGradient>
    <linearGradient id="linear-gradient-17" x1="0.745" y1="-0.668" x2="0.319" y2="1.593" xlink:href="#linear-gradient-16"/>
    <linearGradient id="linear-gradient-18" x1="1.27" y1="-0.726" x2="0.733" y2="-0.133" xlink:href="#linear-gradient-16"/>
    <linearGradient id="linear-gradient-19" x1="0.58" y1="-1.44" x2="0.388" y2="3.173" xlink:href="#linear-gradient-4"/>
    <linearGradient id="linear-gradient-20" x1="0" y1="0.5" x2="1" y2="0.5" xlink:href="#linear-gradient"/>
    <linearGradient id="linear-gradient-21" x1="0.955" y1="-0.323" x2="-0.391" y2="2.114" xlink:href="#linear-gradient-16"/>
    <linearGradient id="linear-gradient-22" x1="2.056" y1="-9.643" x2="-0.011" y2="3.885" xlink:href="#linear-gradient-16"/>
    <linearGradient id="linear-gradient-23" x1="1.837" y1="-9.417" x2="-0.089" y2="5.084" gradientUnits="objectBoundingBox">
      <stop offset="0" stop-color="#febbba"/>
      <stop offset="1" stop-color="#ff928e"/>
    </linearGradient>
    <linearGradient id="linear-gradient-24" x1="0.704" y1="-0.611" x2="0.415" y2="0.961" gradientUnits="objectBoundingBox">
      <stop offset="0" stop-color="#e1473d"/>
      <stop offset="1" stop-color="#e9605a"/>
    </linearGradient>
    <linearGradient id="linear-gradient-25" x1="0.934" y1="-2.822" x2="0.713" y2="-1.128" xlink:href="#linear-gradient-16"/>
    <linearGradient id="linear-gradient-26" x1="1.659" y1="-4.729" x2="1.073" y2="-2.086" xlink:href="#linear-gradient-16"/>
    <linearGradient id="linear-gradient-27" x1="0.721" y1="-0.706" x2="0.433" y2="0.867" xlink:href="#linear-gradient-24"/>
    <linearGradient id="linear-gradient-28" x1="0.943" y1="-2.892" x2="0.722" y2="-1.198" xlink:href="#linear-gradient-16"/>
    <linearGradient id="linear-gradient-29" x1="1.683" y1="-4.839" x2="1.097" y2="-2.196" xlink:href="#linear-gradient-16"/>
    <linearGradient id="linear-gradient-30" x1="0.739" y1="-0.8" x2="0.45" y2="0.772" xlink:href="#linear-gradient-24"/>
    <linearGradient id="linear-gradient-31" x1="0.953" y1="-2.963" x2="0.731" y2="-1.269" xlink:href="#linear-gradient-16"/>
    <linearGradient id="linear-gradient-32" x1="1.708" y1="-4.95" x2="1.122" y2="-2.307" xlink:href="#linear-gradient-16"/>
    <linearGradient id="linear-gradient-33" x1="0.678" y1="-0.47" x2="0.458" y2="0.729" xlink:href="#linear-gradient-24"/>
    <linearGradient id="linear-gradient-34" x1="0.838" y1="-2.09" x2="0.67" y2="-0.798" xlink:href="#linear-gradient-16"/>
    <linearGradient id="linear-gradient-35" x1="1.406" y1="-3.587" x2="0.959" y2="-1.572" xlink:href="#linear-gradient-16"/>
    <linearGradient id="linear-gradient-36" x1="-12.374" y1="-0.346" x2="-12.01" y2="0.297" xlink:href="#linear-gradient-2"/>
    <linearGradient id="linear-gradient-37" x1="0.014" y1="0.963" x2="1.151" y2="-0.159" xlink:href="#linear-gradient-23"/>
    <linearGradient id="linear-gradient-38" x1="-34.216" y1="8.795" x2="-35.233" y2="18.426" xlink:href="#linear-gradient-2"/>
    <linearGradient id="linear-gradient-39" x1="-30.291" y1="1.602" x2="-29.257" y2="-1.187" xlink:href="#linear-gradient-23"/>
    <linearGradient id="linear-gradient-40" x1="-26.276" y1="5.865" x2="-26.904" y2="12.429" xlink:href="#linear-gradient-2"/>
    <linearGradient id="linear-gradient-41" x1="-11.385" y1="1.698" x2="-10.921" y2="-1.193" xlink:href="#linear-gradient-23"/>
    <linearGradient id="linear-gradient-42" x1="7.39" y1="-4.216" x2="3.559" y2="-1.59" xlink:href="#linear-gradient-16"/>
    <linearGradient id="linear-gradient-43" x1="1.366" y1="0.051" x2="-1.47" y2="1.776" xlink:href="#linear-gradient-24"/>
    <linearGradient id="linear-gradient-44" x1="-40.249" y1="1.857" x2="-39.994" y2="0.807" xlink:href="#linear-gradient-23"/>
    <linearGradient id="linear-gradient-45" x1="-29.346" y1="-1.052" x2="-27.813" y2="-3.305" xlink:href="#linear-gradient-23"/>
    <linearGradient id="linear-gradient-46" x1="-23.636" y1="-2.394" x2="-23.005" y2="-0.991" xlink:href="#linear-gradient-2"/>
    <linearGradient id="linear-gradient-47" x1="-109.46" y1="-4.094" x2="-103.667" y2="-11.235" xlink:href="#linear-gradient-23"/>
    <linearGradient id="linear-gradient-48" x1="-2.493" y1="3.361" x2="0.784" y2="0.226" xlink:href="#linear-gradient-23"/>
    <linearGradient id="linear-gradient-49" x1="1.531" y1="-1.001" x2="4.131" y2="-4.492" xlink:href="#linear-gradient-23"/>
    <linearGradient id="linear-gradient-50" x1="-16.67" y1="-7.099" x2="-17.409" y2="-4.636" xlink:href="#linear-gradient-2"/>
    <linearGradient id="linear-gradient-51" x1="-13.689" y1="0.133" x2="-14.087" y2="0.802" xlink:href="#linear-gradient-2"/>
    <linearGradient id="linear-gradient-52" x1="-97.617" y1="-0.758" x2="-98.833" y2="2.193" xlink:href="#linear-gradient-4"/>
    <linearGradient id="linear-gradient-53" x1="-0.799" y1="1.009" x2="1.025" y2="0.359" xlink:href="#linear-gradient-23"/>
    <linearGradient id="linear-gradient-54" x1="0.488" y1="0.716" x2="0.366" y2="2.834" xlink:href="#linear-gradient-16"/>
    <linearGradient id="linear-gradient-55" x1="3.733" y1="-3.988" x2="0.652" y2="0.289" xlink:href="#linear-gradient-16"/>
    <linearGradient id="linear-gradient-56" x1="4.185" y1="-3.27" x2="0.146" y2="1.007" xlink:href="#linear-gradient-16"/>
    <linearGradient id="linear-gradient-57" x1="2.936" y1="-2.522" x2="-0.443" y2="1.755" xlink:href="#linear-gradient-16"/>
  </defs>
  <g id="Grupo_53700" data-name="Grupo 53700" transform="translate(-1010.021 -803.061)">
    <g id="Image_Place_Holder" data-name="Image Place Holder" transform="translate(1010.021 821.245)" opacity="0.1">
      <rect id="Image_Place_Holder-2" data-name="Image Place Holder" width="393.978" height="266.693" rx="10" fill="#d64626"/>
    </g>
    <g id="Grupo_53609" data-name="Grupo 53609" transform="translate(613.001 348.061)">
      <path id="Trazado_99765" data-name="Trazado 99765" d="M472.859,551.421c19.984-62.7,86.019-95.372,140.22-96.347,14.8-.266,44.576-.8,69.794,18.462,48.43,37,50.269,124.268,12.972,179.488-4.8,7.111-38.2,54.876-97.144,60.177-43.159,3.881-75.831-17.183-79.811-19.817a118.446,118.446,0,0,1-26.851-24.68C466.968,637.292,460.371,590.6,472.859,551.421Z" transform="translate(-8.547 0)" fill="url(#linear-gradient)"/>
      <g id="Grupo_53584" data-name="Grupo 53584" transform="translate(457.273 538.532)">
        <g id="Grupo_53556" data-name="Grupo 53556" transform="translate(0 0)">
          <path id="Trazado_99766" data-name="Trazado 99766" d="M556.326,1486.232a4.264,4.264,0,0,0,4.254,4.25H790.607a4.264,4.264,0,0,0,4.254-4.25l1.914-132.19a7.408,7.408,0,0,0-7.8-6.558l-224.808-5.817a10.719,10.719,0,0,0-11,10.964Z" transform="translate(-544.13 -1341.664)" fill="url(#linear-gradient-2)"/>
          <path id="Trazado_99767" data-name="Trazado 99767" d="M600.474,1530.622a4.036,4.036,0,0,0,4.024,4.024h220.51a4.036,4.036,0,0,0,4.024-4.024l1.806-120c-.213-7.222-6.544-9.817-10.382-9.664L605,1395.174a7.534,7.534,0,0,0-7.729,7.709Z" transform="translate(-584.078 -1390.131)" fill="#7d97f4"/>
          <path id="Trazado_99768" data-name="Trazado 99768" d="M647.58,1551.928a3.892,3.892,0,0,0,3.908,3.851H865.626a3.892,3.892,0,0,0,3.908-3.851l1.754-114.845c-.207-6.911-6.355-9.395-10.082-9.248L651.974,1422.3a7.367,7.367,0,0,0-5.358,2.1,7.148,7.148,0,0,0-2.148,5.276Z" transform="translate(-626.831 -1414.703)" fill="#91b3fa"/>
          <g id="Grupo_53555" data-name="Grupo 53555" transform="translate(164.924 11.265)">
            <path id="Trazado_99769" data-name="Trazado 99769" d="M3026.433,1971.787h-.009a.53.53,0,0,1-.581-.462l.143-7.51a.538.538,0,0,1,.589-.448h.009a.531.531,0,0,1,.581.462l-.143,7.51A.539.539,0,0,1,3026.433,1971.787Z" transform="translate(-2948.786 -1916.063)" fill="#bdd0fb"/>
            <path id="Trazado_99770" data-name="Trazado 99770" d="M2285.9,1498.566h-.009a.531.531,0,0,1-.581-.462l.547-28.762a4.814,4.814,0,0,0-2-4.045c-2.455-1.815-6.354-1.723-6.518-1.717l-68.865-1.425a.527.527,0,0,1-.574-.467.521.521,0,0,1,.606-.442l68.824,1.425c.428-.02,4.579-.075,7.343,1.969a5.614,5.614,0,0,1,2.361,4.707l-.547,28.771A.538.538,0,0,1,2285.9,1498.566Z" transform="translate(-2207.901 -1461.244)" fill="#bdd0fb"/>
          </g>
          <rect id="Rectángulo_5159" data-name="Rectángulo 5159" width="260.018" height="11.615" rx="5.654" transform="translate(260.018 159.791) rotate(180)" fill="url(#linear-gradient-3)"/>
        </g>
        <g id="Grupo_53583" data-name="Grupo 53583" transform="translate(21.941 46.306)">
          <g id="Grupo_53569" data-name="Grupo 53569" opacity="0.57">
            <g id="Grupo_53557" data-name="Grupo 53557" opacity="0.67">
              <rect id="Rectángulo_5160" data-name="Rectángulo 5160" width="13.419" height="93.368" fill="#fff"/>
            </g>
            <g id="Grupo_53558" data-name="Grupo 53558" transform="translate(18.022)" opacity="0.67">
              <rect id="Rectángulo_5161" data-name="Rectángulo 5161" width="13.419" height="93.368" fill="#fff"/>
            </g>
            <g id="Grupo_53559" data-name="Grupo 53559" transform="translate(35.668)" opacity="0.67">
              <rect id="Rectángulo_5162" data-name="Rectángulo 5162" width="13.419" height="93.368" fill="#fff"/>
            </g>
            <g id="Grupo_53560" data-name="Grupo 53560" transform="translate(53.69)" opacity="0.67">
              <rect id="Rectángulo_5163" data-name="Rectángulo 5163" width="13.419" height="93.368" fill="#fff"/>
            </g>
            <g id="Grupo_53561" data-name="Grupo 53561" transform="translate(70.8)" opacity="0.67">
              <rect id="Rectángulo_5164" data-name="Rectángulo 5164" width="13.419" height="93.368" fill="#fff"/>
            </g>
            <g id="Grupo_53562" data-name="Grupo 53562" transform="translate(88.822)" opacity="0.67">
              <rect id="Rectángulo_5165" data-name="Rectángulo 5165" width="13.419" height="93.368" fill="#fff"/>
            </g>
            <g id="Grupo_53563" data-name="Grupo 53563" transform="translate(106.467)" opacity="0.67">
              <rect id="Rectángulo_5166" data-name="Rectángulo 5166" width="13.419" height="93.368" fill="#fff"/>
            </g>
            <g id="Grupo_53564" data-name="Grupo 53564" transform="translate(124.489)" opacity="0.67">
              <rect id="Rectángulo_5167" data-name="Rectángulo 5167" width="13.419" height="93.368" fill="#fff"/>
            </g>
            <g id="Grupo_53565" data-name="Grupo 53565" transform="translate(142.45)" opacity="0.67">
              <rect id="Rectángulo_5168" data-name="Rectángulo 5168" width="13.419" height="93.368" fill="#fff"/>
            </g>
            <g id="Grupo_53566" data-name="Grupo 53566" transform="translate(160.472)" opacity="0.67">
              <rect id="Rectángulo_5169" data-name="Rectángulo 5169" width="13.419" height="93.368" fill="#fff"/>
            </g>
            <g id="Grupo_53567" data-name="Grupo 53567" transform="translate(178.118)" opacity="0.67">
              <rect id="Rectángulo_5170" data-name="Rectángulo 5170" width="13.419" height="93.368" fill="#fff"/>
            </g>
            <g id="Grupo_53568" data-name="Grupo 53568" transform="translate(196.14)" opacity="0.67">
              <rect id="Rectángulo_5171" data-name="Rectángulo 5171" width="13.419" height="93.368" fill="#fff"/>
            </g>
          </g>
          <g id="Grupo_53582" data-name="Grupo 53582" transform="translate(0.081 10.221)">
            <g id="Grupo_53570" data-name="Grupo 53570" transform="translate(0 38.073)">
              <rect id="Rectángulo_5172" data-name="Rectángulo 5172" width="13.419" height="45.074" fill="url(#linear-gradient-4)"/>
            </g>
            <g id="Grupo_53571" data-name="Grupo 53571" transform="translate(18.022 24.274)">
              <rect id="Rectángulo_5173" data-name="Rectángulo 5173" width="13.419" height="58.873" fill="url(#linear-gradient-5)"/>
            </g>
            <g id="Grupo_53572" data-name="Grupo 53572" transform="translate(35.668 49.047)">
              <rect id="Rectángulo_5174" data-name="Rectángulo 5174" width="13.419" height="34.1" fill="url(#linear-gradient-6)"/>
            </g>
            <g id="Grupo_53573" data-name="Grupo 53573" transform="translate(53.69 11.924)">
              <rect id="Rectángulo_5175" data-name="Rectángulo 5175" width="13.419" height="71.223" fill="url(#linear-gradient-7)"/>
            </g>
            <g id="Grupo_53574" data-name="Grupo 53574" transform="translate(70.8)">
              <rect id="Rectángulo_5176" data-name="Rectángulo 5176" width="13.419" height="83.147" fill="url(#linear-gradient-8)"/>
            </g>
            <g id="Grupo_53575" data-name="Grupo 53575" transform="translate(88.822 57.811)">
              <rect id="Rectángulo_5177" data-name="Rectángulo 5177" width="13.419" height="25.336" fill="url(#linear-gradient-9)"/>
            </g>
            <g id="Grupo_53576" data-name="Grupo 53576" transform="translate(106.467 32.505)">
              <rect id="Rectángulo_5178" data-name="Rectángulo 5178" width="13.419" height="50.643" transform="translate(0)" fill="url(#linear-gradient-10)"/>
            </g>
            <g id="Grupo_53577" data-name="Grupo 53577" transform="translate(124.489 24.274)">
              <rect id="Rectángulo_5179" data-name="Rectángulo 5179" width="13.419" height="58.873" fill="url(#linear-gradient-11)"/>
            </g>
            <g id="Grupo_53578" data-name="Grupo 53578" transform="translate(142.45 36.463)">
              <rect id="Rectángulo_5180" data-name="Rectángulo 5180" width="13.419" height="46.684" fill="url(#linear-gradient-12)"/>
            </g>
            <g id="Grupo_53579" data-name="Grupo 53579" transform="translate(160.472 5.536)">
              <rect id="Rectángulo_5181" data-name="Rectángulo 5181" width="13.419" height="77.611" fill="url(#linear-gradient-13)"/>
            </g>
            <g id="Grupo_53580" data-name="Grupo 53580" transform="translate(178.118 11.924)">
              <rect id="Rectángulo_5182" data-name="Rectángulo 5182" width="13.419" height="71.223" fill="url(#linear-gradient-14)"/>
            </g>
            <g id="Grupo_53581" data-name="Grupo 53581" transform="translate(196.14 20.865)">
              <rect id="Rectángulo_5183" data-name="Rectángulo 5183" width="13.419" height="62.283" fill="url(#linear-gradient-15)"/>
            </g>
          </g>
        </g>
      </g>
      <g id="Grupo_53588" data-name="Grupo 53588" transform="translate(534.324 527.695)">
        <rect id="Rectángulo_5184" data-name="Rectángulo 5184" width="138.45" height="65.79" rx="27.561" transform="translate(0 0)" fill="url(#linear-gradient-16)"/>
        <rect id="Rectángulo_5185" data-name="Rectángulo 5185" width="131.698" height="60.785" rx="27.561" transform="translate(3.123 2.166)" fill="#fff" opacity="0.67"/>
        <g id="Grupo_53585" data-name="Grupo 53585" transform="translate(6.367 5.359)">
          <path id="Trazado_99771" data-name="Trazado 99771" d="M1636.782,1352.9a25.706,25.706,0,0,0-9.143-37.056L1615.5,1338.5Z" transform="translate(-1589.801 -1312.799)" fill="url(#linear-gradient-17)"/>
          <path id="Trazado_99772" data-name="Trazado 99772" d="M1577.807,1286.571a25.791,25.791,0,0,0-17.324-2.522l5.183,25.174Z" transform="translate(-1539.969 -1283.526)" fill="url(#linear-gradient-18)"/>
          <path id="Trazado_99773" data-name="Trazado 99773" d="M1420.513,1289.077a25.683,25.683,0,0,0-14.558,8.724l19.741,16.451Z" transform="translate(-1399.998 -1288.554)" fill="#91b3fa"/>
          <path id="Trazado_99774" data-name="Trazado 99774" d="M1390.162,1556.3l-23.437,10.554a25.705,25.705,0,0,0,44.721,3.849Z" transform="translate(-1364.465 -1530.6)" fill="url(#linear-gradient-19)"/>
          <path id="Trazado_99775" data-name="Trazado 99775" d="M1367.617,1381.677a25.689,25.689,0,0,0-3.987,6.571c9.1,3.562,23.728,9.879,23.728,9.879Z" transform="translate(-1361.661 -1372.43)" fill="url(#linear-gradient-20)"/>
          <path id="Trazado_99776" data-name="Trazado 99776" d="M1344.7,1451.429a25.767,25.767,0,0,0,.292,20.434l23.436-10.554S1353.8,1454.991,1344.7,1451.429Z" transform="translate(-1342.728 -1435.611)" fill="#7d97f4"/>
        </g>
        <g id="Grupo_53586" data-name="Grupo 53586" transform="translate(64.17 14.857)" opacity="0.78">
          <path id="Trazado_99777" data-name="Trazado 99777" d="M1981.523,1384.341H1958.07a1.417,1.417,0,1,0,0,2.741h23.453a1.417,1.417,0,1,0,0-2.741Z" transform="translate(-1956.293 -1384.341)" fill="#fff"/>
          <path id="Trazado_99778" data-name="Trazado 99778" d="M1981.523,1448.765H1958.07a1.417,1.417,0,1,0,0,2.741h23.453a1.417,1.417,0,1,0,0-2.741Z" transform="translate(-1956.293 -1442.696)" fill="#fff"/>
          <path id="Trazado_99779" data-name="Trazado 99779" d="M1981.523,1706.458H1958.07a1.417,1.417,0,1,0,0,2.741h23.453a1.417,1.417,0,1,0,0-2.741Z" transform="translate(-1956.293 -1676.112)" fill="#fff"/>
          <path id="Trazado_99780" data-name="Trazado 99780" d="M1981.523,1642.035H1958.07a1.417,1.417,0,1,0,0,2.742h23.453a1.417,1.417,0,1,0,0-2.742Z" transform="translate(-1956.293 -1617.758)" fill="#fff"/>
          <path id="Trazado_99781" data-name="Trazado 99781" d="M1981.523,1577.611H1958.07a1.417,1.417,0,1,0,0,2.741h23.453a1.417,1.417,0,1,0,0-2.741Z" transform="translate(-1956.293 -1559.403)" fill="#fff"/>
        </g>
        <g id="Grupo_53587" data-name="Grupo 53587" transform="translate(102.552 14.986)" opacity="0.78">
          <path id="Trazado_99782" data-name="Trazado 99782" d="M2388.936,1385.707h-23.453a1.417,1.417,0,1,0,0,2.741h23.453a1.417,1.417,0,1,0,0-2.741Z" transform="translate(-2363.706 -1385.707)" fill="#fff"/>
          <path id="Trazado_99783" data-name="Trazado 99783" d="M2388.936,1450.13h-23.453a1.417,1.417,0,1,0,0,2.741h23.453a1.417,1.417,0,1,0,0-2.741Z" transform="translate(-2363.706 -1444.061)" fill="#fff"/>
          <path id="Trazado_99784" data-name="Trazado 99784" d="M2388.936,1707.824h-23.453a1.417,1.417,0,1,0,0,2.741h23.453a1.417,1.417,0,1,0,0-2.741Z" transform="translate(-2363.706 -1677.478)" fill="#fff"/>
          <path id="Trazado_99785" data-name="Trazado 99785" d="M2388.936,1643.4h-23.453a1.417,1.417,0,1,0,0,2.741h23.453a1.417,1.417,0,1,0,0-2.741Z" transform="translate(-2363.706 -1619.123)" fill="#fff"/>
          <path id="Trazado_99786" data-name="Trazado 99786" d="M2388.936,1578.977h-23.453a1.417,1.417,0,1,0,0,2.741h23.453a1.417,1.417,0,1,0,0-2.741Z" transform="translate(-2363.706 -1560.769)" fill="#fff"/>
        </g>
      </g>
      <g id="Grupo_53590" data-name="Grupo 53590" transform="translate(477.825 523.353)">
        <path id="Trazado_99787" data-name="Trazado 99787" d="M678.243,1249.8H721.1a2.474,2.474,0,0,0,2.474-2.474v-64.19a2.475,2.475,0,0,0-2.468-2.475l-43.2-.116a2.474,2.474,0,0,0-2.481,2.488l.343,64.306A2.475,2.475,0,0,0,678.243,1249.8Z" transform="translate(-675.426 -1180.548)" fill="url(#linear-gradient-21)"/>
        <path id="Trazado_99788" data-name="Trazado 99788" d="M703.333,1214.168l38.321.236a2.511,2.511,0,0,1,2.5,2.523l-.267,57.613a2.511,2.511,0,0,1-2.465,2.5l-37.234.679a2.511,2.511,0,0,1-2.556-2.475l-.82-58.529A2.511,2.511,0,0,1,703.333,1214.168Z" transform="translate(-698.415 -1211)" fill="#fff" opacity="0.6"/>
        <rect id="Rectángulo_5186" data-name="Rectángulo 5186" width="31.029" height="1.766" rx="0.883" transform="translate(6.476 5.644)" fill="#fff" opacity="0.6"/>
        <path id="Trazado_99789" data-name="Trazado 99789" d="M779.12,1276.091h0a.751.751,0,0,0,.736.71l25.822.47a.751.751,0,0,0,.765-.751v-.061a.751.751,0,0,0-.739-.751l-25.823-.409A.751.751,0,0,0,779.12,1276.091Z" transform="translate(-769.35 -1266.373)" fill="#fff" opacity="0.6"/>
        <path id="Trazado_99790" data-name="Trazado 99790" d="M722.177,1366.8a2.181,2.181,0,0,1-2.176-2.138l-.838-47.121a2.179,2.179,0,0,1,2.133-2.214l34.865-.679a2.176,2.176,0,0,1,2.218,2.134l.9,47.38a2.176,2.176,0,0,1-2.15,2.217l-34.926.419Zm34.028-51.368h-.028l-34.865.679a1.394,1.394,0,0,0-1.365,1.417h0l.838,47.121a1.4,1.4,0,0,0,1.392,1.367h.017l34.926-.419a1.392,1.392,0,0,0,1.375-1.418l-.9-47.38a1.393,1.393,0,0,0-1.391-1.366Z" transform="translate(-715.043 -1302.016)" fill="#fff" opacity="0.61"/>
        <path id="Trazado_99791" data-name="Trazado 99791" d="M762.4,1365.756H724.36a.392.392,0,1,1,0-.784H762.4a.392.392,0,1,1,0,.784Z" transform="translate(-719.395 -1347.598)" fill="#fff" opacity="0.61"/>
        <g id="Grupo_53589" data-name="Grupo 53589" transform="translate(10.106 25.77)">
          <path id="Trazado_99792" data-name="Trazado 99792" d="M797.644,1483.989a14.947,14.947,0,1,1,14.947-14.947A14.964,14.964,0,0,1,797.644,1483.989Zm0-25.206a10.259,10.259,0,1,0,10.259,10.259A10.271,10.271,0,0,0,797.644,1458.783Z" transform="translate(-782.697 -1454.095)" fill="#fff" opacity="0.73"/>
          <path id="Trazado_99793" data-name="Trazado 99793" d="M1049.044,1600.883l-4.674.351q.028.38.029.768a10.214,10.214,0,0,1-.609,3.484l4.409,1.592a14.879,14.879,0,0,0,.888-5.075Q1049.086,1601.437,1049.044,1600.883Z" transform="translate(-1019.192 -1587.054)" fill="url(#linear-gradient-22)"/>
          <path id="Trazado_99794" data-name="Trazado 99794" d="M797.644,1479.3a10.259,10.259,0,1,1,2.5-20.21l1.142-4.547a14.947,14.947,0,1,0,10.418,19.573l-4.409-1.592A10.277,10.277,0,0,1,797.644,1479.3Z" transform="translate(-782.697 -1454.095)" fill="#7d97f4"/>
          <path id="Trazado_99795" data-name="Trazado 99795" d="M1040.255,1549.057l4.674-.351a14.834,14.834,0,0,0-1.469-5.427l-4.214,2.053A10.182,10.182,0,0,1,1040.255,1549.057Z" transform="translate(-1015.077 -1534.877)" fill="url(#linear-gradient-23)"/>
        </g>
      </g>
      <g id="Grupo_53599" data-name="Grupo 53599" transform="translate(557.403 637.281)">
        <g id="Grupo_53592" data-name="Grupo 53592" transform="translate(100.992 19.227)">
          <circle id="Elipse_3993" data-name="Elipse 3993" cx="25.58" cy="25.58" r="25.58" transform="translate(0 36.176) rotate(-45)" fill="url(#linear-gradient-24)"/>
          <circle id="Elipse_3994" data-name="Elipse 3994" cx="24.73" cy="24.73" r="24.73" transform="translate(1.203 36.176) rotate(-45)" fill="url(#linear-gradient-25)"/>
          <path id="Trazado_99796" data-name="Trazado 99796" d="M2754.658,2743.7a.522.522,0,0,1-.465-.757,23.252,23.252,0,0,1,20.857-12.842,23.531,23.531,0,0,1,4.212.379.522.522,0,0,1-.187,1.027,22.487,22.487,0,0,0-4.025-.362,22.213,22.213,0,0,0-19.926,12.269A.521.521,0,0,1,2754.658,2743.7Z" transform="translate(-2738.874 -2717.274)" fill="#fff" opacity="0.78"/>
          <circle id="Elipse_3995" data-name="Elipse 3995" cx="20.931" cy="20.931" r="20.931" transform="translate(7.114 36.715) rotate(-45)" fill="#fff" opacity="0.78"/>
          <g id="Grupo_53591" data-name="Grupo 53591" transform="translate(27.496 21.901)">
            <path id="Trazado_99797" data-name="Trazado 99797" d="M2891.159,2856.809v-2.277a18.564,18.564,0,0,1-6.389-1.385,1.317,1.317,0,0,1-.728-1.556l.578-2.121a1.328,1.328,0,0,1,1.8-.869,15.418,15.418,0,0,0,5.9,1.242c2.287,0,3.992-.775,3.992-2.364,0-1.434-1.318-2.287-4.5-3.139-4.534-1.24-7.79-3.217-7.79-7.208,0-3.6,2.635-6.356,7.208-7.092v-2.278a1.327,1.327,0,0,1,1.327-1.327h1.338a1.327,1.327,0,0,1,1.327,1.327v2.045a16.931,16.931,0,0,1,5.064.909,1.32,1.32,0,0,1,.825,1.594l-.532,1.962a1.323,1.323,0,0,1-1.747.894,13.808,13.808,0,0,0-4.967-.9c-2.713,0-3.488,1.124-3.488,2.132,0,1.24,1.628,2.092,5.154,3.178,5.038,1.511,7.131,3.6,7.131,7.363,0,3.449-2.558,6.549-7.518,7.324v2.548a1.327,1.327,0,0,1-1.327,1.327h-1.338A1.327,1.327,0,0,1,2891.159,2856.809Z" transform="translate(-2883.994 -2826.435)" fill="url(#linear-gradient-26)"/>
          </g>
        </g>
        <g id="Grupo_53594" data-name="Grupo 53594" transform="translate(73.737 19.227)">
          <circle id="Elipse_3996" data-name="Elipse 3996" cx="25.58" cy="25.58" r="25.58" transform="translate(0 36.176) rotate(-45)" fill="url(#linear-gradient-27)"/>
          <circle id="Elipse_3997" data-name="Elipse 3997" cx="24.73" cy="24.73" r="24.73" transform="translate(1.203 36.176) rotate(-45)" fill="url(#linear-gradient-28)"/>
          <path id="Trazado_99798" data-name="Trazado 99798" d="M2465.353,2743.7a.522.522,0,0,1-.466-.757,23.253,23.253,0,0,1,20.858-12.842,23.539,23.539,0,0,1,4.212.379.522.522,0,0,1-.187,1.027,22.491,22.491,0,0,0-4.025-.362,22.213,22.213,0,0,0-19.926,12.269A.522.522,0,0,1,2465.353,2743.7Z" transform="translate(-2449.569 -2717.274)" fill="#fff" opacity="0.78"/>
          <circle id="Elipse_3998" data-name="Elipse 3998" cx="20.931" cy="20.931" r="20.931" transform="translate(7.114 36.715) rotate(-45)" fill="#fff" opacity="0.78"/>
          <g id="Grupo_53593" data-name="Grupo 53593" transform="translate(27.496 21.901)">
            <path id="Trazado_99799" data-name="Trazado 99799" d="M2601.854,2856.809v-2.277a18.563,18.563,0,0,1-6.389-1.385,1.318,1.318,0,0,1-.728-1.556l.579-2.121a1.328,1.328,0,0,1,1.8-.869,15.415,15.415,0,0,0,5.9,1.242c2.286,0,3.992-.775,3.992-2.364,0-1.434-1.318-2.287-4.5-3.139-4.534-1.24-7.789-3.217-7.789-7.208,0-3.6,2.635-6.356,7.208-7.092v-2.278a1.327,1.327,0,0,1,1.327-1.327h1.338a1.327,1.327,0,0,1,1.327,1.327v2.045a16.932,16.932,0,0,1,5.064.909,1.32,1.32,0,0,1,.825,1.594l-.532,1.962a1.323,1.323,0,0,1-1.747.894,13.808,13.808,0,0,0-4.967-.9c-2.713,0-3.488,1.124-3.488,2.132,0,1.24,1.628,2.092,5.154,3.178,5.038,1.511,7.131,3.6,7.131,7.363,0,3.449-2.558,6.549-7.518,7.324v2.548a1.327,1.327,0,0,1-1.327,1.327h-1.338A1.327,1.327,0,0,1,2601.854,2856.809Z" transform="translate(-2594.69 -2826.435)" fill="url(#linear-gradient-29)"/>
          </g>
        </g>
        <g id="Grupo_53596" data-name="Grupo 53596" transform="translate(46.482 19.227)">
          <circle id="Elipse_3999" data-name="Elipse 3999" cx="25.58" cy="25.58" r="25.58" transform="translate(0 36.176) rotate(-45)" fill="url(#linear-gradient-30)"/>
          <circle id="Elipse_4000" data-name="Elipse 4000" cx="24.73" cy="24.73" r="24.73" transform="translate(1.203 36.176) rotate(-45)" fill="url(#linear-gradient-31)"/>
          <path id="Trazado_99800" data-name="Trazado 99800" d="M2176.049,2743.7a.522.522,0,0,1-.466-.757,23.252,23.252,0,0,1,20.858-12.842,23.533,23.533,0,0,1,4.212.379.522.522,0,0,1-.187,1.027,22.491,22.491,0,0,0-4.025-.362,22.213,22.213,0,0,0-19.926,12.269A.522.522,0,0,1,2176.049,2743.7Z" transform="translate(-2160.265 -2717.274)" fill="#fff" opacity="0.78"/>
          <circle id="Elipse_4001" data-name="Elipse 4001" cx="20.931" cy="20.931" r="20.931" transform="translate(7.114 36.715) rotate(-45)" fill="#fff" opacity="0.78"/>
          <g id="Grupo_53595" data-name="Grupo 53595" transform="translate(27.496 21.901)">
            <path id="Trazado_99801" data-name="Trazado 99801" d="M2312.55,2856.809v-2.277a18.562,18.562,0,0,1-6.389-1.385,1.318,1.318,0,0,1-.728-1.556l.579-2.121a1.328,1.328,0,0,1,1.8-.869,15.413,15.413,0,0,0,5.9,1.242c2.287,0,3.991-.775,3.991-2.364,0-1.434-1.318-2.287-4.5-3.139-4.534-1.24-7.79-3.217-7.79-7.208,0-3.6,2.635-6.356,7.208-7.092v-2.278a1.327,1.327,0,0,1,1.327-1.327h1.338a1.327,1.327,0,0,1,1.327,1.327v2.045a16.932,16.932,0,0,1,5.064.909,1.32,1.32,0,0,1,.825,1.594l-.532,1.962a1.323,1.323,0,0,1-1.747.894,13.808,13.808,0,0,0-4.967-.9c-2.713,0-3.488,1.124-3.488,2.132,0,1.24,1.628,2.092,5.154,3.178,5.038,1.511,7.131,3.6,7.131,7.363,0,3.449-2.558,6.549-7.518,7.324v2.548a1.327,1.327,0,0,1-1.327,1.327h-1.338A1.327,1.327,0,0,1,2312.55,2856.809Z" transform="translate(-2305.385 -2826.435)" fill="url(#linear-gradient-32)"/>
          </g>
        </g>
        <g id="Grupo_53598" data-name="Grupo 53598" transform="translate(0 0)">
          <circle id="Elipse_4002" data-name="Elipse 4002" cx="33.544" cy="33.544" r="33.544" transform="translate(0 47.439) rotate(-45)" fill="url(#linear-gradient-33)"/>
          <circle id="Elipse_4003" data-name="Elipse 4003" cx="32.429" cy="32.429" r="32.429" transform="translate(1.577 47.439) rotate(-45)" fill="url(#linear-gradient-34)"/>
          <path id="Trazado_99802" data-name="Trazado 99802" d="M1734.817,2587.629a.522.522,0,0,1-.466-.757,30.508,30.508,0,0,1,32.7-16.257.522.522,0,1,1-.187,1.027,29.687,29.687,0,0,0-5.307-.478,29.292,29.292,0,0,0-26.275,16.178A.522.522,0,0,1,1734.817,2587.629Z" transform="translate(-1714.119 -2553.139)" fill="#fff" opacity="0.78"/>
          <circle id="Elipse_4004" data-name="Elipse 4004" cx="27.447" cy="27.447" r="27.447" transform="translate(9.329 48.145) rotate(-45)" fill="#fff" opacity="0.78"/>
          <g id="Grupo_53597" data-name="Grupo 53597" transform="translate(36.056 28.72)">
            <path id="Trazado_99803" data-name="Trazado 99803" d="M1912.253,2734.554v-2.986a24.347,24.347,0,0,1-8.378-1.817,1.727,1.727,0,0,1-.955-2.041l.759-2.781a1.741,1.741,0,0,1,2.363-1.139,20.216,20.216,0,0,0,7.736,1.629c3,0,5.234-1.017,5.234-3.1,0-1.88-1.728-3-5.9-4.116-5.946-1.626-10.215-4.218-10.215-9.453,0-4.726,3.456-8.334,9.452-9.3v-2.987a1.74,1.74,0,0,1,1.74-1.74h1.754a1.74,1.74,0,0,1,1.74,1.74v2.681a22.207,22.207,0,0,1,6.641,1.193,1.731,1.731,0,0,1,1.082,2.09l-.7,2.572a1.735,1.735,0,0,1-2.29,1.172,18.111,18.111,0,0,0-6.514-1.183c-3.558,0-4.574,1.474-4.574,2.795,0,1.626,2.135,2.744,6.759,4.167,6.607,1.982,9.351,4.726,9.351,9.655,0,4.523-3.354,8.588-9.859,9.605v3.342a1.74,1.74,0,0,1-1.74,1.74h-1.755A1.74,1.74,0,0,1,1912.253,2734.554Z" transform="translate(-1902.858 -2694.724)" fill="url(#linear-gradient-35)"/>
          </g>
        </g>
      </g>
      <g id="Grupo_53603" data-name="Grupo 53603" transform="translate(482.317 572.983)">
        <path id="Trazado_99804" data-name="Trazado 99804" d="M901.5,1841.03s-2.979,1.449-3.526,3.113c-.439,1.335-3.733,1.508-4.058,4.134a3.014,3.014,0,0,1-2.522,2.649c-3.364.516-8.548,2.262-9.377,8.1-.633,4.458,1.639,6.148,4.024,6.734a3.378,3.378,0,0,1,2.561,3.9c-.34,1.7.167,3.657,3.106,5.208,6.585,3.475,13.162-8.232,13.162-8.232l1.348-20.441Z" transform="translate(-866.952 -1828.437)" fill="url(#linear-gradient-36)"/>
        <path id="Trazado_99805" data-name="Trazado 99805" d="M1193.479,1789.591s-13.149,20.8-28.784,24.814c0,0,3.047,8.677,5.4,9.67,0,0,19.236-16.05,24.179-31.529Z" transform="translate(-1123.094 -1781.844)" fill="url(#linear-gradient-37)"/>
        <path id="Trazado_99806" data-name="Trazado 99806" d="M730.595,3188.666l-.426,3.5a1.447,1.447,0,0,1-1.269,1.266,22.384,22.384,0,0,1-4.689.074,1.24,1.24,0,0,1-1.041-1.608,12.763,12.763,0,0,1,2.35-4.577h3.886A1.2,1.2,0,0,1,730.595,3188.666Z" transform="translate(-723.112 -3047.899)" fill="url(#linear-gradient-38)"/>
        <path id="Trazado_99807" data-name="Trazado 99807" d="M1053.535,2765.954l.656,3.859s-2.2,22.25-2.587,31.149a6.974,6.974,0,0,0,1.032,3.963l3.82,6.2-9.707-5.728-.193-1.185,1.589-2.185-2.081-24.925a7.646,7.646,0,0,1,.87-4.229l2.008-3.772Z" transform="translate(-1015.613 -2666.226)" fill="url(#linear-gradient-39)"/>
        <path id="Trazado_99808" data-name="Trazado 99808" d="M1054.737,3166.45h-3.1a1.865,1.865,0,0,1-1.48-.726c-.966-1.255-2.967-3.7-3.923-3.767-1.288-.086-1.123,4.493-1.123,4.493h-.722l-.914-5.689a3.367,3.367,0,0,1,1.767-3.52,4.762,4.762,0,0,0,1.891,3.14c1.6.963,6.5,4.412,6.5,4.412a4.438,4.438,0,0,1,1.259.034A.819.819,0,0,1,1054.737,3166.45Z" transform="translate(-1013.256 -3020.649)" fill="url(#linear-gradient-40)"/>
        <path id="Trazado_99809" data-name="Trazado 99809" d="M760.822,2769.99s-12.868,24.41-14.914,29.983a53.529,53.529,0,0,0-2.789,10.663c-.043.688-.9,1.347-3.257,1.347a2.262,2.262,0,0,1-2.105-.96,1.375,1.375,0,0,1-.052-1.332c.744-1.506,3.107-6.32,3.981-8.5,1.044-2.607,3.291-14.421,4.524-18.529s2.625-8.564,7.991-12.668C754.2,2769.99,757.884,2766.382,760.822,2769.99Z" transform="translate(-736.196 -2668.429)" fill="url(#linear-gradient-41)"/>
        <path id="Trazado_99810" data-name="Trazado 99810" d="M1021.859,2077.872c3.32-14.066-5.09-22.021-5.09-22.021,5.306-5.093,14.973-7.411,14.973-7.411s9.225,6.744,8.13,12.023c-.641,3.094-6.484,18.532-6.484,18.532A12.839,12.839,0,0,1,1021.859,2077.872Z" transform="translate(-989.104 -2016.307)" fill="url(#linear-gradient-42)"/>
        <path id="Trazado_99811" data-name="Trazado 99811" d="M917.685,2367.816c1.351-4.07,7.36-6.963,7.36-6.963a12.837,12.837,0,0,0,11.53,1.123,23.125,23.125,0,0,1,.375,8.935c-.836,4.3-6.083,31.964-6.083,31.964-8.267,1.675-20.982-1.685-20.982-1.685C915.151,2391.84,916.334,2371.885,917.685,2367.816Z" transform="translate(-892.289 -2299.288)" fill="url(#linear-gradient-43)"/>
        <path id="Trazado_99812" data-name="Trazado 99812" d="M1085.342,1938.661l-2.7,12.122c-.258,1.068.715.893,1.794.689,1.768-.333,4.047-1.02,4.808-2.4a1.3,1.3,0,0,0,.138-.457l1.159-8.406a1.51,1.51,0,0,0-.884-1.587l-2.238-.992A1.51,1.51,0,0,0,1085.342,1938.661Z" transform="translate(-1048.734 -1915.824)" fill="url(#linear-gradient-44)"/>
        <g id="Grupo_53600" data-name="Grupo 53600" transform="translate(31.264 7.114)">
          <path id="Trazado_99813" data-name="Trazado 99813" d="M1098.88,1828.322s2.873,1.945,4.108,6.9-.772,6.729-2.828,6.621a9.542,9.542,0,0,1-7.622-4.3C1089.954,1833.989,1095.116,1825.945,1098.88,1828.322Z" transform="translate(-1088.367 -1823.648)" fill="url(#linear-gradient-45)"/>
          <path id="Trazado_99814" data-name="Trazado 99814" d="M1061.744,1794.766s-1.053-7.1,4.84-6.012l1.191,1.24s2.884-3.248-.308-5.7-7.621-1.827-10.071,2.643-3.34,7.611-1.286,10.388,3.6.4,3.6.4-.942-2.4-.16-3.436,1.79.6,1.79.6Z" transform="translate(-1054.968 -1782.87)" fill="url(#linear-gradient-46)"/>
          <path id="Trazado_99815" data-name="Trazado 99815" d="M1089.013,1888.717s-.52-3.652-2.385-2.608.672,3.411,1.689,4.216Z" transform="translate(-1083.042 -1876.213)" fill="url(#linear-gradient-47)"/>
        </g>
        <g id="Grupo_53601" data-name="Grupo 53601" transform="translate(68.231 0)">
          <path id="Trazado_99816" data-name="Trazado 99816" d="M1449.431,1719.388c.04.429-1.556.725-2.063-1.1.14-.794.387-4.271,1-4.812a64.288,64.288,0,0,1,9.025-6.114,1.183,1.183,0,0,1-.2,1.637l-2.886,1.948a11.676,11.676,0,0,1,.79,3.017,3.379,3.379,0,0,1-.853,2.36c-.574.656-1.348,1.5-2.045,2.147A3.337,3.337,0,0,1,1449.431,1719.388Z" transform="translate(-1447.368 -1707.36)" fill="url(#linear-gradient-48)"/>
          <path id="Trazado_99817" data-name="Trazado 99817" d="M1467.849,1762.883l-.441-.181a24.633,24.633,0,0,1,2.114-4.209,1.014,1.014,0,0,0,.366-.676.483.483,0,0,0-.148-.3l-2.335,1.249-1.031,1.615-.4-.257,1.1-1.72,2.736-1.463.123.1a1.036,1.036,0,0,1,.436.743,1.418,1.418,0,0,1-.5,1.036A23.5,23.5,0,0,0,1467.849,1762.883Z" transform="translate(-1464.218 -1752.272)" fill="url(#linear-gradient-49)"/>
        </g>
        <g id="Grupo_53602" data-name="Grupo 53602" transform="translate(34.737 47.326)">
          <path id="Trazado_99818" data-name="Trazado 99818" d="M1092.866,2418.848h.055l24.11-.026a1.068,1.068,0,1,0,0-2.135l-24.11.026a1.068,1.068,0,0,0-.053,2.134Z" transform="translate(-1091.841 -2397.189)" fill="url(#linear-gradient-50)"/>
          <path id="Trazado_99819" data-name="Trazado 99819" d="M1273.712,2209.712h-20.079a3.83,3.83,0,0,0-3.461,2.171l-9.283,19.475h24.953A2.326,2.326,0,0,0,1268,2229.9l7.2-18.021A1.588,1.588,0,0,0,1273.712,2209.712Z" transform="translate(-1226.847 -2209.712)" fill="url(#linear-gradient-51)"/>
          <ellipse id="Elipse_4005" data-name="Elipse 4005" cx="2.547" cy="1.58" rx="2.547" ry="1.58" transform="translate(31.926 12.389) rotate(-71.758)" fill="url(#linear-gradient-52)"/>
        </g>
        <path id="Trazado_99820" data-name="Trazado 99820" d="M959.233,2127.411c-3.29,3.32-7.463,18.034-5.393,20.491,1.823,2.861,8.032,6.756,13.943,6.761h8.722c-3.665-3.894-6.188-4.882-9.194-2.159-2.385-1.019-5.477-4.966-7.541-6.729a2.2,2.2,0,0,1-.46-2.79c1.64-2.776,3.7-5.63,4.35-8.394C963.8,2131.353,961.4,2127.645,959.233,2127.411Z" transform="translate(-931.603 -2087.839)" fill="url(#linear-gradient-53)"/>
      </g>
      <g id="Grupo_53608" data-name="Grupo 53608" transform="translate(502.434 477.737)">
        <g id="Grupo_53604" data-name="Grupo 53604" transform="translate(0 0)">
          <rect id="Rectángulo_5187" data-name="Rectángulo 5187" width="90.857" height="39.988" rx="10.329" fill="url(#linear-gradient-54)"/>
          <rect id="Rectángulo_5188" data-name="Rectángulo 5188" width="86.46" height="35.937" rx="10.329" transform="translate(2.198 2.116)" fill="#fff" opacity="0.5"/>
        </g>
        <g id="Grupo_53607" data-name="Grupo 53607" transform="translate(6.029 0.65)">
          <circle id="Elipse_4006" data-name="Elipse 4006" cx="10.876" cy="10.876" r="10.876" transform="translate(0 4.149)" fill="#fff"/>
          <circle id="Elipse_4007" data-name="Elipse 4007" cx="10.876" cy="10.876" r="10.876" transform="translate(26.938 4.149)" fill="#fff"/>
          <circle id="Elipse_4008" data-name="Elipse 4008" cx="10.876" cy="10.876" r="10.876" transform="translate(49.463 15.381) rotate(-45)" fill="#fff"/>
          <g id="Grupo_53605" data-name="Grupo 53605" transform="translate(2.12 6.626)">
            <path id="Trazado_99821" data-name="Trazado 99821" d="M1038.365,779.678a6.986,6.986,0,1,1-6.463-4.332c.118,0,.236,0,.352.009v-1.771c-.117,0-.234-.008-.352-.008a8.75,8.75,0,1,0,8.087,5.4Z" transform="translate(-1023.146 -773.577)" fill="url(#linear-gradient-55)"/>
            <path id="Trazado_99822" data-name="Trazado 99822" d="M1321.292,788.244a6.986,6.986,0,1,1-3.722-12.9c.118,0,.236,0,.352.009v-1.771c-.117,0-.234-.008-.352-.008a8.756,8.756,0,1,0,4.6,16.206Z" transform="translate(-1281.902 -773.577)" fill="url(#linear-gradient-56)"/>
            <path id="Trazado_99823" data-name="Trazado 99823" d="M1612.089,786.261a6.986,6.986,0,1,1-5.778-10.914c.118,0,.235,0,.352.009v-1.771c-.117,0-.234-.008-.352-.008a8.756,8.756,0,1,0,7.212,13.722Z" transform="translate(-1543.441 -773.577)" fill="url(#linear-gradient-57)"/>
          </g>
          <g id="Grupo_53606" data-name="Grupo 53606" transform="translate(0.078 30.509)">
            <path id="Trazado_99824" data-name="Trazado 99824" d="M1021.2,1027.093h-17.724a2.014,2.014,0,1,0,0,4.029H1021.2a2.014,2.014,0,1,0,0-4.029Z" transform="translate(-1001.462 -1027.093)" fill="#fff" opacity="0.5"/>
            <path id="Trazado_99825" data-name="Trazado 99825" d="M1308.126,1027.093H1290.4a2.014,2.014,0,0,0,0,4.029h17.724a2.014,2.014,0,1,0,0-4.029Z" transform="translate(-1261.357 -1027.093)" fill="#fff" opacity="0.5"/>
            <path id="Trazado_99826" data-name="Trazado 99826" d="M1575.514,1031.122h17.724a2.014,2.014,0,0,0,0-4.029h-17.724a2.014,2.014,0,0,0,0,4.029Z" transform="translate(-1519.609 -1027.093)" fill="#fff" opacity="0.5"/>
          </g>
        </g>
      </g>
    </g>
  </g>
</svg>
