<svg id="bienes" xmlns="http://www.w3.org/2000/svg" width="84.92" height="84.92" viewBox="0 0 84.92 84.92">
  <path id="Trazado_99827" data-name="Trazado 99827" d="M84.92,42.46A42.46,42.46,0,1,1,42.46,0,42.46,42.46,0,0,1,84.92,42.46Z" fill="#f0faa0"/>
  <path id="Trazado_99828" data-name="Trazado 99828" d="M75.9,255.425v10.283a.829.829,0,0,1-.829.829H56.829a.829.829,0,0,1-.829-.829V255.425a.829.829,0,0,1,.829-.829H75.074A.829.829,0,0,1,75.9,255.425ZM75.074,240H56.829a.829.829,0,0,0-.829.829v10.283a.829.829,0,0,0,.829.829H75.074a.829.829,0,0,0,.829-.829V240.829A.829.829,0,0,0,75.074,240Zm22.557,14.6H79.386a.829.829,0,0,0-.829.829v10.283a.829.829,0,0,0,.829.829H97.631a.829.829,0,0,0,.829-.829V255.425A.829.829,0,0,0,97.631,254.6Zm0-14.6H79.386a.829.829,0,0,0-.829.829v10.283a.829.829,0,0,0,.829.829H97.631a.829.829,0,0,0,.829-.829V240.829A.829.829,0,0,0,97.631,240Zm23.884,14.6H103.27a.829.829,0,0,0-.829.829v10.283a.829.829,0,0,0,.829.829h18.245a.829.829,0,0,0,.829-.829V255.425A.829.829,0,0,0,121.515,254.6Zm0-14.6H103.27a.829.829,0,0,0-.829.829v10.283a.829.829,0,0,0,.829.829h18.245a.829.829,0,0,0,.829-.829V240.829A.829.829,0,0,0,121.515,240Z" transform="translate(-46.712 -200.194)" fill="#ebf582"/>
  <path id="Trazado_99829" data-name="Trazado 99829" d="M124.642,420a42.457,42.457,0,0,1-65.2,0Z" transform="translate(-49.58 -350.339)" fill="#f2c230"/>
  <path id="Trazado_99830" data-name="Trazado 99830" d="M281.538,20.829V42.391a.829.829,0,0,1-.829.829H255.829a.829.829,0,0,1-.829-.829V20.829a.829.829,0,0,1,.829-.829h24.879A.829.829,0,0,1,281.538,20.829Z" transform="translate(-212.706 -16.683)" fill="#d29650"/>
  <path id="Trazado_99831" data-name="Trazado 99831" d="M236.465,168.659,195,174.879V150h41.465Z" transform="translate(-162.657 -125.121)" fill="#aa6432"/>
  <path id="Trazado_99832" data-name="Trazado 99832" d="M262.464,43.317H255V40h7.464a.829.829,0,0,1,.829.829v1.659A.829.829,0,0,1,262.464,43.317Z" transform="translate(-212.706 -33.366)" fill="#f7d139"/>
  <path id="Trazado_99833" data-name="Trazado 99833" d="M129.332,439.159a1.659,1.659,0,0,1-1.659,1.659H111.088a1.659,1.659,0,1,1,0-3.317h16.586A1.659,1.659,0,0,1,129.332,439.159ZM96.16,437.5H75.513a42.713,42.713,0,0,0,3.749,3.317h16.9a1.659,1.659,0,0,0,0-3.317Z" transform="translate(-62.988 -364.936)" fill="#e3a600"/>
  <path id="Trazado_99834" data-name="Trazado 99834" d="M210.757,189.952H195V180h15.757a.829.829,0,0,1,.829.829v8.293A.829.829,0,0,1,210.757,189.952Z" transform="translate(-162.657 -150.145)" fill="#f63"/>
  <path id="Trazado_99835" data-name="Trazado 99835" d="M101.627,44.134H42.881l-1.344-5.378a1.658,1.658,0,0,0-1.753-1.248c-.051,0-.1-.008-.155-.008h-13a1.659,1.659,0,0,0,0,3.317H38.633l1.333,5.33L46.49,80.569,43.33,90.051A1.659,1.659,0,1,0,46.477,91.1l2.93-8.789,52.43-6.676a1.659,1.659,0,0,0,1.449-1.645V64.058h0V45.793A1.659,1.659,0,0,0,101.627,44.134ZM43.588,47.452h13.09l.834,7.921-12.354.363Zm2.2,11.585,12.076-.355.8,7.574L47.347,67.277Zm3.774,19.91-1.592-8.4,11.038-1,.834,7.926c.005.052.014.1.024.155Zm10.455-31.5H73.1c0,.032,0,.065,0,.1l.433,7.353-12.7.373Zm1.172,11.132,12.543-.369.391,6.643-12.158,1.1Zm1.957,18.634c0-.028,0-.056,0-.085l-.829-7.877,12.006-1.085.445,7.567ZM76.419,47.452H88.027v7.024L76.852,54.8Zm.627,10.665,10.98-.323V63.6l-10.6.958Zm1.012,17.2-.438-7.446,10.406-.94v7.057c0,.02,0,.039,0,.059Zm21.91-2.79-8.625,1.1V66.632l8.625-.779Zm0-10.006-8.625.779V57.7l8.625-.254Zm0-8.4-8.625.254V47.452h8.625Z" transform="translate(-20.854 -31.28)" fill="#414669"/>
  <path id="Trazado_99836" data-name="Trazado 99836" d="M88.405,82.246v3.317a.829.829,0,0,1-.829.829H37.818a.829.829,0,0,1-.829-.829V82.246a.829.829,0,0,1,.829-.829H87.576A.829.829,0,0,1,88.405,82.246ZM27.659,30H20.61a3.11,3.11,0,0,0-3.11,3.11h0a3.11,3.11,0,0,0,3.11,3.11h7.049a3.11,3.11,0,0,0,3.11-3.11h0A3.11,3.11,0,0,0,27.659,30Z" transform="translate(-14.597 -25.024)" fill="#f63"/>
  <path id="Trazado_99837" data-name="Trazado 99837" d="M221.489,338.329v11.61a.829.829,0,0,1-.829.829h-3.317a.829.829,0,0,1-.829-.829v-11.61a.829.829,0,0,1,.829-.829h3.317A.829.829,0,0,1,221.489,338.329Zm-32.343-.829h-3.317a.829.829,0,0,0-.829.829v11.61a.829.829,0,0,0,.829.829h3.317a.829.829,0,0,0,.829-.829v-11.61A.829.829,0,0,0,189.146,337.5Z" transform="translate(-154.316 -281.522)" fill="#ff5019"/>
  <path id="Trazado_99838" data-name="Trazado 99838" d="M208.124,393.305a5.805,5.805,0,1,1-5.805-5.805A5.805,5.805,0,0,1,208.124,393.305ZM170.805,387.5a5.805,5.805,0,1,0,5.805,5.805A5.805,5.805,0,0,0,170.805,387.5Z" transform="translate(-137.633 -323.229)" fill="#501e0f"/>
  <path id="Trazado_99839" data-name="Trazado 99839" d="M218.148,405.817a3.317,3.317,0,1,1-3.317-3.317A3.317,3.317,0,0,1,218.148,405.817ZM183.317,402.5a3.317,3.317,0,1,0,3.317,3.317A3.317,3.317,0,0,0,183.317,402.5Z" transform="translate(-150.145 -335.741)" fill="#b9783d"/>
</svg>
