<svg id="lupa" xmlns="http://www.w3.org/2000/svg" width="86.639" height="86.639" viewBox="0 0 86.639 86.639">
  <path id="Trazado_99840" data-name="Trazado 99840" d="M86.639,43.32A43.32,43.32,0,1,1,43.32,0,43.32,43.32,0,0,1,86.639,43.32Z" fill="#9bf5f0"/>
  <path id="Trazado_99841" data-name="Trazado 99841" d="M110.612,176.846v5.077a.846.846,0,0,1-.846.846H81a.846.846,0,0,1-.846-.846v-5.077A.846.846,0,0,1,81,176h28.767A.846.846,0,0,1,110.612,176.846Zm33,19.46H114.843a.846.846,0,0,0-.846.846v5.077a.846.846,0,0,0,.846.846h27.791a43.033,43.033,0,0,0,1.589-6.5A.841.841,0,0,0,143.609,196.306ZM84.383,186.153H70.846A.846.846,0,0,0,70,187v5.077a.846.846,0,0,0,.846.846H84.383a.846.846,0,0,0,.846-.846V187A.846.846,0,0,0,84.383,186.153Zm46.535,21.152v5.077a.846.846,0,0,0,.846.846h5.98a43.2,43.2,0,0,0,3.619-6.769h-9.6A.846.846,0,0,0,130.918,207.305Z" transform="translate(-58.155 -146.218)" fill="#b4fffa"/>
  <path id="Trazado_99842" data-name="Trazado 99842" d="M180,121.923v-5.077a.846.846,0,0,1,.846-.846h23.69a.846.846,0,0,1,.846.846v5.077a.846.846,0,0,1-.846.846h-23.69A.846.846,0,0,1,180,121.923Zm20.306,40.612v-5.077a.846.846,0,0,0-.846-.846H185.923a.846.846,0,0,0-.846.846v5.077a.846.846,0,0,0,.846.846H199.46A.846.846,0,0,0,200.306,162.535Zm21.152,4.23H189.307a.846.846,0,0,0-.846.846v5.076a.846.846,0,0,0,.846.846H219.9q1.24-.992,2.4-2.072v-3.85A.846.846,0,0,0,221.458,166.765Zm1.692-30.459h-42.3a.846.846,0,0,0-.846.846v5.077a.846.846,0,0,0,.846.846h42.3a.846.846,0,0,0,.846-.846v-5.077A.846.846,0,0,0,223.15,136.306Z" transform="translate(-149.541 -96.371)" fill="#8cebeb"/>
  <path id="Trazado_99843" data-name="Trazado 99843" d="M34.742,107.611v5.077a.846.846,0,0,1-.846.846H10.205a.846.846,0,0,1-.846-.846v-5.077a.846.846,0,0,1,.846-.846H33.9A.846.846,0,0,1,34.742,107.611Zm19.46-11H22.05a.846.846,0,0,0-.846.846v5.077a.846.846,0,0,0,.846.846H54.2a.846.846,0,0,0,.846-.846V97.458A.846.846,0,0,0,54.2,96.612Zm-33-14.383V77.152a.846.846,0,0,0-.846-.846H4.751a43.033,43.033,0,0,0-1.633,6.769h17.24A.846.846,0,0,0,21.2,82.229Zm11-19.46H45.741a.846.846,0,0,0,.846-.846V56.846A.846.846,0,0,0,45.741,56H32.2a.846.846,0,0,0-.846.846v5.077A.846.846,0,0,0,32.2,62.769Zm38.92,44H57.586a.846.846,0,0,0-.846.846v5.077a.846.846,0,0,0,.846.846H71.123a.846.846,0,0,0,.846-.846v-5.077A.846.846,0,0,0,71.123,106.765ZM89.1,86.459H81.276a.846.846,0,0,0-.846.846v5.077a.846.846,0,0,0,.846.846H89.1q.129-1.675.131-3.384T89.1,86.459Z" transform="translate(-2.59 -46.524)" fill="#64d2cd"/>
  <path id="Trazado_99844" data-name="Trazado 99844" d="M83.194,223.62a1.692,1.692,0,0,1-.114,2.267L58.85,250.117a43.568,43.568,0,0,1-9.333-9.333l24.231-24.231a1.692,1.692,0,0,1,2.267-.114l9.578-9.578,7.179,7.179Z" transform="translate(-41.138 -171.857)" fill="#414669"/>
  <path id="Trazado_99845" data-name="Trazado 99845" d="M102.658,52.2a1.692,1.692,0,0,1-.374,1.826L77.972,78.342A43.561,43.561,0,0,1,72.4,73.5L96.983,48.921a1.692,1.692,0,0,1,2.393,0Zm.51-8.584a25.552,25.552,0,1,0,0-36.136A25.552,25.552,0,0,0,103.168,43.62Z" transform="translate(-60.149 0)" fill="#506ea0"/>
  <path id="Trazado_99846" data-name="Trazado 99846" d="M273.912,63.912a20.723,20.723,0,1,1,0-29.307A20.723,20.723,0,0,1,273.912,63.912Z" transform="translate(-198.171 -23.707)" fill="#ffff91"/>
  <path id="Trazado_99847" data-name="Trazado 99847" d="M273.918,63.92a20.656,20.656,0,0,1-14.832,6.066,19.98,19.98,0,0,1-14.475-6.066c-.089-.089-.176-.18-.263-.27h25.343a20.78,20.78,0,0,0,2.651-3.384H254.865a.846.846,0,0,1-.846-.846V54.343a.846.846,0,0,1,.846-.846h20.2A20.723,20.723,0,0,0,257.02,28.667a20.722,20.722,0,0,1,16.9,35.254Zm-2.131-13.807a.846.846,0,0,0,.846-.846V44.19a.846.846,0,0,0-.846-.846H258.25a.846.846,0,0,0-.846.846v5.077a.846.846,0,0,0,.846.846Zm-17.768-.846V44.19a.846.846,0,0,0-.846-.846H239.4a20.8,20.8,0,0,0-.842,6.769h14.613A.846.846,0,0,0,254.019,49.267ZM250.635,59.42V54.343a.846.846,0,0,0-.846-.846H238.977a20.608,20.608,0,0,0,2.719,6.769h8.092A.846.846,0,0,0,250.635,59.42Z" transform="translate(-198.178 -23.715)" fill="#ffeb50"/>
  <path id="Trazado_99848" data-name="Trazado 99848" d="M298.766,71.629l3.166,6.415a1.046,1.046,0,0,0,.788.572l7.079,1.029a1.046,1.046,0,0,1,.58,1.784l-5.123,4.993a1.046,1.046,0,0,0-.3.926l1.209,7.051a1.046,1.046,0,0,1-1.518,1.1l-6.332-3.329a1.046,1.046,0,0,0-.974,0L291.009,95.5a1.046,1.046,0,0,1-1.518-1.1l1.209-7.051a1.046,1.046,0,0,0-.3-.926l-5.123-4.993a1.046,1.046,0,0,1,.58-1.784l7.079-1.029a1.046,1.046,0,0,0,.788-.572l3.166-6.415A1.046,1.046,0,0,1,298.766,71.629Z" transform="translate(-236.74 -59.023)" fill="#ebb410"/>
</svg>
