<svg xmlns="http://www.w3.org/2000/svg" width="604" height="257" viewBox="0 0 604 257">
  <g id="Grupo_54220" data-name="Grupo 54220" transform="translate(-804 -5873)">
    <rect id="Rectángulo_5225" data-name="Rectángulo 5225" width="604" height="222" transform="translate(804 5908)" fill="#fed947" opacity="0.15"/>
    <g id="Grupo_54219" data-name="Grupo 54219" transform="translate(948.847 5835.448)">
      <g id="Floor" transform="translate(38.565 151.526)">
        <g id="Grupo_54116" data-name="Grupo 54116">
          <path id="Trazado_100284" data-name="Trazado 100284" d="M76.228,342.39c50.216,26.233,131.634,26.234,181.849,0s50.217-68.767,0-95-131.634-26.233-181.85,0S26.011,316.157,76.228,342.39Z" transform="translate(-38.565 -227.715)" fill="#f0f0f0"/>
        </g>
      </g>
      <g id="Shadow" transform="translate(235.673 179.504)">
        <g id="Grupo_54117" data-name="Grupo 54117">
          <path id="Trazado_100285" data-name="Trazado 100285" d="M400.7,290.25c-7.61,3.627-19.947,3.627-27.557,0s-7.61-9.507,0-13.134,19.947-3.627,27.557,0S408.309,286.623,400.7,290.25Z" transform="translate(-367.435 -274.396)" fill="#e0e0e0"/>
        </g>
      </g>
      <g id="Plants" transform="translate(43.237 185.508)">
        <g id="Grupo_54125" data-name="Grupo 54125" transform="translate(0)">
          <g id="Grupo_54119" data-name="Grupo 54119" transform="translate(3.892)">
            <g id="Grupo_54118" data-name="Grupo 54118">
              <path id="Trazado_100286" data-name="Trazado 100286" d="M76.692,315.264s.6-8.833-2.471-16.336S66,286.149,60.565,284.7s-10.825,2.812-5.56,7.38,15.1,10.049,17.539,23.972Z" transform="translate(-52.853 -284.413)" fill="#27debf"/>
              <path id="Trazado_100287" data-name="Trazado 100287" d="M76.692,315.264s.6-8.833-2.471-16.336S66,286.149,60.565,284.7s-10.825,2.812-5.56,7.38,15.1,10.049,17.539,23.972Z" transform="translate(-52.853 -284.413)" opacity="0.2"/>
            </g>
            <path id="Trazado_100288" data-name="Trazado 100288" d="M77.356,317.259h-.01a.3.3,0,0,1-.289-.31c.363-10.414-7.131-25.206-17.338-28.672a.3.3,0,0,1,.194-.568c10.444,3.546,18.113,18.641,17.744,29.261A.3.3,0,0,1,77.356,317.259Z" transform="translate(-55.522 -285.728)" fill="#fff"/>
          </g>
          <g id="Grupo_54124" data-name="Grupo 54124" transform="translate(0 18.254)">
            <g id="Grupo_54120" data-name="Grupo 54120">
              <path id="Trazado_100289" data-name="Trazado 100289" d="M72.445,348.686a6.433,6.433,0,0,1-2.926.779,8.6,8.6,0,0,1-3.535-.535c-2-.756-3.681-1.906-4.187-4.074-.4-1.709.234-3.634-.512-5.271-.7-1.545-2.985-2.609-4.514-3.094-1.074-.341-2.2-.5-3.256-.9a4.173,4.173,0,0,1-2.5-2.137c-1.013-2.486,1.746-5.3.84-7.829a6.1,6.1,0,0,0-2.8-2.738,5.245,5.245,0,0,1-2.628-2.868,3.689,3.689,0,0,1,1.117-3.293c2.008-2.079,5.388-2.28,8.088-1.248a25.08,25.08,0,0,0,2.555.991c3.4.889,7.02-1.342,10.442-.535a6.188,6.188,0,0,1,4.515,4.572c.165.745.189,1.516.362,2.258.434,1.866,2.4,2.262,2.874,4.173.425,1.729-.115,3.55-.412,5.254-.457,2.62-.971,5.229-1.514,7.832q-.443,2.121-.909,4.237c-.287,1.3.091,2.723-.489,3.916A6.523,6.523,0,0,1,72.445,348.686Z" transform="translate(-46.359 -314.869)" fill="#27debf"/>
            </g>
            <g id="Grupo_54121" data-name="Grupo 54121" transform="translate(3.592 2.296)">
              <path id="Trazado_100290" data-name="Trazado 100290" d="M75.8,340.987a.3.3,0,0,1-.3-.254c-1.435-9.31-14.53-20.32-22.894-21.436a.3.3,0,1,1,.08-.595c8.55,1.141,21.937,12.409,23.407,21.939a.3.3,0,0,1-.251.342A.309.309,0,0,1,75.8,340.987Z" transform="translate(-52.353 -318.7)" fill="#fff"/>
            </g>
            <g id="Grupo_54122" data-name="Grupo 54122" transform="translate(19.094 2.974)">
              <path id="Trazado_100291" data-name="Trazado 100291" d="M78.518,328.7H78.49a.3.3,0,0,1-.271-.326c.555-6.049,2.74-8.357,2.833-8.453a.3.3,0,0,1,.43.417c-.021.022-2.133,2.278-2.666,8.091A.3.3,0,0,1,78.518,328.7Z" transform="translate(-78.218 -319.832)" fill="#fff"/>
            </g>
            <g id="Grupo_54123" data-name="Grupo 54123" transform="translate(9.788 14.342)">
              <path id="Trazado_100292" data-name="Trazado 100292" d="M62.991,341.153a.3.3,0,0,1-.117-.575c.276-.117,6.808-2.854,12.511-1.307a.3.3,0,1,1-.157.578c-5.5-1.493-12.053,1.252-12.118,1.28A.306.306,0,0,1,62.991,341.153Z" transform="translate(-62.691 -338.798)" fill="#fff"/>
            </g>
          </g>
        </g>
      </g>
      <g id="Window" transform="translate(69.768 37.552)">
        <g id="Grupo_54134" data-name="Grupo 54134" transform="translate(0)">
          <g id="Grupo_54126" data-name="Grupo 54126">
            <path id="Trazado_100293" data-name="Trazado 100293" d="M90.626,115.6V237.91a2.3,2.3,0,0,0,1.038,1.8l2.793,1.613a2.3,2.3,0,0,0,2.076,0l129.391-74.7a2.3,2.3,0,0,0,1.038-1.8V42.513A4.877,4.877,0,0,0,219.5,38.2L93.221,111.106A5.738,5.738,0,0,0,90.626,115.6Z" transform="translate(-90.626 -37.552)" fill="#455a64"/>
            <path id="Trazado_100294" data-name="Trazado 100294" d="M97.909,167.3l-6.526-3.784a5.3,5.3,0,0,0-.757,2.552V288.378a2.3,2.3,0,0,0,1.038,1.8l2.794,1.613a2.3,2.3,0,0,0,2.076,0l1.4-.806Z" transform="translate(-90.626 -88.021)" fill="#37474f"/>
            <path id="Trazado_100295" data-name="Trazado 100295" d="M227.622,43.092,101.346,116a5.736,5.736,0,0,0-2.6,4.495V242.8c0,.659.467.929,1.038.6l129.391-74.7a2.3,2.3,0,0,0,1.038-1.8V44.59C230.217,42.936,229.055,42.264,227.622,43.092Z" transform="translate(-93.881 -39.63)" fill="#37474f"/>
            <path id="Trazado_100296" data-name="Trazado 100296" d="M227.622,43.092,101.346,116a5.736,5.736,0,0,0-2.6,4.495V242.8c0,.659.467.929,1.038.6l129.391-74.7a2.3,2.3,0,0,0,1.038-1.8V44.59C230.217,42.936,229.055,42.264,227.622,43.092Z" transform="translate(-93.881 -39.63)" fill="#263238"/>
            <path id="Trazado_100297" data-name="Trazado 100297" d="M230.217,50.024V44.587c0-1.653-1.163-2.322-2.6-1.5l-126.276,72.9a5.738,5.738,0,0,0-2.6,4.5v5.437Z" transform="translate(-93.881 -39.63)" fill="#37474f"/>
          </g>
          <g id="Grupo_54133" data-name="Grupo 54133" transform="translate(130.788 5.953)">
            <g id="Grupo_54129" data-name="Grupo 54129" transform="translate(0 2.872)">
              <g id="Grupo_54127" data-name="Grupo 54127" transform="translate(0.059)">
                <path id="Trazado_100298" data-name="Trazado 100298" d="M309.167,54.682a.217.217,0,0,1-.1-.022.224.224,0,0,1-.107-.3l.924-1.956a.225.225,0,0,1,.406.192l-.924,1.956A.224.224,0,0,1,309.167,54.682Z" transform="translate(-308.942 -52.277)" fill="#fafafa"/>
              </g>
              <g id="Grupo_54128" data-name="Grupo 54128" transform="translate(0 0.842)">
                <path id="Trazado_100299" data-name="Trazado 100299" d="M309.068,55.369a.221.221,0,0,1-.105-.027.224.224,0,0,1-.118-.218l.114-1.239a.221.221,0,0,1,.244-.2.225.225,0,0,1,.2.245l-.065.71.348-.282a.225.225,0,1,1,.282.35l-.762.616A.226.226,0,0,1,309.068,55.369Z" transform="translate(-308.843 -53.681)" fill="#fafafa"/>
              </g>
            </g>
            <g id="Grupo_54132" data-name="Grupo 54132" transform="translate(1.356)">
              <g id="Grupo_54130" data-name="Grupo 54130" transform="translate(0 0.125)">
                <path id="Trazado_100300" data-name="Trazado 100300" d="M311.332,50.1a.219.219,0,0,1-.1-.022.224.224,0,0,1-.107-.3l.924-1.956a.225.225,0,0,1,.406.192l-.924,1.956A.224.224,0,0,1,311.332,50.1Z" transform="translate(-311.107 -47.693)" fill="#fafafa"/>
              </g>
              <g id="Grupo_54131" data-name="Grupo 54131" transform="translate(0.221)">
                <path id="Trazado_100301" data-name="Trazado 100301" d="M312.348,49.173h-.02a.225.225,0,0,1-.2-.245l.065-.71-.349.281a.224.224,0,1,1-.282-.349l.762-.616a.224.224,0,0,1,.247-.023.226.226,0,0,1,.118.219l-.114,1.239A.224.224,0,0,1,312.348,49.173Z" transform="translate(-311.475 -47.485)" fill="#fafafa"/>
              </g>
            </g>
          </g>
          <path id="Trazado_100302" data-name="Trazado 100302" d="M108.091,166.182a2.691,2.691,0,0,0-1.217,2.109c0,.777.545,1.091,1.217.7a2.691,2.691,0,0,0,1.218-2.109C109.309,166.109,108.764,165.794,108.091,166.182Z" transform="translate(-97.136 -89.021)" fill="#fafafa"/>
          <path id="Trazado_100303" data-name="Trazado 100303" d="M116.216,161.507A2.692,2.692,0,0,0,115,163.616c0,.777.545,1.091,1.218.7a2.691,2.691,0,0,0,1.217-2.109C117.433,161.434,116.888,161.119,116.216,161.507Z" transform="translate(-100.391 -87.148)" fill="#fafafa"/>
          <path id="Trazado_100304" data-name="Trazado 100304" d="M124.34,156.832a2.691,2.691,0,0,0-1.217,2.109c0,.777.545,1.091,1.217.7a2.692,2.692,0,0,0,1.218-2.109C125.558,156.758,125.013,156.444,124.34,156.832Z" transform="translate(-103.646 -85.275)" fill="#fafafa"/>
        </g>
      </g>
      <g id="Character" transform="translate(84.376 67.977)">
        <g id="Grupo_54152" data-name="Grupo 54152" transform="translate(141.039 19.196)">
          <path id="Trazado_100305" data-name="Trazado 100305" d="M385.037,153.882h13.206a1.74,1.74,0,0,0,1.741-1.741V128.687a8.343,8.343,0,0,0-8.344-8.344h0a8.343,8.343,0,0,0-8.344,8.344v23.455A1.74,1.74,0,0,0,385.037,153.882Z" transform="translate(-363.532 -120.343)" fill="#263238"/>
          <path id="Trazado_100306" data-name="Trazado 100306" d="M407.923,124.677l2.02-1.084a1.113,1.113,0,0,0-1.529-.505A1.2,1.2,0,0,0,407.923,124.677Z" transform="translate(-373.348 -121.39)" fill="#263238"/>
          <path id="Trazado_100307" data-name="Trazado 100307" d="M407.8,125.707l2.147.8a1.113,1.113,0,0,0-.628-1.483A1.2,1.2,0,0,0,407.8,125.707Z" transform="translate(-373.348 -122.191)" fill="#263238"/>
          <path id="Trazado_100308" data-name="Trazado 100308" d="M371.142,146.533l-6.128-.17c-.412-.352-6.848-7.617-6.848-7.617s-2.316,3.654-2.355,3.887,6.311,7.023,6.939,7.708a1.889,1.889,0,0,0,1.5.732c1.66.1,7.878.537,7.878.537Z" transform="translate(-352.52 -127.716)" fill="#f28f8f"/>
          <path id="Trazado_100309" data-name="Trazado 100309" d="M388.586,157.553l-10.136-.439c-.9-1.232-.873-4.49.029-5.532l11.22.306Z" transform="translate(-361.325 -132.859)" fill="#27debf"/>
          <g id="Grupo_54135" data-name="Grupo 54135" transform="translate(16.464 18.723)">
            <path id="Trazado_100310" data-name="Trazado 100310" d="M388.586,157.553l-10.136-.439c-.9-1.232-.873-4.49.029-5.532l11.22.306Z" transform="translate(-377.789 -151.582)" fill="#27debf"/>
            <path id="Trazado_100311" data-name="Trazado 100311" d="M388.586,157.553l-10.136-.439c-.9-1.232-.873-4.49.029-5.532l11.22.306Z" transform="translate(-377.789 -151.582)" opacity="0.1"/>
          </g>
          <path id="Trazado_100312" data-name="Trazado 100312" d="M353.846,134.324c1.2-.132,2-1.02,2.266-.77a.662.662,0,0,1,.034.868,8.285,8.285,0,0,1-1.791,1.034,13.505,13.505,0,0,0-.325,1.854c-.1.916-.065,2.747-.849,3.376-2.342,1.877-2.945-1.106-2.851-3.106C350.446,135.094,352.59,134.461,353.846,134.324Z" transform="translate(-350.32 -125.618)" fill="#f28f8f"/>
          <g id="Grupo_54136" data-name="Grupo 54136" transform="translate(20.552 91.637)">
            <path id="Trazado_100313" data-name="Trazado 100313" d="M390.883,274.414a1.973,1.973,0,0,1-.292,1.155,14.42,14.42,0,0,1-1.907,2.5c-1.019,1.1-2.544,2.39-3.636,3.343-.607.531-.63,1.332.239,1.613a6.535,6.535,0,0,0,4.78-.668c1.083-.583,2.63-3.275,3.533-3.683a4.768,4.768,0,0,0,1.971-1.181,1.678,1.678,0,0,0,.212-2.085c-.489-.91-1.223-2.314-1.526-2.158l.093.29c-.238.742-2.262,1.607-3.3,1.4Z" transform="translate(-384.611 -273.238)" fill="#263238"/>
          </g>
          <path id="Trazado_100314" data-name="Trazado 100314" d="M391.467,268.737a23.494,23.494,0,0,1,.912,3.6,1.869,1.869,0,0,1-.29,1.142,14.641,14.641,0,0,1-1.909,2.5c-.5.532-1.111,1.112-1.74,1.673a.52.52,0,0,0-.091.266c0,.568,1.384.719,2.193.483a5.113,5.113,0,0,0,2.5-1.921c.465-.623,1.516-1.818,2.181-2.713a4.594,4.594,0,0,0,.58-.9,1.845,1.845,0,0,0,.085-1.287l-.042-.132a14.428,14.428,0,0,1-.659-3.435" transform="translate(-365.556 -179.507)" fill="#ffa8a7"/>
          <path id="Trazado_100315" data-name="Trazado 100315" d="M406.934,276.918a19.391,19.391,0,0,0-.259,3.161v2.342H403.2v-3.993a.121.121,0,0,1-.048-.024s-.058-.786-.155-2.014" transform="translate(-371.426 -182.864)" fill="#ffa8a7"/>
          <g id="Grupo_54137" data-name="Grupo 54137" transform="translate(18.902 42.959)">
            <path id="Trazado_100316" data-name="Trazado 100316" d="M388.866,238.291c-1.917-6.206-6.188-17.309-6.773-19.256-.622-2.078.128-20.229.636-26.046l18.091-.969c1.377,5.9.037,13.846-.435,18.812-.459,4.833-1.027,10.481-1.027,10.481a28.7,28.7,0,0,1,1.039,8.844c-.239,2.468-1.407,9.772-1.934,12.958a5.017,5.017,0,0,1-3.935-.528c-.22-2.8-.641-7.9-1.036-11.234-.6-5.008-.8-8.663-1.311-11.587-.647-3.649-.87-17.948-.87-17.948l-2.084,16.22a20.253,20.253,0,0,1,1.867,4.821c.6,2.305,1.236,10.962,1.492,14.706A5.557,5.557,0,0,1,388.866,238.291Z" transform="translate(-381.858 -192.019)" fill="#37474f"/>
          </g>
          <path id="Trazado_100317" data-name="Trazado 100317" d="M394.164,206.437a17.938,17.938,0,0,1-5.189-2.888,9.264,9.264,0,0,0,3.877,3.39l.027,9.5,1.284-10" transform="translate(-365.807 -153.68)" fill="#263238"/>
          <g id="Grupo_54138" data-name="Grupo 54138" transform="translate(19.159 18.951)">
            <path id="Trazado_100318" data-name="Trazado 100318" d="M394.117,152.117s4.914.565,5.5.829a4.021,4.021,0,0,0,.193,6l-2.838,10c1.965,2.515,3.649,4.491,4.119,7.488-2.105,3.71-13.934,4.225-18.269,1.461.377-5.178,1.218-8.885.938-10.44-2.065-6.358-1.422-7.691-1.229-9.143.378-2.836,3.193-5.309,4.8-6.345h1.5Z" transform="translate(-382.285 -151.962)" fill="#27debf"/>
          </g>
          <g id="Grupo_54139" data-name="Grupo 54139" transform="translate(26.273 97.345)">
            <path id="Trazado_100319" data-name="Trazado 100319" d="M399.657,283.262v-.5a9.606,9.606,0,0,1-2.483,4.348c-1.1,1-2.59,2.153-2.97,3.268-.4,1.159,1.766,1.618,3.183,1.476a5.712,5.712,0,0,0,3.565-1.865,11.978,11.978,0,0,0,1.307-2.309c.42-.569,1.39-1.2,1.617-1.863a4.191,4.191,0,0,0-.2-1.823c-.161-.614-.335-1.289-.545-1.232,0,.075,0,.379,0,.379a2.748,2.748,0,0,1-1.737.587C400.885,283.75,399.652,283.649,399.657,283.262Z" transform="translate(-394.156 -282.761)" fill="#263238"/>
          </g>
          <g id="Grupo_54140" data-name="Grupo 54140" transform="translate(28.139 97.348)">
            <path id="Trazado_100320" data-name="Trazado 100320" d="M404.378,283.146a2.744,2.744,0,0,1-1.736.587c-.508.02-1.741-.082-1.737-.469v-.5a9.606,9.606,0,0,1-2.483,4.348c-.262.239-.548.487-.834.742-.583.649-.417,1.215.952,1.334s2.574-.708,3.613-1.984A22.4,22.4,0,0,0,404.378,283.146Z" transform="translate(-397.27 -282.767)" fill="#ffa8a7"/>
          </g>
          <g id="Grupo_54141" data-name="Grupo 54141" transform="translate(20.636 4.085)">
            <path id="Trazado_100321" data-name="Trazado 100321" d="M386.62,127.158c-.881.521-1.971,2.738-1.863,7.385.091,3.938,1.368,4.911,2.008,5.192a6.773,6.773,0,0,0,3.079-.09v2.363s-1.661,1.929-1.557,3.014,2.4,1.34,3.953.281a12.552,12.552,0,0,0,2.864-3.123l-.027-5.435s.707.687,1.906-.361c.99-.865,1.323-2.325.552-3.109a1.725,1.725,0,0,0-2.744.547,5.235,5.235,0,0,0-3.436-2.759C388.854,130.243,387.494,129.3,386.62,127.158Z" transform="translate(-384.75 -127.158)" fill="#ffa8a7"/>
          </g>
          <g id="Grupo_54142" data-name="Grupo 54142" transform="translate(25.039 9.989)">
            <path id="Trazado_100322" data-name="Trazado 100322" d="M392.1,137.5a.5.5,0,1,0,.52-.49A.5.5,0,0,0,392.1,137.5Z" transform="translate(-392.097 -137.009)" fill="#263238"/>
          </g>
          <g id="Grupo_54143" data-name="Grupo 54143" transform="translate(23.757 13.818)">
            <path id="Trazado_100323" data-name="Trazado 100323" d="M391.109,143.4l-1.151.367a.594.594,0,0,0,.748.413A.633.633,0,0,0,391.109,143.4Z" transform="translate(-389.958 -143.398)" fill="#f28f8f"/>
          </g>
          <g id="Grupo_54144" data-name="Grupo 54144" transform="translate(20.88 7.988)">
            <path id="Trazado_100324" data-name="Trazado 100324" d="M385.256,134.642l1-.695a.585.585,0,0,0-.833-.171A.641.641,0,0,0,385.256,134.642Z" transform="translate(-385.157 -133.671)" fill="#263238"/>
          </g>
          <g id="Grupo_54145" data-name="Grupo 54145" transform="translate(25.479 8.355)">
            <path id="Trazado_100325" data-name="Trazado 100325" d="M393.833,135.253l-1-.694a.585.585,0,0,1,.832-.171A.64.64,0,0,1,393.833,135.253Z" transform="translate(-392.831 -134.283)" fill="#263238"/>
          </g>
          <g id="Grupo_54146" data-name="Grupo 54146" transform="translate(21.209 9.63)">
            <path id="Trazado_100326" data-name="Trazado 100326" d="M385.708,136.9a.5.5,0,1,0,.521-.49A.5.5,0,0,0,385.708,136.9Z" transform="translate(-385.707 -136.411)" fill="#263238"/>
          </g>
          <g id="Grupo_54147" data-name="Grupo 54147" transform="translate(21.899 9.838)">
            <path id="Trazado_100327" data-name="Trazado 100327" d="M388.505,136.757l-.079,2.981-1.569-.486Z" transform="translate(-386.857 -136.757)" fill="#f28f8f"/>
          </g>
          <g id="Grupo_54148" data-name="Grupo 54148" transform="translate(25.73 14.625)">
            <path id="Trazado_100328" data-name="Trazado 100328" d="M393.25,146.69c1.266-.167,3.872-.915,4.278-1.945a2.663,2.663,0,0,1-.913,1.314,13.727,13.727,0,0,1-3.365,1.419Z" transform="translate(-393.25 -144.745)" fill="#f28f8f"/>
          </g>
          <g id="Grupo_54151" data-name="Grupo 54151" transform="translate(31.233 31.485)">
            <g id="Grupo_54149" data-name="Grupo 54149">
              <path id="Trazado_100329" data-name="Trazado 100329" d="M406.307,172.875l-3.875,6.12,2.614-1.675Z" transform="translate(-402.432 -172.875)" fill="#27debf"/>
            </g>
            <g id="Grupo_54150" data-name="Grupo 54150" opacity="0.2">
              <path id="Trazado_100330" data-name="Trazado 100330" d="M406.307,172.875l-3.875,6.12,2.614-1.675Z" transform="translate(-402.432 -172.875)"/>
            </g>
          </g>
        </g>
        <g id="Grupo_54213" data-name="Grupo 54213">
          <g id="Grupo_54166" data-name="Grupo 54166">
            <path id="Trazado_100331" data-name="Trazado 100331" d="M116.4,268.688l-.358-.207a2.3,2.3,0,0,1-1.038-1.8V165.066a2.3,2.3,0,0,1,1.038-1.8l66.092-38.159a2.293,2.293,0,0,0,1.038-1.8v-6.036a2.3,2.3,0,0,1,1.038-1.8L213.778,98.4a2.292,2.292,0,0,1,2.076,0l.359.207a2.3,2.3,0,0,1,1.038,1.8v3.225c0,.662.464.93,1.038.6l27.139-15.668a2.3,2.3,0,0,1,2.076,0l.358.207a2.3,2.3,0,0,1,1.038,1.8V192.187a2.293,2.293,0,0,1-1.038,1.8l-129.39,74.7A2.292,2.292,0,0,1,116.4,268.688Z" transform="translate(-114.999 -88.315)" fill="#e0e0e0"/>
            <path id="Trazado_100332" data-name="Trazado 100332" d="M119.062,269.1V167.482a2.3,2.3,0,0,1,1.038-1.8l66.092-38.159a2.293,2.293,0,0,0,1.038-1.8v-6.035a2.3,2.3,0,0,1,1.038-1.8l29.574-17.074c.573-.331,1.038-.063,1.038.6v6.036c0,.662.464.931,1.038.6L249.49,90.98c.573-.331,1.038-.062,1.038.6V193.2a2.293,2.293,0,0,1-1.038,1.8L120.1,269.7C119.527,270.03,119.062,269.762,119.062,269.1Z" transform="translate(-116.626 -89.326)" fill="#f5f5f5"/>
            <g id="Grupo_54165" data-name="Grupo 54165">
              <path id="Trazado_100333" data-name="Trazado 100333" d="M115,171.416v.884l2.435,1.405L248.9,97.8V90.568a2.294,2.294,0,0,0-1.038-1.8l-.358-.207a2.3,2.3,0,0,0-2.076,0l-27.14,15.669c-.573.331-1.038.063-1.038-.6v-3.225a2.293,2.293,0,0,0-1.038-1.8l-.358-.207a2.3,2.3,0,0,0-2.076,0L184.2,115.477a2.293,2.293,0,0,0-1.038,1.8v6.036a2.3,2.3,0,0,1-1.038,1.8l-66.092,38.157a2.3,2.3,0,0,0-1.037,1.8Z" transform="translate(-114.999 -88.315)" fill="#37474f"/>
              <path id="Trazado_100334" data-name="Trazado 100334" d="M115,171.416v.884l2.435,1.405L248.9,97.8V90.568a2.294,2.294,0,0,0-1.038-1.8l-.358-.207a2.3,2.3,0,0,0-2.076,0l-27.14,15.669c-.573.331-1.038.063-1.038-.6v-3.225a2.293,2.293,0,0,0-1.038-1.8l-.358-.207a2.3,2.3,0,0,0-2.076,0L184.2,115.477a2.293,2.293,0,0,0-1.038,1.8v6.036a2.3,2.3,0,0,1-1.038,1.8l-66.092,38.157a2.3,2.3,0,0,0-1.037,1.8Z" transform="translate(-114.999 -88.315)" fill="#fafafa"/>
              <path id="Trazado_100335" data-name="Trazado 100335" d="M233.4,146v-8.434l-4.565-2.635a2.12,2.12,0,0,0-.3,1.024v6.036a2.125,2.125,0,0,1-.3,1.023Z" transform="translate(-160.364 -106.99)" fill="#e0e0e0"/>
              <path id="Trazado_100336" data-name="Trazado 100336" d="M119.868,217.3l-4.565-2.636a2.119,2.119,0,0,0-.3,1.023v7.235l2.435,1.405Z" transform="translate(-114.999 -138.937)" fill="#e0e0e0"/>
              <path id="Trazado_100337" data-name="Trazado 100337" d="M186.19,127.525,120.1,165.683a2.294,2.294,0,0,0-1.037,1.8v7.235l131.466-75.9V91.579c0-.662-.464-.93-1.038-.6l-29.574,17.075c-.573.331-1.038.062-1.038-.6v-6.036c0-.662-.464-.931-1.038-.6l-29.573,17.074a2.3,2.3,0,0,0-1.038,1.8v6.036A2.294,2.294,0,0,1,186.19,127.525Z" transform="translate(-116.626 -89.326)" fill="#ebebeb"/>
              <g id="Grupo_54158" data-name="Grupo 54158" transform="translate(5.623 7.213)">
                <g id="Grupo_54153" data-name="Grupo 54153" transform="translate(0 66.288)" opacity="0.7" style="mix-blend-mode: multiply;isolation: isolate">
                  <path id="Trazado_100338" data-name="Trazado 100338" d="M127.638,216.265l-2.131,1.231.818-1.4a.3.3,0,1,0-.518-.3l-1.384,2.377a.3.3,0,0,0-.031.23.3.3,0,0,0,.142.183l1.385.778a.3.3,0,0,0,.147.038.3.3,0,0,0,.147-.561l-.926-.52,2.652-1.531a.3.3,0,1,0-.3-.519Z" transform="translate(-124.381 -212.83)" fill="#e0e0e0"/>
                  <path id="Trazado_100339" data-name="Trazado 100339" d="M135.612,211.95a.3.3,0,0,0-.142-.183l-1.384-.778a.3.3,0,0,0-.294.523l.927.52-2.652,1.531a.3.3,0,0,0,.15.559.3.3,0,0,0,.15-.04l2.132-1.23-.818,1.4a.3.3,0,1,0,.517.3l1.385-2.377A.3.3,0,0,0,135.612,211.95Z" transform="translate(-127.4 -210.95)" fill="#e0e0e0"/>
                </g>
                <g id="Grupo_54154" data-name="Grupo 54154" transform="translate(11.423 8.459)">
                  <path id="Trazado_100340" data-name="Trazado 100340" d="M144.737,169.377l94.787-54.726c.717-.414,1.3-.12,1.3.656a2.783,2.783,0,0,1-1.3,2.155l-94.787,54.725c-.717.414-1.3.12-1.3-.656A2.782,2.782,0,0,1,144.737,169.377Z" transform="translate(-143.439 -114.463)" fill="#e0e0e0"/>
                </g>
                <g id="Grupo_54155" data-name="Grupo 54155" transform="translate(111.24 5.622)">
                  <path id="Trazado_100341" data-name="Trazado 100341" d="M311.2,109.9c.672-.388,1.217-.073,1.217.7a2.691,2.691,0,0,1-1.217,2.109c-.672.388-1.217.073-1.217-.7A2.692,2.692,0,0,1,311.2,109.9Z" transform="translate(-309.982 -109.731)" fill="#fafafa"/>
                </g>
                <g id="Grupo_54156" data-name="Grupo 54156" transform="translate(116.11 2.811)">
                  <path id="Trazado_100342" data-name="Trazado 100342" d="M319.324,105.207c.672-.388,1.217-.073,1.217.7a2.692,2.692,0,0,1-1.217,2.109c-.672.388-1.217.073-1.217-.7A2.691,2.691,0,0,1,319.324,105.207Z" transform="translate(-318.107 -105.041)" fill="#fafafa"/>
                </g>
                <g id="Grupo_54157" data-name="Grupo 54157" transform="translate(120.979)">
                  <path id="Trazado_100343" data-name="Trazado 100343" d="M327.448,100.517c.672-.388,1.217-.074,1.217.7a2.689,2.689,0,0,1-1.217,2.108c-.672.388-1.217.074-1.217-.7A2.691,2.691,0,0,1,327.448,100.517Z" transform="translate(-326.231 -100.35)" fill="#fafafa"/>
                </g>
              </g>
              <g id="Grupo_54164" data-name="Grupo 54164" transform="translate(73.036 14.811)" opacity="0.7" style="mix-blend-mode: multiply;isolation: isolate">
                <g id="Grupo_54159" data-name="Grupo 54159" transform="translate(4.87 3.672)">
                  <path id="Trazado_100344" data-name="Trazado 100344" d="M244.983,129.836c0,.777.581,1.07,1.3.657l14.447-8.341a2.784,2.784,0,0,0,1.3-2.155c0-.776-.581-1.07-1.3-.656l-14.447,8.341A2.783,2.783,0,0,0,244.983,129.836Z" transform="translate(-244.983 -119.153)" fill="#e0e0e0"/>
                </g>
                <g id="Grupo_54160" data-name="Grupo 54160" transform="translate(0 14.892)">
                  <path id="Trazado_100345" data-name="Trazado 100345" d="M238.075,138.04a2.69,2.69,0,0,0-1.217,2.108c0,.777.545,1.091,1.217.7a2.691,2.691,0,0,0,1.217-2.109C239.293,137.966,238.748,137.651,238.075,138.04Z" transform="translate(-236.858 -137.873)" fill="#27debf"/>
                </g>
                <g id="Grupo_54163" data-name="Grupo 54163" transform="translate(24.046)">
                  <g id="Grupo_54161" data-name="Grupo 54161" transform="translate(0 1.406)">
                    <path id="Trazado_100346" data-name="Trazado 100346" d="M279.713,117.376a.3.3,0,0,1-.15-.04l-2.435-1.405a.3.3,0,1,1,.3-.519l2.435,1.405a.3.3,0,0,1-.15.559Z" transform="translate(-276.978 -115.372)" fill="#e0e0e0"/>
                  </g>
                  <g id="Grupo_54162" data-name="Grupo 54162">
                    <path id="Trazado_100347" data-name="Trazado 100347" d="M277.278,117.842a.3.3,0,0,1-.26-.45l2.435-4.216a.3.3,0,1,1,.518.3l-2.435,4.216A.3.3,0,0,1,277.278,117.842Z" transform="translate(-276.978 -113.026)" fill="#e0e0e0"/>
                  </g>
                </g>
              </g>
            </g>
          </g>
          <g id="Grupo_54167" data-name="Grupo 54167" transform="translate(7.304 4.217)">
            <path id="Trazado_100348" data-name="Trazado 100348" d="M128.582,275.723l-.358-.207a2.3,2.3,0,0,1-1.038-1.8V172.1a2.294,2.294,0,0,1,1.038-1.8l34.443-19.885a2.3,2.3,0,0,0,1.038-1.8v-6.036a2.293,2.293,0,0,1,1.038-1.8l29.573-17.074a2.3,2.3,0,0,1,2.076,0l.358.207a2.3,2.3,0,0,1,1.038,1.8v3.225c0,.662.465.931,1.039.6L257.614,95.6a2.292,2.292,0,0,1,2.076,0l.358.207a2.3,2.3,0,0,1,1.038,1.8V199.221a2.3,2.3,0,0,1-1.038,1.8l-129.39,74.7A2.3,2.3,0,0,1,128.582,275.723Z" transform="translate(-127.185 -95.35)" fill="#e0e0e0"/>
            <path id="Trazado_100349" data-name="Trazado 100349" d="M131.248,276.134V174.516a2.3,2.3,0,0,1,1.038-1.8l34.443-19.885a2.3,2.3,0,0,0,1.038-1.8V145a2.3,2.3,0,0,1,1.038-1.8l29.573-17.074c.574-.331,1.038-.062,1.038.6v6.037c0,.662.465.93,1.039.6l61.223-35.348c.573-.331,1.038-.063,1.038.6V200.232a2.3,2.3,0,0,1-1.038,1.8l-129.39,74.7C131.712,277.064,131.248,276.8,131.248,276.134Z" transform="translate(-128.812 -96.361)" fill="#fafafa"/>
          </g>
          <g id="Grupo_54180" data-name="Grupo 54180" transform="translate(7.304 4.217)">
            <path id="Trazado_100350" data-name="Trazado 100350" d="M127.185,178.451v.883l2.435,1.406,131.467-75.9V97.6a2.294,2.294,0,0,0-1.039-1.8l-.358-.207a2.292,2.292,0,0,0-2.076,0L198.826,129.54c-.574.331-1.039.063-1.039-.6v-3.225a2.3,2.3,0,0,0-1.038-1.8l-.358-.207a2.3,2.3,0,0,0-2.076,0l-29.573,17.074a2.293,2.293,0,0,0-1.038,1.8v6.036a2.3,2.3,0,0,1-1.038,1.8L128.223,170.3a2.293,2.293,0,0,0-1.038,1.8Z" transform="translate(-127.185 -95.35)" fill="#f0f0f0"/>
            <path id="Trazado_100351" data-name="Trazado 100351" d="M192.781,183.519v-8.433l-4.565-2.635a2.12,2.12,0,0,0-.3,1.024v6.036a2.121,2.121,0,0,1-.3,1.022Z" transform="translate(-151.394 -126.24)" fill="#e0e0e0"/>
            <path id="Trazado_100352" data-name="Trazado 100352" d="M132.054,224.334l-4.565-2.635a2.123,2.123,0,0,0-.3,1.022v7.235l2.435,1.406Z" transform="translate(-127.185 -145.972)" fill="#e0e0e0"/>
            <path id="Trazado_100353" data-name="Trazado 100353" d="M166.728,152.834l-34.443,19.885a2.3,2.3,0,0,0-1.038,1.8v7.235l131.467-75.9V98.614c0-.662-.465-.931-1.039-.6l-61.222,35.348c-.574.331-1.039.062-1.039-.6v-6.037c0-.662-.465-.93-1.038-.6L168.8,143.2a2.3,2.3,0,0,0-1.038,1.8v6.036A2.3,2.3,0,0,1,166.728,152.834Z" transform="translate(-128.812 -96.361)" fill="#e0e0e0"/>
            <g id="Grupo_54173" data-name="Grupo 54173" transform="translate(5.623 7.214)">
              <g id="Grupo_54168" data-name="Grupo 54168" transform="translate(0 66.288)" opacity="0.7" style="mix-blend-mode: multiply;isolation: isolate">
                <path id="Trazado_100354" data-name="Trazado 100354" d="M139.824,223.3l-2.131,1.23.818-1.4a.3.3,0,1,0-.517-.3l-1.385,2.377a.3.3,0,0,0,.112.412l1.384.779a.3.3,0,0,0,.147.038.3.3,0,0,0,.147-.561l-.927-.52,2.652-1.531a.3.3,0,0,0-.3-.519Z" transform="translate(-136.567 -219.865)" fill="#e0e0e0"/>
                <path id="Trazado_100355" data-name="Trazado 100355" d="M147.8,218.986a.3.3,0,0,0-.142-.183l-1.385-.778a.3.3,0,0,0-.294.523l.926.52-2.652,1.531a.3.3,0,1,0,.3.519l2.131-1.231-.818,1.4a.3.3,0,0,0,.518.3l1.384-2.378A.3.3,0,0,0,147.8,218.986Z" transform="translate(-139.586 -217.986)" fill="#e0e0e0"/>
              </g>
              <g id="Grupo_54169" data-name="Grupo 54169" transform="translate(11.423 8.459)">
                <path id="Trazado_100356" data-name="Trazado 100356" d="M156.924,176.413l94.787-54.726c.717-.414,1.3-.12,1.3.656a2.782,2.782,0,0,1-1.3,2.155l-94.787,54.726c-.717.414-1.3.12-1.3-.656A2.782,2.782,0,0,1,156.924,176.413Z" transform="translate(-155.626 -121.499)" fill="#e0e0e0"/>
              </g>
              <g id="Grupo_54170" data-name="Grupo 54170" transform="translate(111.24 5.622)">
                <path id="Trazado_100357" data-name="Trazado 100357" d="M323.386,116.933c.672-.388,1.217-.073,1.217.7a2.691,2.691,0,0,1-1.217,2.109c-.672.388-1.217.073-1.217-.7A2.691,2.691,0,0,1,323.386,116.933Z" transform="translate(-322.169 -116.767)" fill="#fafafa"/>
              </g>
              <g id="Grupo_54171" data-name="Grupo 54171" transform="translate(116.109 2.811)">
                <path id="Trazado_100358" data-name="Trazado 100358" d="M331.51,112.243c.672-.388,1.217-.074,1.217.7a2.689,2.689,0,0,1-1.217,2.109c-.672.388-1.217.074-1.217-.7A2.692,2.692,0,0,1,331.51,112.243Z" transform="translate(-330.293 -112.076)" fill="#fafafa"/>
              </g>
              <g id="Grupo_54172" data-name="Grupo 54172" transform="translate(120.979)">
                <path id="Trazado_100359" data-name="Trazado 100359" d="M339.635,107.553c.672-.388,1.217-.074,1.217.7a2.691,2.691,0,0,1-1.217,2.109c-.672.388-1.217.074-1.217-.7A2.689,2.689,0,0,1,339.635,107.553Z" transform="translate(-338.418 -107.386)" fill="#fafafa"/>
              </g>
            </g>
            <g id="Grupo_54179" data-name="Grupo 54179" transform="translate(41.388 33.084)" opacity="0.7" style="mix-blend-mode: multiply;isolation: isolate">
              <g id="Grupo_54174" data-name="Grupo 54174" transform="translate(4.869 3.672)">
                <path id="Trazado_100360" data-name="Trazado 100360" d="M204.364,167.361c0,.776.581,1.07,1.3.656l14.447-8.341a2.783,2.783,0,0,0,1.3-2.155c0-.776-.581-1.07-1.3-.656l-14.447,8.341A2.782,2.782,0,0,0,204.364,167.361Z" transform="translate(-204.364 -156.677)" fill="#e0e0e0"/>
              </g>
              <g id="Grupo_54175" data-name="Grupo 54175" transform="translate(0 14.892)">
                <path id="Trazado_100361" data-name="Trazado 100361" d="M197.457,175.563a2.691,2.691,0,0,0-1.217,2.109c0,.776.545,1.091,1.217.7a2.692,2.692,0,0,0,1.217-2.109C198.675,175.49,198.129,175.175,197.457,175.563Z" transform="translate(-196.24 -175.397)" fill="#27debf"/>
              </g>
              <g id="Grupo_54178" data-name="Grupo 54178" transform="translate(24.046)">
                <g id="Grupo_54176" data-name="Grupo 54176" transform="translate(0 1.405)">
                  <path id="Trazado_100362" data-name="Trazado 100362" d="M239.094,154.9a.3.3,0,0,1-.15-.04l-2.435-1.405a.3.3,0,0,1,.3-.519l2.435,1.405a.3.3,0,0,1-.15.559Z" transform="translate(-236.36 -152.895)" fill="#e0e0e0"/>
                </g>
                <g id="Grupo_54177" data-name="Grupo 54177">
                  <path id="Trazado_100363" data-name="Trazado 100363" d="M236.66,155.366a.3.3,0,0,1-.15-.04.3.3,0,0,1-.11-.409l2.435-4.216a.3.3,0,1,1,.518.3l-2.435,4.216A.3.3,0,0,1,236.66,155.366Z" transform="translate(-236.36 -150.55)" fill="#e0e0e0"/>
                </g>
              </g>
            </g>
          </g>
          <path id="Trazado_100364" data-name="Trazado 100364" d="M140.769,282.759l-.358-.207a2.293,2.293,0,0,1-1.038-1.8V179.136a2.293,2.293,0,0,1,1.038-1.8l2.792-1.612a2.293,2.293,0,0,0,1.038-1.8v-6.035a2.293,2.293,0,0,1,1.038-1.8l29.573-17.074a2.294,2.294,0,0,1,2.076,0l.358.207a2.294,2.294,0,0,1,1.038,1.8v3.225c0,.662.464.93,1.038.6L269.8,102.634a2.3,2.3,0,0,1,2.076,0l.358.207a2.3,2.3,0,0,1,1.038,1.8V206.257a2.293,2.293,0,0,1-1.038,1.8l-129.39,74.7A2.3,2.3,0,0,1,140.769,282.759Z" transform="translate(-124.764 -93.953)" fill="#e0e0e0"/>
          <path id="Trazado_100365" data-name="Trazado 100365" d="M143.435,283.17V181.552a2.3,2.3,0,0,1,1.038-1.8l2.792-1.612a2.293,2.293,0,0,0,1.038-1.8v-6.035a2.3,2.3,0,0,1,1.038-1.8l29.573-17.074c.574-.331,1.038-.062,1.038.6v6.036c0,.662.464.931,1.038.6l92.873-53.621c.573-.331,1.038-.062,1.038.6V207.267a2.293,2.293,0,0,1-1.038,1.8l-129.39,74.7C143.9,284.1,143.435,283.832,143.435,283.17Z" transform="translate(-126.392 -94.963)" fill="#fafafa"/>
          <g id="Grupo_54183" data-name="Grupo 54183" transform="translate(14.608 17.922)">
            <path id="Trazado_100366" data-name="Trazado 100366" d="M143.434,194.119V213.8l131.466-75.9V118.217Z" transform="translate(-141 -118.217)" fill="#27debf"/>
            <g id="Grupo_54181" data-name="Grupo 54181" transform="translate(0 74.497)">
              <path id="Trazado_100367" data-name="Trazado 100367" d="M139.372,242.514v19.678l2.435,1.406V243.919Z" transform="translate(-139.372 -242.514)" fill="#27debf"/>
              <path id="Trazado_100368" data-name="Trazado 100368" d="M139.372,242.514v19.678l2.435,1.406V243.919Z" transform="translate(-139.372 -242.514)" opacity="0.2"/>
            </g>
            <g id="Grupo_54182" data-name="Grupo 54182" transform="translate(43.823 32.865)">
              <path id="Trazado_100369" data-name="Trazado 100369" d="M213.788,201.4l42.525-24.552v2.811L213.788,204.21c-.716.414-1.3.12-1.3-.656A2.783,2.783,0,0,1,213.788,201.4Z" transform="translate(-212.49 -174.572)" fill="#fff"/>
              <path id="Trazado_100370" data-name="Trazado 100370" d="M289.258,173.218l-3.652,2.109v2.811l3.652-2.109a2.689,2.689,0,0,0,1.217-2.108C290.475,173.145,289.93,172.83,289.258,173.218Z" transform="translate(-241.784 -173.052)" fill="#fff"/>
            </g>
          </g>
          <g id="Grupo_54194" data-name="Grupo 54194" transform="translate(19.478 102.82)">
            <g id="Grupo_54185" data-name="Grupo 54185" transform="translate(2.433)">
              <path id="Trazado_100371" data-name="Trazado 100371" d="M153.993,279.815c1.345-.776,2.435-.147,2.435,1.405a5.381,5.381,0,0,1-2.435,4.217c-1.346.777-2.436.147-2.436-1.405A5.38,5.38,0,0,1,153.993,279.815Z" transform="translate(-151.557 -267.726)" fill="#27debf"/>
              <path id="Trazado_100372" data-name="Trazado 100372" d="M165.043,268.4l14.447-8.341c.717-.414,1.3-.12,1.3.656a2.783,2.783,0,0,1-1.3,2.155l-14.447,8.341c-.716.414-1.3.12-1.3-.656A2.783,2.783,0,0,1,165.043,268.4Z" transform="translate(-156.44 -259.867)" fill="#27debf"/>
              <g id="Grupo_54184" data-name="Grupo 54184" transform="translate(7.305 8.153)">
                <path id="Trazado_100373" data-name="Trazado 100373" d="M163.746,279.514a1.391,1.391,0,0,1,.649-1.078l8.441-4.873c.358-.207.648-.06.648.328a1.39,1.39,0,0,1-.648,1.078l-8.441,4.873C164.037,280.049,163.746,279.9,163.746,279.514Z" transform="translate(-163.746 -273.47)" fill="#27debf"/>
                <path id="Trazado_100374" data-name="Trazado 100374" d="M163.746,279.514a1.391,1.391,0,0,1,.649-1.078l8.441-4.873c.358-.207.648-.06.648.328a1.39,1.39,0,0,1-.648,1.078l-8.441,4.873C164.037,280.049,163.746,279.9,163.746,279.514Z" transform="translate(-163.746 -273.47)" fill="#fff" opacity="0.3"/>
              </g>
            </g>
            <g id="Grupo_54187" data-name="Grupo 54187" transform="translate(2.433 10.788)">
              <path id="Trazado_100375" data-name="Trazado 100375" d="M153.993,297.815c1.345-.776,2.435-.147,2.435,1.405a5.381,5.381,0,0,1-2.435,4.217c-1.346.777-2.436.147-2.436-1.405A5.38,5.38,0,0,1,153.993,297.815Z" transform="translate(-151.557 -285.726)" fill="#27debf"/>
              <path id="Trazado_100376" data-name="Trazado 100376" d="M165.043,286.4l14.447-8.341c.717-.414,1.3-.12,1.3.656a2.783,2.783,0,0,1-1.3,2.155l-14.447,8.341c-.716.414-1.3.12-1.3-.656A2.783,2.783,0,0,1,165.043,286.4Z" transform="translate(-156.44 -277.867)" fill="#27debf"/>
              <g id="Grupo_54186" data-name="Grupo 54186" transform="translate(7.305 8.153)">
                <path id="Trazado_100377" data-name="Trazado 100377" d="M163.746,297.514a1.391,1.391,0,0,1,.649-1.078l8.441-4.873c.358-.207.648-.06.648.328a1.39,1.39,0,0,1-.648,1.078l-8.441,4.873C164.037,298.049,163.746,297.9,163.746,297.514Z" transform="translate(-163.746 -291.47)" fill="#27debf"/>
                <path id="Trazado_100378" data-name="Trazado 100378" d="M163.746,297.514a1.391,1.391,0,0,1,.649-1.078l8.441-4.873c.358-.207.648-.06.648.328a1.39,1.39,0,0,1-.648,1.078l-8.441,4.873C164.037,298.049,163.746,297.9,163.746,297.514Z" transform="translate(-163.746 -291.47)" fill="#fff" opacity="0.3"/>
              </g>
            </g>
            <g id="Grupo_54189" data-name="Grupo 54189" transform="translate(2.433 22.775)">
              <path id="Trazado_100379" data-name="Trazado 100379" d="M153.993,317.815c1.345-.776,2.435-.147,2.435,1.405a5.381,5.381,0,0,1-2.435,4.217c-1.346.777-2.436.147-2.436-1.405A5.38,5.38,0,0,1,153.993,317.815Z" transform="translate(-151.557 -305.726)" fill="#27debf"/>
              <path id="Trazado_100380" data-name="Trazado 100380" d="M165.043,306.4l14.447-8.341c.717-.414,1.3-.12,1.3.656a2.783,2.783,0,0,1-1.3,2.155l-14.447,8.341c-.716.414-1.3.12-1.3-.656A2.783,2.783,0,0,1,165.043,306.4Z" transform="translate(-156.44 -297.867)" fill="#27debf"/>
              <g id="Grupo_54188" data-name="Grupo 54188" transform="translate(7.305 8.153)">
                <path id="Trazado_100381" data-name="Trazado 100381" d="M163.746,317.514a1.391,1.391,0,0,1,.649-1.078l8.441-4.873c.358-.207.648-.06.648.328a1.39,1.39,0,0,1-.648,1.078l-8.441,4.873C164.037,318.049,163.746,317.9,163.746,317.514Z" transform="translate(-163.746 -311.47)" fill="#27debf"/>
                <path id="Trazado_100382" data-name="Trazado 100382" d="M163.746,317.514a1.391,1.391,0,0,1,.649-1.078l8.441-4.873c.358-.207.648-.06.648.328a1.39,1.39,0,0,1-.648,1.078l-8.441,4.873C164.037,318.049,163.746,317.9,163.746,317.514Z" transform="translate(-163.746 -311.47)" fill="#fff" opacity="0.3"/>
              </g>
            </g>
            <g id="Grupo_54191" data-name="Grupo 54191" transform="translate(2.433 41.954)">
              <path id="Trazado_100383" data-name="Trazado 100383" d="M153.993,349.815c1.345-.776,2.435-.147,2.435,1.405a5.381,5.381,0,0,1-2.435,4.217c-1.346.777-2.436.147-2.436-1.405A5.38,5.38,0,0,1,153.993,349.815Z" transform="translate(-151.557 -337.726)" fill="#27debf"/>
              <path id="Trazado_100384" data-name="Trazado 100384" d="M165.043,338.4l14.447-8.341c.717-.414,1.3-.12,1.3.656a2.783,2.783,0,0,1-1.3,2.155l-14.447,8.341c-.716.414-1.3.12-1.3-.656A2.783,2.783,0,0,1,165.043,338.4Z" transform="translate(-156.44 -329.867)" fill="#27debf"/>
              <g id="Grupo_54190" data-name="Grupo 54190" transform="translate(7.305 8.153)">
                <path id="Trazado_100385" data-name="Trazado 100385" d="M163.746,349.514a1.391,1.391,0,0,1,.649-1.078l8.441-4.873c.358-.207.648-.06.648.328a1.391,1.391,0,0,1-.648,1.078l-8.441,4.873C164.037,350.049,163.746,349.9,163.746,349.514Z" transform="translate(-163.746 -343.47)" fill="#27debf"/>
                <path id="Trazado_100386" data-name="Trazado 100386" d="M163.746,349.514a1.391,1.391,0,0,1,.649-1.078l8.441-4.873c.358-.207.648-.06.648.328a1.391,1.391,0,0,1-.648,1.078l-8.441,4.873C164.037,350.049,163.746,349.9,163.746,349.514Z" transform="translate(-163.746 -343.47)" fill="#fff" opacity="0.3"/>
              </g>
            </g>
            <g id="Grupo_54193" data-name="Grupo 54193" transform="translate(2.433 52.143)">
              <path id="Trazado_100387" data-name="Trazado 100387" d="M153.993,366.815c1.345-.776,2.435-.147,2.435,1.405a5.381,5.381,0,0,1-2.435,4.217c-1.346.777-2.436.147-2.436-1.405A5.38,5.38,0,0,1,153.993,366.815Z" transform="translate(-151.557 -354.726)" fill="#27debf"/>
              <path id="Trazado_100388" data-name="Trazado 100388" d="M165.043,355.4l14.447-8.341c.717-.414,1.3-.12,1.3.656a2.783,2.783,0,0,1-1.3,2.155l-14.447,8.341c-.716.414-1.3.12-1.3-.656A2.783,2.783,0,0,1,165.043,355.4Z" transform="translate(-156.44 -346.867)" fill="#27debf"/>
              <g id="Grupo_54192" data-name="Grupo 54192" transform="translate(7.305 8.153)">
                <path id="Trazado_100389" data-name="Trazado 100389" d="M163.746,366.514a1.391,1.391,0,0,1,.649-1.078l8.441-4.873c.358-.207.648-.06.648.328a1.391,1.391,0,0,1-.648,1.078l-8.441,4.873C164.037,367.049,163.746,366.9,163.746,366.514Z" transform="translate(-163.746 -360.47)" fill="#27debf"/>
                <path id="Trazado_100390" data-name="Trazado 100390" d="M163.746,366.514a1.391,1.391,0,0,1,.649-1.078l8.441-4.873c.358-.207.648-.06.648.328a1.391,1.391,0,0,1-.648,1.078l-8.441,4.873C164.037,367.049,163.746,366.9,163.746,366.514Z" transform="translate(-163.746 -360.47)" fill="#fff" opacity="0.3"/>
              </g>
            </g>
            <path id="Trazado_100391" data-name="Trazado 100391" d="M147.5,339.175v.065c0,.2.14.279.312.18l13.985-8.074a.689.689,0,0,0,.311-.539v-.066c0-.2-.139-.279-.311-.18l-13.985,8.074A.687.687,0,0,0,147.5,339.175Z" transform="translate(-147.497 -288.174)" fill="#e0e0e0"/>
          </g>
          <g id="Grupo_54197" data-name="Grupo 54197" transform="translate(53.561 59.255)">
            <path id="Trazado_100392" data-name="Trazado 100392" d="M205.662,225.218l65.572-37.861c.717-.414,1.3-.078,1.3.749V213.22a2.867,2.867,0,0,1-1.3,2.248l-65.572,37.861c-.717.414-1.3.078-1.3-.749V227.466A2.867,2.867,0,0,1,205.662,225.218Z" transform="translate(-204.364 -187.181)" fill="#27debf"/>
            <g id="Grupo_54195" data-name="Grupo 54195" transform="translate(4.87 5.616)">
              <path id="Trazado_100393" data-name="Trazado 100393" d="M212.489,246.6c0,.776.581,1.07,1.3.656l15.744-9.089a2.781,2.781,0,0,0,1.3-2.154c0-.776-.581-1.069-1.3-.656l-15.744,9.089A2.783,2.783,0,0,0,212.489,246.6Z" transform="translate(-212.489 -212.023)" fill="#f5f5f5"/>
              <path id="Trazado_100394" data-name="Trazado 100394" d="M245.935,227.29c0,.776.581,1.07,1.3.656l15.743-9.089a2.781,2.781,0,0,0,1.3-2.154c0-.776-.581-1.069-1.3-.655l-15.743,9.088A2.782,2.782,0,0,0,245.935,227.29Z" transform="translate(-225.889 -204.287)" fill="#f5f5f5"/>
              <path id="Trazado_100395" data-name="Trazado 100395" d="M279.382,207.981c0,.776.581,1.07,1.3.656l15.743-9.089a2.781,2.781,0,0,0,1.3-2.153c0-.776-.581-1.07-1.3-.656l-15.743,9.088A2.782,2.782,0,0,0,279.382,207.981Z" transform="translate(-239.29 -196.551)" fill="#f5f5f5"/>
            </g>
            <g id="Grupo_54196" data-name="Grupo 54196" transform="translate(4.87 25.295)">
              <path id="Trazado_100396" data-name="Trazado 100396" d="M212.489,263.959c0,.776.581,1.07,1.3.656l55.835-32.234a2.781,2.781,0,0,0,1.3-2.154c0-.776-.581-1.069-1.3-.655L213.787,261.8A2.784,2.784,0,0,0,212.489,263.959Z" transform="translate(-212.489 -229.385)" fill="#f5f5f5"/>
            </g>
            <path id="Trazado_100397" data-name="Trazado 100397" d="M213.529,238.431,269.883,205.9c.573-.331,1.038-.063,1.038.6v8.848a2.3,2.3,0,0,1-1.038,1.8l-56.353,32.536c-.573.331-1.038.063-1.038-.6v-8.848A2.293,2.293,0,0,1,213.529,238.431Z" transform="translate(-207.62 -194.622)" fill="#f5f5f5"/>
          </g>
          <g id="Grupo_54200" data-name="Grupo 54200" transform="translate(53.561 92.818)">
            <path id="Trazado_100398" data-name="Trazado 100398" d="M205.662,281.218l65.572-37.861c.717-.414,1.3-.078,1.3.749V269.22a2.867,2.867,0,0,1-1.3,2.248l-65.572,37.861c-.717.414-1.3.078-1.3-.749V283.466A2.867,2.867,0,0,1,205.662,281.218Z" transform="translate(-204.364 -243.181)" fill="#27debf"/>
            <g id="Grupo_54198" data-name="Grupo 54198" transform="translate(4.87 5.616)">
              <path id="Trazado_100399" data-name="Trazado 100399" d="M212.489,302.6c0,.776.581,1.07,1.3.656l15.744-9.089a2.781,2.781,0,0,0,1.3-2.154c0-.776-.581-1.069-1.3-.656l-15.744,9.089A2.783,2.783,0,0,0,212.489,302.6Z" transform="translate(-212.489 -268.023)" fill="#f5f5f5"/>
              <path id="Trazado_100400" data-name="Trazado 100400" d="M245.935,283.29c0,.776.581,1.07,1.3.656l15.743-9.089a2.781,2.781,0,0,0,1.3-2.154c0-.776-.581-1.069-1.3-.655l-15.743,9.088A2.782,2.782,0,0,0,245.935,283.29Z" transform="translate(-225.889 -260.287)" fill="#f5f5f5"/>
              <path id="Trazado_100401" data-name="Trazado 100401" d="M279.382,263.981c0,.776.581,1.07,1.3.656l15.743-9.089a2.781,2.781,0,0,0,1.3-2.153c0-.776-.581-1.07-1.3-.656l-15.743,9.088A2.782,2.782,0,0,0,279.382,263.981Z" transform="translate(-239.29 -252.551)" fill="#f5f5f5"/>
            </g>
            <g id="Grupo_54199" data-name="Grupo 54199" transform="translate(4.87 25.295)">
              <path id="Trazado_100402" data-name="Trazado 100402" d="M212.489,319.959c0,.776.581,1.07,1.3.656l55.835-32.234a2.781,2.781,0,0,0,1.3-2.154c0-.776-.581-1.069-1.3-.655L213.787,317.8A2.784,2.784,0,0,0,212.489,319.959Z" transform="translate(-212.489 -285.385)" fill="#f5f5f5"/>
            </g>
            <path id="Trazado_100403" data-name="Trazado 100403" d="M213.529,294.431,269.883,261.9c.573-.331,1.038-.063,1.038.6v8.848a2.3,2.3,0,0,1-1.038,1.8l-56.353,32.536c-.573.331-1.038.063-1.038-.6v-8.848A2.293,2.293,0,0,1,213.529,294.431Z" transform="translate(-207.62 -250.622)" fill="#f5f5f5"/>
          </g>
          <path id="Trazado_100404" data-name="Trazado 100404" d="M341.973,166.253l-14.444,8.34a2.867,2.867,0,0,0-1.3,2.248v13.871c0,.828.581,1.163,1.3.749l14.444-8.34a2.869,2.869,0,0,0,1.3-2.248V167C343.27,166.175,342.689,165.839,341.973,166.253Z" transform="translate(-199.63 -119.47)" fill="#27debf"/>
          <path id="Trazado_100405" data-name="Trazado 100405" d="M332.077,182.017c.988-.57,1.789-.108,1.789,1.033a3.952,3.952,0,0,1-1.79,3.1c-.988.571-1.789.108-1.788-1.033A3.955,3.955,0,0,1,332.077,182.017Z" transform="translate(-201.255 -125.759)" fill="#f5f5f5"/>
          <path id="Trazado_100406" data-name="Trazado 100406" d="M338.413,179.609a1.391,1.391,0,0,1,.649-1.078l6.006-3.467c.358-.207.648-.06.648.328a1.393,1.393,0,0,1-.65,1.077l-6,3.468C338.7,180.144,338.413,180,338.413,179.609Z" transform="translate(-204.51 -123.034)" fill="#f5f5f5"/>
          <path id="Trazado_100407" data-name="Trazado 100407" d="M330.935,188.383l10.875-6.28c.358-.207.649-.04.649.375V186.6a1.434,1.434,0,0,1-.648,1.124L330.937,194c-.358.207-.649.04-.649-.375v-4.123A1.435,1.435,0,0,1,330.935,188.383Z" transform="translate(-201.255 -125.856)" fill="#f5f5f5"/>
          <path id="Trazado_100408" data-name="Trazado 100408" d="M341.973,199.087l-14.444,8.34a2.867,2.867,0,0,0-1.3,2.248V237.6c0,.827.581,1.163,1.3.749l14.444-8.34a2.871,2.871,0,0,0,1.3-2.248V199.837C343.27,199.009,342.689,198.673,341.973,199.087Z" transform="translate(-199.63 -132.625)" fill="#27debf"/>
          <path id="Trazado_100409" data-name="Trazado 100409" d="M332.077,214.851c.988-.57,1.789-.108,1.789,1.033a3.952,3.952,0,0,1-1.79,3.1c-.988.571-1.789.108-1.788-1.033A3.955,3.955,0,0,1,332.077,214.851Z" transform="translate(-201.255 -138.914)" fill="#f5f5f5"/>
          <path id="Trazado_100410" data-name="Trazado 100410" d="M338.413,212.443a1.391,1.391,0,0,1,.649-1.078l6.006-3.467c.358-.207.648-.06.648.328a1.393,1.393,0,0,1-.65,1.077l-6,3.468C338.7,212.978,338.413,212.832,338.413,212.443Z" transform="translate(-204.51 -136.189)" fill="#f5f5f5"/>
          <path id="Trazado_100411" data-name="Trazado 100411" d="M330.935,221.217l10.875-6.28c.358-.207.649-.04.649.375v4.125a1.434,1.434,0,0,1-.648,1.124l-10.875,6.279c-.358.207-.649.039-.649-.375v-4.123A1.435,1.435,0,0,1,330.935,221.217Z" transform="translate(-201.255 -139.011)" fill="#f5f5f5"/>
          <path id="Trazado_100412" data-name="Trazado 100412" d="M332.077,238.28c.988-.57,1.789-.108,1.789,1.033a3.952,3.952,0,0,1-1.79,3.1c-.988.571-1.789.108-1.788-1.033A3.955,3.955,0,0,1,332.077,238.28Z" transform="translate(-201.255 -148.301)" fill="#f5f5f5"/>
          <path id="Trazado_100413" data-name="Trazado 100413" d="M338.413,235.872a1.391,1.391,0,0,1,.649-1.078l6.006-3.467c.358-.207.648-.06.648.328a1.393,1.393,0,0,1-.65,1.077l-6,3.468C338.7,236.407,338.413,236.261,338.413,235.872Z" transform="translate(-204.51 -145.576)" fill="#f5f5f5"/>
          <path id="Trazado_100414" data-name="Trazado 100414" d="M330.935,244.646l10.875-6.281c.358-.207.649-.04.649.375v4.125a1.433,1.433,0,0,1-.648,1.124l-10.875,6.279c-.358.207-.649.04-.649-.375V245.77A1.433,1.433,0,0,1,330.935,244.646Z" transform="translate(-201.255 -148.398)" fill="#f5f5f5"/>
          <path id="Trazado_100415" data-name="Trazado 100415" d="M341.973,255.359l-14.444,8.34a2.867,2.867,0,0,0-1.3,2.248v5.444c0,.828.581,1.163,1.3.749l14.444-8.34a2.869,2.869,0,0,0,1.3-2.248v-5.445C343.27,255.28,342.689,254.945,341.973,255.359Z" transform="translate(-199.63 -155.17)" fill="#27debf"/>
          <path id="Trazado_100416" data-name="Trazado 100416" d="M332.08,270.269c.988-.57,1.789-.108,1.789,1.033a3.952,3.952,0,0,1-1.79,3.1c-.988.571-1.789.108-1.788-1.033A3.955,3.955,0,0,1,332.08,270.269Z" transform="translate(-201.256 -161.117)" fill="#f5f5f5"/>
          <path id="Trazado_100417" data-name="Trazado 100417" d="M338.416,267.861a1.391,1.391,0,0,1,.649-1.078l6.006-3.467c.358-.207.648-.06.648.328a1.393,1.393,0,0,1-.65,1.077l-6,3.468C338.707,268.4,338.416,268.25,338.416,267.861Z" transform="translate(-204.512 -158.392)" fill="#f5f5f5"/>
          <g id="Grupo_54212" data-name="Grupo 54212" transform="translate(14.608 8.433)">
            <path id="Trazado_100418" data-name="Trazado 100418" d="M273.273,111.874v-7.239a2.294,2.294,0,0,0-1.037-1.794l-.358-.207a2.3,2.3,0,0,0-2.076,0l-90.439,52.215c-.574.331-1.038.063-1.038-.6v-3.225a2.294,2.294,0,0,0-1.038-1.8l-.358-.207a2.292,2.292,0,0,0-2.076,0l-29.573,17.074a2.3,2.3,0,0,0-1.038,1.8v6.035a2.3,2.3,0,0,1-1.038,1.8l-2.792,1.612a2.293,2.293,0,0,0-1.038,1.8v7.235l2.435,1.4Z" transform="translate(-139.372 -102.386)" fill="#f5f5f5"/>
            <path id="Trazado_100419" data-name="Trazado 100419" d="M149.726,219.637h.262l.668-7.9-3.06-1.767a2.122,2.122,0,0,0-.3,1.024v6.035a2.125,2.125,0,0,1-.3,1.023Z" transform="translate(-142.423 -145.491)" fill="#e0e0e0"/>
            <path id="Trazado_100420" data-name="Trazado 100420" d="M139.676,228.735a2.125,2.125,0,0,0-.3,1.023v7.235l2.435,1.4,2.435-7.028Z" transform="translate(-139.372 -153.008)" fill="#e0e0e0"/>
            <path id="Trazado_100421" data-name="Trazado 100421" d="M147.264,178.142l-2.792,1.612a2.293,2.293,0,0,0-1.038,1.8v7.235l131.467-75.9V105.65c0-.662-.465-.93-1.038-.6L180.99,158.671c-.574.331-1.038.063-1.038-.6v-6.036c0-.662-.464-.93-1.038-.6L149.34,168.51a2.3,2.3,0,0,0-1.038,1.8v6.035A2.293,2.293,0,0,1,147.264,178.142Z" transform="translate(-140.999 -103.397)" fill="#f5f5f5"/>
            <g id="Grupo_54204" data-name="Grupo 54204" transform="translate(9.738 51.357)">
              <path id="Trazado_100422" data-name="Trazado 100422" d="M163.743,204.884c0,.776.581,1.07,1.3.656l14.447-8.341a2.782,2.782,0,0,0,1.3-2.155c0-.776-.581-1.07-1.3-.656l-14.447,8.341A2.782,2.782,0,0,0,163.743,204.884Z" transform="translate(-158.874 -190.529)" fill="#e0e0e0"/>
              <path id="Trazado_100423" data-name="Trazado 100423" d="M156.836,213.087a2.691,2.691,0,0,0-1.217,2.109c0,.776.545,1.091,1.217.7a2.689,2.689,0,0,0,1.217-2.108C158.054,213.013,157.509,212.7,156.836,213.087Z" transform="translate(-155.619 -198.029)" fill="#27debf"/>
              <g id="Grupo_54203" data-name="Grupo 54203" transform="translate(24.046)">
                <g id="Grupo_54201" data-name="Grupo 54201" transform="translate(0 1.406)">
                  <path id="Trazado_100424" data-name="Trazado 100424" d="M198.474,192.424a.3.3,0,0,1-.15-.04l-2.435-1.405a.3.3,0,0,1,.3-.52l2.435,1.406a.3.3,0,0,1-.15.559Z" transform="translate(-195.739 -190.419)" fill="#e0e0e0"/>
                </g>
                <g id="Grupo_54202" data-name="Grupo 54202">
                  <path id="Trazado_100425" data-name="Trazado 100425" d="M196.039,192.89a.3.3,0,0,1-.15-.04.3.3,0,0,1-.109-.409l2.435-4.217a.3.3,0,1,1,.518.3L196.3,192.74A.3.3,0,0,1,196.039,192.89Z" transform="translate(-195.739 -188.074)" fill="#e0e0e0"/>
                </g>
              </g>
            </g>
            <g id="Grupo_54211" data-name="Grupo 54211" transform="translate(5.507 7.214)">
              <g id="Grupo_54207" data-name="Grupo 54207" transform="translate(0 69.099)">
                <g id="Grupo_54205" data-name="Grupo 54205" transform="translate(0.297 0.583)">
                  <path id="Trazado_100426" data-name="Trazado 100426" d="M149.356,232.972a.3.3,0,0,1-.15-.559l2.922-1.687a.3.3,0,0,1,.3.52l-2.922,1.687A.3.3,0,0,1,149.356,232.972Z" transform="translate(-149.056 -230.685)" fill="#e0e0e0"/>
                </g>
                <g id="Grupo_54206" data-name="Grupo 54206">
                  <path id="Trazado_100427" data-name="Trazado 100427" d="M150.356,233.468a.306.306,0,0,1-.147-.038l-1.649-.928,1.537-2.64a.3.3,0,1,1,.517.3l-1.23,2.115,1.119.629a.3.3,0,0,1-.147.561Z" transform="translate(-148.56 -229.712)" fill="#e0e0e0"/>
                </g>
              </g>
              <g id="Grupo_54210" data-name="Grupo 54210" transform="translate(4.628 66.288)">
                <g id="Grupo_54208" data-name="Grupo 54208" transform="translate(0 0.886)">
                  <path id="Trazado_100428" data-name="Trazado 100428" d="M156.582,228.786a.3.3,0,0,1-.15-.559l2.922-1.687a.3.3,0,0,1,.3.519l-2.922,1.687A.3.3,0,0,1,156.582,228.786Z" transform="translate(-156.282 -226.5)" fill="#e0e0e0"/>
                </g>
                <g id="Grupo_54209" data-name="Grupo 54209" transform="translate(1.723)">
                  <path id="Trazado_100429" data-name="Trazado 100429" d="M159.457,228.777a.3.3,0,0,1-.258-.45l1.23-2.115-1.119-.629a.3.3,0,0,1,.294-.523l1.649.928-1.537,2.64A.3.3,0,0,1,159.457,228.777Z" transform="translate(-159.157 -225.022)" fill="#e0e0e0"/>
                </g>
              </g>
              <path id="Trazado_100430" data-name="Trazado 100430" d="M169.1,183.448l94.787-54.725c.717-.414,1.3-.12,1.3.656a2.783,2.783,0,0,1-1.3,2.155L169.1,186.259c-.716.414-1.3.12-1.3-.657A2.783,2.783,0,0,1,169.1,183.448Z" transform="translate(-156.271 -120.076)" fill="#f5f5f5"/>
              <path id="Trazado_100431" data-name="Trazado 100431" d="M335.566,123.969c.672-.388,1.217-.074,1.217.7a2.691,2.691,0,0,1-1.217,2.109c-.672.388-1.217.074-1.217-.7A2.689,2.689,0,0,1,335.566,123.969Z" transform="translate(-222.997 -118.18)" fill="#fafafa"/>
              <path id="Trazado_100432" data-name="Trazado 100432" d="M343.69,119.279c.672-.388,1.217-.074,1.217.7a2.69,2.69,0,0,1-1.217,2.109c-.672.388-1.217.074-1.217-.7A2.689,2.689,0,0,1,343.69,119.279Z" transform="translate(-226.252 -116.301)" fill="#fafafa"/>
              <path id="Trazado_100433" data-name="Trazado 100433" d="M351.814,114.588c.672-.388,1.217-.073,1.217.7a2.691,2.691,0,0,1-1.217,2.109c-.672.388-1.217.073-1.217-.7A2.692,2.692,0,0,1,351.814,114.588Z" transform="translate(-229.507 -114.422)" fill="#fafafa"/>
            </g>
          </g>
        </g>
        <g id="Grupo_54214" data-name="Grupo 54214" transform="translate(141.951 38.96)">
          <path id="Trazado_100434" data-name="Trazado 100434" d="M384.413,154.857l-9.833,10.172s-9.657-.952-12.936-1.89c-1.033-.3-1.869-1.711-2.1-2.9a1.5,1.5,0,0,0-1.148-1.317V161.3c-.084.6-.378.915-1.241.934-3.316.073-4.851-.934-5.256.867-.258,1.148.242,2.457,2.433,3.057,3.072.841,4.768.421,6.639.885,1.443.358,11.5,2.272,13.482,2.7a2.8,2.8,0,0,0,2.979-.968c1.136-1.124,9.674-9.09,9.674-9.09,2.607-2.605,1.844-5.314.387-6.115C386.583,153.073,385.57,153.659,384.413,154.857Z" transform="translate(-351.841 -153.35)" fill="#ffa8a7"/>
          <path id="Trazado_100435" data-name="Trazado 100435" d="M406,153.489c.638.258,1.414.932,1.474,2.687s-1.232,3.345-2.758,5.169-1.985,2.307-1.985,2.307-3.865-1.4-4.518-4.275c0,0,2.909-3.079,3.782-4.068S404.47,152.81,406,153.489Z" transform="translate(-370.42 -153.32)" fill="#27debf"/>
        </g>
      </g>
      <g id="Button" transform="translate(130.633 246.585)">
        <g id="Grupo_54215" data-name="Grupo 54215" transform="translate(0)">
          <path id="Trazado_100436" data-name="Trazado 100436" d="M212.792,417.46l-19.316-11.152a2.867,2.867,0,0,1-1.3-2.248v-2.626a2.867,2.867,0,0,1,1.3-2.248l21.75-12.558a2.869,2.869,0,0,1,2.6,0l19.316,11.152a2.867,2.867,0,0,1,1.3,2.248v2.626a2.867,2.867,0,0,1-1.3,2.248l-21.75,12.558A2.869,2.869,0,0,1,212.792,417.46Z" transform="translate(-192.179 -386.32)" fill="#37474f"/>
          <path id="Trazado_100437" data-name="Trazado 100437" d="M192.179,409.6v2.626a2.867,2.867,0,0,0,1.3,2.248l19.316,11.152a2.653,2.653,0,0,0,1.3.31v-7.995l-19.476-11.245-1.137.656A2.867,2.867,0,0,0,192.179,409.6Z" transform="translate(-192.179 -394.483)" fill="#263238"/>
          <path id="Trazado_100438" data-name="Trazado 100438" d="M215.735,386.63l-21.75,12.558a.791.791,0,0,0,0,1.5L213.3,411.838a2.869,2.869,0,0,0,2.6,0l21.75-12.558a.791.791,0,0,0,0-1.5L218.33,386.63A2.869,2.869,0,0,0,215.735,386.63Z" transform="translate(-192.687 -386.32)" fill="#455a64"/>
          <path id="Trazado_100439" data-name="Trazado 100439" d="M223.421,403.617c.175-.71,1.4-1.416,2.626-1.516l1.148-.1c.636-.052,1.223-.391,1.313-.758s-.349-.62-.985-.568l-1.148.095a8.4,8.4,0,0,0-3.444,1.045,3.548,3.548,0,0,0-1.811,1.987l-1.066,4.314c-.363,1.463,1.4,2.484,3.939,2.274l1.148-.1a8.386,8.386,0,0,0,3.444-1.045,3.545,3.545,0,0,0,1.809-1.987l.505-2.038c.091-.367-.349-.621-.984-.568s-1.223.391-1.313.758l-.506,2.038c-.174.709-1.4,1.414-2.626,1.516l-1.148.095c-1.267.1-2.15-.406-1.97-1.137l1.068-4.313Zm8.372-1.99,1.066-4.313a1.542,1.542,0,0,0-.88-1.765,5.371,5.371,0,0,0-3.057-.509l-1.15.094a8.409,8.409,0,0,0-3.443,1.045,3.54,3.54,0,0,0-1.809,1.987l-.461,1.862c-.09.367.35.622.983.569s1.224-.391,1.315-.758l.46-1.862a1.772,1.772,0,0,1,.9-.994,4.2,4.2,0,0,1,1.721-.523l1.15-.095a2.683,2.683,0,0,1,1.528.255.77.77,0,0,1,.441.882l-1.068,4.312c-.174.71-1.4,1.416-2.625,1.516-.635.052-1.223.391-1.314.758s.349.621.984.569a8.4,8.4,0,0,0,3.443-1.045,3.552,3.552,0,0,0,1.811-1.987Zm0,0" transform="translate(-203.329 -389.802)" fill="#fff"/>
        </g>
      </g>
      <g id="Speech_bubble" data-name="Speech bubble" transform="translate(172.021 200.182)">
        <g id="Grupo_54217" data-name="Grupo 54217">
          <g id="Grupo_54216" data-name="Grupo 54216">
            <path id="Trazado_100440" data-name="Trazado 100440" d="M261.234,349.127V346.5a2.869,2.869,0,0,1,1.3-2.248l60.7-35.047a2.869,2.869,0,0,1,2.6,0l19.316,11.152a2.871,2.871,0,0,1,1.3,2.248v2.626a2.867,2.867,0,0,1-1.3,2.248l-60.7,35.047a2.869,2.869,0,0,1-2.6,0l-19.316-11.152A2.868,2.868,0,0,1,261.234,349.127Z" transform="translate(-261.233 -308.896)" fill="#e0e0e0"/>
            <path id="Trazado_100441" data-name="Trazado 100441" d="M361.091,331.778V329.83a2.871,2.871,0,0,0-1.3-2.248l-1.137-.656-60.864,35.14v7.995a2.654,2.654,0,0,0,1.3-.31l30.352-17.524L359.793,334.7a2.869,2.869,0,0,0,1.3-2.248Z" transform="translate(-275.88 -316.12)" fill="#f5f5f5"/>
            <path id="Trazado_100442" data-name="Trazado 100442" d="M263.039,345.753,282.355,356.9a2.869,2.869,0,0,0,2.6,0l60.7-35.047a.791.791,0,0,0,0-1.5l-19.316-11.152a2.869,2.869,0,0,0-2.6,0l-60.7,35.047A.791.791,0,0,0,263.039,345.753Z" transform="translate(-261.741 -308.896)" fill="#fff"/>
            <path id="Trazado_100443" data-name="Trazado 100443" d="M277.366,389.773l-11.5,3.021a.654.654,0,0,1-.68-1.036l4.879-6.2Z" transform="translate(-262.759 -339.611)" fill="#e0e0e0"/>
            <path id="Trazado_100444" data-name="Trazado 100444" d="M277.366,383.211v5.623l-12.325,2.4V385.6Z" transform="translate(-262.759 -338.671)" fill="#e0e0e0"/>
            <path id="Trazado_100445" data-name="Trazado 100445" d="M277.366,380.392l-11.5,3.021a.654.654,0,0,1-.68-1.036l4.879-6.2Z" transform="translate(-262.759 -335.852)" fill="#fff"/>
            <path id="Trazado_100446" data-name="Trazado 100446" d="M305.666,353.836a3.77,3.77,0,0,1-1.781-.521c-.565-.327-.867-.669-.9-1.028s.217-.693.756-1.005a3.229,3.229,0,0,1,1.744-.439,3.76,3.76,0,0,1,1.784.52q.849.49.9,1.03t-.759,1.008A3.207,3.207,0,0,1,305.666,353.836Zm1.443-1.386q-.064-.3-.633-.631a2.51,2.51,0,0,0-1.082-.359,1.669,1.669,0,0,0-.964.22c-.29.168-.417.353-.378.554s.245.411.618.628a2.546,2.546,0,0,0,1.093.361,1.652,1.652,0,0,0,.968-.214Q307.173,352.754,307.109,352.45Z" transform="translate(-277.959 -325.702)" fill="#27debf"/>
            <path id="Trazado_100447" data-name="Trazado 100447" d="M313.4,351.287a.571.571,0,0,1-.246-.081l-4.3-2.484a1.181,1.181,0,0,1,.307-.551,2.621,2.621,0,0,1,.665-.533,3.423,3.423,0,0,1,3.648.02q.848.49.942,1t-.6.91a2.41,2.41,0,0,1-1.383.316l1.5.867c.091.053.139.1.145.145s-.035.091-.123.141l-.318.183A.431.431,0,0,1,313.4,351.287Zm-.073-2.549q-.091-.3-.674-.64a2.357,2.357,0,0,0-1.144-.366,2.047,2.047,0,0,0-1.048.3,1.092,1.092,0,0,0-.48.435l1.418.818a1.641,1.641,0,0,0,1.576.011C313.268,349.127,313.384,348.941,313.323,348.738Z" transform="translate(-280.31 -324.211)" fill="#27debf"/>
            <path id="Trazado_100448" data-name="Trazado 100448" d="M319.24,346.369a3.509,3.509,0,0,1-2.445-.42q-.927-.535-.98-1.061t.739-.984a2.99,2.99,0,0,1,1.654-.415,3.823,3.823,0,0,1,1.753.548c.169.1.186.183.053.26l-2.286,1.32a1.868,1.868,0,0,0,1.017.257,2.23,2.23,0,0,0,1.052-.313,1.308,1.308,0,0,0,.626-.661.1.1,0,0,1,.039-.056.184.184,0,0,1,.134,0l.459.092a.377.377,0,0,1,.1.035.074.074,0,0,1,.037.086,1.206,1.206,0,0,1-.285.472,2.671,2.671,0,0,1-.6.443A3.474,3.474,0,0,1,319.24,346.369Zm-.282-2.076a1.978,1.978,0,0,0-.912-.279,1.61,1.61,0,0,0-.9.227c-.29.167-.427.346-.41.536s.169.367.456.533Z" transform="translate(-283.1 -322.755)" fill="#27debf"/>
            <path id="Trazado_100449" data-name="Trazado 100449" d="M324.391,343.131a.541.541,0,0,1-.25-.079l-3-1.732c-.072-.041-.111-.077-.12-.1s.022-.062.088-.1l.355-.2a.283.283,0,0,1,.287,0l.3.159q-.116-.556.674-1.012a2.191,2.191,0,0,1,1.126-.289,2.5,2.5,0,0,1,1.247.364l2.05,1.183c.086.05.133.1.141.143s-.029.092-.112.14l-.331.191a.451.451,0,0,1-.245.067.534.534,0,0,1-.25-.08l-1.992-1.15a1.346,1.346,0,0,0-.64-.208,1.163,1.163,0,0,0-.6.176.665.665,0,0,0-.371.451c-.028.174.067.322.282.447l1.907,1.1c.085.05.132.1.14.143s-.032.094-.119.144l-.324.187A.449.449,0,0,1,324.391,343.131Z" transform="translate(-285.187 -321.265)" fill="#27debf"/>
            <path id="Trazado_100450" data-name="Trazado 100450" d="M329.687,334.974a.728.728,0,0,1-.325-.094l-.151-.087a.3.3,0,0,1-.164-.189c-.013-.07.031-.133.131-.191l.267-.155a.6.6,0,0,1,.334-.077.742.742,0,0,1,.33.093l.151.087a.285.285,0,0,1,.159.189c.011.071-.033.136-.132.194l-.268.154A.574.574,0,0,1,329.687,334.974Zm4.11,2.345a.542.542,0,0,1-.25-.08l-2.928-1.69c-.091-.052-.14-.1-.144-.149s.032-.093.115-.141l.324-.187a.448.448,0,0,1,.246-.067.556.556,0,0,1,.257.084l2.928,1.69c.086.05.132.1.141.143s-.032.093-.119.143l-.324.187A.463.463,0,0,1,333.8,337.318Z" transform="translate(-288.402 -319.027)" fill="#27debf"/>
            <path id="Trazado_100451" data-name="Trazado 100451" d="M337.359,335.643a.55.55,0,0,1-.249-.08l-3-1.731c-.071-.042-.111-.077-.12-.105s.022-.062.088-.1l.355-.205a.279.279,0,0,1,.287,0l.3.159q-.117-.556.675-1.013a2.189,2.189,0,0,1,1.126-.288,2.505,2.505,0,0,1,1.247.363l2.05,1.184c.086.05.133.1.14.143s-.029.092-.112.14l-.33.191a.449.449,0,0,1-.245.067.541.541,0,0,1-.25-.08l-1.993-1.15a1.344,1.344,0,0,0-.64-.208,1.164,1.164,0,0,0-.6.176.666.666,0,0,0-.372.451q-.04.26.284.447l1.905,1.1c.087.049.134.1.141.142s-.032.093-.119.143l-.324.188A.445.445,0,0,1,337.359,335.643Z" transform="translate(-290.383 -318.265)" fill="#27debf"/>
            <path id="Trazado_100452" data-name="Trazado 100452" d="M300.135,374.6a1.451,1.451,0,0,1-.639-.215l-7.718-4.457c-.23-.132-.353-.257-.367-.372s.09-.236.313-.365l.91-.526a1.221,1.221,0,0,1,.394-.152,1.674,1.674,0,0,1,.5.017l7.081,1.014L296.54,367.2q-.346-.2-.375-.376c-.019-.117.079-.238.295-.362l1.118-.646a1.157,1.157,0,0,1,.639-.177,1.464,1.464,0,0,1,.65.216l7.719,4.456c.231.133.351.256.361.367s-.1.233-.319.361l-.911.526a1.266,1.266,0,0,1-.394.159,1.553,1.553,0,0,1-.49-.017l-7.081-1.014,4.086,2.359q.346.2.36.368c.01.112-.1.232-.319.361l-1.118.645A1.134,1.134,0,0,1,300.135,374.6Z" transform="translate(-273.323 -331.629)" fill="#27debf"/>
            <path id="Trazado_100453" data-name="Trazado 100453" d="M313.6,367.256a1.455,1.455,0,0,1-.638-.216l-7.7-4.449q-.346-.2-.375-.375t.295-.362l4.782-2.761a1.03,1.03,0,0,1,.592-.165,1.559,1.559,0,0,1,.627.229l.612.354c.24.138.372.26.4.362s-.07.218-.285.342l-3.054,1.763,1.623.937,2.017-1.165a1.062,1.062,0,0,1,.6-.168,1.512,1.512,0,0,1,.634.226l.585.338q.36.208.391.366c.021.1-.075.22-.291.344l-2.017,1.165,1.637.945,3.043-1.756a1.03,1.03,0,0,1,.591-.165,1.562,1.562,0,0,1,.628.23l.613.354q.346.2.384.355c.025.1-.07.216-.285.34l-4.771,2.755A1.139,1.139,0,0,1,313.6,367.256Z" transform="translate(-278.72 -328.941)" fill="#27debf"/>
            <path id="Trazado_100454" data-name="Trazado 100454" d="M325.683,358.838a1.162,1.162,0,0,1-.518-.092l-9.964-3.73a.991.991,0,0,1-.158-.078c-.168-.1-.157-.2.035-.312l1.625-.938a.794.794,0,0,1,.374-.124.858.858,0,0,1,.361.083L322.2,355.6l-2.418-2.462c-.1-.1-.151-.189-.143-.255s.082-.14.219-.22l.773-.445a.882.882,0,0,1,.386-.13,1.276,1.276,0,0,1,.448.079l4.263,1.4-3.393-2.744c-.1-.075-.145-.146-.137-.212s.082-.14.22-.219l1.625-.939a.522.522,0,0,1,.552-.027.785.785,0,0,1,.135.092l6.436,5.765c.129.11.184.208.167.3s-.1.175-.258.264l-1.049.605a1.006,1.006,0,0,1-.451.146,1.354,1.354,0,0,1-.518-.093l-4.388-1.509,2.613,2.533q.182.172.155.3c-.019.086-.1.173-.247.257l-1.049.605A1.088,1.088,0,0,1,325.683,358.838Z" transform="translate(-282.745 -325.107)" fill="#27debf"/>
            <path id="Trazado_100455" data-name="Trazado 100455" d="M349.043,346.371a1.423,1.423,0,0,1-.644-.213l-6.441-3.718-1.775,1.025a1.032,1.032,0,0,1-.592.165,1.519,1.519,0,0,1-.614-.222l-.626-.361q-.346-.2-.39-.358c-.03-.105.063-.221.278-.345l5.889-3.4a1.039,1.039,0,0,1,.6-.164,1.521,1.521,0,0,1,.627.222l.625.361q.346.2.378.358c.022.105-.076.22-.29.344l-1.775,1.025,6.441,3.719q.347.2.367.372t-.312.366l-1.118.645A1.175,1.175,0,0,1,349.043,346.371Z" transform="translate(-291.973 -320.868)" fill="#27debf"/>
            <path id="Trazado_100456" data-name="Trazado 100456" d="M358.3,342.845a.777.777,0,0,1-.209-.186l-5.163-6.361a.513.513,0,0,1-.151-.321c.007-.08.083-.162.228-.247l1.049-.606a.915.915,0,0,1,.429-.131,2.03,2.03,0,0,1,.554.087l11.019,2.981a1.447,1.447,0,0,1,.31.113c.08.047.121.095.123.144s-.035.1-.112.141l-1.787,1.031a.73.73,0,0,1-.326.1,1.169,1.169,0,0,1-.4-.055l-1.682-.5-2.42,1.4.887.964a.289.289,0,0,1,.1.229c-.013.064-.077.129-.192.195l-1.775,1.025A.45.45,0,0,1,358.3,342.845Zm1.57-4.563-2.966-.9,1.56,1.712Z" transform="translate(-297.91 -319.352)" fill="#27debf"/>
          </g>
          <path id="Trazado_100457" data-name="Trazado 100457" d="M371.268,334.088a1.456,1.456,0,0,1-.638-.216l-7.7-4.448q-.346-.2-.375-.376c-.019-.117.08-.238.295-.362l3.434-1.983a5.137,5.137,0,0,1,2.68-.756,5.224,5.224,0,0,1,2.556.73,2.049,2.049,0,0,1,.825.776.752.752,0,0,1,.01.785,3.932,3.932,0,0,1,3.07.456q1.212.7,1.251,1.567t-1.378,1.687l-3.4,1.963A1.137,1.137,0,0,1,371.268,334.088ZM369.381,329q.358-.207.347-.439t-.409-.463a1.62,1.62,0,0,0-.8-.248,1.493,1.493,0,0,0-.751.219l-1.268.732,1.61.93Zm3.776,1.953c.246-.141.354-.3.324-.471s-.177-.335-.444-.489a1.826,1.826,0,0,0-.9-.266,1.592,1.592,0,0,0-.825.216l-1.417.818,1.8,1.037Z" transform="translate(-301.825 -315.728)" fill="#27debf"/>
        </g>
      </g>
      <g id="Pointer" transform="translate(165.611 254.664)">
        <g id="Grupo_54218" data-name="Grupo 54218">
          <path id="Trazado_100458" data-name="Trazado 100458" d="M271.236,399.805l-19.952,1.559a.823.823,0,0,0-.747.808v1.318a1.314,1.314,0,0,0,.672,1.079l12.685,6.237a.5.5,0,0,0,.767-.412l.259-2.04a.731.731,0,0,1,.835-.634l6.1.9a1.522,1.522,0,0,0,1.232-.458l.924-1.068a2.329,2.329,0,0,0,.49-1.316v-1.318a.9.9,0,0,0-.741-.858l-2.867-.422.547-.307a1.308,1.308,0,0,0,.547-1.057V400.5A.682.682,0,0,0,271.236,399.805Z" transform="translate(-250.538 -399.801)" fill="#27debf"/>
          <path id="Trazado_100459" data-name="Trazado 100459" d="M271.236,399.805l-19.952,1.559a.823.823,0,0,0-.747.808v1.318a1.314,1.314,0,0,0,.672,1.079l12.685,6.237a.5.5,0,0,0,.767-.412l.259-2.04a.731.731,0,0,1,.835-.634l6.1.9a1.522,1.522,0,0,0,1.232-.458l.924-1.068a2.329,2.329,0,0,0,.49-1.316v-1.318a.9.9,0,0,0-.741-.858l-2.867-.422.547-.307a1.308,1.308,0,0,0,.547-1.057V400.5A.682.682,0,0,0,271.236,399.805Z" transform="translate(-250.538 -399.801)" fill="#fff" opacity="0.3"/>
          <path id="Trazado_100460" data-name="Trazado 100460" d="M250.538,403.216v1.318a1.314,1.314,0,0,0,.672,1.079l12.685,6.237a.587.587,0,0,0,.378.059v-3.331l-12.988-6.171A.823.823,0,0,0,250.538,403.216Z" transform="translate(-250.538 -400.844)" fill="#27debf"/>
          <path id="Trazado_100461" data-name="Trazado 100461" d="M250.538,403.216v1.318a1.314,1.314,0,0,0,.672,1.079l12.685,6.237a.587.587,0,0,0,.378.059v-3.331l-12.988-6.171A.823.823,0,0,0,250.538,403.216Z" transform="translate(-250.538 -400.844)" opacity="0.2"/>
          <path id="Trazado_100462" data-name="Trazado 100462" d="M275.206,410.879a.721.721,0,0,1,.433-.083l6.1.9a1.355,1.355,0,0,0,.6-.071v-3.1l-7.127-1.04Z" transform="translate(-260.421 -402.876)" fill="#27debf"/>
          <path id="Trazado_100463" data-name="Trazado 100463" d="M275.206,410.879a.721.721,0,0,1,.433-.083l6.1.9a1.355,1.355,0,0,0,.6-.071v-3.1l-7.127-1.04Z" transform="translate(-260.421 -402.876)" opacity="0.2"/>
          <path id="Trazado_100464" data-name="Trazado 100464" d="M271.513,399.8l-19.952,1.559c-.412.032-.446.207-.074.389l12.685,6.237a.5.5,0,0,0,.767-.412l.259-2.04a.73.73,0,0,1,.835-.634l6.1.9a1.52,1.52,0,0,0,1.232-.457l.924-1.068c.271-.313.158-.616-.251-.676l-6.1-.9c-.409-.061-.449-.274-.088-.477l3.758-2.112C271.968,399.909,271.926,399.771,271.513,399.8Z" transform="translate(-250.815 -399.799)" fill="#27debf"/>
        </g>
      </g>
    </g>
  </g>
</svg>
