<svg xmlns="http://www.w3.org/2000/svg" width="84" height="84" viewBox="0 0 84 84">
  <g id="Grupo_54433" data-name="Grupo 54433" transform="translate(-180 -10527)">
    <circle id="Elipse_5052" data-name="Elipse 5052" cx="42" cy="42" r="42" transform="translate(180 10527)" fill="#fed947"/>
    <g id="_22-guarantee" data-name="22-guarantee" transform="translate(192.833 10537.79)">
      <g id="linear_color" data-name="linear color" transform="translate(4.167 4.21)">
        <path id="Trazado_99918" data-name="Trazado 99918" d="M121.138,198.1h-7.382v-4.176a6.868,6.868,0,0,0-.742-3.551c-.922-1.575-2.633-2.374-5.085-2.374a1.165,1.165,0,0,0-1.166,1.165v5.983l-2.087,3.391-2.575,1.682v-.955a1.166,1.166,0,0,0-1.166-1.165h-7.77A1.165,1.165,0,0,0,92,199.267v18.648a1.165,1.165,0,0,0,1.166,1.165h7.77a1.163,1.163,0,0,0,1-.561,4.246,4.246,0,0,0,2.113.561h15.54a3.494,3.494,0,0,0,2.928-5.4,3.6,3.6,0,0,0,.322-.284,3.491,3.491,0,0,0,.455-4.378,3.6,3.6,0,0,0,.322-.284,3.492,3.492,0,0,0,.131-4.8,3.5,3.5,0,0,0-2.6-5.829ZM99.77,216.749H94.331V200.432H99.77Zm20.639-.342a1.162,1.162,0,0,1-.826.342h-15.54a1.945,1.945,0,0,1-1.943-1.943v-11.8l4.231-2.763a1.18,1.18,0,0,0,.511-.776l2.078-3.377a1.166,1.166,0,0,0,.172-.611v-5.06c2.135.363,2.331,1.808,2.331,3.506v5.342a1.165,1.165,0,0,0,1.165,1.165h8.547a1.166,1.166,0,0,1,0,2.331h-2.331a1.166,1.166,0,0,0,0,2.331h2.331a1.166,1.166,0,0,1,0,2.331h-2.331a1.166,1.166,0,1,0,0,2.331h1.554a1.166,1.166,0,1,1,0,2.331h-1.554a1.166,1.166,0,1,0,0,2.331h.777a1.166,1.166,0,0,1,.826,1.989Z" transform="translate(-83.469 -170.149)" fill="#20287a"/>
        <circle id="Elipse_4014" data-name="Elipse 4014" cx="1.166" cy="1.166" r="1.166" transform="translate(12.416 43.589)" fill="#20287a"/>
        <path id="Trazado_99919" data-name="Trazado 99919" d="M176.491,14.138l-.709,4.133a1.166,1.166,0,0,0,1.691,1.229l3.712-1.951L184.9,19.5a1.174,1.174,0,0,0,1.691-1.229l-.709-4.133,3-2.927a1.166,1.166,0,0,0-.646-1.988l-4.149-.6-1.856-3.76a1.166,1.166,0,0,0-2.09,0l-1.856,3.76-4.149.6a1.166,1.166,0,0,0-.646,1.988Zm2.734-3.3a1.166,1.166,0,0,0,.878-.638l1.082-2.192,1.082,2.192a1.165,1.165,0,0,0,.878.638l2.418.351-1.75,1.706a1.165,1.165,0,0,0-.335,1.032l.413,2.409L181.727,15.2a1.166,1.166,0,0,0-1.085,0l-2.163,1.137.413-2.409a1.165,1.165,0,0,0-.335-1.032l-1.75-1.706Z" transform="translate(-156.725 -4.21)" fill="#20287a"/>
        <path id="Trazado_99920" data-name="Trazado 99920" d="M358.8,108.784l-3.355-2.516.17-4.19a1.166,1.166,0,0,0-1.836-1l-3.429,2.413-3.932-1.457a1.166,1.166,0,0,0-1.519,1.436l1.235,4.007-2.6,3.289a1.165,1.165,0,0,0,.9,1.888l4.193.063,2.325,3.49a1.173,1.173,0,0,0,2.073-.269l1.356-3.968,4.037-1.133a1.165,1.165,0,0,0,.384-2.055Zm-5.641,1.108a1.166,1.166,0,0,0-.788.745l-.79,2.313-1.355-2.034a1.165,1.165,0,0,0-.952-.519l-2.444-.037,1.516-1.917a1.165,1.165,0,0,0,.2-1.066l-.72-2.336,2.292.849a1.166,1.166,0,0,0,1.076-.14l2-1.407-.1,2.442a1.165,1.165,0,0,0,.465.98l1.955,1.467Z" transform="translate(-310.35 -91.478)" fill="#20287a"/>
        <path id="Trazado_99921" data-name="Trazado 99921" d="M19,112.655a1.173,1.173,0,0,0,.9-1.888l-2.6-3.289,1.235-4.007a1.166,1.166,0,0,0-1.519-1.436l-3.932,1.457-3.429-2.413a1.166,1.166,0,0,0-1.836,1l.17,4.19-3.355,2.516a1.165,1.165,0,0,0,.384,2.055l4.037,1.133,1.356,3.968a1.173,1.173,0,0,0,2.073.269l2.325-3.49Zm-5.793-1.739-1.355,2.034-.79-2.313a1.166,1.166,0,0,0-.788-.745l-2.353-.66,1.956-1.467a1.166,1.166,0,0,0,.465-.98l-.1-2.442,2,1.407a1.165,1.165,0,0,0,1.076.14l2.292-.849-.72,2.335a1.166,1.166,0,0,0,.2,1.066L16.6,110.36l-2.444.037a1.165,1.165,0,0,0-.952.519Z" transform="translate(-4.167 -91.478)" fill="#20287a"/>
      </g>
    </g>
  </g>
</svg>
