<svg xmlns="http://www.w3.org/2000/svg" xmlns:xlink="http://www.w3.org/1999/xlink" width="604" height="259.707" viewBox="0 0 604 259.707">
  <defs>
    <linearGradient id="linear-gradient" x1="-0.203" y1="0.032" x2="0.701" y2="0.616" gradientUnits="objectBoundingBox">
      <stop offset="0.056" stop-color="#200041"/>
      <stop offset="0.258" stop-color="#210143"/>
      <stop offset="0.357" stop-color="#25084a"/>
      <stop offset="0.434" stop-color="#2c1357"/>
      <stop offset="0.47" stop-color="#311b61"/>
      <stop offset="0.482" stop-color="#351f65"/>
      <stop offset="0.495" stop-color="#422c72"/>
      <stop offset="0.509" stop-color="#574188"/>
      <stop offset="0.523" stop-color="#755fa6"/>
      <stop offset="0.53" stop-color="#8770b8"/>
      <stop offset="0.537" stop-color="#7d66ae"/>
      <stop offset="0.562" stop-color="#5c458c"/>
      <stop offset="0.586" stop-color="#442e74"/>
      <stop offset="0.608" stop-color="#351f66"/>
      <stop offset="0.626" stop-color="#311b61"/>
      <stop offset="0.672" stop-color="#2a1054"/>
      <stop offset="0.749" stop-color="#220446"/>
      <stop offset="0.813" stop-color="#200041"/>
      <stop offset="1" stop-color="#200041"/>
    </linearGradient>
    <radialGradient id="radial-gradient" cx="1.249" cy="0.28" r="0.675" gradientTransform="translate(-1.006) scale(3.012 1)" gradientUnits="objectBoundingBox">
      <stop offset="0" stop-color="#711f56"/>
      <stop offset="0.161" stop-color="#6b1d51"/>
      <stop offset="0.363" stop-color="#5c1946"/>
      <stop offset="0.585" stop-color="#421232"/>
      <stop offset="0.821" stop-color="#1f0818"/>
      <stop offset="1"/>
    </radialGradient>
    <radialGradient id="radial-gradient-2" cx="0.971" cy="0.218" r="0.377" gradientTransform="translate(-0.861) scale(2.722 1)" gradientUnits="objectBoundingBox">
      <stop offset="0" stop-color="#af8afc"/>
      <stop offset="1" stop-color="#10054d"/>
    </radialGradient>
    <linearGradient id="linear-gradient-2" x1="1.066" y1="0.565" x2="-1.768" y2="0.239" gradientUnits="objectBoundingBox">
      <stop offset="0.187" stop-color="#3d065f"/>
      <stop offset="0.934" stop-color="#3d065f"/>
    </linearGradient>
    <linearGradient id="linear-gradient-3" x1="1.128" y1="0.977" x2="-0.371" y2="-0.162" gradientUnits="objectBoundingBox">
      <stop offset="0" stop-color="#311b61"/>
      <stop offset="0.203" stop-color="#290e52"/>
      <stop offset="0.495" stop-color="#200041"/>
      <stop offset="1" stop-color="#0f001f"/>
    </linearGradient>
    <linearGradient id="linear-gradient-4" x1="0" y1="0.5" x2="1" y2="0.5" xlink:href="#linear-gradient-3"/>
    <linearGradient id="linear-gradient-5" x1="-0.133" y1="0.086" x2="1.438" y2="1.114" gradientUnits="objectBoundingBox">
      <stop offset="0.01" stop-color="#9f19ab"/>
      <stop offset="0.429" stop-color="#5f27bd"/>
      <stop offset="0.904" stop-color="#3d065f"/>
    </linearGradient>
    <linearGradient id="linear-gradient-6" x1="-159.857" y1="562.384" x2="-156.209" y2="562.384" xlink:href="#linear-gradient-3"/>
    <linearGradient id="linear-gradient-7" x1="1.698" y1="0.51" x2="-1.512" y2="0.484" gradientUnits="objectBoundingBox">
      <stop offset="0" stop-color="#3d065f"/>
      <stop offset="1" stop-color="#5f27bd"/>
    </linearGradient>
    <radialGradient id="radial-gradient-3" cx="0.091" cy="0.249" r="0.359" gradientTransform="translate(-2.352) scale(5.704 1)" xlink:href="#radial-gradient"/>
    <linearGradient id="linear-gradient-8" x1="65.904" y1="0.594" x2="68.31" y2="0.399" gradientUnits="objectBoundingBox">
      <stop offset="0" stop-color="#fff"/>
      <stop offset="1"/>
    </linearGradient>
    <linearGradient id="linear-gradient-9" x1="0.456" y1="0.641" x2="0.745" y2="-0.29" gradientUnits="objectBoundingBox">
      <stop offset="0.005" stop-color="#5b15a3"/>
      <stop offset="0.284" stop-color="#4e50bb"/>
      <stop offset="0.926" stop-color="#2de4f7"/>
      <stop offset="1" stop-color="#2af6ff"/>
    </linearGradient>
    <linearGradient id="linear-gradient-10" x1="66.009" y1="0.594" x2="68.415" y2="0.399" gradientUnits="objectBoundingBox">
      <stop offset="0.035" stop-color="#9d9eb3"/>
      <stop offset="0.581" stop-color="#d4d1d8"/>
      <stop offset="1" stop-color="#eeebf2"/>
    </linearGradient>
    <linearGradient id="linear-gradient-11" x1="0.631" y1="0.283" x2="0.971" y2="-0.28" gradientUnits="objectBoundingBox">
      <stop offset="0.035" stop-color="#138bbd"/>
      <stop offset="0.226" stop-color="#169ac6"/>
      <stop offset="0.595" stop-color="#1ec2df"/>
      <stop offset="1" stop-color="#2af6ff"/>
    </linearGradient>
    <linearGradient id="linear-gradient-12" x1="1.348" y1="1.634" x2="0.001" y2="-0.167" xlink:href="#linear-gradient-11"/>
    <radialGradient id="radial-gradient-4" cx="0.744" cy="0.416" r="0.468" gradientTransform="translate(-0.076) scale(1.151 1)" xlink:href="#linear-gradient-8"/>
    <linearGradient id="linear-gradient-13" x1="1.037" y1="0.952" x2="-0.038" y2="0.048" gradientUnits="objectBoundingBox">
      <stop offset="0.03" stop-color="#7c1dc9"/>
      <stop offset="0.214" stop-color="#6e41d1"/>
      <stop offset="0.618" stop-color="#4c9be8"/>
      <stop offset="1" stop-color="#2af6ff"/>
    </linearGradient>
    <linearGradient id="linear-gradient-14" x1="-0.9" y1="0.85" x2="1.962" y2="0.135" gradientUnits="objectBoundingBox">
      <stop offset="0.035" stop-color="#6b24d6"/>
      <stop offset="0.294" stop-color="#7733dc"/>
      <stop offset="0.794" stop-color="#965bec"/>
      <stop offset="1" stop-color="#a56ef4"/>
    </linearGradient>
    <linearGradient id="linear-gradient-15" x1="0.119" y1="0.556" x2="4.471" y2="-0.469" xlink:href="#linear-gradient-14"/>
    <linearGradient id="linear-gradient-16" x1="0.255" y1="-0.12" x2="0.879" y2="1.065" gradientUnits="objectBoundingBox">
      <stop offset="0.035" stop-color="#6b24d6"/>
      <stop offset="0.195" stop-color="#7733dc"/>
      <stop offset="0.504" stop-color="#965bec"/>
      <stop offset="0.631" stop-color="#a56ef4"/>
      <stop offset="0.874" stop-color="#6b24d6"/>
    </linearGradient>
    <radialGradient id="radial-gradient-5" cx="0.606" cy="0.502" r="0.517" gradientTransform="translate(0.041) scale(0.918 1)" xlink:href="#linear-gradient-8"/>
    <radialGradient id="radial-gradient-6" cx="0.5" cy="0.5" r="0.284" gradientTransform="matrix(1.759, 0, 0, 1.759, 58.223, 56.356)" gradientUnits="objectBoundingBox">
      <stop offset="0" stop-color="#972a74"/>
      <stop offset="0.041" stop-color="#8a266a"/>
      <stop offset="0.194" stop-color="#601a49"/>
      <stop offset="0.35" stop-color="#3d112f"/>
      <stop offset="0.507" stop-color="#22091a"/>
      <stop offset="0.667" stop-color="#0f040b"/>
      <stop offset="0.829" stop-color="#030102"/>
      <stop offset="1"/>
    </radialGradient>
    <linearGradient id="linear-gradient-17" x1="1.091" y1="1.327" x2="0.065" y2="-0.109" gradientUnits="objectBoundingBox">
      <stop offset="0.035" stop-color="#ffa98c"/>
      <stop offset="0.317" stop-color="#feb892"/>
      <stop offset="0.86" stop-color="#fee0a3"/>
      <stop offset="1" stop-color="#feeca8"/>
    </linearGradient>
    <linearGradient id="linear-gradient-18" x1="0.854" y1="1.036" x2="0.13" y2="-0.061" xlink:href="#linear-gradient-17"/>
    <linearGradient id="linear-gradient-19" x1="0.916" y1="1.124" x2="0.136" y2="-0.045" xlink:href="#linear-gradient-17"/>
    <linearGradient id="linear-gradient-20" x1="-0.918" y1="0.822" x2="1.981" y2="0.164" xlink:href="#linear-gradient-11"/>
    <linearGradient id="linear-gradient-21" x1="0.119" y1="0.556" x2="4.471" y2="-0.469" xlink:href="#linear-gradient-11"/>
    <linearGradient id="linear-gradient-22" x1="0.256" y1="-0.1" x2="0.911" y2="1.031" gradientUnits="objectBoundingBox">
      <stop offset="0" stop-color="#4ec1de"/>
      <stop offset="0.239" stop-color="#4cc4de"/>
      <stop offset="0.446" stop-color="#49cfde"/>
      <stop offset="0.64" stop-color="#43e0de"/>
      <stop offset="0.652" stop-color="#43e2de"/>
      <stop offset="0.771" stop-color="#3cabc7"/>
      <stop offset="0.838" stop-color="#3a91bd"/>
      <stop offset="0.88" stop-color="#3a95be"/>
      <stop offset="1" stop-color="#3ca0c3"/>
    </linearGradient>
    <radialGradient id="radial-gradient-7" cx="0.606" cy="0.502" r="0.496" gradientTransform="translate(-0.009) scale(1.017 1)" xlink:href="#linear-gradient-8"/>
    <radialGradient id="radial-gradient-8" cx="0.5" cy="0.5" r="0.318" gradientTransform="matrix(1.04, -0.543, 1.182, 1.478, 104.435, 5.432)" xlink:href="#radial-gradient-6"/>
    <linearGradient id="linear-gradient-23" x1="-0.869" y1="0.867" x2="1.93" y2="0.117" xlink:href="#linear-gradient-17"/>
    <linearGradient id="linear-gradient-24" x1="0.119" y1="0.556" x2="4.471" y2="-0.469" xlink:href="#linear-gradient-17"/>
    <linearGradient id="linear-gradient-25" x1="0.255" y1="-0.122" x2="0.847" y2="1.082" gradientUnits="objectBoundingBox">
      <stop offset="0.338" stop-color="#fbcd9c"/>
      <stop offset="0.808" stop-color="#feeca8"/>
      <stop offset="0.914" stop-color="#ffa98c"/>
    </linearGradient>
    <radialGradient id="radial-gradient-9" cx="0.606" cy="0.502" r="0.532" gradientTransform="translate(0.07) scale(0.859 1)" xlink:href="#linear-gradient-8"/>
    <radialGradient id="radial-gradient-10" cx="0.5" cy="0.5" r="0.318" gradientTransform="matrix(1.04, -0.543, 1.182, 1.478, 96.044, 3.262)" xlink:href="#radial-gradient-6"/>
    <linearGradient id="linear-gradient-26" x1="-1.02" y1="0.696" x2="2.09" y2="0.229" gradientUnits="objectBoundingBox">
      <stop offset="0.035" stop-color="#9f19ab"/>
      <stop offset="0.244" stop-color="#ae24b0"/>
      <stop offset="0.645" stop-color="#d643bf"/>
      <stop offset="1" stop-color="#ff63ce"/>
    </linearGradient>
    <linearGradient id="linear-gradient-27" x1="0.119" y1="0.556" x2="4.471" y2="-0.469" xlink:href="#linear-gradient-26"/>
    <linearGradient id="linear-gradient-28" x1="0.26" y1="-0.055" x2="1.059" y2="0.941" gradientUnits="objectBoundingBox">
      <stop offset="0.167" stop-color="#dc48c1"/>
      <stop offset="0.309" stop-color="#de4ac2"/>
      <stop offset="0.406" stop-color="#e751c5"/>
      <stop offset="0.488" stop-color="#f65cca"/>
      <stop offset="0.52" stop-color="#ff63ce"/>
      <stop offset="0.914" stop-color="#9f19ab"/>
    </linearGradient>
    <radialGradient id="radial-gradient-11" cx="0.606" cy="0.502" r="0.446" gradientTransform="translate(-0.227) scale(1.453 1)" xlink:href="#linear-gradient-8"/>
    <radialGradient id="radial-gradient-12" cx="0.5" cy="0.5" r="0.318" gradientTransform="matrix(1.04, -0.543, 1.182, 1.478, 130.131, 3.483)" xlink:href="#radial-gradient-6"/>
  </defs>
  <g id="Grupo_54352" data-name="Grupo 54352" transform="translate(-804 -9781.293)">
    <rect id="Rectángulo_5240" data-name="Rectángulo 5240" width="604" height="222" transform="translate(804 9819)" fill="#fed947" opacity="0.15"/>
    <g id="Grupo_54351" data-name="Grupo 54351" transform="translate(160.819 166.293)">
      <g id="Grupo_54350" data-name="Grupo 54350" transform="translate(820.181 9615)">
        <g id="Grupo_54334" data-name="Grupo 54334" transform="translate(115.009 0)">
          <path id="Trazado_101199" data-name="Trazado 101199" d="M547.835,275.742l-63.313-36.553c-7.142-4.123-12.931-15.186-12.931-24.708V45.87c0-4.842-3.981-5.913-1.569-7.653.091-.066,5.651-2.592,5.757-2.632a9.336,9.336,0,0,1,8.744.509l63.313,36.553c7.142,4.123,12.931,15.186,12.931,24.708V265.966c0,5.059-1.635,8.667-4.238,10.317-.154.1-6.853,3.284-7.025,3.342C547.2,280.393,550.957,277.544,547.835,275.742Z" transform="translate(-465.546 -34.736)" fill="url(#linear-gradient)"/>
          <path id="Trazado_101200" data-name="Trazado 101200" d="M548.186,72.937,484.873,36.384C481.5,34.436,544.685,74.1,544.685,74.1c7.142,4.123,12.931,15.186,12.931,24.708,0,0,3.5,172.5,3.5,167.444V97.644C561.117,88.122,555.328,77.06,548.186,72.937Z" transform="translate(-466.481 -34.831)" fill="url(#radial-gradient)" style="mix-blend-mode: color-dodge;isolation: isolate"/>
          <path id="Trazado_101201" data-name="Trazado 101201" d="M542.751,278.122l-63.313-36.553c-7.142-4.123-12.931-15.186-12.931-24.708V48.25c0-9.522,5.79-13.9,12.931-9.776l63.313,36.553c7.142,4.123,12.931,15.186,12.931,24.708V268.347C555.683,277.869,549.893,282.246,542.751,278.122Z" transform="translate(-465.381 -34.868)" opacity="0.6" fill="url(#radial-gradient-2)" style="mix-blend-mode: screen;isolation: isolate"/>
          <path id="Trazado_101202" data-name="Trazado 101202" d="M541.553,278.77,478.24,242.216c-7.142-4.123-12.931-15.185-12.931-24.708V48.9c0-9.523,5.789-13.9,12.931-9.776l63.312,36.553c7.142,4.123,12.932,15.186,12.932,24.708V268.995C554.485,278.517,548.694,282.894,541.553,278.77Z" transform="translate(-465.309 -34.907)" fill="url(#linear-gradient-2)"/>
          <path id="Trazado_101203" data-name="Trazado 101203" d="M467.185,218.779V49.961c0-8.347,5.075-12.184,11.336-8.57L541.5,77.751c6.26,3.615,11.336,13.312,11.336,21.659V268.229c0,8.347-5.075,12.184-11.336,8.569l-62.978-36.36C472.26,236.824,467.185,227.126,467.185,218.779Z" transform="translate(-465.422 -35.055)" fill="url(#linear-gradient-3)"/>
          <path id="Trazado_101204" data-name="Trazado 101204" d="M469.866,220.031V52.067c0-6.987,4.248-10.2,9.488-7.173l61.634,35.585c5.241,3.025,9.488,11.142,9.488,18.13V266.571c0,6.988-4.247,10.2-9.488,7.174L479.354,238.16C474.114,235.134,469.866,227.017,469.866,220.031Z" transform="translate(-465.584 -35.28)" fill="url(#linear-gradient-4)"/>
          <path id="Trazado_101205" data-name="Trazado 101205" d="M480.149,46.865c-4.939-2.852-8.943-.569-8.943,5.1V221.816c0,5.667,4,12.573,8.943,15.424L540.355,272c4.939,2.851,8.943.569,8.943-5.1V97.05c0-5.667-4-12.573-8.943-15.425Z" transform="translate(-465.665 -35.393)" fill="url(#linear-gradient-5)"/>
          <path id="Trazado_101206" data-name="Trazado 101206" d="M562.015,144.943V133.56a4.735,4.735,0,0,1,1.976-3.777h0c1.092-.631,1.977.039,1.977,1.494V142.66a4.732,4.732,0,0,1-1.977,3.777h0C562.9,147.068,562.015,146.4,562.015,144.943Z" transform="translate(-471.14 -40.453)" fill="url(#linear-gradient-6)"/>
          <path id="Trazado_101207" data-name="Trazado 101207" d="M563.235,146.275c-.564,0-.765-.7-.765-1.3V133.588a4.336,4.336,0,0,1,1.763-3.406A1.194,1.194,0,0,1,564.8,130c.564,0,.764.7.764,1.3v11.383a4.335,4.335,0,0,1-1.763,3.405A1.186,1.186,0,0,1,563.235,146.275Z" transform="translate(-471.168 -40.481)" fill="url(#linear-gradient-7)"/>
          <path id="Trazado_101208" data-name="Trazado 101208" d="M563.054,145.262V133.879a4.336,4.336,0,0,1,1.763-3.406,1.245,1.245,0,0,1,.507-.168.605.605,0,0,0-.519-.3,1.194,1.194,0,0,0-.571.179,4.336,4.336,0,0,0-1.763,3.406v11.383c0,.6.2,1.3.765,1.3.02,0,.043-.008.064-.01A1.894,1.894,0,0,1,563.054,145.262Z" transform="translate(-471.168 -40.481)" fill="url(#radial-gradient-3)" style="mix-blend-mode: color-dodge;isolation: isolate"/>
          <path id="Trazado_101209" data-name="Trazado 101209" d="M540.355,81.625,480.149,46.865c-4.939-2.852-8.943-.569-8.943,5.1V221.816c0,5.667,4,12.573,8.943,15.424L540.355,272c4.939,2.851,8.943.569,8.943-5.1V97.05C549.3,91.383,545.294,84.476,540.355,81.625ZM548.52,266.9a6.637,6.637,0,0,1-1.2,4.182,3.65,3.65,0,0,1-2.952,1.368h0a7.453,7.453,0,0,1-3.624-1.125l-60.207-34.759c-4.717-2.723-8.554-9.341-8.554-14.751V51.963c0-3.422,1.59-5.549,4.151-5.549a7.459,7.459,0,0,1,3.625,1.125L539.967,82.3c4.716,2.723,8.553,9.341,8.553,14.751Z" transform="translate(-465.665 -35.393)" fill="#bcbec0" style="mix-blend-mode: multiply;isolation: isolate"/>
        </g>
        <g id="Grupo_54338" data-name="Grupo 54338" transform="translate(124.768 28.225)">
          <g id="Grupo_54335" data-name="Grupo 54335">
            <path id="Trazado_101210" data-name="Trazado 101210" d="M546.656,103.513V251.565l-67.212-38.741V64.773Z" transform="translate(-475.92 -64.773)" fill="url(#linear-gradient-8)" style="mix-blend-mode: multiply;isolation: isolate"/>
            <path id="Trazado_101211" data-name="Trazado 101211" d="M543.656,106.638V254.69l-67.212-38.741V67.9Z" transform="translate(-475.739 -64.961)" fill="#808285"/>
            <path id="Trazado_101212" data-name="Trazado 101212" d="M543.61,104.373v18.986l-.7.352L476.4,84.618l-.7-18.633.7-.352Z" transform="translate(-475.694 -64.824)" fill="url(#linear-gradient-9)"/>
            <path id="Trazado_101213" data-name="Trazado 101213" d="M542.906,107.013V255.065l-67.212-38.741V68.273Z" transform="translate(-475.694 -64.984)" fill="url(#linear-gradient-10)"/>
            <path id="Trazado_101214" data-name="Trazado 101214" d="M482.694,184.346V101.418l54.056,31.158V215.5Z" transform="translate(-476.116 -66.982)" fill="#d1d3d4" style="mix-blend-mode: multiply;isolation: isolate"/>
            <path id="Trazado_101215" data-name="Trazado 101215" d="M482.694,186.1V103.168l54.056,31.158v82.929Z" transform="translate(-476.116 -67.088)" fill="#fff"/>
            <path id="Trazado_101216" data-name="Trazado 101216" d="M508.822,229.761v-8.7a4.259,4.259,0,0,1,6.386-3.689l19.613,11.3a8.173,8.173,0,0,1,4.091,7.08v8.7a4.259,4.259,0,0,1-6.386,3.69l-19.613-11.306A8.172,8.172,0,0,1,508.822,229.761Z" transform="translate(-477.691 -73.94)" fill="url(#linear-gradient-11)"/>
            <path id="Trazado_101217" data-name="Trazado 101217" d="M507.7,230.261v-8.7a4.259,4.259,0,0,1,6.386-3.689l19.613,11.3a8.173,8.173,0,0,1,4.091,7.08v8.7a4.259,4.259,0,0,1-6.386,3.69l-19.613-11.306A8.172,8.172,0,0,1,507.7,230.261Z" transform="translate(-477.624 -73.97)" fill="url(#linear-gradient-12)"/>
            <path id="Trazado_101218" data-name="Trazado 101218" d="M533.857,229.177l-19.613-11.3a4.2,4.2,0,0,0-3.887-.183,4.2,4.2,0,0,1,3.26.418l19.613,11.3a8.171,8.171,0,0,1,4.091,7.08v8.7a4.224,4.224,0,0,1-2.5,3.872,4.246,4.246,0,0,0,3.126-4.107v-8.7A8.173,8.173,0,0,0,533.857,229.177Z" transform="translate(-477.784 -73.97)" fill="url(#radial-gradient-4)" style="mix-blend-mode: color-dodge;isolation: isolate"/>
            <path id="Trazado_101219" data-name="Trazado 101219" d="M542.906,104.748v18.985L475.694,84.993V66.007Z" transform="translate(-475.694 -64.847)" fill="url(#linear-gradient-13)"/>
          </g>
          <g id="Grupo_54336" data-name="Grupo 54336" transform="translate(11.811 45.054)">
            <path id="Trazado_101220" data-name="Trazado 101220" d="M514.7,150.419l7.641,4.411v-2.442l-7.641-4.411Z" transform="translate(-489.857 -114.844)" fill="#a7a9ac" style="mix-blend-mode: multiply;isolation: isolate"/>
            <path id="Trazado_101221" data-name="Trazado 101221" d="M515.168,162.684l10.806,6.239v-2.442l-10.806-6.239Z" transform="translate(-489.885 -115.583)" fill="#a7a9ac" style="mix-blend-mode: multiply;isolation: isolate"/>
            <path id="Trazado_101222" data-name="Trazado 101222" d="M516.214,157.289l9.06,5.231v-2.442l-9.06-5.231Z" transform="translate(-489.949 -115.258)" fill="#a7a9ac" style="mix-blend-mode: multiply;isolation: isolate"/>
            <path id="Trazado_101223" data-name="Trazado 101223" d="M512.257,146.564l-9.169-5.294v2.442l9.169,5.294Z" transform="translate(-489.157 -114.439)" fill="#a7a9ac" style="mix-blend-mode: multiply;isolation: isolate"/>
            <path id="Trazado_101224" data-name="Trazado 101224" d="M522.951,149.183l7.422,4.285v-2.442l-7.422-4.285Z" transform="translate(-490.355 -114.769)" fill="#a7a9ac" style="mix-blend-mode: multiply;isolation: isolate"/>
            <path id="Trazado_101225" data-name="Trazado 101225" d="M507.269,158.123l5.676,3.277v-2.442l-5.676-3.277Z" transform="translate(-489.409 -115.308)" fill="#a7a9ac" style="mix-blend-mode: multiply;isolation: isolate"/>
            <path id="Trazado_101226" data-name="Trazado 101226" d="M514.3,165.74l-2.62-1.512v2.442l2.62,1.512Z" transform="translate(-489.675 -115.824)" fill="#a7a9ac" style="mix-blend-mode: multiply;isolation: isolate"/>
            <path id="Trazado_101227" data-name="Trazado 101227" d="M511.451,142.543l9.06,5.231v-2.442l-9.06-5.231Z" transform="translate(-489.661 -114.369)" fill="#a7a9ac" style="mix-blend-mode: multiply;isolation: isolate"/>
            <path id="Trazado_101228" data-name="Trazado 101228" d="M500.865,139.987l-5.676-3.277v2.442l5.676,3.277Z" transform="translate(-488.681 -114.164)" fill="#a7a9ac" style="mix-blend-mode: multiply;isolation: isolate"/>
            <path id="Trazado_101229" data-name="Trazado 101229" d="M492.4,167.534l11.789,6.806V171.9L492.4,165.091Z" transform="translate(-488.513 -115.876)" fill="#a7a9ac" style="mix-blend-mode: multiply;isolation: isolate"/>
            <path id="Trazado_101230" data-name="Trazado 101230" d="M508.78,135l10.806,6.239V138.8L508.78,132.56Z" transform="translate(-489.5 -113.914)" fill="#a7a9ac" style="mix-blend-mode: multiply;isolation: isolate"/>
            <path id="Trazado_101231" data-name="Trazado 101231" d="M497.28,158.354l11.789,6.806v-2.442l-11.789-6.806Z" transform="translate(-488.807 -115.322)" fill="#a7a9ac" style="mix-blend-mode: multiply;isolation: isolate"/>
            <path id="Trazado_101232" data-name="Trazado 101232" d="M508.952,150.654l-11.789-6.806v2.442l11.789,6.806Z" transform="translate(-488.8 -114.595)" fill="#a7a9ac" style="mix-blend-mode: multiply;isolation: isolate"/>
            <path id="Trazado_101233" data-name="Trazado 101233" d="M506.8,139.861l2.62,1.513v-2.442l-2.62-1.513Z" transform="translate(-489.381 -114.207)" fill="#a7a9ac" style="mix-blend-mode: multiply;isolation: isolate"/>
            <path id="Trazado_101234" data-name="Trazado 101234" d="M500.88,130.442l5.676,3.277v-2.442L500.88,128Z" transform="translate(-489.024 -113.639)" fill="#a7a9ac" style="mix-blend-mode: multiply;isolation: isolate"/>
            <path id="Trazado_101235" data-name="Trazado 101235" d="M494.492,162.743l4.257,2.458v-2.442l-4.257-2.458Z" transform="translate(-488.639 -115.587)" fill="#a7a9ac" style="mix-blend-mode: multiply;isolation: isolate"/>
            <path id="Trazado_101236" data-name="Trazado 101236" d="M505.138,154.45l-4.257-2.458v2.442l4.257,2.458Z" transform="translate(-489.024 -115.086)" fill="#a7a9ac" style="mix-blend-mode: multiply;isolation: isolate"/>
            <path id="Trazado_101237" data-name="Trazado 101237" d="M533.405,173.213l1.981,1.144v-2.442l-1.981-1.144Z" transform="translate(-490.985 -116.218)" fill="#a7a9ac" style="mix-blend-mode: multiply;isolation: isolate"/>
            <path id="Trazado_101238" data-name="Trazado 101238" d="M494.492,124.311v2.442l4.257,2.458v-2.442Z" transform="translate(-488.639 -113.417)" fill="#a7a9ac" style="mix-blend-mode: multiply;isolation: isolate"/>
            <path id="Trazado_101239" data-name="Trazado 101239" d="M514.187,153.677l-2.62-1.513v2.442l2.62,1.513Z" transform="translate(-489.668 -115.096)" fill="#a7a9ac" style="mix-blend-mode: multiply;isolation: isolate"/>
            <path id="Trazado_101240" data-name="Trazado 101240" d="M527.713,163.929l7.33,4.232v-2.442l-7.33-4.232Z" transform="translate(-490.642 -115.658)" fill="#a7a9ac" style="mix-blend-mode: multiply;isolation: isolate"/>
            <path id="Trazado_101241" data-name="Trazado 101241" d="M530.374,187.015l-7.422-4.285v2.442l7.422,4.285Z" transform="translate(-490.355 -116.939)" fill="#a7a9ac" style="mix-blend-mode: multiply;isolation: isolate"/>
            <path id="Trazado_101242" data-name="Trazado 101242" d="M516.214,197.277l9.06,5.231v-2.442l-9.06-5.231Z" transform="translate(-489.949 -117.669)" fill="#a7a9ac" style="mix-blend-mode: multiply;isolation: isolate"/>
            <path id="Trazado_101243" data-name="Trazado 101243" d="M492.4,131.545l11.789,6.806v-2.442L492.4,129.1Z" transform="translate(-488.513 -113.705)" fill="#a7a9ac" style="mix-blend-mode: multiply;isolation: isolate"/>
            <path id="Trazado_101244" data-name="Trazado 101244" d="M531.365,172.035v-2.442l-2.838-1.639V170.4Z" transform="translate(-490.691 -116.048)" fill="#a7a9ac" style="mix-blend-mode: multiply;isolation: isolate"/>
            <path id="Trazado_101245" data-name="Trazado 101245" d="M506.557,167.266l-5.676-3.277v2.442l5.676,3.277Z" transform="translate(-489.024 -115.809)" fill="#a7a9ac" style="mix-blend-mode: multiply;isolation: isolate"/>
            <path id="Trazado_101246" data-name="Trazado 101246" d="M509.425,174.92l-2.62-1.513v2.443l2.62,1.513Z" transform="translate(-489.381 -116.377)" fill="#a7a9ac" style="mix-blend-mode: multiply;isolation: isolate"/>
            <path id="Trazado_101247" data-name="Trazado 101247" d="M519.586,174.788l-10.806-6.239v2.443l10.806,6.239Z" transform="translate(-489.5 -116.084)" fill="#a7a9ac" style="mix-blend-mode: multiply;isolation: isolate"/>
            <path id="Trazado_101248" data-name="Trazado 101248" d="M524.693,156.187l2.115,1.274v-2.442l-2.115-1.275Z" transform="translate(-490.46 -115.191)" fill="#a7a9ac" style="mix-blend-mode: multiply;isolation: isolate"/>
            <path id="Trazado_101249" data-name="Trazado 101249" d="M535.05,177.719l-7.22-4.169v2.442l7.22,4.169Z" transform="translate(-490.649 -116.386)" fill="#a7a9ac" style="mix-blend-mode: multiply;isolation: isolate"/>
            <path id="Trazado_101250" data-name="Trazado 101250" d="M528.8,158.616l6.307,3.587v-2.442l-6.307-3.587Z" transform="translate(-490.708 -115.338)" fill="#a7a9ac" style="mix-blend-mode: multiply;isolation: isolate"/>
            <path id="Trazado_101251" data-name="Trazado 101251" d="M532.708,154.816l2.636,1.522V153.9l-2.636-1.522Z" transform="translate(-490.943 -115.109)" fill="#a7a9ac" style="mix-blend-mode: multiply;isolation: isolate"/>
            <path id="Trazado_101252" data-name="Trazado 101252" d="M494.88,182.518l-6.617-3.821v2.442l6.617,3.821Z" transform="translate(-488.263 -116.696)" fill="#a7a9ac" style="mix-blend-mode: multiply;isolation: isolate"/>
            <path id="Trazado_101253" data-name="Trazado 101253" d="M500.865,175.976l-5.676-3.277v2.443l5.676,3.277Z" transform="translate(-488.681 -116.334)" fill="#a7a9ac" style="mix-blend-mode: multiply;isolation: isolate"/>
            <path id="Trazado_101254" data-name="Trazado 101254" d="M493.025,135.461l-4.762-2.749v2.442l4.762,2.749Z" transform="translate(-488.263 -113.923)" fill="#a7a9ac" style="mix-blend-mode: multiply;isolation: isolate"/>
            <path id="Trazado_101255" data-name="Trazado 101255" d="M493.025,171.449l-4.762-2.749v2.442l4.762,2.749Z" transform="translate(-488.263 -116.093)" fill="#a7a9ac" style="mix-blend-mode: multiply;isolation: isolate"/>
            <path id="Trazado_101256" data-name="Trazado 101256" d="M488.263,187.138l10.11,5.837v-2.442l-10.11-5.837Z" transform="translate(-488.263 -117.058)" fill="#a7a9ac" style="mix-blend-mode: multiply;isolation: isolate"/>
            <path id="Trazado_101257" data-name="Trazado 101257" d="M492.37,159.075l-4.107-2.371v2.442l4.107,2.371Z" transform="translate(-488.263 -115.37)" fill="#a7a9ac" style="mix-blend-mode: multiply;isolation: isolate"/>
            <path id="Trazado_101258" data-name="Trazado 101258" d="M494.989,154.589l-6.726-3.884v2.442l6.726,3.884Z" transform="translate(-488.263 -115.008)" fill="#a7a9ac" style="mix-blend-mode: multiply;isolation: isolate"/>
            <path id="Trazado_101259" data-name="Trazado 101259" d="M494.88,142.53l-6.617-3.821v2.442l6.617,3.821Z" transform="translate(-488.263 -114.285)" fill="#a7a9ac" style="mix-blend-mode: multiply;isolation: isolate"/>
            <path id="Trazado_101260" data-name="Trazado 101260" d="M498.373,150.545l-10.11-5.837v2.442l10.11,5.837Z" transform="translate(-488.263 -114.646)" fill="#a7a9ac" style="mix-blend-mode: multiply;isolation: isolate"/>
            <path id="Trazado_101261" data-name="Trazado 101261" d="M490.405,163.939l-2.142-1.237v2.442l2.142,1.237Z" transform="translate(-488.263 -115.731)" fill="#a7a9ac" style="mix-blend-mode: multiply;isolation: isolate"/>
            <path id="Trazado_101262" data-name="Trazado 101262" d="M535.043,205.706l-7.33-4.232v2.443l7.33,4.232Z" transform="translate(-490.642 -118.069)" fill="#a7a9ac" style="mix-blend-mode: multiply;isolation: isolate"/>
            <path id="Trazado_101263" data-name="Trazado 101263" d="M511.567,194.594l2.62,1.513v-2.442l-2.62-1.513Z" transform="translate(-489.668 -117.507)" fill="#a7a9ac" style="mix-blend-mode: multiply;isolation: isolate"/>
            <path id="Trazado_101264" data-name="Trazado 101264" d="M522.344,188.377l-7.641-4.411v2.442l7.641,4.411Z" transform="translate(-489.857 -117.014)" fill="#a7a9ac" style="mix-blend-mode: multiply;isolation: isolate"/>
            <path id="Trazado_101265" data-name="Trazado 101265" d="M500.88,194.423l4.257,2.458v-2.442l-4.257-2.458Z" transform="translate(-489.024 -117.497)" fill="#a7a9ac" style="mix-blend-mode: multiply;isolation: isolate"/>
            <path id="Trazado_101266" data-name="Trazado 101266" d="M528.142,179.728l-6-3.466V178.7l6,3.466Z" transform="translate(-490.306 -116.549)" fill="#a7a9ac" style="mix-blend-mode: multiply;isolation: isolate"/>
            <path id="Trazado_101267" data-name="Trazado 101267" d="M535.2,183.806l-4.819-2.782v2.442l4.819,2.782Z" transform="translate(-490.803 -116.836)" fill="#a7a9ac" style="mix-blend-mode: multiply;isolation: isolate"/>
            <path id="Trazado_101268" data-name="Trazado 101268" d="M525.39,172.141l-9.06-5.231v2.442l9.06,5.231Z" transform="translate(-489.956 -115.985)" fill="#a7a9ac" style="mix-blend-mode: multiply;isolation: isolate"/>
            <path id="Trazado_101269" data-name="Trazado 101269" d="M535.344,189.885l-2.636-1.522v2.442l2.636,1.522Z" transform="translate(-490.943 -117.279)" fill="#a7a9ac" style="mix-blend-mode: multiply;isolation: isolate"/>
            <path id="Trazado_101270" data-name="Trazado 101270" d="M520.511,181.321l-9.06-5.231v2.442l9.06,5.231Z" transform="translate(-489.661 -116.539)" fill="#a7a9ac" style="mix-blend-mode: multiply;isolation: isolate"/>
            <path id="Trazado_101271" data-name="Trazado 101271" d="M508.952,190.642l-11.789-6.806v2.442l11.789,6.806Z" transform="translate(-488.8 -117.006)" fill="#a7a9ac" style="mix-blend-mode: multiply;isolation: isolate"/>
            <path id="Trazado_101272" data-name="Trazado 101272" d="M512.257,182.553l-9.169-5.294V179.7L512.257,185Z" transform="translate(-489.157 -116.609)" fill="#a7a9ac" style="mix-blend-mode: multiply;isolation: isolate"/>
            <path id="Trazado_101273" data-name="Trazado 101273" d="M492.37,123.086l-4.107-2.371v2.442l4.107,2.371Z" transform="translate(-488.263 -113.2)" fill="#a7a9ac" style="mix-blend-mode: multiply;isolation: isolate"/>
            <path id="Trazado_101274" data-name="Trazado 101274" d="M494.989,116.6l-6.726-3.884v2.442l6.726,3.884Z" transform="translate(-488.263 -112.717)" fill="#a7a9ac" style="mix-blend-mode: multiply;isolation: isolate"/>
            <path id="Trazado_101275" data-name="Trazado 101275" d="M490.405,127.95l-2.142-1.237v2.442l2.142,1.237Z" transform="translate(-488.263 -113.561)" fill="#a7a9ac" style="mix-blend-mode: multiply;isolation: isolate"/>
            <path id="Trazado_101276" data-name="Trazado 101276" d="M509.069,124.729l-11.789-6.806v2.442l11.789,6.806Z" transform="translate(-488.807 -113.031)" fill="#a7a9ac" style="mix-blend-mode: multiply;isolation: isolate"/>
            <path id="Trazado_101277" data-name="Trazado 101277" d="M535.2,147.816l-4.819-2.782v2.442l4.819,2.782Z" transform="translate(-490.803 -114.666)" fill="#a7a9ac" style="mix-blend-mode: multiply;isolation: isolate"/>
            <path id="Trazado_101278" data-name="Trazado 101278" d="M514.3,127.752l-2.62-1.513v2.442l2.62,1.513Z" transform="translate(-489.675 -113.533)" fill="#a7a9ac" style="mix-blend-mode: multiply;isolation: isolate"/>
            <path id="Trazado_101279" data-name="Trazado 101279" d="M522.138,142.715l6,3.466v-2.442l-6-3.466Z" transform="translate(-490.306 -114.379)" fill="#a7a9ac" style="mix-blend-mode: multiply;isolation: isolate"/>
            <path id="Trazado_101280" data-name="Trazado 101280" d="M525.39,134.153l-9.06-5.231v2.442l9.06,5.231Z" transform="translate(-489.956 -113.695)" fill="#a7a9ac" style="mix-blend-mode: multiply;isolation: isolate"/>
          </g>
          <path id="Trazado_101281" data-name="Trazado 101281" d="M483.549,77.56l10.244,5.914c.39.226.707.045.707-.4a1.559,1.559,0,0,0-.707-1.219l-10.244-5.914c-.39-.226-.707-.045-.707.4A1.557,1.557,0,0,0,483.549,77.56Zm10.244,7.94-10.244-5.914c-.39-.226-.707-.045-.707.4a1.557,1.557,0,0,0,.707,1.219l10.244,5.914c.39.225.707.045.707-.4A1.558,1.558,0,0,0,493.792,85.5Zm0,3.648-10.244-5.914c-.39-.226-.707-.045-.707.4a1.557,1.557,0,0,0,.707,1.219l10.244,5.914c.39.226.707.045.707-.4A1.559,1.559,0,0,0,493.792,89.148Z" transform="translate(-476.125 -65.44)" fill="#fff"/>
          <g id="Grupo_54337" data-name="Grupo 54337" transform="translate(43.371 33.949)">
            <path id="Trazado_101282" data-name="Trazado 101282" d="M540.323,113.171c0,1.391-.982,1.951-2.194,1.252a4.837,4.837,0,0,1-2.194-3.785c0-1.391.983-1.951,2.194-1.251A4.833,4.833,0,0,1,540.323,113.171Z" transform="translate(-522.698 -101.393)" fill="#fff"/>
            <path id="Trazado_101283" data-name="Trazado 101283" d="M533.279,109.079c0,1.39-.982,1.95-2.193,1.251a4.835,4.835,0,0,1-2.194-3.785c0-1.39.982-1.95,2.194-1.251A4.836,4.836,0,0,1,533.279,109.079Z" transform="translate(-522.273 -101.146)" fill="#fff"/>
            <path id="Trazado_101284" data-name="Trazado 101284" d="M526.236,104.986c0,1.39-.982,1.95-2.194,1.251a4.835,4.835,0,0,1-2.194-3.785c0-1.39.982-1.95,2.194-1.251A4.835,4.835,0,0,1,526.236,104.986Z" transform="translate(-521.848 -100.9)" fill="#fff"/>
          </g>
          <path id="Trazado_101285" data-name="Trazado 101285" d="M520.271,231.635l10.947,7-13.462-15.072Z" transform="translate(-478.23 -74.348)" fill="#fff"/>
          <path id="Trazado_101286" data-name="Trazado 101286" d="M520.271,233.6l10.947,5.641-13.462-.473Z" transform="translate(-478.23 -74.953)" fill="#fff"/>
        </g>
        <g id="Grupo_54341" data-name="Grupo 54341" transform="translate(57.464 21.331)">
          <path id="Trazado_101312" data-name="Trazado 101312" d="M495.024,108.584,412.8,61.286c-4.821-2.784-8.729.171-8.729,6.6v16.79c0,6.428,3.908,13.9,8.729,16.68l18.264,10.671,6.681,19.676,6.679-11.958,50.6,28.908c4.822,2.783,8.73-.171,8.73-6.6v-16.79C503.753,118.835,499.845,111.367,495.024,108.584Z" transform="translate(-404.071 -57.605)" fill="url(#linear-gradient-14)"/>
          <path id="Trazado_101313" data-name="Trazado 101313" d="M449.3,125.133l-2.719-1.571-6.68,11.958,5.361-3.16Z" transform="translate(-406.232 -61.423)" fill="url(#linear-gradient-15)"/>
          <path id="Trazado_101314" data-name="Trazado 101314" d="M499.712,105.777l-82.223-47.3c-2.065-1.192-3.959-1.325-5.454-.59l-.047-.052-4.771,2.8.018.058c1.537-.914,3.547-.855,5.756.419l82.224,47.3c4.821,2.783,8.729,10.251,8.729,16.68v16.789c0,3.124-.928,5.419-2.431,6.642l2.66-1.752a7.857,7.857,0,0,0,4.269-7.528v-16.79C508.441,116.028,504.533,108.56,499.712,105.777Z" transform="translate(-404.261 -57.436)" fill="url(#linear-gradient-16)"/>
          <path id="Trazado_101315" data-name="Trazado 101315" d="M495.712,108.149l-82.224-47.3c-2.394-1.382-4.563-1.347-6.14-.176a5.9,5.9,0,0,1,5.078.747l82.224,47.3c4.822,2.783,8.73,10.25,8.73,16.679v16.79c0,3.235-.992,5.588-2.59,6.774,2.208-.837,3.651-3.447,3.651-7.346v-16.79C504.441,118.4,500.532,110.933,495.712,108.149Z" transform="translate(-404.269 -57.579)" fill="url(#radial-gradient-5)" style="mix-blend-mode: color-dodge;isolation: isolate"/>
          <ellipse id="Elipse_4064" data-name="Elipse 4064" cx="6.591" cy="11.597" rx="6.591" ry="11.597" transform="matrix(0.84, -0.543, 0.543, 0.84, 85.678, 51.18)" fill="url(#radial-gradient-6)" style="mix-blend-mode: color-dodge;isolation: isolate"/>
          <path id="Trazado_101316" data-name="Trazado 101316" d="M427.325,78.611a10.177,10.177,0,0,0-5.046-1.527c-3.971,0-6.537,3.195-6.537,8.141,0,6.773,4.8,15.056,10.7,18.463a10.174,10.174,0,0,0,5.046,1.527c3.97,0,6.537-3.195,6.537-8.141C438.028,90.3,433.226,82.018,427.325,78.611Zm2.673,9.7a3.4,3.4,0,0,1,1.539,2.656c0,.975-.69,1.368-1.539.878a3.391,3.391,0,0,1-1.54-2.656C428.458,88.217,429.148,87.824,430,88.314Zm-6.226-3.594a3.392,3.392,0,0,1,1.539,2.656c0,.975-.689,1.368-1.539.878a3.393,3.393,0,0,1-1.539-2.656C422.232,84.622,422.921,84.229,423.772,84.72ZM430.586,100a3.789,3.789,0,0,1-1.278.213,5.854,5.854,0,0,1-2.891-.863,12.952,12.952,0,0,1-5.479-7.435l1.693-.479a11.277,11.277,0,0,0,4.667,6.391,3.343,3.343,0,0,0,2.7.515,1.972,1.972,0,0,0,1.166-1.254l1.646.621A3.7,3.7,0,0,1,430.586,100Z" transform="translate(-404.775 -58.62)" fill="url(#linear-gradient-17)"/>
          <path id="Trazado_101317" data-name="Trazado 101317" d="M458.366,96.066a10.17,10.17,0,0,0-5.046-1.528c-3.971,0-6.537,3.2-6.537,8.141,0,6.774,4.8,15.057,10.7,18.464a10.177,10.177,0,0,0,5.047,1.527c3.97,0,6.536-3.195,6.536-8.141C469.068,107.756,464.267,99.472,458.366,96.066Zm-5.092,6.987c0-.976.689-1.369,1.539-.878a3.39,3.39,0,0,1,1.539,2.655c0,.976-.689,1.369-1.539.879A3.393,3.393,0,0,1,453.274,103.053Zm7.8,13.443-7.15-3.964.853-1.539,7.15,3.964Zm-.036-7.193a3.4,3.4,0,0,1-1.539-2.656c0-.975.69-1.368,1.539-.878a3.393,3.393,0,0,1,1.54,2.656C462.578,109.4,461.889,109.793,461.038,109.3Z" transform="translate(-406.647 -59.673)" fill="url(#linear-gradient-18)"/>
          <path id="Trazado_101318" data-name="Trazado 101318" d="M488.416,113.1a10.178,10.178,0,0,0-5.047-1.527c-3.97,0-6.536,3.195-6.536,8.141,0,6.773,4.8,15.056,10.7,18.463a10.17,10.17,0,0,0,5.046,1.528c3.971,0,6.537-3.195,6.537-8.141C499.118,124.785,494.317,116.5,488.416,113.1Zm2.672,9.7a3.39,3.39,0,0,1,1.539,2.655c0,.975-.689,1.368-1.539.878a3.39,3.39,0,0,1-1.539-2.655C489.549,122.7,490.238,122.308,491.088,122.8Zm-6.226-3.6a3.4,3.4,0,0,1,1.539,2.656c0,.975-.69,1.368-1.539.878a3.391,3.391,0,0,1-1.54-2.656C483.323,119.106,484.012,118.713,484.863,119.2Zm7.365,16.558a11.274,11.274,0,0,0-4.666-6.391,3.35,3.35,0,0,0-2.7-.516,1.971,1.971,0,0,0-1.166,1.254l-1.646-.622a3.7,3.7,0,0,1,2.221-2.29,5.033,5.033,0,0,1,4.169.649,12.952,12.952,0,0,1,5.479,7.436Z" transform="translate(-408.459 -60.7)" fill="url(#linear-gradient-19)"/>
        </g>
        <g id="Grupo_54346" data-name="Grupo 54346" transform="translate(0 31.445)">
          <path id="Trazado_101319" data-name="Trazado 101319" d="M412.461,107.179,351.649,72.049c-4.821-2.783-8.729.171-8.729,6.6v16.79c0,6.428,3.908,13.9,8.729,16.679l6.66,3.846,6.681,19.676,6.679-11.958,40.792,23.566c4.822,2.783,8.73-.171,8.73-6.6v-16.79C421.19,117.431,417.282,109.963,412.461,107.179Z" transform="translate(-342.92 -68.368)" fill="url(#linear-gradient-20)"/>
          <path id="Trazado_101320" data-name="Trazado 101320" d="M375.8,128.633l-2.719-1.571-6.68,11.958,5.361-3.16Z" transform="translate(-344.336 -71.748)" fill="url(#linear-gradient-21)"/>
          <path id="Trazado_101321" data-name="Trazado 101321" d="M417.149,104.373,356.338,69.242c-2.065-1.192-3.959-1.325-5.453-.59l-.048-.051-4.771,2.8.018.058c1.537-.914,3.547-.855,5.756.42L412.65,107.01c4.822,2.783,8.73,10.25,8.73,16.68v16.789c0,3.124-.928,5.418-2.431,6.642l2.66-1.752a7.858,7.858,0,0,0,4.269-7.528v-16.79C425.879,114.624,421.97,107.156,417.149,104.373Z" transform="translate(-343.11 -68.199)" fill="url(#linear-gradient-22)"/>
          <path id="Trazado_101322" data-name="Trazado 101322" d="M413.149,106.745,352.337,71.614c-2.394-1.382-4.563-1.347-6.14-.176a5.9,5.9,0,0,1,5.078.747l60.812,35.132c4.822,2.783,8.729,10.25,8.729,16.679v16.79c0,3.235-.991,5.588-2.589,6.774,2.207-.837,3.651-3.447,3.651-7.347V123.424C421.878,117,417.969,109.528,413.149,106.745Z" transform="translate(-343.118 -68.342)" fill="url(#radial-gradient-7)" style="mix-blend-mode: color-dodge;isolation: isolate"/>
          <path id="Trazado_101323" data-name="Trazado 101323" d="M428.9,112.031c3.475,5.38,3.814,11.342.756,13.317s-8.354-.784-11.829-6.163-3.815-11.342-.757-13.317S425.421,106.651,428.9,112.031Z" transform="translate(-347.265 -70.432)" fill="url(#radial-gradient-8)" style="mix-blend-mode: color-dodge;isolation: isolate"/>
          <g id="Grupo_54342" data-name="Grupo 54342" transform="translate(16.014 17.867)">
            <path id="Trazado_101324" data-name="Trazado 101324" d="M375.17,116.9a2.234,2.234,0,0,1-1.113-.331l-11.677-6.741a4.173,4.173,0,0,1-1.919-3.312V96.93l3.908-2.553a2.159,2.159,0,0,0,.768-1.894V88.82a1,1,0,0,1,.966-1.107,1.276,1.276,0,0,1,.639.186,6.637,6.637,0,0,1,3.051,5.266v4.061l7.171,4.139a4.549,4.549,0,0,1,2.093,3.612,1.991,1.991,0,0,1-.387,1.264,1.367,1.367,0,0,1-.458.371,4.364,4.364,0,0,1,.844,2.5,1.56,1.56,0,0,1-1.389,1.685,4.023,4.023,0,0,1,.4,1.67c0,1.067-.6,1.783-1.492,1.783h-.019a3.4,3.4,0,0,1,.113,1.022A1.519,1.519,0,0,1,375.17,116.9Z" transform="translate(-359.992 -87.243)" fill="#fff"/>
            <path id="Trazado_101325" data-name="Trazado 101325" d="M366.074,88.153a.816.816,0,0,1,.4.124h0a6.205,6.205,0,0,1,2.816,4.858v4.332l7.406,4.276a4.1,4.1,0,0,1,1.859,3.205h0c0,.834-.417,1.315-1.024,1.315a1.33,1.33,0,0,1-.272-.03,4.111,4.111,0,0,1,1.3,2.843c-.02.794-.444,1.231-1.039,1.231a1.779,1.779,0,0,1-.879-.268l-.028-.016a4.054,4.054,0,0,1,.959,2.42c0,.834-.416,1.313-1.023,1.313a1.663,1.663,0,0,1-.782-.225,3.513,3.513,0,0,1,.408,1.693c-.038.76-.455,1.174-1.034,1.174a1.781,1.781,0,0,1-.878-.267l-2.673-1.544-5-2.883-4.007-2.314a3.71,3.71,0,0,1-1.685-2.9V97.153l3.7-2.413a2.61,2.61,0,0,0,.98-2.288V88.79c0-.4.2-.637.5-.637Zm0-.94h0a1.461,1.461,0,0,0-1.436,1.577v3.662a1.757,1.757,0,0,1-.554,1.5l-3.7,2.413-.426.278v9.84a4.617,4.617,0,0,0,2.155,3.718l4.007,2.314,5,2.883,2.673,1.544a2.688,2.688,0,0,0,1.348.393,1.984,1.984,0,0,0,1.972-2.066,3.682,3.682,0,0,0-.027-.647,2.11,2.11,0,0,0,1.426-2.181,4.207,4.207,0,0,0-.237-1.343,2.118,2.118,0,0,0,1.223-2,4.7,4.7,0,0,0-.678-2.39,2.37,2.37,0,0,0,.679-1.761,4.991,4.991,0,0,0-2.329-4.019l-6.936-4v-3.79a7.146,7.146,0,0,0-3.286-5.672,1.732,1.732,0,0,0-.874-.25Z" transform="translate(-359.962 -87.213)" fill="#364f87"/>
          </g>
          <g id="Grupo_54343" data-name="Grupo 54343" transform="translate(8.901 21.237)">
            <path id="Trazado_101326" data-name="Trazado 101326" d="M358.52,107.717l-4.4-2.542a2.937,2.937,0,0,1-1.225-2.342V92.372c0-.9.549-1.317,1.225-.927l4.4,2.542a2.937,2.937,0,0,1,1.225,2.342v10.462C359.745,107.693,359.2,108.107,358.52,107.717Z" transform="translate(-352.422 -90.829)" fill="#364f87"/>
            <path id="Trazado_101327" data-name="Trazado 101327" d="M358.976,108.3a1.443,1.443,0,0,1-.722-.21l-4.4-2.543a3.4,3.4,0,0,1-1.46-2.748V92.342c0-1.066.607-1.543,1.208-1.543a1.435,1.435,0,0,1,.722.21l4.4,2.541a3.4,3.4,0,0,1,1.46,2.749v10.462C360.185,107.826,359.578,108.3,358.976,108.3ZM353.6,91.739c-.185,0-.269.313-.269.6V102.8a2.5,2.5,0,0,0,.99,1.934l4.4,2.542a.541.541,0,0,0,.252.085c.185,0,.269-.313.269-.6V96.3a2.5,2.5,0,0,0-.99-1.934l-4.4-2.542A.538.538,0,0,0,353.6,91.739Z" transform="translate(-352.392 -90.799)" fill="#364f87"/>
          </g>
          <g id="Grupo_54344" data-name="Grupo 54344" transform="translate(43.447 34.071)">
            <path id="Trazado_101328" data-name="Trazado 101328" d="M402.61,134.141a1.286,1.286,0,0,1-.639-.186,6.64,6.64,0,0,1-3.052-5.266v-4.061l-7.17-4.139a4.55,4.55,0,0,1-2.094-3.612,1.729,1.729,0,0,1,.845-1.637,4.361,4.361,0,0,1-.844-2.5,1.561,1.561,0,0,1,1.39-1.685,4.018,4.018,0,0,1-.4-1.67c0-1.067.6-1.784,1.494-1.784h.02a3.379,3.379,0,0,1-.116-1.021,1.52,1.52,0,0,1,1.5-1.621,2.224,2.224,0,0,1,1.113.331l11.676,6.741a4.174,4.174,0,0,1,1.92,3.312v9.585l-3.909,2.552a2.163,2.163,0,0,0-.767,1.9v3.662A1,1,0,0,1,402.61,134.141Z" transform="translate(-389.185 -104.486)" fill="#fff"/>
            <path id="Trazado_101329" data-name="Trazado 101329" d="M393.513,105.4a1.786,1.786,0,0,1,.878.268l2.673,1.543,4.995,2.884,4.008,2.314a3.712,3.712,0,0,1,1.684,2.906v9.33l-3.7,2.414a2.611,2.611,0,0,0-.979,2.288V133c0,.4-.2.637-.5.637a.816.816,0,0,1-.4-.124h0a6.205,6.205,0,0,1-2.817-4.858v-4.332l-7.4-4.276a4.1,4.1,0,0,1-1.859-3.205h0c0-.834.417-1.315,1.024-1.315a1.258,1.258,0,0,1,.272.03,4.111,4.111,0,0,1-1.295-2.843c.02-.794.444-1.231,1.039-1.231a1.785,1.785,0,0,1,.879.268l.028.016a4.053,4.053,0,0,1-.959-2.42c0-.834.416-1.314,1.023-1.314a1.659,1.659,0,0,1,.781.226,3.534,3.534,0,0,1-.408-1.693c.039-.76.456-1.175,1.035-1.175Zm0-.94h0a1.983,1.983,0,0,0-1.972,2.067,3.528,3.528,0,0,0,.027.648,1.83,1.83,0,0,0-.935.622,2.452,2.452,0,0,0-.491,1.558,4.223,4.223,0,0,0,.236,1.342,2.119,2.119,0,0,0-1.222,2,4.7,4.7,0,0,0,.678,2.39,2.368,2.368,0,0,0-.679,1.761,4.99,4.99,0,0,0,2.329,4.019l6.935,4v3.79a7.149,7.149,0,0,0,3.287,5.672,1.731,1.731,0,0,0,.874.25A1.462,1.462,0,0,0,404.015,133v-3.662a1.76,1.76,0,0,1,.553-1.5l3.7-2.413.426-.278v-9.84a4.618,4.618,0,0,0-2.154-3.719l-4.008-2.314-4.995-2.884-2.673-1.543a2.689,2.689,0,0,0-1.348-.394Z" transform="translate(-389.155 -104.456)" fill="#364f87"/>
          </g>
          <g id="Grupo_54345" data-name="Grupo 54345" transform="translate(61.851 42.868)">
            <path id="Trazado_101330" data-name="Trazado 101330" d="M410.465,114.466l4.4,2.542a2.933,2.933,0,0,1,1.226,2.341V129.81c0,.9-.549,1.317-1.226.927l-4.4-2.542a2.935,2.935,0,0,1-1.225-2.342V115.392C409.24,114.489,409.789,114.075,410.465,114.466Z" transform="translate(-408.77 -113.848)" fill="#364f87"/>
            <path id="Trazado_101331" data-name="Trazado 101331" d="M415.324,131.324a1.438,1.438,0,0,1-.722-.21l-4.4-2.542a3.406,3.406,0,0,1-1.46-2.749V115.361c0-1.066.608-1.543,1.208-1.543a1.445,1.445,0,0,1,.722.21l4.4,2.542a3.4,3.4,0,0,1,1.46,2.748V129.78C416.533,130.846,415.927,131.324,415.324,131.324Zm-5.376-16.566c-.184,0-.269.313-.269.6v10.462a2.5,2.5,0,0,0,.99,1.935l4.4,2.542a.544.544,0,0,0,.252.085c.184,0,.269-.313.269-.6V119.318a2.5,2.5,0,0,0-.99-1.934l-4.4-2.542A.538.538,0,0,0,409.948,114.758Z" transform="translate(-408.74 -113.818)" fill="#364f87"/>
          </g>
        </g>
        <g id="Grupo_54348" data-name="Grupo 54348" transform="translate(68.009 95.405)">
          <path id="Trazado_101332" data-name="Trazado 101332" d="M493.665,180.435l-69.3-40.172c-5.01-2.892-9.069.178-9.069,6.856V153.7c0,6.678,4.059,14.437,9.069,17.328l14.544,8.9,6.943,20.442,6.94-12.423L493.665,211.2c5.009,2.891,9.069-.178,9.069-6.856v-6.584C502.734,191.085,498.674,183.328,493.665,180.435Z" transform="translate(-415.293 -136.439)" fill="url(#linear-gradient-23)"/>
          <path id="Trazado_101333" data-name="Trazado 101333" d="M457.573,192.706l-2.824-1.632-6.94,12.423,5.57-3.283Z" transform="translate(-417.254 -139.569)" fill="url(#linear-gradient-24)"/>
          <path id="Trazado_101334" data-name="Trazado 101334" d="M498.535,177.52l-69.3-40.172c-2.145-1.239-4.113-1.377-5.666-.613l-.049-.054-4.957,2.909.019.061c1.6-.95,3.685-.889,5.979.436l69.3,40.172c5.009,2.891,9.069,10.65,9.069,17.329v6.583c0,3.246-.964,5.63-2.526,6.9l2.765-1.82a8.163,8.163,0,0,0,4.434-7.82v-6.584C507.6,188.17,503.544,180.411,498.535,177.52Z" transform="translate(-415.49 -136.264)" fill="url(#linear-gradient-25)"/>
          <path id="Trazado_101335" data-name="Trazado 101335" d="M494.379,179.983l-69.3-40.172c-2.488-1.436-4.741-1.4-6.38-.182a6.127,6.127,0,0,1,5.276.776l69.3,40.172c5.009,2.892,9.069,10.651,9.069,17.329v6.583c0,3.361-1.03,5.806-2.69,7.039,2.294-.87,3.794-3.581,3.794-7.633v-6.583C503.449,190.634,499.388,182.876,494.379,179.983Z" transform="translate(-415.498 -136.412)" fill="url(#radial-gradient-9)" style="mix-blend-mode: color-dodge;isolation: isolate"/>
          <path id="Trazado_101336" data-name="Trazado 101336" d="M511.133,185.711c3.611,5.589,3.964,11.784.787,13.836s-8.679-.815-12.29-6.4-3.963-11.784-.787-13.836S507.522,180.122,511.133,185.711Z" transform="translate(-420.2 -138.819)" fill="url(#radial-gradient-10)" style="mix-blend-mode: color-dodge;isolation: isolate"/>
          <g id="Grupo_54347" data-name="Grupo 54347" transform="translate(8.765 14.965)">
            <path id="Trazado_101337" data-name="Trazado 101337" d="M431.891,153.2l1.147,4.449a1.56,1.56,0,0,0,.64.9l3.494,2.1c.657.395.928,1.509.4,1.662l-2.784.815c-.23.068-.328.356-.244.723l1.012,4.422c.19.832-.521,1.013-1.06.271l-2.867-3.945a.891.891,0,0,0-.792-.458l-2.868.634c-.539.119-1.25-.883-1.059-1.5l1.011-3.253a1.268,1.268,0,0,0-.244-1.005l-2.784-4.029c-.523-.758-.253-1.559.405-1.2l3.493,1.935c.289.161.545.095.641-.164l1.146-3.125C430.8,151.855,431.675,152.362,431.891,153.2Z" transform="translate(-424.621 -152.189)" fill="#fff"/>
            <path id="Trazado_101338" data-name="Trazado 101338" d="M447.344,162.12l1.146,4.449a1.56,1.56,0,0,0,.641.9l3.493,2.1c.658.395.928,1.509.4,1.663l-2.784.815c-.231.068-.329.355-.244.723l1.011,4.421c.191.832-.52,1.014-1.059.272l-2.868-3.946a.89.89,0,0,0-.791-.457l-2.868.634c-.539.119-1.25-.883-1.06-1.5l1.012-3.253a1.274,1.274,0,0,0-.244-1.005l-2.784-4.029c-.524-.758-.253-1.56.4-1.2l3.494,1.935c.289.161.545.095.64-.164l1.147-3.125C446.251,160.777,447.128,161.284,447.344,162.12Z" transform="translate(-425.553 -152.727)" fill="#fff"/>
            <path id="Trazado_101339" data-name="Trazado 101339" d="M462.8,171.042l1.147,4.449a1.555,1.555,0,0,0,.641.9l3.493,2.1c.657.395.928,1.509.4,1.662l-2.784.815c-.231.068-.329.356-.245.723l1.012,4.422c.191.832-.52,1.013-1.059.272l-2.868-3.946a.89.89,0,0,0-.792-.458l-2.868.634c-.539.119-1.249-.882-1.059-1.494l1.012-3.254a1.27,1.27,0,0,0-.245-1l-2.784-4.03c-.523-.757-.252-1.559.4-1.2l3.493,1.935c.29.161.546.1.641-.164l1.147-3.125C461.7,169.7,462.581,170.206,462.8,171.042Z" transform="translate(-426.484 -153.265)" fill="#fff"/>
            <path id="Trazado_101340" data-name="Trazado 101340" d="M478.249,179.964l1.147,4.449a1.552,1.552,0,0,0,.641.9l3.493,2.1c.657.395.928,1.51.4,1.663l-2.783.815c-.231.068-.329.356-.245.723l1.012,4.421c.19.832-.52,1.014-1.059.272l-2.868-3.946a.892.892,0,0,0-.792-.457l-2.868.634c-.539.119-1.25-.883-1.059-1.5l1.011-3.253a1.268,1.268,0,0,0-.244-1.005l-2.784-4.029c-.523-.758-.252-1.559.4-1.2l3.493,1.935c.29.161.546.095.641-.164l1.147-3.125C477.156,178.62,478.033,179.127,478.249,179.964Z" transform="translate(-427.416 -153.803)" fill="#fff"/>
            <path id="Trazado_101341" data-name="Trazado 101341" d="M493.7,188.885l1.147,4.449a1.554,1.554,0,0,0,.64.9l3.494,2.1c.657.395.927,1.509.4,1.663l-2.784.814c-.231.068-.328.356-.244.724l1.012,4.421c.19.832-.521,1.014-1.06.272l-2.868-3.946a.888.888,0,0,0-.791-.457l-2.868.634c-.539.118-1.25-.883-1.06-1.5l1.012-3.253a1.271,1.271,0,0,0-.244-1.005l-2.784-4.029c-.523-.758-.253-1.56.405-1.2l3.493,1.936c.289.161.545.095.641-.164l1.146-3.124C492.609,187.541,493.486,188.049,493.7,188.885Z" transform="translate(-428.348 -154.341)" fill="#fff"/>
          </g>
        </g>
        <g id="Grupo_54349" data-name="Grupo 54349" transform="translate(34.453 102.464)">
          <path id="Trazado_101342" data-name="Trazado 101342" d="M411.118,161.077l-24.542-14.218c-3.862-2.23-6.992.136-6.992,5.286v18.682c0,5.149,3.13,11.13,6.992,13.36l5.713,3.546,5.352,15.762,5.351-9.578,8.127,4.489c3.862,2.23,6.992-.137,6.992-5.286V174.437C418.111,169.289,414.981,163.307,411.118,161.077Z" transform="translate(-379.584 -143.911)" fill="url(#linear-gradient-26)"/>
          <path id="Trazado_101343" data-name="Trazado 101343" d="M406.329,198.248l-2.178-1.258-5.35,9.578,4.294-2.531Z" transform="translate(-380.743 -146.984)" fill="url(#linear-gradient-27)"/>
          <path id="Trazado_101344" data-name="Trazado 101344" d="M414.874,158.829,390.332,144.61a4.567,4.567,0,0,0-4.369-.472l-.038-.041L382.1,146.34l.014.047c1.231-.733,2.842-.685,4.61.336l24.543,14.218c3.861,2.23,6.991,8.211,6.991,13.361v18.682c0,2.5-.743,4.34-1.947,5.32l2.131-1.4a6.3,6.3,0,0,0,3.42-6.03V172.19C421.867,167.04,418.736,161.059,414.874,158.829Z" transform="translate(-379.736 -143.775)" fill="url(#linear-gradient-28)"/>
          <path id="Trazado_101345" data-name="Trazado 101345" d="M411.67,160.729,387.127,146.51c-1.919-1.107-3.655-1.079-4.918-.14a4.719,4.719,0,0,1,4.068.6l24.542,14.218c3.862,2.23,6.992,8.212,6.992,13.361v18.682c0,2.592-.794,4.476-2.074,5.427,1.768-.671,2.924-2.761,2.924-5.885V174.09C418.662,168.94,415.532,162.959,411.67,160.729Z" transform="translate(-379.742 -143.89)" fill="url(#radial-gradient-11)" style="mix-blend-mode: color-dodge;isolation: isolate"/>
          <path id="Trazado_101346" data-name="Trazado 101346" d="M422.734,164.069c2.783,4.309,3.055,9.085.606,10.667s-6.692-.628-9.476-4.937-3.055-9.085-.606-10.667S419.949,159.761,422.734,164.069Z" transform="translate(-381.514 -144.67)" fill="url(#radial-gradient-12)" style="mix-blend-mode: color-dodge;isolation: isolate"/>
          <path id="Trazado_101347" data-name="Trazado 101347" d="M404.609,165.353c-2.613-1.509-4.878-1.119-6.012.71a14.949,14.949,0,0,0-6.013-7.653c-3.749-2.164-6.789-.431-6.789,3.871,0,7.863,12.8,24.975,12.8,24.975s12.8-2.33,12.8-10.193A14.961,14.961,0,0,0,404.609,165.353Z" transform="translate(-379.959 -144.601)" fill="#fff"/>
        </g>
      </g>
    </g>
  </g>
</svg>
