<svg xmlns="http://www.w3.org/2000/svg" width="60" height="60" viewBox="0 0 60 60">
  <g id="Grupo_54431" data-name="Grupo 54431" transform="translate(-180 -9173)">
    <circle id="Elipse_4012" data-name="Elipse 4012" cx="30" cy="30" r="30" transform="translate(180 9173)" fill="#d64626"/>
    <path id="Trazado_102059" data-name="Trazado 102059" d="M8.467,16.271a2.775,2.775,0,0,0,2.051-.718,2.693,2.693,0,0,0,.718-1.992,2.246,2.246,0,0,0-.732-1.692,2.753,2.753,0,0,0-1.978-.7,2.383,2.383,0,0,0-1.589.549,1.8,1.8,0,0,0-.652,1.443h-4.8l-.029-.088a4.723,4.723,0,0,1,2-4.131A8.159,8.159,0,0,1,8.525,7.364a8.946,8.946,0,0,1,5.559,1.589,5.329,5.329,0,0,1,2.087,4.5,4.452,4.452,0,0,1-.879,2.666,6,6,0,0,1-2.388,1.919,5.588,5.588,0,0,1,2.666,1.9,5.039,5.039,0,0,1,.938,3.083A5.433,5.433,0,0,1,14.26,27.63a9.334,9.334,0,0,1-5.735,1.677,8.847,8.847,0,0,1-5.244-1.575A5.076,5.076,0,0,1,1.128,23.17l.029-.088H5.977a2.3,2.3,0,0,0,.718,1.729,2.537,2.537,0,0,0,1.831.688,3.232,3.232,0,0,0,2.19-.74,2.332,2.332,0,0,0,.857-1.838,2.856,2.856,0,0,0-.813-2.263,3.373,3.373,0,0,0-2.292-.71H6.123V16.271Z" transform="translate(201 9185)" fill="#fff"/>
  </g>
</svg>
