<svg xmlns="http://www.w3.org/2000/svg" width="84" height="84" viewBox="0 0 84 84">
  <g id="Grupo_54436" data-name="Grupo 54436" transform="translate(-180 -10841)">
    <circle id="Elipse_5057" data-name="Elipse 5057" cx="42" cy="42" r="42" transform="translate(180 10841)" fill="#fed947"/>
    <g id="_02-E-wallet" data-name="02-E-wallet" transform="translate(196 10796.111)">
      <g id="filled" transform="translate(4 60.889)">
        <circle id="Elipse_4015" data-name="Elipse 4015" cx="1.246" cy="1.246" r="1.246" transform="translate(36.559 29.681)" fill="#20287a"/>
        <path id="Trazado_99934" data-name="Trazado 99934" d="M49.7,108H47.39v-4.154a6.934,6.934,0,0,0-5.821-6.835l-1.606-6.426a1.385,1.385,0,0,0-1.679-1.008l-4.532,1.133-2.785-5.918a1.385,1.385,0,0,0-1.988-.584L8.68,96.925H5.385A1.385,1.385,0,0,0,4,98.309v33.235a1.385,1.385,0,0,0,1.385,1.385H40.466a6.932,6.932,0,0,0,6.924-6.924v-4.154H49.7a1.385,1.385,0,0,0,1.385-1.385V109.388A1.385,1.385,0,0,0,49.7,108ZM38.693,96.925H20.326L33.3,93.68l.009,0,4.3-1.075Zm-9.567-9.538L31.014,91.4l-13.8,3.45Zm15.495,38.618a4.159,4.159,0,0,1-4.154,4.154H6.77V99.694h33.7a4.159,4.159,0,0,1,4.151,4.154V108h-6a3.235,3.235,0,0,0-3.231,3.231v7.386a3.235,3.235,0,0,0,3.231,3.231h6Zm3.693-6.924H38.62a.462.462,0,0,1-.462-.462v-7.386a.462.462,0,0,1,.462-.462h9.694Z" transform="translate(-4 -84)" fill="#20287a"/>
        <circle id="Elipse_4016" data-name="Elipse 4016" cx="1.246" cy="1.246" r="1.246" transform="translate(36.559 29.681)" fill="#20287a"/>
        <path id="Trazado_99935" data-name="Trazado 99935" d="M105.078,250.462h4.616a1.386,1.386,0,0,1,1.385,1.385,1.385,1.385,0,1,0,2.77,0,4.159,4.159,0,0,0-4.154-4.154h-1.385v-2.308a1.385,1.385,0,0,0-2.77,0v2.308h-.462a5.078,5.078,0,0,0,0,10.155h3.693a2.308,2.308,0,1,1,0,4.616h-4.616a1.386,1.386,0,0,1-1.385-1.385,1.385,1.385,0,1,0-2.77,0,4.159,4.159,0,0,0,4.154,4.154h1.385v2.308a1.385,1.385,0,0,0,2.77,0v-2.308h.462a5.078,5.078,0,1,0,0-10.155h-3.693a2.308,2.308,0,0,1,0-4.616Z" transform="translate(-88.922 -225.536)" fill="#20287a"/>
      </g>
    </g>
  </g>
</svg>
