<svg xmlns="http://www.w3.org/2000/svg" width="645.893" height="645.848" viewBox="0 0 645.893 645.848">
  <g id="Grupo_54435" data-name="Grupo 54435" transform="translate(8 -18.386)">
    <g id="Grupo_54427" data-name="Grupo 54427" transform="translate(-8 18.386)">
      <path id="Trazado_102043" data-name="Trazado 102043" d="M507.841,281.2a323.349,323.349,0,0,0,0,316.986L782.359,439.688Z" transform="translate(-466.333 -116.764)" fill="#d64626"/>
      <path id="Trazado_102044" data-name="Trazado 102044" d="M1217.518,598.181a323.349,323.349,0,0,0,0-316.986L943,439.688Z" transform="translate(-613.133 -116.764)" fill="#d64626"/>
      <path id="Trazado_102046" data-name="Trazado 102046" d="M938,518.883v316.93c116.843-1.227,218.809-64.5,274.515-158.44Z" transform="translate(-611.594 -189.965)" fill="#d64626"/>
      <path id="Trazado_102047" data-name="Trazado 102047" d="M805.832,360.518V43.587c-116.843,1.227-218.809,64.5-274.515,158.44Z" transform="translate(-486.346 -43.587)" fill="#d64626"/>
      <path id="Trazado_102048" data-name="Trazado 102048" d="M805.833,518.882,531.318,677.374c55.705,93.938,157.672,157.213,274.515,158.44Z" transform="translate(-486.347 -189.965)" fill="#d64626"/>
      <path id="Trazado_102049" data-name="Trazado 102049" d="M530.953,584.479l-23.159,13.37a323,323,0,0,1,0-316.649l23.152,13.37a296.243,296.243,0,0,0,.007,289.91Z" transform="translate(-466.324 -116.94)" fill="#97181a"/>
      <path id="Trazado_102050" data-name="Trazado 102050" d="M1370.813,439.521a321.172,321.172,0,0,1-41.464,158.328l-23.158-13.37a296.243,296.243,0,0,0,.007-289.91l23.151-13.37A321.126,321.126,0,0,1,1370.813,439.521Z" transform="translate(-725.59 -116.94)" fill="#97181a"/>
      <g id="Grupo_54434" data-name="Grupo 54434" transform="translate(329.867 0)">
        <path id="Trazado_102045" data-name="Trazado 102045" d="M938,360.518l274.515-158.492C1156.809,108.088,1054.843,44.814,938,43.587Z" transform="translate(-937.664 -43.587)" fill="#d64626"/>
        <path id="Trazado_102051" data-name="Trazado 102051" d="M1212.224,201.863l-23.152,13.37A295.725,295.725,0,0,0,938,70.322V43.59C1054.719,44.814,1156.582,108.019,1212.224,201.863Z" transform="translate(-938 -43.59)" fill="#97181a"/>
      </g>
      <path id="Trazado_102052" data-name="Trazado 102052" d="M1212.224,741.94C1156.582,835.776,1054.719,898.982,938,900.212V873.473c106.826-1.217,200.041-59.051,251.066-144.9Z" transform="translate(-611.929 -255.044)" fill="#97181a"/>
      <path id="Trazado_102053" data-name="Trazado 102053" d="M805.544,43.59V70.322a295.725,295.725,0,0,0-251.073,144.91l-23.152-13.37C586.963,108.019,688.825,44.814,805.544,43.59Z" transform="translate(-486.387 -43.59)" fill="#97181a"/>
      <path id="Trazado_102054" data-name="Trazado 102054" d="M805.544,873.473v26.739c-116.719-1.23-218.582-64.436-274.224-158.273l23.159-13.37C605.5,814.422,698.718,872.256,805.544,873.473Z" transform="translate(-486.387 -255.044)" fill="#97181a"/>
    </g>
    <path id="Trazado_102055" data-name="Trazado 102055" d="M12.949,0H9.541L4.5-8.848V0H1.074V-14.219H4.5L9.531-5.371v-8.848h3.418Zm5.488,0h-3.3V-10.566h3.3Zm-3.5-13.291a1.469,1.469,0,0,1,.508-1.152,1.916,1.916,0,0,1,1.318-.449,1.916,1.916,0,0,1,1.318.449,1.469,1.469,0,0,1,.508,1.152,1.469,1.469,0,0,1-.508,1.152,1.916,1.916,0,0,1-1.318.449,1.916,1.916,0,0,1-1.318-.449A1.469,1.469,0,0,1,14.941-13.291Zm9.736,9.375,1.67-6.65h3.467L26.367,0H23.008L19.561-10.566h3.477ZM35.908.2a5.432,5.432,0,0,1-3.936-1.45,5.008,5.008,0,0,1-1.5-3.774V-5.3a6.489,6.489,0,0,1,.6-2.861,4.395,4.395,0,0,1,1.753-1.919,5.292,5.292,0,0,1,2.734-.679A4.574,4.574,0,0,1,39.072-9.38a5.43,5.43,0,0,1,1.289,3.853v1.279H33.818a2.372,2.372,0,0,0,.771,1.4,2.3,2.3,0,0,0,1.543.508,2.958,2.958,0,0,0,2.441-1.094l1.5,1.777A4.2,4.2,0,0,1,38.335-.308,5.891,5.891,0,0,1,35.908.2Zm-.371-8.418q-1.445,0-1.719,1.914h3.32v-.254a1.63,1.63,0,0,0-.4-1.226A1.593,1.593,0,0,0,35.537-8.223ZM45.156,0h-3.3V-15h3.3Zm6.592-5.361a6.455,6.455,0,0,1,1.084-3.955,3.568,3.568,0,0,1,3.027-1.445,3.035,3.035,0,0,1,2.383,1.113V-15h3.3V0H58.584l-.166-1.133A3.116,3.116,0,0,1,55.84.2,3.562,3.562,0,0,1,52.852-1.25,6.659,6.659,0,0,1,51.748-5.361Zm3.291.205q0,2.813,1.641,2.813a1.62,1.62,0,0,0,1.563-.918V-7.285A1.576,1.576,0,0,0,56.7-8.223q-1.523,0-1.65,2.461ZM68.525.2a5.432,5.432,0,0,1-3.936-1.45,5.008,5.008,0,0,1-1.5-3.774V-5.3a6.489,6.489,0,0,1,.6-2.861,4.395,4.395,0,0,1,1.753-1.919,5.292,5.292,0,0,1,2.734-.679A4.574,4.574,0,0,1,71.689-9.38a5.43,5.43,0,0,1,1.289,3.853v1.279H66.436a2.372,2.372,0,0,0,.771,1.4,2.3,2.3,0,0,0,1.543.508,2.958,2.958,0,0,0,2.441-1.094L72.7-1.66A4.2,4.2,0,0,1,70.952-.308,5.891,5.891,0,0,1,68.525.2Zm-.371-8.418q-1.445,0-1.719,1.914h3.32v-.254a1.63,1.63,0,0,0-.4-1.226A1.593,1.593,0,0,0,68.154-8.223ZM6.455,22.031a.76.76,0,0,0-.439-.674,6.684,6.684,0,0,0-1.67-.527,7.615,7.615,0,0,1-2.031-.718,3.4,3.4,0,0,1-1.221-1.079,2.577,2.577,0,0,1-.42-1.455,2.92,2.92,0,0,1,1.2-2.4,4.948,4.948,0,0,1,3.145-.942,5.482,5.482,0,0,1,3.359.947,2.962,2.962,0,0,1,1.27,2.49h-3.3q0-1.27-1.338-1.27a1.326,1.326,0,0,0-.869.288.892.892,0,0,0-.352.718.819.819,0,0,0,.43.713,4.06,4.06,0,0,0,1.372.449,11.857,11.857,0,0,1,1.655.42,3.007,3.007,0,0,1,2.383,2.939,2.767,2.767,0,0,1-1.284,2.354A5.631,5.631,0,0,1,5.02,25.2,5.747,5.747,0,0,1,2.6,24.707a4.05,4.05,0,0,1-1.66-1.328,3.007,3.007,0,0,1-.6-1.768H3.418a1.272,1.272,0,0,0,.488,1.069,2.009,2.009,0,0,0,1.2.337,1.58,1.58,0,0,0,1.011-.273A.875.875,0,0,0,6.455,22.031ZM17.119,25a3.716,3.716,0,0,1-.312-.947A3.06,3.06,0,0,1,14.268,25.2a3.749,3.749,0,0,1-2.539-.9,2.875,2.875,0,0,1-1.045-2.271,2.955,2.955,0,0,1,1.27-2.6,6.468,6.468,0,0,1,3.691-.879H16.66v-.559q0-1.462-1.26-1.462a1.03,1.03,0,0,0-1.172,1.158H10.938a2.95,2.95,0,0,1,1.3-2.487,5.479,5.479,0,0,1,3.325-.956,4.8,4.8,0,0,1,3.193.986,3.429,3.429,0,0,1,1.2,2.705v4.678a4.79,4.79,0,0,0,.449,2.227V25Zm-2.061-2.148a1.836,1.836,0,0,0,1.021-.264,1.653,1.653,0,0,0,.581-.6V20.3H15.7q-1.719,0-1.719,1.543a.942.942,0,0,0,.3.728A1.1,1.1,0,0,0,15.059,22.852ZM25.615,11.807v2.627h1.738v2.285H25.615v4.834a1.234,1.234,0,0,0,.215.83,1.152,1.152,0,0,0,.85.234,4.828,4.828,0,0,0,.82-.059v2.354a6.074,6.074,0,0,1-1.855.283,3.448,3.448,0,0,1-2.51-.8,3.282,3.282,0,0,1-.811-2.432V16.719H20.977V14.434h1.348V11.807ZM32.119,25h-3.3V14.434h3.3Zm-3.5-13.291a1.469,1.469,0,0,1,.508-1.152,2.159,2.159,0,0,1,2.637,0,1.561,1.561,0,0,1,0,2.3,2.159,2.159,0,0,1-2.637,0A1.469,1.469,0,0,1,28.623,11.709ZM39.678,22.031a.76.76,0,0,0-.439-.674,6.684,6.684,0,0,0-1.67-.527,7.615,7.615,0,0,1-2.031-.718,3.4,3.4,0,0,1-1.221-1.079,2.577,2.577,0,0,1-.42-1.455,2.92,2.92,0,0,1,1.2-2.4,4.948,4.948,0,0,1,3.145-.942,5.482,5.482,0,0,1,3.359.947,2.962,2.962,0,0,1,1.27,2.49h-3.3q0-1.27-1.338-1.27a1.326,1.326,0,0,0-.869.288.892.892,0,0,0-.352.718.819.819,0,0,0,.43.713,4.06,4.06,0,0,0,1.372.449,11.857,11.857,0,0,1,1.655.42,3.007,3.007,0,0,1,2.383,2.939,2.767,2.767,0,0,1-1.284,2.354,5.632,5.632,0,0,1-3.325.908,5.747,5.747,0,0,1-2.422-.488,4.05,4.05,0,0,1-1.66-1.328,3.007,3.007,0,0,1-.6-1.768h3.076a1.272,1.272,0,0,0,.488,1.069,2.009,2.009,0,0,0,1.2.337,1.58,1.58,0,0,0,1.011-.273A.875.875,0,0,0,39.678,22.031ZM45.117,25V16.719H43.584V14.434h1.533v-.84a3.651,3.651,0,0,1,1.064-2.8,4.206,4.206,0,0,1,2.988-1A6.544,6.544,0,0,1,50.713,10l.01,2.422a3.007,3.007,0,0,0-.811-.088q-1.494,0-1.494,1.289v.811h2.061v2.285H48.418V25Zm12.471,0a3.716,3.716,0,0,1-.312-.947A3.06,3.06,0,0,1,54.736,25.2a3.749,3.749,0,0,1-2.539-.9,2.875,2.875,0,0,1-1.045-2.271,2.955,2.955,0,0,1,1.27-2.6,6.468,6.468,0,0,1,3.691-.879h1.016v-.559q0-1.462-1.26-1.462A1.03,1.03,0,0,0,54.7,17.681H51.406a2.95,2.95,0,0,1,1.3-2.487,5.479,5.479,0,0,1,3.325-.956,4.8,4.8,0,0,1,3.193.986,3.429,3.429,0,0,1,1.2,2.705v4.678a4.79,4.79,0,0,0,.449,2.227V25Zm-2.061-2.148a1.836,1.836,0,0,0,1.021-.264,1.653,1.653,0,0,0,.581-.6V20.3h-.957q-1.719,0-1.719,1.543a.942.942,0,0,0,.3.728A1.1,1.1,0,0,0,55.527,22.852Zm11.191-.2a1.464,1.464,0,0,0,1.074-.376,1.379,1.379,0,0,0,.371-1.05H71.25A3.653,3.653,0,0,1,70,24.082,4.631,4.631,0,0,1,66.8,25.2a4.689,4.689,0,0,1-3.633-1.445,5.7,5.7,0,0,1-1.328-4v-.137a6.436,6.436,0,0,1,.591-2.827,4.3,4.3,0,0,1,1.7-1.885,5.081,5.081,0,0,1,2.637-.659,4.573,4.573,0,0,1,3.271,1.143,4.053,4.053,0,0,1,1.211,3.1H68.164a1.806,1.806,0,0,0-.4-1.26,1.382,1.382,0,0,0-1.074-.439q-1.279,0-1.494,1.631a11.508,11.508,0,0,0-.068,1.426,4.52,4.52,0,0,0,.381,2.207A1.319,1.319,0,0,0,66.719,22.656Zm10.391,0a1.464,1.464,0,0,0,1.074-.376,1.379,1.379,0,0,0,.371-1.05h3.086A3.653,3.653,0,0,1,80.4,24.082,4.631,4.631,0,0,1,77.188,25.2a4.689,4.689,0,0,1-3.633-1.445,5.7,5.7,0,0,1-1.328-4v-.137a6.436,6.436,0,0,1,.591-2.827,4.3,4.3,0,0,1,1.7-1.885,5.081,5.081,0,0,1,2.637-.659,4.573,4.573,0,0,1,3.271,1.143,4.053,4.053,0,0,1,1.211,3.1H78.555a1.806,1.806,0,0,0-.4-1.26,1.382,1.382,0,0,0-1.074-.439q-1.279,0-1.494,1.631a11.508,11.508,0,0,0-.068,1.426,4.52,4.52,0,0,0,.381,2.207A1.319,1.319,0,0,0,77.109,22.656ZM86.5,25H83.2V14.434h3.3Zm-3.5-13.291a1.469,1.469,0,0,1,.508-1.152,2.159,2.159,0,0,1,2.637,0,1.561,1.561,0,0,1,0,2.3,2.159,2.159,0,0,1-2.637,0A1.469,1.469,0,0,1,83.008,11.709Zm5.107,7.91A6.236,6.236,0,0,1,88.73,16.8,4.4,4.4,0,0,1,90.5,14.9a5.323,5.323,0,0,1,2.705-.664,4.858,4.858,0,0,1,3.74,1.47,5.64,5.64,0,0,1,1.367,4v.117a5.472,5.472,0,0,1-1.372,3.921,4.871,4.871,0,0,1-3.716,1.45A4.927,4.927,0,0,1,89.6,23.843a5.29,5.29,0,0,1-1.475-3.667Zm3.291.205a3.932,3.932,0,0,0,.459,2.148,1.529,1.529,0,0,0,1.357.684q1.758,0,1.8-2.705v-.332q0-2.842-1.816-2.842-1.65,0-1.787,2.451ZM93.652,10h3.477l-2.715,3.066-2.686,0Zm9.131,4.434.107,1.24a3.583,3.583,0,0,1,3.018-1.436,3.015,3.015,0,0,1,2.466.986,4.7,4.7,0,0,1,.845,2.969V25h-3.3V18.33a1.783,1.783,0,0,0-.322-1.177,1.491,1.491,0,0,0-1.172-.376,1.569,1.569,0,0,0-1.436.762V25H99.7V14.434Z" transform="translate(362.044 165.3)" fill="#fff"/>
    <path id="Trazado_102060" data-name="Trazado 102060" d="M12.236-11.572H7.969V0H4.541V-11.572H.352v-2.646H12.236ZM11.084-5.381A6.236,6.236,0,0,1,11.7-8.2a4.4,4.4,0,0,1,1.768-1.9,5.323,5.323,0,0,1,2.705-.664,4.858,4.858,0,0,1,3.74,1.47,5.64,5.64,0,0,1,1.367,4v.117a5.472,5.472,0,0,1-1.372,3.921A4.871,4.871,0,0,1,16.191.2a4.927,4.927,0,0,1-3.623-1.353,5.29,5.29,0,0,1-1.475-3.667Zm3.291.205a3.932,3.932,0,0,0,.459,2.148,1.529,1.529,0,0,0,1.357.684q1.758,0,1.8-2.705v-.332q0-2.842-1.816-2.842-1.65,0-1.787,2.451Zm18.164-.029a6.372,6.372,0,0,1-1.108,3.931A3.554,3.554,0,0,1,28.438.2,3.046,3.046,0,0,1,26.045-.869V4.063H22.754V-10.566H25.83l.1.977a3.046,3.046,0,0,1,2.49-1.172,3.582,3.582,0,0,1,3.037,1.44,6.45,6.45,0,0,1,1.084,3.96ZM29.248-5.41q0-2.812-1.641-2.812a1.549,1.549,0,0,0-1.562.84v4.16a1.6,1.6,0,0,0,1.582.879q1.572,0,1.621-2.715Zm9.307.029A6.236,6.236,0,0,1,39.17-8.2a4.4,4.4,0,0,1,1.768-1.9,5.323,5.323,0,0,1,2.705-.664,4.858,4.858,0,0,1,3.74,1.47,5.64,5.64,0,0,1,1.367,4v.117a5.472,5.472,0,0,1-1.372,3.921A4.871,4.871,0,0,1,43.662.2a4.927,4.927,0,0,1-3.623-1.353,5.29,5.29,0,0,1-1.475-3.667Zm3.291.205A3.932,3.932,0,0,0,42.3-3.027a1.529,1.529,0,0,0,1.357.684q1.758,0,1.8-2.705v-.332q0-2.842-1.816-2.842-1.65,0-1.787,2.451ZM50.928,0V-8.281H49.395v-2.285h1.533v-.84a3.651,3.651,0,0,1,1.064-2.8,4.206,4.206,0,0,1,2.988-1A6.544,6.544,0,0,1,56.523-15l.01,2.422a3.007,3.007,0,0,0-.811-.088q-1.494,0-1.494,1.289v.811h2.061v2.285H54.229V0ZM4.141,15.566a3.294,3.294,0,0,1,2.7-1.328,3.284,3.284,0,0,1,2.637,1.035,4.651,4.651,0,0,1,.908,3.057V25H7.08V18.408a1.86,1.86,0,0,0-.342-1.235,1.469,1.469,0,0,0-1.162-.4,1.582,1.582,0,0,0-1.436.645V25H.85V10H4.141ZM17.324,25.2a5.432,5.432,0,0,1-3.936-1.45,5.008,5.008,0,0,1-1.5-3.774V19.7a6.489,6.489,0,0,1,.6-2.861,4.395,4.395,0,0,1,1.753-1.919,5.292,5.292,0,0,1,2.734-.679,4.574,4.574,0,0,1,3.516,1.382,5.43,5.43,0,0,1,1.289,3.853v1.279H15.234a2.372,2.372,0,0,0,.771,1.4,2.3,2.3,0,0,0,1.543.508,2.958,2.958,0,0,0,2.441-1.094l1.5,1.777a4.2,4.2,0,0,1-1.743,1.353A5.891,5.891,0,0,1,17.324,25.2Zm-.371-8.418q-1.445,0-1.719,1.914h3.32v-.254a1.63,1.63,0,0,0-.4-1.226A1.593,1.593,0,0,0,16.953,16.777ZM29.053,25a3.716,3.716,0,0,1-.312-.947A3.06,3.06,0,0,1,26.2,25.2a3.749,3.749,0,0,1-2.539-.9,2.875,2.875,0,0,1-1.045-2.271,2.955,2.955,0,0,1,1.27-2.6,6.468,6.468,0,0,1,3.691-.879h1.016v-.559q0-1.462-1.26-1.462a1.03,1.03,0,0,0-1.172,1.158H22.871a2.95,2.95,0,0,1,1.3-2.487,5.479,5.479,0,0,1,3.325-.956,4.8,4.8,0,0,1,3.193.986,3.429,3.429,0,0,1,1.2,2.705v4.678a4.79,4.79,0,0,0,.449,2.227V25Zm-2.061-2.148a1.836,1.836,0,0,0,1.021-.264,1.653,1.653,0,0,0,.581-.6V20.3h-.957q-1.719,0-1.719,1.543a.942.942,0,0,0,.3.728A1.1,1.1,0,0,0,26.992,22.852Zm13.115-5.439-1.084-.078a1.947,1.947,0,0,0-1.992.977V25H33.74V14.434h3.086l.107,1.357a2.548,2.548,0,0,1,2.314-1.553,3.209,3.209,0,0,1,.918.117Zm.771,2.227a6.455,6.455,0,0,1,1.084-3.955,3.568,3.568,0,0,1,3.027-1.445,3.035,3.035,0,0,1,2.383,1.113V10h3.3V25H47.715l-.166-1.133A3.116,3.116,0,0,1,44.971,25.2a3.562,3.562,0,0,1-2.988-1.445A6.659,6.659,0,0,1,40.879,19.639Zm3.291.205q0,2.813,1.641,2.813a1.62,1.62,0,0,0,1.563-.918V17.715a1.576,1.576,0,0,0-1.543-.937q-1.523,0-1.65,2.461Z" transform="translate(189.415 165.3)" fill="#fff"/>
    <path id="Trazado_102061" data-name="Trazado 102061" d="M14.641-4.25H7.125L5.813,0H-.047L8.3-22.75h5.156L21.859,0H15.969Zm-6.2-4.234h4.891l-2.453-7.891ZM26.531-5.109a3,3,0,0,1,2.078.742,2.435,2.435,0,0,1,.828,1.9,2.435,2.435,0,0,1-.828,1.9,3,3,0,0,1-2.078.742,2.972,2.972,0,0,1-2.086-.75,2.452,2.452,0,0,1-.82-1.891,2.452,2.452,0,0,1,.82-1.891A2.972,2.972,0,0,1,26.531-5.109Z" transform="translate(362.044 138.21)" fill="#fff"/>
    <path id="Trazado_102066" data-name="Trazado 102066" d="M16.047-9.062H7.2V0H1.719V-22.75H16.938v4.234H7.2v5.234h8.844Zm1.906,3.953a3,3,0,0,1,2.078.742,2.435,2.435,0,0,1,.828,1.9,2.435,2.435,0,0,1-.828,1.9,3,3,0,0,1-2.078.742,2.972,2.972,0,0,1-2.086-.75,2.452,2.452,0,0,1-.82-1.891,2.452,2.452,0,0,1,.82-1.891A2.972,2.972,0,0,1,17.953-5.109Z" transform="translate(189.415 138.21)" fill="#fff"/>
    <path id="Trazado_102062" data-name="Trazado 102062" d="M1.719,0V-22.75H9.891q4.391,0,6.68,1.609a5.355,5.355,0,0,1,2.289,4.672,5.413,5.413,0,0,1-.812,3.016,4.735,4.735,0,0,1-2.391,1.844,4.8,4.8,0,0,1,2.734,1.75,5.088,5.088,0,0,1,.953,3.125,6.024,6.024,0,0,1-2.117,5.023Q15.109-.031,10.953,0ZM7.2-9.672v5.453H10.8a3.418,3.418,0,0,0,2.281-.68,2.379,2.379,0,0,0,.8-1.914,2.522,2.522,0,0,0-2.828-2.859Zm0-3.594h2.859a4.062,4.062,0,0,0,2.563-.658,2.335,2.335,0,0,0,.766-1.9,2.452,2.452,0,0,0-.828-2.077,4.433,4.433,0,0,0-2.672-.635H7.2ZM25.375-5.109a3,3,0,0,1,2.078.742,2.435,2.435,0,0,1,.828,1.9,2.435,2.435,0,0,1-.828,1.9,3,3,0,0,1-2.078.742,2.972,2.972,0,0,1-2.086-.75,2.452,2.452,0,0,1-.82-1.891,2.452,2.452,0,0,1,.82-1.891A2.972,2.972,0,0,1,25.375-5.109Z" transform="translate(452.799 314.81)" fill="#fff"/>
    <path id="Trazado_102065" data-name="Trazado 102065" d="M15.333-9.354H6.978v5.268h9.869V0H1.665V-22.039H16.877v4.1h-9.9v4.647h8.355Zm6.6,4.4a2.9,2.9,0,0,1,2.013.719,2.359,2.359,0,0,1,.8,1.839,2.359,2.359,0,0,1-.8,1.839,2.9,2.9,0,0,1-2.013.719A2.879,2.879,0,0,1,19.912-.56a2.376,2.376,0,0,1-.795-1.832,2.376,2.376,0,0,1,.795-1.832A2.879,2.879,0,0,1,21.933-4.95Z" transform="translate(71.898 313.81)" fill="#fff"/>
    <path id="Trazado_102063" data-name="Trazado 102063" d="M20.125-7.7a8.308,8.308,0,0,1-1.281,4.2,7.733,7.733,0,0,1-3.289,2.82,11.2,11.2,0,0,1-4.836,1A8.934,8.934,0,0,1,3.656-2.609q-2.578-2.922-2.578-8.25v-1.125a13.771,13.771,0,0,1,1.164-5.852,8.82,8.82,0,0,1,3.352-3.875,9.351,9.351,0,0,1,5.063-1.367,9.806,9.806,0,0,1,6.656,2.18,8.612,8.612,0,0,1,2.859,6.008H14.7a4.075,4.075,0,0,0-1.047-2.984,4.306,4.306,0,0,0-3-.906,3.276,3.276,0,0,0-3,1.531,9.841,9.841,0,0,0-1,4.891v1.609a10.89,10.89,0,0,0,.914,5.2,3.345,3.345,0,0,0,3.148,1.563,4.211,4.211,0,0,0,2.891-.891A3.78,3.78,0,0,0,14.672-7.7Zm5.609,2.594a3,3,0,0,1,2.078.742,2.435,2.435,0,0,1,.828,1.9,2.435,2.435,0,0,1-.828,1.9,3,3,0,0,1-2.078.742,2.972,2.972,0,0,1-2.086-.75,2.452,2.452,0,0,1-.82-1.891,2.452,2.452,0,0,1,.82-1.891A2.972,2.972,0,0,1,25.734-5.109Z" transform="translate(383.544 487.946)" fill="#fff"/>
    <path id="Trazado_102064" data-name="Trazado 102064" d="M1.665,0V-22.039h7.1a10.443,10.443,0,0,1,5.252,1.324,9.31,9.31,0,0,1,3.64,3.739,11.288,11.288,0,0,1,1.324,5.411v1.014A11.353,11.353,0,0,1,17.7-5.124,9.35,9.35,0,0,1,14.1-1.37,10.213,10.213,0,0,1,8.916,0ZM6.978-17.937v13.85H8.825a4.133,4.133,0,0,0,3.512-1.627,7.974,7.974,0,0,0,1.226-4.836V-11.5a7.909,7.909,0,0,0-1.226-4.813,4.205,4.205,0,0,0-3.572-1.62ZM24.627-4.95a2.9,2.9,0,0,1,2.013.719,2.359,2.359,0,0,1,.8,1.839,2.359,2.359,0,0,1-.8,1.839,2.9,2.9,0,0,1-2.013.719A2.879,2.879,0,0,1,22.607-.56a2.376,2.376,0,0,1-.795-1.832,2.376,2.376,0,0,1,.795-1.832A2.879,2.879,0,0,1,24.627-4.95Z" transform="translate(174.915 466.17)" fill="#fff"/>
    <path id="Trazado_102056" data-name="Trazado 102056" d="M12.715-1.758A5.511,5.511,0,0,1,10.4-.342,9.982,9.982,0,0,1,7.061.2,5.955,5.955,0,0,1,2.6-1.514,6.918,6.918,0,0,1,.811-6.27L.8-7.5a8.485,8.485,0,0,1,.742-3.667,5.511,5.511,0,0,1,2.124-2.412,6.008,6.008,0,0,1,3.2-.845,6.3,6.3,0,0,1,4.126,1.216A5.152,5.152,0,0,1,12.705-9.58H9.4a2.7,2.7,0,0,0-.762-1.7,2.458,2.458,0,0,0-1.66-.508A2.237,2.237,0,0,0,4.99-10.693a5.84,5.84,0,0,0-.713,3.125v.859A5.717,5.717,0,0,0,5-3.511a2.573,2.573,0,0,0,2.29,1.069,2.88,2.88,0,0,0,1.992-.6V-5.244H6.9V-7.6h5.811Zm8.232-5.83-1.084-.078a1.947,1.947,0,0,0-1.992.977V0H14.58V-10.566h3.086l.107,1.357a2.548,2.548,0,0,1,2.314-1.553,3.209,3.209,0,0,1,.918.117ZM27.793,0a3.716,3.716,0,0,1-.312-.947A3.06,3.06,0,0,1,24.941.2a3.749,3.749,0,0,1-2.539-.9,2.875,2.875,0,0,1-1.045-2.271,2.955,2.955,0,0,1,1.27-2.6,6.468,6.468,0,0,1,3.691-.879h1.016v-.559q0-1.462-1.26-1.462A1.03,1.03,0,0,0,24.9-7.319H21.611a2.95,2.95,0,0,1,1.3-2.487,5.479,5.479,0,0,1,3.325-.956,4.8,4.8,0,0,1,3.193.986,3.429,3.429,0,0,1,1.2,2.705v4.678a4.79,4.79,0,0,0,.449,2.227V0ZM25.732-2.148a1.836,1.836,0,0,0,1.021-.264,1.653,1.653,0,0,0,.581-.6V-4.7h-.957q-1.719,0-1.719,1.543a.942.942,0,0,0,.3.728A1.1,1.1,0,0,0,25.732-2.148Zm6.309-3.213a6.455,6.455,0,0,1,1.084-3.955,3.568,3.568,0,0,1,3.027-1.445,3.035,3.035,0,0,1,2.383,1.113V-15h3.3V0H38.877l-.166-1.133A3.116,3.116,0,0,1,36.133.2,3.562,3.562,0,0,1,33.145-1.25,6.659,6.659,0,0,1,32.041-5.361Zm3.291.205q0,2.813,1.641,2.813a1.62,1.62,0,0,0,1.563-.918V-7.285a1.576,1.576,0,0,0-1.543-.937q-1.523,0-1.65,2.461Zm7.959-.225A6.236,6.236,0,0,1,43.906-8.2a4.4,4.4,0,0,1,1.768-1.9,5.323,5.323,0,0,1,2.705-.664,4.858,4.858,0,0,1,3.74,1.47,5.64,5.64,0,0,1,1.367,4v.117a5.472,5.472,0,0,1-1.372,3.921A4.871,4.871,0,0,1,48.4.2a4.927,4.927,0,0,1-3.623-1.353A5.29,5.29,0,0,1,43.3-4.824Zm3.291.205a3.932,3.932,0,0,0,.459,2.148,1.529,1.529,0,0,0,1.357.684q1.758,0,1.8-2.705v-.332q0-2.842-1.816-2.842-1.65,0-1.787,2.451ZM59.5-5.361a6.455,6.455,0,0,1,1.084-3.955,3.568,3.568,0,0,1,3.027-1.445A3.035,3.035,0,0,1,66-9.648V-15h3.3V0H66.338l-.166-1.133A3.116,3.116,0,0,1,63.594.2,3.562,3.562,0,0,1,60.605-1.25,6.659,6.659,0,0,1,59.5-5.361Zm3.291.205q0,2.813,1.641,2.813A1.62,1.62,0,0,0,66-3.262V-7.285a1.576,1.576,0,0,0-1.543-.937q-1.523,0-1.65,2.461ZM76.279.2a5.432,5.432,0,0,1-3.936-1.45,5.008,5.008,0,0,1-1.5-3.774V-5.3a6.489,6.489,0,0,1,.6-2.861,4.395,4.395,0,0,1,1.753-1.919,5.292,5.292,0,0,1,2.734-.679A4.574,4.574,0,0,1,79.443-9.38a5.43,5.43,0,0,1,1.289,3.853v1.279H74.189a2.372,2.372,0,0,0,.771,1.4,2.3,2.3,0,0,0,1.543.508,2.958,2.958,0,0,0,2.441-1.094l1.5,1.777A4.2,4.2,0,0,1,78.706-.308,5.891,5.891,0,0,1,76.279.2Zm-.371-8.418q-1.445,0-1.719,1.914h3.32v-.254a1.63,1.63,0,0,0-.4-1.226A1.593,1.593,0,0,0,75.908-8.223ZM6.455,22.031a.76.76,0,0,0-.439-.674,6.684,6.684,0,0,0-1.67-.527,7.615,7.615,0,0,1-2.031-.718,3.4,3.4,0,0,1-1.221-1.079,2.577,2.577,0,0,1-.42-1.455,2.92,2.92,0,0,1,1.2-2.4,4.948,4.948,0,0,1,3.145-.942,5.482,5.482,0,0,1,3.359.947,2.962,2.962,0,0,1,1.27,2.49h-3.3q0-1.27-1.338-1.27a1.326,1.326,0,0,0-.869.288.892.892,0,0,0-.352.718.819.819,0,0,0,.43.713,4.06,4.06,0,0,0,1.372.449,11.857,11.857,0,0,1,1.655.42,3.007,3.007,0,0,1,2.383,2.939,2.767,2.767,0,0,1-1.284,2.354A5.631,5.631,0,0,1,5.02,25.2,5.747,5.747,0,0,1,2.6,24.707a4.05,4.05,0,0,1-1.66-1.328,3.007,3.007,0,0,1-.6-1.768H3.418a1.272,1.272,0,0,0,.488,1.069,2.009,2.009,0,0,0,1.2.337,1.58,1.58,0,0,0,1.011-.273A.875.875,0,0,0,6.455,22.031ZM17.119,25a3.716,3.716,0,0,1-.312-.947A3.06,3.06,0,0,1,14.268,25.2a3.749,3.749,0,0,1-2.539-.9,2.875,2.875,0,0,1-1.045-2.271,2.955,2.955,0,0,1,1.27-2.6,6.468,6.468,0,0,1,3.691-.879H16.66v-.559q0-1.462-1.26-1.462a1.03,1.03,0,0,0-1.172,1.158H10.938a2.95,2.95,0,0,1,1.3-2.487,5.479,5.479,0,0,1,3.325-.956,4.8,4.8,0,0,1,3.193.986,3.429,3.429,0,0,1,1.2,2.705v4.678a4.79,4.79,0,0,0,.449,2.227V25Zm-2.061-2.148a1.836,1.836,0,0,0,1.021-.264,1.653,1.653,0,0,0,.581-.6V20.3H15.7q-1.719,0-1.719,1.543a.942.942,0,0,0,.3.728A1.1,1.1,0,0,0,15.059,22.852ZM25.615,11.807v2.627h1.738v2.285H25.615v4.834a1.234,1.234,0,0,0,.215.83,1.152,1.152,0,0,0,.85.234,4.828,4.828,0,0,0,.82-.059v2.354a6.074,6.074,0,0,1-1.855.283,3.448,3.448,0,0,1-2.51-.8,3.282,3.282,0,0,1-.811-2.432V16.719H20.977V14.434h1.348V11.807ZM32.119,25h-3.3V14.434h3.3Zm-3.5-13.291a1.469,1.469,0,0,1,.508-1.152,2.159,2.159,0,0,1,2.637,0,1.561,1.561,0,0,1,0,2.3,2.159,2.159,0,0,1-2.637,0A1.469,1.469,0,0,1,28.623,11.709ZM39.678,22.031a.76.76,0,0,0-.439-.674,6.684,6.684,0,0,0-1.67-.527,7.615,7.615,0,0,1-2.031-.718,3.4,3.4,0,0,1-1.221-1.079,2.577,2.577,0,0,1-.42-1.455,2.92,2.92,0,0,1,1.2-2.4,4.948,4.948,0,0,1,3.145-.942,5.482,5.482,0,0,1,3.359.947,2.962,2.962,0,0,1,1.27,2.49h-3.3q0-1.27-1.338-1.27a1.326,1.326,0,0,0-.869.288.892.892,0,0,0-.352.718.819.819,0,0,0,.43.713,4.06,4.06,0,0,0,1.372.449,11.857,11.857,0,0,1,1.655.42,3.007,3.007,0,0,1,2.383,2.939,2.767,2.767,0,0,1-1.284,2.354,5.632,5.632,0,0,1-3.325.908,5.747,5.747,0,0,1-2.422-.488,4.05,4.05,0,0,1-1.66-1.328,3.007,3.007,0,0,1-.6-1.768h3.076a1.272,1.272,0,0,0,.488,1.069,2.009,2.009,0,0,0,1.2.337,1.58,1.58,0,0,0,1.011-.273A.875.875,0,0,0,39.678,22.031ZM45.117,25V16.719H43.584V14.434h1.533v-.84a3.651,3.651,0,0,1,1.064-2.8,4.206,4.206,0,0,1,2.988-1A6.544,6.544,0,0,1,50.713,10l.01,2.422a3.007,3.007,0,0,0-.811-.088q-1.494,0-1.494,1.289v.811h2.061v2.285H48.418V25Zm12.471,0a3.716,3.716,0,0,1-.312-.947A3.06,3.06,0,0,1,54.736,25.2a3.749,3.749,0,0,1-2.539-.9,2.875,2.875,0,0,1-1.045-2.271,2.955,2.955,0,0,1,1.27-2.6,6.468,6.468,0,0,1,3.691-.879h1.016v-.559q0-1.462-1.26-1.462A1.03,1.03,0,0,0,54.7,17.681H51.406a2.95,2.95,0,0,1,1.3-2.487,5.479,5.479,0,0,1,3.325-.956,4.8,4.8,0,0,1,3.193.986,3.429,3.429,0,0,1,1.2,2.705v4.678a4.79,4.79,0,0,0,.449,2.227V25Zm-2.061-2.148a1.836,1.836,0,0,0,1.021-.264,1.653,1.653,0,0,0,.581-.6V20.3h-.957q-1.719,0-1.719,1.543a.942.942,0,0,0,.3.728A1.1,1.1,0,0,0,55.527,22.852Zm11.191-.2a1.464,1.464,0,0,0,1.074-.376,1.379,1.379,0,0,0,.371-1.05H71.25A3.653,3.653,0,0,1,70,24.082,4.631,4.631,0,0,1,66.8,25.2a4.689,4.689,0,0,1-3.633-1.445,5.7,5.7,0,0,1-1.328-4v-.137a6.436,6.436,0,0,1,.591-2.827,4.3,4.3,0,0,1,1.7-1.885,5.081,5.081,0,0,1,2.637-.659,4.573,4.573,0,0,1,3.271,1.143,4.053,4.053,0,0,1,1.211,3.1H68.164a1.806,1.806,0,0,0-.4-1.26,1.382,1.382,0,0,0-1.074-.439q-1.279,0-1.494,1.631a11.508,11.508,0,0,0-.068,1.426,4.52,4.52,0,0,0,.381,2.207A1.319,1.319,0,0,0,66.719,22.656Zm10.391,0a1.464,1.464,0,0,0,1.074-.376,1.379,1.379,0,0,0,.371-1.05h3.086A3.653,3.653,0,0,1,80.4,24.082,4.631,4.631,0,0,1,77.188,25.2a4.689,4.689,0,0,1-3.633-1.445,5.7,5.7,0,0,1-1.328-4v-.137a6.436,6.436,0,0,1,.591-2.827,4.3,4.3,0,0,1,1.7-1.885,5.081,5.081,0,0,1,2.637-.659,4.573,4.573,0,0,1,3.271,1.143,4.053,4.053,0,0,1,1.211,3.1H78.555a1.806,1.806,0,0,0-.4-1.26,1.382,1.382,0,0,0-1.074-.439q-1.279,0-1.494,1.631a11.508,11.508,0,0,0-.068,1.426,4.52,4.52,0,0,0,.381,2.207A1.319,1.319,0,0,0,77.109,22.656ZM86.5,25H83.2V14.434h3.3Zm-3.5-13.291a1.469,1.469,0,0,1,.508-1.152,2.159,2.159,0,0,1,2.637,0,1.561,1.561,0,0,1,0,2.3,2.159,2.159,0,0,1-2.637,0A1.469,1.469,0,0,1,83.008,11.709Zm5.107,7.91A6.236,6.236,0,0,1,88.73,16.8,4.4,4.4,0,0,1,90.5,14.9a5.323,5.323,0,0,1,2.705-.664,4.858,4.858,0,0,1,3.74,1.47,5.64,5.64,0,0,1,1.367,4v.117a5.472,5.472,0,0,1-1.372,3.921,4.871,4.871,0,0,1-3.716,1.45A4.927,4.927,0,0,1,89.6,23.843a5.29,5.29,0,0,1-1.475-3.667Zm3.291.205a3.932,3.932,0,0,0,.459,2.148,1.529,1.529,0,0,0,1.357.684q1.758,0,1.8-2.705v-.332q0-2.842-1.816-2.842-1.65,0-1.787,2.451ZM93.652,10h3.477l-2.715,3.066-2.686,0Zm9.131,4.434.107,1.24a3.583,3.583,0,0,1,3.018-1.436,3.015,3.015,0,0,1,2.466.986,4.7,4.7,0,0,1,.845,2.969V25h-3.3V18.33a1.783,1.783,0,0,0-.322-1.177,1.491,1.491,0,0,0-1.172-.376,1.569,1.569,0,0,0-1.436.762V25H99.7V14.434Z" transform="translate(452.799 338.437)" fill="#fff"/>
    <path id="Trazado_102059" data-name="Trazado 102059" d="M12.236-11.572H7.969V0H4.541V-11.572H.352v-2.646H12.236ZM11.084-5.381A6.236,6.236,0,0,1,11.7-8.2a4.4,4.4,0,0,1,1.768-1.9,5.323,5.323,0,0,1,2.705-.664,4.858,4.858,0,0,1,3.74,1.47,5.64,5.64,0,0,1,1.367,4v.117a5.472,5.472,0,0,1-1.372,3.921A4.871,4.871,0,0,1,16.191.2a4.927,4.927,0,0,1-3.623-1.353,5.29,5.29,0,0,1-1.475-3.667Zm3.291.205a3.932,3.932,0,0,0,.459,2.148,1.529,1.529,0,0,0,1.357.684q1.758,0,1.8-2.705v-.332q0-2.842-1.816-2.842-1.65,0-1.787,2.451Zm18.164-.029a6.372,6.372,0,0,1-1.108,3.931A3.554,3.554,0,0,1,28.438.2,3.046,3.046,0,0,1,26.045-.869V4.063H22.754V-10.566H25.83l.1.977a3.046,3.046,0,0,1,2.49-1.172,3.582,3.582,0,0,1,3.037,1.44,6.45,6.45,0,0,1,1.084,3.96ZM29.248-5.41q0-2.812-1.641-2.812a1.549,1.549,0,0,0-1.562.84v4.16a1.6,1.6,0,0,0,1.582.879q1.572,0,1.621-2.715Zm9.307.029A6.236,6.236,0,0,1,39.17-8.2a4.4,4.4,0,0,1,1.768-1.9,5.323,5.323,0,0,1,2.705-.664,4.858,4.858,0,0,1,3.74,1.47,5.64,5.64,0,0,1,1.367,4v.117a5.472,5.472,0,0,1-1.372,3.921A4.871,4.871,0,0,1,43.662.2a4.927,4.927,0,0,1-3.623-1.353,5.29,5.29,0,0,1-1.475-3.667Zm3.291.205A3.932,3.932,0,0,0,42.3-3.027a1.529,1.529,0,0,0,1.357.684q1.758,0,1.8-2.705v-.332q0-2.842-1.816-2.842-1.65,0-1.787,2.451ZM50.928,0V-8.281H49.395v-2.285h1.533v-.84a3.651,3.651,0,0,1,1.064-2.8,4.206,4.206,0,0,1,2.988-1A6.544,6.544,0,0,1,56.523-15l.01,2.422a3.007,3.007,0,0,0-.811-.088q-1.494,0-1.494,1.289v.811h2.061v2.285H54.229V0ZM65.537-10.566l.107,1.24a3.633,3.633,0,0,1,3.018-1.436A2.675,2.675,0,0,1,71.367-9.17a3.517,3.517,0,0,1,3.105-1.592q3.213,0,3.3,3.887V0h-3.3V-6.67A2.014,2.014,0,0,0,74.2-7.852a1.164,1.164,0,0,0-1-.371,1.559,1.559,0,0,0-1.455.869l.01.137V0h-3.3V-6.65a2.117,2.117,0,0,0-.264-1.2,1.161,1.161,0,0,0-1.006-.371,1.578,1.578,0,0,0-1.445.869V0H62.451V-10.566ZM83.125,0h-3.3V-10.566h3.3Zm-3.5-13.291a1.469,1.469,0,0,1,.508-1.152,1.916,1.916,0,0,1,1.318-.449,1.916,1.916,0,0,1,1.318.449,1.469,1.469,0,0,1,.508,1.152,1.469,1.469,0,0,1-.508,1.152,1.916,1.916,0,0,1-1.318.449,1.916,1.916,0,0,1-1.318-.449A1.469,1.469,0,0,1,79.629-13.291Zm8.545,2.725.107,1.24A3.583,3.583,0,0,1,91.3-10.762a3.015,3.015,0,0,1,2.466.986,4.7,4.7,0,0,1,.845,2.969V0h-3.3V-6.67a1.783,1.783,0,0,0-.322-1.177,1.491,1.491,0,0,0-1.172-.376,1.569,1.569,0,0,0-1.436.762V0H85.088V-10.566Zm7.842,5.205A6.455,6.455,0,0,1,97.1-9.316a3.568,3.568,0,0,1,3.027-1.445,3.035,3.035,0,0,1,2.383,1.113V-15h3.3V0h-2.959l-.166-1.133A3.116,3.116,0,0,1,100.107.2,3.562,3.562,0,0,1,97.119-1.25,6.659,6.659,0,0,1,96.016-5.361Zm3.291.205q0,2.813,1.641,2.813a1.62,1.62,0,0,0,1.563-.918V-7.285a1.576,1.576,0,0,0-1.543-.937q-1.523,0-1.65,2.461Z" transform="translate(71.898 338.437)" fill="#fff"/>
    <path id="Trazado_102057" data-name="Trazado 102057" d="M4.5-2.637h5.967V0H1.074V-14.219H4.5ZM16.875.2a5.432,5.432,0,0,1-3.936-1.45,5.008,5.008,0,0,1-1.5-3.774V-5.3a6.489,6.489,0,0,1,.6-2.861,4.395,4.395,0,0,1,1.753-1.919,5.292,5.292,0,0,1,2.734-.679A4.574,4.574,0,0,1,20.039-9.38a5.43,5.43,0,0,1,1.289,3.853v1.279H14.785a2.372,2.372,0,0,0,.771,1.4,2.3,2.3,0,0,0,1.543.508,2.958,2.958,0,0,0,2.441-1.094l1.5,1.777A4.2,4.2,0,0,1,19.3-.308,5.891,5.891,0,0,1,16.875.2ZM16.5-8.223q-1.445,0-1.719,1.914h3.32v-.254a1.63,1.63,0,0,0-.4-1.226A1.593,1.593,0,0,0,16.5-8.223ZM28.6,0a3.716,3.716,0,0,1-.312-.947A3.06,3.06,0,0,1,25.752.2a3.749,3.749,0,0,1-2.539-.9,2.875,2.875,0,0,1-1.045-2.271,2.955,2.955,0,0,1,1.27-2.6,6.468,6.468,0,0,1,3.691-.879h1.016v-.559q0-1.462-1.26-1.462a1.03,1.03,0,0,0-1.172,1.158H22.422a2.95,2.95,0,0,1,1.3-2.487,5.479,5.479,0,0,1,3.325-.956,4.8,4.8,0,0,1,3.193.986,3.429,3.429,0,0,1,1.2,2.705v4.678a4.79,4.79,0,0,0,.449,2.227V0ZM26.543-2.148a1.836,1.836,0,0,0,1.021-.264,1.653,1.653,0,0,0,.581-.6V-4.7h-.957q-1.719,0-1.719,1.543a.942.942,0,0,0,.3.728A1.1,1.1,0,0,0,26.543-2.148ZM36.738,0h-3.3V-15h3.3ZM42.6-13.193v2.627h1.738v2.285H42.6v4.834a1.234,1.234,0,0,0,.215.83,1.152,1.152,0,0,0,.85.234,4.828,4.828,0,0,0,.82-.059V-.088A6.074,6.074,0,0,1,42.627.2a3.448,3.448,0,0,1-2.51-.8,3.282,3.282,0,0,1-.811-2.432V-8.281H37.959v-2.285h1.348v-2.627ZM51.582,0a3.716,3.716,0,0,1-.312-.947A3.06,3.06,0,0,1,48.73.2a3.749,3.749,0,0,1-2.539-.9,2.875,2.875,0,0,1-1.045-2.271,2.955,2.955,0,0,1,1.27-2.6,6.468,6.468,0,0,1,3.691-.879h1.016v-.559q0-1.462-1.26-1.462a1.03,1.03,0,0,0-1.172,1.158H45.4a2.95,2.95,0,0,1,1.3-2.487,5.479,5.479,0,0,1,3.325-.956,4.8,4.8,0,0,1,3.193.986,3.429,3.429,0,0,1,1.2,2.705v4.678a4.79,4.79,0,0,0,.449,2.227V0ZM49.521-2.148a1.836,1.836,0,0,0,1.021-.264,1.653,1.653,0,0,0,.581-.6V-4.7h-.957q-1.719,0-1.719,1.543a.942.942,0,0,0,.3.728A1.1,1.1,0,0,0,49.521-2.148ZM55.83-5.361a6.455,6.455,0,0,1,1.084-3.955,3.568,3.568,0,0,1,3.027-1.445,3.035,3.035,0,0,1,2.383,1.113V-15h3.3V0H62.666L62.5-1.133A3.116,3.116,0,0,1,59.922.2,3.562,3.562,0,0,1,56.934-1.25,6.659,6.659,0,0,1,55.83-5.361Zm3.291.205q0,2.813,1.641,2.813a1.62,1.62,0,0,0,1.563-.918V-7.285a1.576,1.576,0,0,0-1.543-.937q-1.523,0-1.65,2.461Z" transform="translate(383.544 511.574)" fill="#fff"/>
    <path id="Trazado_102058" data-name="Trazado 102058" d="M4.5-4.824V0H1.074V-14.219H6.748a6.608,6.608,0,0,1,2.886.6,4.526,4.526,0,0,1,1.943,1.709,4.667,4.667,0,0,1,.688,2.515,4.114,4.114,0,0,1-1.489,3.325A6.179,6.179,0,0,1,6.689-4.824Zm0-2.646H6.748a2.118,2.118,0,0,0,1.519-.5,1.85,1.85,0,0,0,.522-1.406,2.287,2.287,0,0,0-.537-1.592,1.9,1.9,0,0,0-1.465-.605H4.5ZM19.785,0a3.716,3.716,0,0,1-.312-.947A3.06,3.06,0,0,1,16.934.2a3.749,3.749,0,0,1-2.539-.9A2.875,2.875,0,0,1,13.35-2.979a2.955,2.955,0,0,1,1.27-2.6,6.468,6.468,0,0,1,3.691-.879h1.016v-.559q0-1.462-1.26-1.462a1.03,1.03,0,0,0-1.172,1.158H13.6a2.95,2.95,0,0,1,1.3-2.487,5.479,5.479,0,0,1,3.325-.956,4.8,4.8,0,0,1,3.193.986,3.429,3.429,0,0,1,1.2,2.705v4.678a4.79,4.79,0,0,0,.449,2.227V0ZM17.725-2.148a1.836,1.836,0,0,0,1.021-.264,1.653,1.653,0,0,0,.581-.6V-4.7h-.957q-1.719,0-1.719,1.543a.942.942,0,0,0,.3.728A1.1,1.1,0,0,0,17.725-2.148ZM30.84-7.588l-1.084-.078a1.947,1.947,0,0,0-1.992.977V0H24.473V-10.566h3.086l.107,1.357a2.548,2.548,0,0,1,2.314-1.553,3.209,3.209,0,0,1,.918.117Zm5.508-5.605v2.627h1.738v2.285H36.348v4.834a1.234,1.234,0,0,0,.215.83,1.152,1.152,0,0,0,.85.234,4.828,4.828,0,0,0,.82-.059V-.088A6.074,6.074,0,0,1,36.377.2a3.448,3.448,0,0,1-2.51-.8,3.282,3.282,0,0,1-.811-2.432V-8.281H31.709v-2.285h1.348v-2.627ZM42.852,0h-3.3V-10.566h3.3Zm-3.5-13.291a1.469,1.469,0,0,1,.508-1.152,1.916,1.916,0,0,1,1.318-.449,1.916,1.916,0,0,1,1.318.449,1.469,1.469,0,0,1,.508,1.152,1.469,1.469,0,0,1-.508,1.152,1.916,1.916,0,0,1-1.318.449,1.916,1.916,0,0,1-1.318-.449A1.469,1.469,0,0,1,39.355-13.291Zm9.99,10.947A1.464,1.464,0,0,0,50.42-2.72a1.379,1.379,0,0,0,.371-1.05h3.086A3.653,3.653,0,0,1,52.632-.918,4.631,4.631,0,0,1,49.424.2,4.689,4.689,0,0,1,45.791-1.25a5.7,5.7,0,0,1-1.328-4v-.137a6.436,6.436,0,0,1,.591-2.827,4.3,4.3,0,0,1,1.7-1.885,5.081,5.081,0,0,1,2.637-.659,4.573,4.573,0,0,1,3.271,1.143,4.053,4.053,0,0,1,1.211,3.1H50.791a1.807,1.807,0,0,0-.4-1.26,1.382,1.382,0,0,0-1.074-.439q-1.279,0-1.494,1.631a11.507,11.507,0,0,0-.068,1.426,4.52,4.52,0,0,0,.381,2.207A1.319,1.319,0,0,0,49.346-2.344ZM58.74,0h-3.3V-10.566h3.3Zm-3.5-13.291a1.469,1.469,0,0,1,.508-1.152,1.916,1.916,0,0,1,1.318-.449,1.916,1.916,0,0,1,1.318.449,1.469,1.469,0,0,1,.508,1.152,1.469,1.469,0,0,1-.508,1.152,1.916,1.916,0,0,1-1.318.449,1.916,1.916,0,0,1-1.318-.449A1.469,1.469,0,0,1,55.244-13.291ZM70.576-5.205a6.372,6.372,0,0,1-1.108,3.931A3.554,3.554,0,0,1,66.475.2,3.046,3.046,0,0,1,64.082-.869V4.063H60.791V-10.566h3.076l.1.977a3.046,3.046,0,0,1,2.49-1.172,3.582,3.582,0,0,1,3.037,1.44,6.45,6.45,0,0,1,1.084,3.96ZM67.285-5.41q0-2.812-1.641-2.812a1.549,1.549,0,0,0-1.562.84v4.16a1.6,1.6,0,0,0,1.582.879q1.572,0,1.621-2.715ZM77.979,0a3.716,3.716,0,0,1-.312-.947A3.06,3.06,0,0,1,75.127.2a3.749,3.749,0,0,1-2.539-.9,2.875,2.875,0,0,1-1.045-2.271,2.955,2.955,0,0,1,1.27-2.6A6.468,6.468,0,0,1,76.5-6.455H77.52v-.559q0-1.462-1.26-1.462a1.03,1.03,0,0,0-1.172,1.158H71.8a2.95,2.95,0,0,1,1.3-2.487,5.479,5.479,0,0,1,3.325-.956,4.8,4.8,0,0,1,3.193.986,3.429,3.429,0,0,1,1.2,2.705v4.678A4.79,4.79,0,0,0,81.27-.166V0ZM75.918-2.148a1.836,1.836,0,0,0,1.021-.264,1.653,1.653,0,0,0,.581-.6V-4.7h-.957q-1.719,0-1.719,1.543a.942.942,0,0,0,.3.728A1.1,1.1,0,0,0,75.918-2.148Zm11.191-.2a1.464,1.464,0,0,0,1.074-.376,1.379,1.379,0,0,0,.371-1.05h3.086A3.653,3.653,0,0,1,90.4-.918,4.631,4.631,0,0,1,87.188.2,4.689,4.689,0,0,1,83.555-1.25a5.7,5.7,0,0,1-1.328-4v-.137a6.436,6.436,0,0,1,.591-2.827,4.3,4.3,0,0,1,1.7-1.885,5.081,5.081,0,0,1,2.637-.659A4.573,4.573,0,0,1,90.43-9.619a4.053,4.053,0,0,1,1.211,3.1H88.555a1.806,1.806,0,0,0-.4-1.26,1.382,1.382,0,0,0-1.074-.439q-1.279,0-1.494,1.631a11.508,11.508,0,0,0-.068,1.426A4.52,4.52,0,0,0,85.9-2.959,1.319,1.319,0,0,0,87.109-2.344ZM96.5,0H93.2V-10.566h3.3Zm-3.5-13.291a1.469,1.469,0,0,1,.508-1.152,1.916,1.916,0,0,1,1.318-.449,1.916,1.916,0,0,1,1.318.449,1.469,1.469,0,0,1,.508,1.152,1.469,1.469,0,0,1-.508,1.152,1.916,1.916,0,0,1-1.318.449,1.916,1.916,0,0,1-1.318-.449A1.469,1.469,0,0,1,93.008-13.291Zm5.107,7.91A6.236,6.236,0,0,1,98.73-8.2a4.4,4.4,0,0,1,1.768-1.9,5.323,5.323,0,0,1,2.705-.664,4.858,4.858,0,0,1,3.74,1.47,5.64,5.64,0,0,1,1.367,4v.117a5.472,5.472,0,0,1-1.372,3.921A4.871,4.871,0,0,1,103.223.2,4.927,4.927,0,0,1,99.6-1.157a5.29,5.29,0,0,1-1.475-3.667Zm3.291.205a3.932,3.932,0,0,0,.459,2.148,1.529,1.529,0,0,0,1.357.684q1.758,0,1.8-2.705v-.332q0-2.842-1.816-2.842-1.65,0-1.787,2.451ZM103.652-15h3.477l-2.715,3.066-2.686,0Zm9.131,4.434.107,1.24a3.583,3.583,0,0,1,3.018-1.436,3.015,3.015,0,0,1,2.466.986,4.7,4.7,0,0,1,.845,2.969V0h-3.3V-6.67a1.783,1.783,0,0,0-.322-1.177,1.491,1.491,0,0,0-1.172-.376,1.569,1.569,0,0,0-1.436.762V0H109.7V-10.566ZM6.035,25.2A5.432,5.432,0,0,1,2.1,23.745,5.008,5.008,0,0,1,.6,19.971V19.7a6.489,6.489,0,0,1,.6-2.861,4.395,4.395,0,0,1,1.753-1.919,5.292,5.292,0,0,1,2.734-.679A4.574,4.574,0,0,1,9.2,15.62a5.43,5.43,0,0,1,1.289,3.853v1.279H3.945a2.372,2.372,0,0,0,.771,1.4,2.3,2.3,0,0,0,1.543.508A2.958,2.958,0,0,0,8.7,21.563l1.5,1.777a4.2,4.2,0,0,1-1.743,1.353A5.891,5.891,0,0,1,6.035,25.2Zm-.371-8.418q-1.445,0-1.719,1.914h3.32v-.254a1.63,1.63,0,0,0-.4-1.226A1.593,1.593,0,0,0,5.664,16.777Zm9.17-2.344.107,1.24a3.583,3.583,0,0,1,3.018-1.436,3.015,3.015,0,0,1,2.466.986,4.7,4.7,0,0,1,.845,2.969V25h-3.3V18.33a1.783,1.783,0,0,0-.322-1.177,1.491,1.491,0,0,0-1.172-.376,1.569,1.569,0,0,0-1.436.762V25H11.748V14.434ZM31.543,25h-3.3V10h3.3Zm7.979,0a3.716,3.716,0,0,1-.312-.947A3.06,3.06,0,0,1,36.67,25.2a3.749,3.749,0,0,1-2.539-.9,2.875,2.875,0,0,1-1.045-2.271,2.955,2.955,0,0,1,1.27-2.6,6.468,6.468,0,0,1,3.691-.879h1.016v-.559q0-1.462-1.26-1.462a1.03,1.03,0,0,0-1.172,1.158H33.34a2.95,2.95,0,0,1,1.3-2.487,5.479,5.479,0,0,1,3.325-.956,4.8,4.8,0,0,1,3.193.986,3.429,3.429,0,0,1,1.2,2.705v4.678a4.79,4.79,0,0,0,.449,2.227V25Zm-2.061-2.148a1.836,1.836,0,0,0,1.021-.264,1.653,1.653,0,0,0,.581-.6V20.3h-.957q-1.719,0-1.719,1.543a.942.942,0,0,0,.3.728A1.1,1.1,0,0,0,37.461,22.852ZM58.975,19.8A6.44,6.44,0,0,1,57.9,23.8a3.6,3.6,0,0,1-3.027,1.4,3.122,3.122,0,0,1-2.6-1.279L52.139,25H49.189V10H52.48v5.283a3.013,3.013,0,0,1,2.373-1.045A3.6,3.6,0,0,1,57.9,15.654a6.473,6.473,0,0,1,1.074,3.984Zm-3.3-.21a4.3,4.3,0,0,0-.405-2.169,1.366,1.366,0,0,0-1.245-.648,1.576,1.576,0,0,0-1.543.848v4.192a1.585,1.585,0,0,0,1.563.838,1.4,1.4,0,0,0,1.475-1.131A8.121,8.121,0,0,0,55.674,19.595ZM63.9,25H60.6V14.434h3.3ZM60.4,11.709a1.469,1.469,0,0,1,.508-1.152,2.159,2.159,0,0,1,2.637,0,1.561,1.561,0,0,1,0,2.3,2.159,2.159,0,0,1-2.637,0A1.469,1.469,0,0,1,60.4,11.709ZM69.395,25h-3.3V10h3.3Zm5.5,0h-3.3V10h3.3Zm7.139.2a5.432,5.432,0,0,1-3.936-1.45,5.008,5.008,0,0,1-1.5-3.774V19.7a6.489,6.489,0,0,1,.6-2.861,4.395,4.395,0,0,1,1.753-1.919,5.292,5.292,0,0,1,2.734-.679A4.574,4.574,0,0,1,85.2,15.62a5.43,5.43,0,0,1,1.289,3.853v1.279H79.941a2.372,2.372,0,0,0,.771,1.4,2.3,2.3,0,0,0,1.543.508A2.958,2.958,0,0,0,84.7,21.563l1.5,1.777a4.2,4.2,0,0,1-1.743,1.353A5.891,5.891,0,0,1,82.031,25.2Zm-.371-8.418q-1.445,0-1.719,1.914h3.32v-.254a1.63,1.63,0,0,0-.4-1.226A1.593,1.593,0,0,0,81.66,16.777Zm9.98-4.971v2.627h1.738v2.285H91.641v4.834a1.234,1.234,0,0,0,.215.83,1.152,1.152,0,0,0,.85.234,4.828,4.828,0,0,0,.82-.059v2.354a6.074,6.074,0,0,1-1.855.283,3.448,3.448,0,0,1-2.51-.8,3.282,3.282,0,0,1-.811-2.432V16.719H87V14.434H88.35V11.807ZM99.785,25.2a5.432,5.432,0,0,1-3.936-1.45,5.008,5.008,0,0,1-1.5-3.774V19.7a6.489,6.489,0,0,1,.6-2.861A4.395,4.395,0,0,1,96.7,14.917a5.292,5.292,0,0,1,2.734-.679,4.574,4.574,0,0,1,3.516,1.382,5.43,5.43,0,0,1,1.289,3.853v1.279H97.7a2.372,2.372,0,0,0,.771,1.4,2.3,2.3,0,0,0,1.543.508,2.958,2.958,0,0,0,2.441-1.094l1.5,1.777a4.2,4.2,0,0,1-1.743,1.353A5.891,5.891,0,0,1,99.785,25.2Zm-.371-8.418q-1.445,0-1.719,1.914h3.32v-.254a1.63,1.63,0,0,0-.4-1.226A1.593,1.593,0,0,0,99.414,16.777Zm12.539.635-1.084-.078a1.947,1.947,0,0,0-1.992.977V25h-3.291V14.434h3.086l.107,1.357a2.548,2.548,0,0,1,2.314-1.553,3.209,3.209,0,0,1,.918.117ZM118.8,25a3.716,3.716,0,0,1-.312-.947,3.06,3.06,0,0,1-2.539,1.143,3.749,3.749,0,0,1-2.539-.9,2.875,2.875,0,0,1-1.045-2.271,2.955,2.955,0,0,1,1.27-2.6,6.468,6.468,0,0,1,3.691-.879h1.016v-.559q0-1.462-1.26-1.462a1.03,1.03,0,0,0-1.172,1.158h-3.291a2.95,2.95,0,0,1,1.3-2.487,5.479,5.479,0,0,1,3.325-.956,4.8,4.8,0,0,1,3.193.986,3.429,3.429,0,0,1,1.2,2.705v4.678a4.79,4.79,0,0,0,.449,2.227V25Zm-2.061-2.148a1.836,1.836,0,0,0,1.021-.264,1.653,1.653,0,0,0,.581-.6V20.3h-.957q-1.719,0-1.719,1.543a.942.942,0,0,0,.3.728A1.1,1.1,0,0,0,116.738,22.852ZM.508,44.639a6.455,6.455,0,0,1,1.084-3.955,3.568,3.568,0,0,1,3.027-1.445A3.035,3.035,0,0,1,7,40.352V35h3.3V50H7.344l-.166-1.133A3.116,3.116,0,0,1,4.6,50.2,3.562,3.562,0,0,1,1.611,48.75,6.659,6.659,0,0,1,.508,44.639Zm3.291.205q0,2.813,1.641,2.813A1.62,1.62,0,0,0,7,46.738V42.715a1.576,1.576,0,0,0-1.543-.937q-1.523,0-1.65,2.461ZM17.285,50.2a5.432,5.432,0,0,1-3.936-1.45,5.008,5.008,0,0,1-1.5-3.774V44.7a6.489,6.489,0,0,1,.6-2.861A4.395,4.395,0,0,1,14.2,39.917a5.292,5.292,0,0,1,2.734-.679,4.574,4.574,0,0,1,3.516,1.382,5.43,5.43,0,0,1,1.289,3.853v1.279H15.2a2.372,2.372,0,0,0,.771,1.4,2.3,2.3,0,0,0,1.543.508,2.958,2.958,0,0,0,2.441-1.094l1.5,1.777a4.2,4.2,0,0,1-1.743,1.353A5.891,5.891,0,0,1,17.285,50.2Zm-.371-8.418q-1.445,0-1.719,1.914h3.32v-.254a1.63,1.63,0,0,0-.4-1.226A1.593,1.593,0,0,0,16.914,41.777ZM26.533,50h-3.3V35h3.3Zm11.475-2.344a1.464,1.464,0,0,0,1.074-.376,1.379,1.379,0,0,0,.371-1.05h3.086a3.653,3.653,0,0,1-1.245,2.852A4.631,4.631,0,0,1,38.086,50.2a4.689,4.689,0,0,1-3.633-1.445,5.7,5.7,0,0,1-1.328-4v-.137a6.436,6.436,0,0,1,.591-2.827,4.3,4.3,0,0,1,1.7-1.885,5.081,5.081,0,0,1,2.637-.659,4.573,4.573,0,0,1,3.271,1.143,4.053,4.053,0,0,1,1.211,3.1H39.453a1.807,1.807,0,0,0-.4-1.26,1.382,1.382,0,0,0-1.074-.439q-1.279,0-1.494,1.631a11.507,11.507,0,0,0-.068,1.426,4.52,4.52,0,0,0,.381,2.207A1.319,1.319,0,0,0,38.008,47.656ZM47.4,50H44.1V35h3.3Zm5.5,0H49.6V39.434h3.3ZM49.4,36.709a1.469,1.469,0,0,1,.508-1.152,2.159,2.159,0,0,1,2.637,0,1.561,1.561,0,0,1,0,2.3,2.159,2.159,0,0,1-2.637,0A1.469,1.469,0,0,1,49.4,36.709ZM60.039,50.2a5.432,5.432,0,0,1-3.936-1.45,5.008,5.008,0,0,1-1.5-3.774V44.7a6.489,6.489,0,0,1,.6-2.861,4.395,4.395,0,0,1,1.753-1.919,5.292,5.292,0,0,1,2.734-.679A4.574,4.574,0,0,1,63.2,40.62a5.43,5.43,0,0,1,1.289,3.853v1.279H57.949a2.372,2.372,0,0,0,.771,1.4,2.3,2.3,0,0,0,1.543.508,2.958,2.958,0,0,0,2.441-1.094l1.5,1.777a4.2,4.2,0,0,1-1.743,1.353A5.891,5.891,0,0,1,60.039,50.2Zm-.371-8.418q-1.445,0-1.719,1.914h3.32v-.254a1.63,1.63,0,0,0-.4-1.226A1.593,1.593,0,0,0,59.668,41.777Zm9.17-2.344.107,1.24a3.583,3.583,0,0,1,3.018-1.436,3.015,3.015,0,0,1,2.466.986,4.7,4.7,0,0,1,.845,2.969V50h-3.3V43.33a1.783,1.783,0,0,0-.322-1.177,1.491,1.491,0,0,0-1.172-.376,1.569,1.569,0,0,0-1.436.762V50H65.752V39.434Zm12.09-2.627v2.627h1.738v2.285H80.928v4.834a1.234,1.234,0,0,0,.215.83,1.152,1.152,0,0,0,.85.234,4.828,4.828,0,0,0,.82-.059v2.354a6.074,6.074,0,0,1-1.855.283,3.448,3.448,0,0,1-2.51-.8,3.282,3.282,0,0,1-.811-2.432V41.719H76.289V39.434h1.348V36.807ZM89.072,50.2a5.432,5.432,0,0,1-3.936-1.45,5.008,5.008,0,0,1-1.5-3.774V44.7a6.489,6.489,0,0,1,.6-2.861,4.395,4.395,0,0,1,1.753-1.919,5.292,5.292,0,0,1,2.734-.679,4.574,4.574,0,0,1,3.516,1.382,5.43,5.43,0,0,1,1.289,3.853v1.279H86.982a2.372,2.372,0,0,0,.771,1.4,2.3,2.3,0,0,0,1.543.508,2.958,2.958,0,0,0,2.441-1.094l1.5,1.777A4.2,4.2,0,0,1,91.5,49.692,5.891,5.891,0,0,1,89.072,50.2ZM88.7,41.777q-1.445,0-1.719,1.914H90.3v-.254a1.63,1.63,0,0,0-.4-1.226A1.593,1.593,0,0,0,88.7,41.777Z" transform="translate(174.915 490.797)" fill="#fff"/>
  </g>
</svg>
