<svg xmlns="http://www.w3.org/2000/svg" width="84" height="84" viewBox="0 0 84 84">
  <g id="Grupo_53694" data-name="Grupo 53694" transform="translate(-104 8.21)">
    <circle id="Elipse_3958" data-name="Elipse 3958" cx="42" cy="42" r="42" transform="translate(104 -8.21)" fill="#fed947"/>
    <g id="marketing" transform="translate(117.333 5.123)">
      <g id="Grupo_53439" data-name="Grupo 53439" transform="translate(1.892 1.892)">
        <g id="Grupo_53421" data-name="Grupo 53421" transform="translate(0 1.785)">
          <path id="Trazado_99464" data-name="Trazado 99464" d="M37.7,48.624v3.57a3.569,3.569,0,0,1-3.57,3.57H5.57A3.569,3.569,0,0,1,2,52.194V7.57A3.569,3.569,0,0,1,5.57,4h7.14V7.57H6.462a.9.9,0,0,0-.892.892V51.3a.9.9,0,0,0,.892.892H33.237a.9.9,0,0,0,.892-.892V48.624Z" transform="translate(-2 -4)" fill="#ffeaa7"/>
        </g>
        <g id="Grupo_53422" data-name="Grupo 53422" transform="translate(32.129 17.1)">
          <path id="Trazado_99465" data-name="Trazado 99465" d="M41.57,21.169v22.16H38V21.91a8.819,8.819,0,0,0,3.57-.75Z" transform="translate(-38 -21.16)" fill="#ffeaa7"/>
        </g>
        <g id="Grupo_53423" data-name="Grupo 53423" transform="translate(3.57 5.355)">
          <path id="Trazado_99466" data-name="Trazado 99466" d="M29.151,18.665a8.9,8.9,0,0,1-3.516-7.1,9.126,9.126,0,0,1,.178-1.794,1.2,1.2,0,0,1-.178.009H14.925A1.79,1.79,0,0,1,13.14,8H6.892A.9.9,0,0,0,6,8.892V51.732a.9.9,0,0,0,.892.892H33.667a.9.9,0,0,0,.892-.892V20.495A8.843,8.843,0,0,1,29.151,18.665Z" transform="translate(-6 -8)" fill="#f0d0b4"/>
        </g>
        <g id="Grupo_53424" data-name="Grupo 53424" transform="translate(19.635 39.269)">
          <path id="Trazado_99467" data-name="Trazado 99467" d="M31.14,49.57v3.57l-6.3-2.365a1.285,1.285,0,0,1,0-2.41L31.14,46Z" transform="translate(-24 -46)" fill="#aab2bd"/>
        </g>
        <g id="Grupo_53425" data-name="Grupo 53425" transform="translate(46.409 39.269)">
          <path id="Trazado_99468" data-name="Trazado 99468" d="M60.1,47.044a3.572,3.572,0,0,1-2.526,6.1H54V46h3.57A3.592,3.592,0,0,1,60.1,47.044Z" transform="translate(-54 -46)" fill="#aab2bd"/>
        </g>
        <g id="Grupo_53426" data-name="Grupo 53426" transform="translate(26.775 42.839)">
          <path id="Trazado_99469" data-name="Trazado 99469" d="M51.635,50v3.57H32V50Z" transform="translate(-32 -50)" fill="#4fc1e9"/>
        </g>
        <g id="Grupo_53427" data-name="Grupo 53427" transform="translate(26.775 39.269)">
          <path id="Trazado_99470" data-name="Trazado 99470" d="M51.635,46v3.57H32V46H51.635Z" transform="translate(-32 -46)" fill="#b4dd7f"/>
        </g>
        <g id="Grupo_53428" data-name="Grupo 53428" transform="translate(7.14 16.957)">
          <path id="Trazado_99471" data-name="Trazado 99471" d="M27.207,23.187A10.729,10.729,0,1,0,31.42,31.71,10.67,10.67,0,0,0,27.207,23.187Z" transform="translate(-10 -21)" fill="#e6e9ed"/>
        </g>
        <g id="Grupo_53429" data-name="Grupo 53429" transform="translate(19.635 24.097)">
          <path id="Trazado_99472" data-name="Trazado 99472" d="M24,29h3.57v8.925H24Z" transform="translate(-24 -29)" fill="#fcd770"/>
        </g>
        <g id="Grupo_53430" data-name="Grupo 53430" transform="translate(16.065 22.312)">
          <path id="Trazado_99473" data-name="Trazado 99473" d="M23.57,28.785V37.71H20V27h3.57Z" transform="translate(-20 -27)" fill="#fcd770"/>
        </g>
        <g id="Grupo_53431" data-name="Grupo 53431" transform="translate(12.495 27.667)">
          <path id="Trazado_99474" data-name="Trazado 99474" d="M16,33h3.57v5.355H16Z" transform="translate(-16 -33)" fill="#fcd770"/>
        </g>
        <g id="Grupo_53432" data-name="Grupo 53432" transform="translate(10.71 0)">
          <path id="Trazado_99475" data-name="Trazado 99475" d="M28.28,3.785V5.57a8.862,8.862,0,0,0-1.606,3.561,1.2,1.2,0,0,1-.178.009H15.785A1.79,1.79,0,0,1,14,7.355V3.785A1.79,1.79,0,0,1,15.785,2h10.71A1.79,1.79,0,0,1,28.28,3.785Z" transform="translate(-14 -2)" fill="#b4dd7f"/>
        </g>
        <g id="Grupo_53433" data-name="Grupo 53433" transform="translate(45.517 8.925)">
          <path id="Trazado_99476" data-name="Trazado 99476" d="M58.355,12l1.785,3.57H54.785L53,12h5.355Z" transform="translate(-53 -12)" fill="#cf9e76"/>
        </g>
        <g id="Grupo_53434" data-name="Grupo 53434" transform="translate(45.517 5.355)">
          <path id="Trazado_99477" data-name="Trazado 99477" d="M60.14,8l-1.785,3.57H53L54.785,8Z" transform="translate(-53 -8)" fill="#cf9e76"/>
        </g>
        <g id="Grupo_53435" data-name="Grupo 53435" transform="translate(23.205 0)">
          <path id="Trazado_99478" data-name="Trazado 99478" d="M45.85,10.925A8.879,8.879,0,0,1,40.495,19.1,8.924,8.924,0,0,1,28,10.925a9.126,9.126,0,0,1,.178-1.794A8.927,8.927,0,0,1,45.85,10.925Z" transform="translate(-28 -2)" fill="#e6e9ed"/>
        </g>
        <g id="Grupo_53436" data-name="Grupo 53436" transform="translate(28.559 5.355)">
          <circle id="Elipse_3962" data-name="Elipse 3962" cx="3.5" cy="3.5" r="3.5" transform="translate(0.215 0.42)" fill="#ff826e"/>
        </g>
        <g id="Grupo_53437" data-name="Grupo 53437" transform="translate(39.269 19.635)">
          <path id="Trazado_99479" data-name="Trazado 99479" d="M53.14,24a7.131,7.131,0,1,1-4.462,1.562A7.138,7.138,0,0,1,53.14,24Z" transform="translate(-46 -24)" fill="#e6e9ed"/>
        </g>
        <g id="Grupo_53438" data-name="Grupo 53438" transform="translate(42.839 23.205)">
          <path id="Trazado_99480" data-name="Trazado 99480" d="M56.346,30.276a1.451,1.451,0,0,1,0,2.588l-4.257,2.124A1.444,1.444,0,0,1,50,33.694V29.446a1.444,1.444,0,0,1,2.088-1.294Z" transform="translate(-50 -28)" fill="#ff826e"/>
        </g>
      </g>
      <g id="Grupo_53440" data-name="Grupo 53440" transform="translate(1 1)">
        <path id="Trazado_99481" data-name="Trazado 99481" d="M51.872,40.269H38.484V19.551A9.788,9.788,0,0,0,39.428,19l3.192,3.99a8.148,8.148,0,1,0,1.4-1.11l-3.2-4a9.786,9.786,0,0,0,2.976-6.175h3.063l1.785,3.57h7.35l-2.231-4.462,2.231-4.462h-7.35l-1.785,3.57H43.795A9.805,9.805,0,0,0,27.735,3.287,2.674,2.674,0,0,0,25.1,1H14.387a2.674,2.674,0,0,0-2.513,1.785H5.462A4.467,4.467,0,0,0,1,7.247V51.872a4.467,4.467,0,0,0,4.462,4.462H34.022a4.467,4.467,0,0,0,4.462-4.462V49.194H51.872a4.462,4.462,0,0,0,0-8.925Zm2.677-11.6A6.247,6.247,0,1,1,48.3,22.42,6.255,6.255,0,0,1,54.549,28.667Zm-4.8-15.172-.892-1.785h3.359l.892,1.785Zm0-5.355H53.1l-.892,1.785H48.853Zm-37.872,0a2.674,2.674,0,0,0,2.513,1.785H24.25c-.027.295-.046.591-.046.892A9.783,9.783,0,0,0,27.4,18.041l-1.361,1.786a11.707,11.707,0,1,0,1.415,1.086l1.363-1.789a9.735,9.735,0,0,0,4.315,1.465v19.68H28.5l-6.455,2.421a2.181,2.181,0,0,0,0,4.083l6.455,2.42h4.625v1.785H6.355V8.14ZM24.2,34.022H22.42v-7.14H24.2Zm-3.57,0H18.85V25.1h1.785Zm-3.57,0H15.28v-3.57h1.785ZM27.31,35.807a9.805,9.805,0,0,1-15.135,0Zm1.166-1.785H25.99V25.1H22.42V23.312H17.065v5.355h-3.57v5.355H11.008a9.817,9.817,0,1,1,17.468,0ZM22.677,45.1a.4.4,0,0,1,0-.742l5.1-1.912v4.564Zm6.883,2.306V45.624h17.85v1.785Zm17.85-3.57H29.559V42.054h17.85ZM36.7,40.269H34.914V20.589a9.658,9.658,0,0,0,1.785-.336ZM34.022,2.785A8.041,8.041,0,0,1,42,9.925H38.394a4.462,4.462,0,1,0,0,1.785H42a8.031,8.031,0,1,1-7.98-8.925Zm2.513,8.925a2.677,2.677,0,1,1,0-1.785H33.129V11.71ZM13.495,3.677a.893.893,0,0,1,.892-.892H25.1a.893.893,0,0,1,.892.892V5.19a9.761,9.761,0,0,0-1.4,2.945l-10.2,0a.893.893,0,0,1-.892-.892ZM36.7,51.872a2.681,2.681,0,0,1-2.677,2.677H5.462a2.681,2.681,0,0,1-2.677-2.677V7.247A2.681,2.681,0,0,1,5.462,4.57H11.71V6.355H6.355A1.787,1.787,0,0,0,4.57,8.14V50.979a1.787,1.787,0,0,0,1.785,1.785H33.129a1.787,1.787,0,0,0,1.785-1.785V49.194H36.7Zm15.172-4.462H49.194V42.054h2.677a2.677,2.677,0,0,1,0,5.355Z" transform="translate(-1 -1)" fill="#20287a"/>
        <path id="Trazado_99482" data-name="Trazado 99482" d="M49,33.588a2.337,2.337,0,0,0,3.382,2.09l4.253-2.126a2.338,2.338,0,0,0,0-4.18l-4.252-2.126A2.337,2.337,0,0,0,49,29.337Zm1.785-4.252a.552.552,0,0,1,.552-.552.546.546,0,0,1,.246.058l4.252,2.126a.552.552,0,0,1,0,.987l-4.252,2.126a.567.567,0,0,1-.8-.494Z" transform="translate(-6.161 -3.795)" fill="#20287a"/>
        <path id="Trazado_99483" data-name="Trazado 99483" d="M9,49H19.71v1.785H9Z" transform="translate(-1.86 -6.161)" fill="#20287a"/>
        <path id="Trazado_99484" data-name="Trazado 99484" d="M9,53H19.71v1.785H9Z" transform="translate(-1.86 -6.591)" fill="#20287a"/>
        <path id="Trazado_99485" data-name="Trazado 99485" d="M9,13h1.785v1.785H9Z" transform="translate(-1.86 -2.29)" fill="#20287a"/>
        <path id="Trazado_99486" data-name="Trazado 99486" d="M13,13H23.71v1.785H13Z" transform="translate(-2.29 -2.29)" fill="#20287a"/>
        <path id="Trazado_99487" data-name="Trazado 99487" d="M9,17h1.785v1.785H9Z" transform="translate(-1.86 -2.72)" fill="#20287a"/>
        <path id="Trazado_99488" data-name="Trazado 99488" d="M13,17H23.71v1.785H13Z" transform="translate(-2.29 -2.72)" fill="#20287a"/>
      </g>
    </g>
  </g>
</svg>
