<svg xmlns="http://www.w3.org/2000/svg" width="84" height="84" viewBox="0 0 84 84">
  <g id="Grupo_53695" data-name="Grupo 53695" transform="translate(-104 8.21)">
    <circle id="Elipse_3959" data-name="Elipse 3959" cx="42" cy="42" r="42" transform="translate(104 -8.21)" fill="#fed947"/>
    <g id="tactica" transform="translate(103.5 -10.726)">
      <g id="Grupo_53443" data-name="Grupo 53443" transform="translate(16.917 16)">
        <path id="Trazado_99510" data-name="Trazado 99510" d="M24,287.375V271.731a4.583,4.583,0,0,1,2.938-4.278L35.917,264h9.167l8.979,3.453A4.583,4.583,0,0,1,57,271.731v17.936H26.292A2.292,2.292,0,0,1,24,287.375Z" transform="translate(-24 -235.583)" fill="#fa5d3f"/>
        <g id="Grupo_53441" data-name="Grupo 53441" transform="translate(9.167 8.25)">
          <path id="Trazado_99511" data-name="Trazado 99511" d="M131,225.167H120L121.833,216h7.333Z" transform="translate(-118.167 -201.333)" fill="#ffd4cf"/>
          <path id="Trazado_99512" data-name="Trazado 99512" d="M118.667,88H104V98.709a3.437,3.437,0,0,0,1.9,3.075l4.4,2.2a2.292,2.292,0,0,0,2.06-.005l4.42-2.238a3.438,3.438,0,0,0,1.884-3.067Z" transform="translate(-104 -88)" fill="#ffd4cf"/>
        </g>
        <path id="Trazado_99513" data-name="Trazado 99513" d="M80,29.042V24H90.542a2.292,2.292,0,0,1,2.292,2.292v5.042H82.292A2.292,2.292,0,0,1,80,29.042Z" transform="translate(-73.583 -23.083)" fill="#fac850"/>
        <path id="Trazado_99514" data-name="Trazado 99514" d="M197.5,45.5H192V40l3.933,1.311a2.292,2.292,0,0,1,1.567,2.174Z" transform="translate(-172.75 -37.25)" fill="#f29a49"/>
        <path id="Trazado_99515" data-name="Trazado 99515" d="M112,24h3.208a2.292,2.292,0,0,1,2.292,2.292v5.042h-3.208A2.292,2.292,0,0,1,112,29.042Z" transform="translate(-101.917 -23.083)" fill="#f29a49"/>
        <path id="Trazado_99516" data-name="Trazado 99516" d="M232,120h1.6a1.146,1.146,0,0,1,1.146,1.146v2.292a1.146,1.146,0,0,1-1.146,1.146H232Z" transform="translate(-208.167 -108.083)" fill="#ffd4cf"/>
        <path id="Trazado_99517" data-name="Trazado 99517" d="M0,0H1.6A1.146,1.146,0,0,1,2.75,1.146V3.438A1.146,1.146,0,0,1,1.6,4.583H0Z" transform="translate(9.167 16.5) rotate(180)" fill="#ffd4cf"/>
        <path id="Trazado_99518" data-name="Trazado 99518" d="M91.938,27H91.25V25.167a.917.917,0,0,0,.917-.917V22.235a3.2,3.2,0,0,0-2.194-3.044l-3.537-1.179A3.213,3.213,0,0,0,83.458,16H72.917a.917.917,0,0,0-.917.917v5.042a3.213,3.213,0,0,0,2.75,3.176V27h-.687A2.065,2.065,0,0,0,72,29.063v2.292a2.065,2.065,0,0,0,2.063,2.062h.688v1.542a4.33,4.33,0,0,0,2.407,3.894l4.4,2.2a3.222,3.222,0,0,0,2.884-.007l4.42-2.238a4.334,4.334,0,0,0,2.387-3.884V33.417h.688A2.065,2.065,0,0,0,94,31.354V29.063A2.065,2.065,0,0,0,91.938,27Zm-1.6-4.765v1.1H86.667V20.022l2.727.909a1.373,1.373,0,0,1,.94,1.3Zm-5.5-3.027v4.125H83V19.208a3.19,3.19,0,0,0-.309-1.375h.768A1.376,1.376,0,0,1,84.833,19.208Zm-5.042-1.375a1.376,1.376,0,0,1,1.375,1.375v4.125H78.875A1.376,1.376,0,0,1,77.5,21.958V17.833Zm-5.958,4.125V17.833h1.833v4.125a3.19,3.19,0,0,0,.309,1.375h-.768A1.376,1.376,0,0,1,73.833,21.958Zm.229,9.625a.229.229,0,0,1-.229-.229V29.063a.229.229,0,0,1,.229-.229h.688v2.75Zm15.354,3.341a2.509,2.509,0,0,1-1.382,2.249l-4.42,2.238a1.381,1.381,0,0,1-1.236,0l-4.4-2.2a2.507,2.507,0,0,1-1.393-2.255V25.167H89.417Zm2.75-3.57a.229.229,0,0,1-.229.229H91.25v-2.75h.687a.229.229,0,0,1,.229.229Z" transform="translate(-66.5 -16)" fill="#20287a"/>
        <path id="Trazado_99519" data-name="Trazado 99519" d="M105.833,264l5.5,3.667L104,270.417Z" transform="translate(-94.833 -235.583)" fill="#fffdfa"/>
        <path id="Trazado_99520" data-name="Trazado 99520" d="M174.5,264l-5.5,3.667,7.333,2.75Z" transform="translate(-152.385 -235.583)" fill="#fffdfa"/>
        <g id="Grupo_53442" data-name="Grupo 53442" transform="translate(11.917 12.833)">
          <path id="Trazado_99521" data-name="Trazado 99521" d="M128,128h1.833v1.833H128Z" transform="translate(-128 -128)" fill="#20287a"/>
          <path id="Trazado_99522" data-name="Trazado 99522" d="M192,128h1.833v1.833H192Z" transform="translate(-184.667 -128)" fill="#20287a"/>
        </g>
        <path id="Trazado_99523" data-name="Trazado 99523" d="M146.75,180.292A2.525,2.525,0,0,1,144,178h1.833c0,.162.348.458.917.458s.917-.3.917-.458H149.5A2.525,2.525,0,0,1,146.75,180.292Z" transform="translate(-130.25 -159.438)" fill="#20287a"/>
        <path id="Trazado_99524" data-name="Trazado 99524" d="M160,328h1.833v1.833H160Z" transform="translate(-144.417 -292.25)" fill="#20287a"/>
        <path id="Trazado_99525" data-name="Trazado 99525" d="M160,360h1.833v1.833H160Z" transform="translate(-144.417 -320.583)" fill="#20287a"/>
      </g>
      <g id="Grupo_53444" data-name="Grupo 53444" transform="translate(44.369 36.118)">
        <rect id="Rectángulo_5114" data-name="Rectángulo 5114" width="26" height="34" transform="translate(-0.035 -0.451)" fill="#57cee6"/>
        <path id="Trazado_99526" data-name="Trazado 99526" d="M338.1,276.417H320v-1.833h18.1a.229.229,0,0,0,.229-.229V248h1.833v26.354A2.065,2.065,0,0,1,338.1,276.417Z" transform="translate(-313.535 -241.535)" fill="#20287a"/>
        <circle id="Elipse_3966" data-name="Elipse 3966" cx="2.5" cy="2.5" r="2.5" transform="translate(3.965 4.549)" fill="#ecfbf9"/>
        <path id="Trazado_99527" data-name="Trazado 99527" d="M291.667,231.333a3.667,3.667,0,1,1,3.667-3.667A3.667,3.667,0,0,1,291.667,231.333Zm0-5.5a1.833,1.833,0,1,0,1.833,1.833A1.833,1.833,0,0,0,291.667,225.833Z" transform="translate(-285.202 -220.285)" fill="#20287a"/>
        <circle id="Elipse_3967" data-name="Elipse 3967" cx="3" cy="3" r="3" transform="translate(8.965 24.549)" fill="#ecfbf9"/>
        <path id="Trazado_99528" data-name="Trazado 99528" d="M339.667,407.333a3.667,3.667,0,1,1,3.667-3.667A3.667,3.667,0,0,1,339.667,407.333Zm0-5.5a1.833,1.833,0,1,0,1.833,1.833,1.833,1.833,0,0,0-1.833-1.833Z" transform="translate(-327.702 -376.118)" fill="#20287a"/>
        <ellipse id="Elipse_3968" data-name="Elipse 3968" cx="2.5" cy="3" rx="2.5" ry="3" transform="translate(16.965 12.549)" fill="#ecfbf9"/>
        <path id="Trazado_99529" data-name="Trazado 99529" d="M403.667,303.333a3.667,3.667,0,1,1,3.667-3.667A3.667,3.667,0,0,1,403.667,303.333Zm0-5.5a1.833,1.833,0,1,0,1.833,1.833A1.833,1.833,0,0,0,403.667,297.833Z" transform="translate(-384.369 -284.035)" fill="#20287a"/>
        <path id="Trazado_99530" data-name="Trazado 99530" d="M400.825,214.384l-1.3-1.3-1.945,1.945-1.944-1.945-1.3,1.3,1.945,1.945-1.945,1.944,1.3,1.3,1.944-1.945,1.945,1.945,1.3-1.3-1.945-1.944Z" transform="translate(-379.36 -210.623)" fill="#20287a"/>
        <path id="Trazado_99531" data-name="Trazado 99531" d="M408,374.417v-1.833c2.022,0,3.667-2.056,3.667-4.583H413.5C413.5,371.538,411.033,374.417,408,374.417Z" transform="translate(-391.452 -347.785)" fill="#20287a"/>
        <path id="Trazado_99532" data-name="Trazado 99532" d="M272,311.182,282.158,295.1a1.26,1.26,0,0,1,1.957-.218l.006.006a1.26,1.26,0,0,1,.175,1.564l-10.462,16.564Z" transform="translate(-271.035 -282.717)" fill="#ecfbf9"/>
      </g>
      <g id="Grupo_53446" data-name="Grupo 53446" transform="translate(16 35.25)">
        <path id="Trazado_99533" data-name="Trazado 99533" d="M204.583,432H200v6.417h11A6.417,6.417,0,0,0,204.583,432Z" transform="translate(-178.917 -403.583)" fill="#ffd4cf"/>
        <g id="Grupo_53445" data-name="Grupo 53445" transform="translate(0)">
          <path id="Trazado_99534" data-name="Trazado 99534" d="M68.937,184H45.562a2.065,2.065,0,0,0-2.062,2.063V194.3l-3.586-1.379,0-.006a.917.917,0,0,0-.977-.66l-.954-4.768-1.8.36,1.079,5.4-3.79,2.527-3.891-2.594,1.066-5.329-1.8-.36L27.9,192.25a.917.917,0,0,0-.849.621l-7.524,2.894A5.533,5.533,0,0,0,16,200.9v15.644a3.212,3.212,0,0,0,3.208,3.208h3.208v-1.833H19.208a1.377,1.377,0,0,1-1.375-1.375V200.9a3.689,3.689,0,0,1,2.35-3.422l6.233-2.4L25.2,199.331a.917.917,0,0,0,1.2,1.11l7.069-2.651,7.069,2.651a.917.917,0,0,0,1.2-1.11l-1.2-4.2,2.955,1.137v13.4h1.833v-23.6a.229.229,0,0,1,.229-.229H68.937a.229.229,0,0,1,.229.229V189.5H71v-3.437A2.065,2.065,0,0,0,68.937,184ZM27.464,198.086l.989-3.46,2.966,1.977Zm8.064-1.483,2.966-1.977.989,3.46Z" transform="translate(-16 -184)" fill="#20287a"/>
          <path id="Trazado_99535" data-name="Trazado 99535" d="M105.9,286.524a2.166,2.166,0,0,0-1.6,1l-9.792,15.5a7.289,7.289,0,0,0-3.258-.764H73.833v-5.5H72v6.417a.917.917,0,0,0,.917.917H85.75v4.583H73.833v1.833H97.667a.917.917,0,0,0,.917-.917,7.288,7.288,0,0,0-.874-3.469l10.277-16.273a2.184,2.184,0,0,0-2.088-3.332ZM87.583,308.682V304.1H91.25a5.509,5.509,0,0,1,5.424,4.583Zm18.854-19.8-9.888,15.656q-.245-.256-.514-.489L105.85,288.5a.339.339,0,0,1,.252-.158.35.35,0,0,1,.335.531Z" transform="translate(-65.583 -274.765)" fill="#20287a"/>
        </g>
      </g>
    </g>
  </g>
</svg>
