<?xml version="1.0" encoding="UTF-8" standalone="no"?><!DOCTYPE svg PUBLIC "-//W3C//DTD SVG 1.1//EN" "http://www.w3.org/Graphics/SVG/1.1/DTD/svg11.dtd"><svg width="100%" height="100%" viewBox="0 0 55 48" version="1.1" xmlns="http://www.w3.org/2000/svg" xmlns:xlink="http://www.w3.org/1999/xlink" xml:space="preserve" xmlns:serif="http://www.serif.com/" style="fill-rule:evenodd;clip-rule:evenodd;stroke-miterlimit:10;"><g id="atencion"><path id="Trazado_99446" d="M5.957,46.762l42.506,0c0.011,0 0.021,0 0.032,0c2.66,0 4.85,-2.189 4.85,-4.85c-0,-0.907 -0.254,-1.795 -0.734,-2.565l-21.252,-36c-0.898,-1.424 -2.467,-2.289 -4.15,-2.289c-1.683,-0 -3.252,0.865 -4.15,2.289l-21.252,36c-0.48,0.77 -0.734,1.658 -0.734,2.565c0,2.661 2.19,4.85 4.85,4.85c0.011,0 0.023,0 0.034,0Z" style="fill:#fff5a2;fill-rule:nonzero;"/><path id="Trazado_99447" d="M27.209,6.377l-20.726,35.074l41.451,0l-20.725,-35.074Z" style="fill:#fff;fill-rule:nonzero;stroke:#fff;stroke-width:1px;"/><circle id="Elipse_3953" cx="27.418" cy="35" r="2" style="fill:#fed947;"/><path id="Trazado_99448" d="M29.334,19.769c0,1.174 -0.952,8.822 -2.126,8.822c-1.174,0 -2.125,-7.648 -2.125,-8.822c0.025,-1.149 0.977,-2.08 2.125,-2.08c1.149,0 2.101,0.931 2.126,2.08Z" style="fill:#fed947;fill-rule:nonzero;"/><g id="Grupo_53376"><path id="Trazado_99449" d="M5.948,47.828c-0.823,0.003 -1.637,-0.166 -2.391,-0.494c-0.71,-0.309 -1.351,-0.756 -1.887,-1.315c-0.525,-0.545 -0.942,-1.185 -1.229,-1.886c-0.721,-1.745 -0.549,-3.736 0.459,-5.333l21.245,-35.991l0.015,-0.024c1.083,-1.734 2.989,-2.788 5.033,-2.785l0.032,-0c2.044,-0.003 3.95,1.051 5.033,2.785l0.015,0.024l13.546,22.949c0.095,0.163 0.146,0.348 0.146,0.537c-0,0.582 -0.478,1.061 -1.06,1.063c-0.376,-0.001 -0.724,-0.2 -0.916,-0.523l-13.536,-22.927c-0.704,-1.109 -1.93,-1.782 -3.244,-1.782c-1.31,-0 -2.534,0.67 -3.239,1.775l-21.246,35.99l-0.015,0.024c-0.378,0.593 -0.581,1.282 -0.583,1.985c0.005,0.987 0.39,1.934 1.074,2.645c0.72,0.749 1.718,1.167 2.757,1.155l42.5,-0c1.038,0.011 2.036,-0.408 2.755,-1.157c0.687,-0.709 1.074,-1.656 1.08,-2.643c-0.002,-0.705 -0.205,-1.395 -0.585,-1.989l-0.014,-0.024l-2.842,-4.815c-0.095,-0.163 -0.146,-0.348 -0.146,-0.537c0,-0.582 0.478,-1.061 1.06,-1.063c0.376,0 0.724,0.199 0.916,0.522l2.838,4.806c1.008,1.596 1.179,3.586 0.458,5.331c-0.287,0.701 -0.704,1.342 -1.23,1.887c-0.535,0.559 -1.176,1.006 -1.885,1.315c-0.754,0.328 -1.568,0.496 -2.391,0.494l-42.523,0.001Z" style="fill:#20287a;fill-rule:nonzero;"/><path id="Trazado_99450" d="M47.935,42.514l-41.451,-0c-0.582,-0.001 -1.061,-0.481 -1.061,-1.063c0,-0.189 0.051,-0.374 0.146,-0.537l20.725,-35.078c0.191,-0.323 0.54,-0.522 0.915,-0.522c0.375,0 0.724,0.199 0.915,0.522l20.726,35.078c0.095,0.163 0.146,0.348 0.146,0.537c-0,0.582 -0.479,1.062 -1.061,1.063Zm-39.589,-2.126l37.726,-0l-18.863,-31.922l-18.863,31.922Z" style="fill:#20287a;fill-rule:nonzero;"/><path id="Trazado_99451" d="M27.209,38.156c-1.749,0 -3.189,-1.44 -3.189,-3.189c0,-1.749 1.44,-3.189 3.189,-3.189c1.749,0 3.189,1.44 3.189,3.189c-0.002,1.749 -1.44,3.187 -3.189,3.189Zm0,-4.251c-0.583,0 -1.063,0.48 -1.063,1.063c0,0.583 0.48,1.063 1.063,1.063c0.583,0 1.063,-0.48 1.063,-1.063c-0.001,-0.583 -0.48,-1.062 -1.063,-1.063Z" style="fill:#20287a;fill-rule:nonzero;"/><path id="Trazado_99452" d="M27.209,29.653c-1.165,0 -1.632,-1.352 -1.832,-1.929c-0.307,-0.952 -0.546,-1.924 -0.716,-2.909c-0.324,-1.666 -0.538,-3.352 -0.641,-5.046c-0,-0.019 -0,-0.038 -0,-0.056c-0,-1.75 1.439,-3.189 3.189,-3.189c1.749,-0 3.189,1.439 3.189,3.189c-0,0.018 -0.001,0.037 -0.001,0.056c-0.103,1.694 -0.317,3.38 -0.641,5.046c-0.17,0.985 -0.409,1.957 -0.716,2.909c-0.199,0.577 -0.667,1.929 -1.831,1.929Zm0,-10.947c-0.583,0.001 -1.062,0.48 -1.063,1.063c0.09,1.368 0.257,2.73 0.5,4.079c0.143,0.88 0.33,1.752 0.562,2.613c0.231,-0.861 0.419,-1.733 0.562,-2.613c0.243,-1.349 0.41,-2.711 0.5,-4.079c-0.001,-0.582 -0.479,-1.061 -1.061,-1.063Z" style="fill:#20287a;fill-rule:nonzero;"/><circle id="Elipse_3954" cx="47.335" cy="30.418" r="1.063" style="fill:#20287a;"/></g></g></svg>