<svg xmlns="http://www.w3.org/2000/svg" width="54.418" height="47.828" viewBox="0 0 54.418 47.828">
  <g id="atencion" transform="translate(0 -31)">
    <path id="Trazado_99446" data-name="Trazado 99446" d="M14.894,86.7H57.4a4.85,4.85,0,0,0,4.148-7.415l-21.252-36a4.906,4.906,0,0,0-8.3,0l-21.252,36A4.85,4.85,0,0,0,14.894,86.7Z" transform="translate(-8.937 -8.938)" fill="#dff7f9"/>
    <path id="Trazado_99447" data-name="Trazado 99447" d="M81.726,91,61,126.074h41.451Z" transform="translate(-54.517 -53.623)" fill="#fff" stroke="#fff" stroke-miterlimit="10" stroke-width="1"/>
    <circle id="Elipse_3953" data-name="Elipse 3953" cx="2" cy="2" r="2" transform="translate(25.418 64)" fill="#fed947"/>
    <path id="Trazado_99448" data-name="Trazado 99448" d="M240.251,199.126c0,1.174-.952,8.822-2.126,8.822S236,200.3,236,199.126a2.126,2.126,0,0,1,4.251,0Z" transform="translate(-210.917 -148.357)" fill="#fed947"/>
    <g id="Grupo_53376" data-name="Grupo 53376" transform="translate(0 31)">
      <path id="Trazado_99449" data-name="Trazado 99449" d="M5.948,78.828a5.941,5.941,0,0,1-2.391-.494A5.854,5.854,0,0,1,1.67,77.019,5.992,5.992,0,0,1,.441,75.133,5.824,5.824,0,0,1,.9,69.8L22.145,33.809l.015-.024A5.922,5.922,0,0,1,27.193,31h.032a5.922,5.922,0,0,1,5.033,2.785l.015.024L45.819,56.758h0a1.063,1.063,0,0,1-.914,1.6,1.068,1.068,0,0,1-.916-.523L30.453,34.908a3.843,3.843,0,0,0-6.483-.007L2.724,70.891l-.015.024A3.715,3.715,0,0,0,2.126,72.9,3.839,3.839,0,0,0,3.2,75.545,3.763,3.763,0,0,0,5.957,76.7h42.5a3.76,3.76,0,0,0,2.755-1.157A3.835,3.835,0,0,0,52.292,72.9a3.71,3.71,0,0,0-.585-1.989l-.014-.024-2.842-4.815a1.063,1.063,0,0,1,.914-1.6,1.067,1.067,0,0,1,.916.522L53.519,69.8a5.822,5.822,0,0,1,.458,5.331,5.977,5.977,0,0,1-1.23,1.887,5.838,5.838,0,0,1-1.885,1.315,5.959,5.959,0,0,1-2.391.494Z" transform="translate(0 -31)" fill="#20287a"/>
      <path id="Trazado_99450" data-name="Trazado 99450" d="M93.514,118.2H52.063a1.063,1.063,0,0,1-.915-1.6L71.873,81.522a1.063,1.063,0,0,1,1.83,0L94.429,116.6a1.063,1.063,0,0,1-.915,1.6Zm-39.589-2.126H91.651L72.788,84.152Z" transform="translate(-45.579 -75.686)" fill="#20287a"/>
      <path id="Trazado_99451" data-name="Trazado 99451" d="M229.189,336.377a3.189,3.189,0,1,1,3.189-3.189A3.192,3.192,0,0,1,229.189,336.377Zm0-4.251a1.063,1.063,0,1,0,1.063,1.063A1.064,1.064,0,0,0,229.189,332.126Z" transform="translate(-201.98 -298.221)" fill="#20287a"/>
      <path id="Trazado_99452" data-name="Trazado 99452" d="M229.189,200.073c-1.165,0-1.632-1.352-1.832-1.929a21.213,21.213,0,0,1-.716-2.909,38.9,38.9,0,0,1-.641-5.046,3.189,3.189,0,1,1,6.377,0,38.9,38.9,0,0,1-.641,5.046,21.21,21.21,0,0,1-.716,2.909C230.821,198.721,230.353,200.073,229.189,200.073Zm0-10.947a1.064,1.064,0,0,0-1.063,1.063,36.424,36.424,0,0,0,.5,4.079,26.265,26.265,0,0,0,.562,2.613,26.3,26.3,0,0,0,.562-2.613,36.426,36.426,0,0,0,.5-4.079A1.064,1.064,0,0,0,229.189,189.126Z" transform="translate(-201.98 -170.42)" fill="#20287a"/>
      <circle id="Elipse_3954" data-name="Elipse 3954" cx="1.063" cy="1.063" r="1.063" transform="translate(46.272 29.355)" fill="#20287a"/>
    </g>
  </g>
</svg>
