<svg xmlns="http://www.w3.org/2000/svg" width="47" height="47" viewBox="0 0 47 47">
  <g id="Grupo_53379" data-name="Grupo 53379" transform="translate(-908 -1310)">
    <g id="Trazado_99454" data-name="Trazado 99454" transform="translate(908 1310)" fill="#fff5a2">
      <path d="M 23.5 46 C 20.46208000183105 46 17.51556015014648 45.40523910522461 14.74228954315186 44.23225021362305 C 12.06313037872314 43.09906005859375 9.656780242919922 41.47658920288086 7.590099811553955 39.4099006652832 C 5.523409843444824 37.34321975708008 3.90093994140625 34.93687057495117 2.767750024795532 32.25770950317383 C 1.594759941101074 29.48443984985352 1 26.53791999816895 1 23.5 C 1 20.46208000183105 1.594759941101074 17.51556015014648 2.767750024795532 14.74228954315186 C 3.90093994140625 12.06313037872314 5.523409843444824 9.656780242919922 7.590099811553955 7.590099811553955 C 9.656780242919922 5.523409843444824 12.06313037872314 3.90093994140625 14.74228954315186 2.767750024795532 C 17.51556015014648 1.594759941101074 20.46208000183105 1 23.5 1 C 26.53791999816895 1 29.48443984985352 1.594759941101074 32.25770950317383 2.767750024795532 C 34.93687057495117 3.90093994140625 37.34321975708008 5.523409843444824 39.4099006652832 7.590099811553955 C 41.47658920288086 9.656780242919922 43.09906005859375 12.06313037872314 44.23225021362305 14.74228954315186 C 45.40523910522461 17.51556015014648 46 20.46208000183105 46 23.5 C 46 26.53791999816895 45.40523910522461 29.48443984985352 44.23225021362305 32.25770950317383 C 43.09906005859375 34.93687057495117 41.47658920288086 37.34321975708008 39.4099006652832 39.4099006652832 C 37.34321975708008 41.47658920288086 34.93687057495117 43.09906005859375 32.25770950317383 44.23225021362305 C 29.48443984985352 45.40523910522461 26.53791999816895 46 23.5 46 Z" stroke="none"/>
      <path d="M 23.5 2 C 20.59663963317871 2 17.78117942810059 2.568180084228516 15.13183975219727 3.688758850097656 C 12.57188034057617 4.771530151367188 10.27236938476563 6.322040557861328 8.297199249267578 8.297199249267578 C 6.322040557861328 10.27236938476563 4.771530151367188 12.57188034057617 3.688758850097656 15.13183975219727 C 2.568180084228516 17.78117942810059 2 20.59663963317871 2 23.5 C 2 26.40336036682129 2.568180084228516 29.21882057189941 3.688758850097656 31.86816024780273 C 4.771530151367188 34.42811965942383 6.322040557861328 36.72763061523438 8.297199249267578 38.70280075073242 C 10.27236938476563 40.67795944213867 12.57188034057617 42.22846984863281 15.13183975219727 43.31124114990234 C 17.78117942810059 44.43181991577148 20.59663963317871 45 23.5 45 C 26.40336036682129 45 29.21882057189941 44.43181991577148 31.86816024780273 43.31124114990234 C 34.42811965942383 42.22846984863281 36.72763061523438 40.67795944213867 38.70280075073242 38.70280075073242 C 40.67795944213867 36.72763061523438 42.22846984863281 34.42811965942383 43.31124114990234 31.86816024780273 C 44.43181991577148 29.21882057189941 45 26.40336036682129 45 23.5 C 45 20.59663963317871 44.43181991577148 17.78117942810059 43.31124114990234 15.13183975219727 C 42.22846984863281 12.57188034057617 40.67795944213867 10.27236938476563 38.70280075073242 8.297199249267578 C 36.72763061523438 6.322040557861328 34.42811965942383 4.771530151367188 31.86816024780273 3.688758850097656 C 29.21882057189941 2.568180084228516 26.40336036682129 2 23.5 2 M 23.5 0 C 36.47869110107422 0 47 10.52130889892578 47 23.5 C 47 36.47869110107422 36.47869110107422 47 23.5 47 C 10.52130889892578 47 0 36.47869110107422 0 23.5 C 0 10.52130889892578 10.52130889892578 0 23.5 0 Z" stroke="none" fill="#20287a"/>
    </g>
    <g id="Elipse_3956" data-name="Elipse 3956" transform="translate(914 1316)" fill="#fff" stroke="#20287a" stroke-width="2">
      <circle cx="17.5" cy="17.5" r="17.5" stroke="none"/>
      <circle cx="17.5" cy="17.5" r="16.5" fill="none"/>
    </g>
    <g id="Grupo_53378" data-name="Grupo 53378" transform="translate(934.669 1344.702) rotate(180)">
      <circle id="Elipse_3957" data-name="Elipse 3957" cx="1.932" cy="1.932" r="1.932" transform="translate(1.237 16.357)" fill="#fed947"/>
      <path id="Trazado_99453" data-name="Trazado 99453" d="M4.225,2.113c0,1.167-.946,8.767-2.113,8.767S0,3.279,0,2.113a2.113,2.113,0,0,1,4.225,0Z" transform="translate(1.056 1.056)" fill="#fed947"/>
      <g id="Grupo_53377" data-name="Grupo 53377" transform="translate(0 0)">
        <path id="Trazado_99451" data-name="Trazado 99451" d="M3.169,6.338A3.169,3.169,0,1,1,6.338,3.169,3.172,3.172,0,0,1,3.169,6.338Zm0-4.225A1.056,1.056,0,1,0,4.225,3.169,1.057,1.057,0,0,0,3.169,2.113Z" transform="translate(0 15.105)" fill="#20287a"/>
        <path id="Trazado_99452" data-name="Trazado 99452" d="M3.169,12.992c-1.158,0-1.622-1.343-1.821-1.917A21.078,21.078,0,0,1,.637,8.184,38.658,38.658,0,0,1,0,3.169a3.169,3.169,0,1,1,6.338,0A38.656,38.656,0,0,1,5.7,8.184a21.075,21.075,0,0,1-.712,2.891C4.791,11.649,4.327,12.992,3.169,12.992Zm0-10.88A1.057,1.057,0,0,0,2.113,3.169a36.2,36.2,0,0,0,.5,4.054,26.107,26.107,0,0,0,.558,2.6,26.139,26.139,0,0,0,.558-2.6,36.2,36.2,0,0,0,.5-4.054A1.058,1.058,0,0,0,3.169,2.113Z" transform="translate(0 0)" fill="#20287a"/>
      </g>
    </g>
  </g>
</svg>
