<svg xmlns="http://www.w3.org/2000/svg" width="1228" height="318" viewBox="0 0 1228 318">
  <g id="Grupo_53701" data-name="Grupo 53701" transform="translate(-180 -6131)">
    <rect id="Rectángulo_5101" data-name="Rectángulo 5101" width="1228" height="318" transform="translate(180 6131)" fill="#fed947" opacity="0.15"/>
    <g id="Grupo_53410" data-name="Grupo 53410" transform="translate(0 -20)">
      <path id="Trazado_99456" data-name="Trazado 99456" d="M0,0H268l24,41.8L268,85H0L20,41.8Z" transform="translate(502 6215)" fill="#fed947"/>
      <path id="Trazado_99462" data-name="Trazado 99462" d="M0,0H268l24,41.8L268,85H0L20,41.8Z" transform="translate(502 6320)" fill="#fed947"/>
      <path id="Trazado_99459" data-name="Trazado 99459" d="M0,0H268l24,41.8L268,85H0L20,41.8Z" transform="translate(1086 6215)" fill="#20287a"/>
      <path id="Trazado_99461" data-name="Trazado 99461" d="M0,0H268l24,41.8L268,85H0L20,41.8Z" transform="translate(1086 6320)" fill="#20287a"/>
      <path id="Trazado_99457" data-name="Trazado 99457" d="M0,0H268l24,41.8L268,85H0L20,41.8Z" transform="translate(210 6215)" fill="#97181a"/>
      <path id="Trazado_99463" data-name="Trazado 99463" d="M0,0H268l24,41.8L268,85H0L20,41.8Z" transform="translate(210 6320)" fill="#97181a"/>
      <path id="Trazado_99458" data-name="Trazado 99458" d="M0,0H268l24,41.8L268,85H0L20,41.8Z" transform="translate(794 6215)" fill="#d64626"/>
      <path id="Trazado_99460" data-name="Trazado 99460" d="M0,0H268l24,41.8L268,85H0L20,41.8Z" transform="translate(794 6320)" fill="#d64626"/>
      <path id="Trazado_99915" data-name="Trazado 99915" d="M11.332-7.3H5.32v4.254h7.207V0H1.359V-17.062h11.18v3.047H5.32v3.668h6.012Zm8.391,4.5A1.549,1.549,0,0,0,20.93-3.24a1.831,1.831,0,0,0,.4-1.271h3.609l.023.07a4.163,4.163,0,0,1-1.436,3.381,5.539,5.539,0,0,1-3.8,1.307,5.61,5.61,0,0,1-4.459-1.787A6.815,6.815,0,0,1,13.7-6.2v-.27a6.836,6.836,0,0,1,1.559-4.652A5.568,5.568,0,0,1,19.7-12.914a5.454,5.454,0,0,1,3.861,1.342,4.628,4.628,0,0,1,1.4,3.674l-.023.07H21.328a2.454,2.454,0,0,0-.41-1.471A1.406,1.406,0,0,0,19.7-9.867a1.628,1.628,0,0,0-1.6.92,5.689,5.689,0,0,0-.451,2.479v.27A5.668,5.668,0,0,0,18.1-3.7,1.653,1.653,0,0,0,19.723-2.8Zm6.328-3.656a6.7,6.7,0,0,1,1.617-4.658,5.755,5.755,0,0,1,4.512-1.8,5.77,5.77,0,0,1,4.523,1.8A6.7,6.7,0,0,1,38.32-6.457v.246A6.7,6.7,0,0,1,36.7-1.547,5.75,5.75,0,0,1,32.2.246a5.794,5.794,0,0,1-4.535-1.793,6.7,6.7,0,0,1-1.617-4.664Zm3.961.246a5.242,5.242,0,0,0,.5,2.5A1.772,1.772,0,0,0,32.2-2.8a1.751,1.751,0,0,0,1.664-.914,5.2,5.2,0,0,0,.5-2.5v-.246a5.216,5.216,0,0,0-.5-2.479,1.765,1.765,0,0,0-1.687-.932,1.74,1.74,0,0,0-1.67.938,5.275,5.275,0,0,0-.5,2.473Zm13.7-6.469.152,1.781A4.591,4.591,0,0,1,45.4-12.381a3.972,3.972,0,0,1,2.039-.533,3.575,3.575,0,0,1,2.912,1.266A6.261,6.261,0,0,1,51.4-7.629V0H47.438V-7.641a2.906,2.906,0,0,0-.387-1.717,1.326,1.326,0,0,0-1.125-.51,2.784,2.784,0,0,0-1.137.223,2.27,2.27,0,0,0-.844.633V0H40V-12.68Zm9.316,6.223a6.7,6.7,0,0,1,1.617-4.658,5.755,5.755,0,0,1,4.512-1.8,5.77,5.77,0,0,1,4.523,1.8A6.7,6.7,0,0,1,65.3-6.457v.246A6.7,6.7,0,0,1,63.68-1.547,5.75,5.75,0,0,1,59.18.246a5.794,5.794,0,0,1-4.535-1.793,6.7,6.7,0,0,1-1.617-4.664Zm3.961.246a5.242,5.242,0,0,0,.5,2.5A1.772,1.772,0,0,0,59.18-2.8a1.751,1.751,0,0,0,1.664-.914,5.2,5.2,0,0,0,.5-2.5v-.246a5.216,5.216,0,0,0-.5-2.479,1.765,1.765,0,0,0-1.687-.932,1.74,1.74,0,0,0-1.67.938,5.275,5.275,0,0,0-.5,2.473ZM70.77-12.68,70.91-11a4.194,4.194,0,0,1,1.506-1.412,4.255,4.255,0,0,1,2.08-.5,3.876,3.876,0,0,1,2.039.516,3.169,3.169,0,0,1,1.289,1.57,4.256,4.256,0,0,1,1.506-1.541,4.14,4.14,0,0,1,2.15-.545,3.521,3.521,0,0,1,2.912,1.33,6.52,6.52,0,0,1,1.061,4.1V0H81.48V-7.488A3.293,3.293,0,0,0,81.1-9.357a1.335,1.335,0,0,0-1.143-.51,2.372,2.372,0,0,0-1.014.205,2.138,2.138,0,0,0-.744.568q0,.2.012.346t.012.287V0H74.262V-7.488a3.332,3.332,0,0,0-.375-1.875,1.351,1.351,0,0,0-1.16-.5,2.286,2.286,0,0,0-.979.205A2.138,2.138,0,0,0,71-9.094V0H67.043V-12.68ZM92,0H88.031V-12.68H92ZM90.492-17.859H94.84l.023.07L91.57-14.742H88.078ZM101.883-.012a4.784,4.784,0,0,1-.381-.9,6.918,6.918,0,0,1-.24-1.055A4.845,4.845,0,0,1,99.99-.357a3.069,3.069,0,0,1-1.975.6,4.39,4.39,0,0,1-3.1-1.025,3.622,3.622,0,0,1-1.107-2.795,3.38,3.38,0,0,1,1.418-2.912,7.351,7.351,0,0,1,4.3-1.025h1.629v-.9a1.806,1.806,0,0,0-.387-1.242,1.506,1.506,0,0,0-1.184-.434,1.428,1.428,0,0,0-1.025.322,1.337,1.337,0,0,0-.334,1l-3.844-.012-.023-.07a3.307,3.307,0,0,1,1.447-2.9,6.485,6.485,0,0,1,4.037-1.166,5.905,5.905,0,0,1,3.814,1.172,4.05,4.05,0,0,1,1.459,3.352v4.781a9.754,9.754,0,0,0,.17,1.875A10.041,10.041,0,0,0,105.8,0ZM99.094-2.578a2.413,2.413,0,0,0,1.283-.34,1.945,1.945,0,0,0,.779-.809V-5.4H99.563a1.791,1.791,0,0,0-1.371.457,1.644,1.644,0,0,0-.422,1.16,1.122,1.122,0,0,0,.369.873A1.369,1.369,0,0,0,99.094-2.578Z" transform="translate(300 6266)" fill="#fff"/>
      <path id="Trazado_99914" data-name="Trazado 99914" d="M11.332-7.3H5.32v4.254h7.207V0H1.359V-17.062h11.18v3.047H5.32v3.668h6.012ZM15.422,0V-9.937h-1.84V-12.68h1.84v-.609a4.867,4.867,0,0,1,1.559-3.885,6.551,6.551,0,0,1,4.43-1.354,10.983,10.983,0,0,1,1.957.176q.973.176,2.168.5L25-14.73q-1.008-.258-1.682-.387a9.089,9.089,0,0,0-1.67-.129,2.477,2.477,0,0,0-1.676.51,1.815,1.815,0,0,0-.586,1.447v.609h2.484v2.742H19.383V0Zm11.93,0H23.379V-12.68h3.973ZM35.2-2.8A1.549,1.549,0,0,0,36.41-3.24a1.831,1.831,0,0,0,.4-1.271h3.609l.023.07a4.163,4.163,0,0,1-1.436,3.381A5.539,5.539,0,0,1,35.2.246a5.61,5.61,0,0,1-4.459-1.787A6.815,6.815,0,0,1,29.18-6.2v-.27a6.836,6.836,0,0,1,1.559-4.652,5.568,5.568,0,0,1,4.441-1.793,5.454,5.454,0,0,1,3.861,1.342,4.628,4.628,0,0,1,1.4,3.674l-.023.07H36.809A2.454,2.454,0,0,0,36.4-9.3a1.406,1.406,0,0,0-1.219-.568,1.628,1.628,0,0,0-1.6.92,5.689,5.689,0,0,0-.451,2.479v.27a5.668,5.668,0,0,0,.451,2.5A1.653,1.653,0,0,0,35.2-2.8Zm11,2.8H42.234V-12.68h3.973Zm0-15.621H42.234v-2.66h3.973ZM54.258.246A5.887,5.887,0,0,1,49.74-1.5a6.209,6.209,0,0,1-1.635-4.418v-.445A7.1,7.1,0,0,1,49.646-11.1a5.474,5.474,0,0,1,4.459-1.816,5.135,5.135,0,0,1,3.979,1.535A5.976,5.976,0,0,1,59.5-7.172V-5.1H52.23l-.023.07a2.462,2.462,0,0,0,.738,1.611A2.578,2.578,0,0,0,54.8-2.8a8.025,8.025,0,0,0,1.893-.187,11.93,11.93,0,0,0,1.729-.6l.949,2.414a7.248,7.248,0,0,1-2.2,1.008A10.167,10.167,0,0,1,54.258.246ZM54.105-9.867a1.634,1.634,0,0,0-1.4.6,3.028,3.028,0,0,0-.521,1.635l.023.059h3.422v-.3a2.635,2.635,0,0,0-.346-1.488A1.325,1.325,0,0,0,54.105-9.867ZM64.816-12.68l.152,1.781A4.591,4.591,0,0,1,66.5-12.381a3.972,3.972,0,0,1,2.039-.533,3.575,3.575,0,0,1,2.912,1.266A6.261,6.261,0,0,1,72.5-7.629V0H68.543V-7.641a2.906,2.906,0,0,0-.387-1.717,1.326,1.326,0,0,0-1.125-.51,2.784,2.784,0,0,0-1.137.223,2.27,2.27,0,0,0-.844.633V0H61.1V-12.68ZM80.086-2.8a1.549,1.549,0,0,0,1.207-.439,1.831,1.831,0,0,0,.4-1.271H85.3l.023.07a4.163,4.163,0,0,1-1.436,3.381,5.539,5.539,0,0,1-3.8,1.307,5.61,5.61,0,0,1-4.459-1.787A6.815,6.815,0,0,1,74.063-6.2v-.27a6.836,6.836,0,0,1,1.559-4.652,5.568,5.568,0,0,1,4.441-1.793,5.454,5.454,0,0,1,3.861,1.342,4.628,4.628,0,0,1,1.4,3.674l-.023.07H81.691a2.454,2.454,0,0,0-.41-1.471,1.406,1.406,0,0,0-1.219-.568,1.628,1.628,0,0,0-1.6.92,5.689,5.689,0,0,0-.451,2.479v.27a5.668,5.668,0,0,0,.451,2.5A1.653,1.653,0,0,0,80.086-2.8Zm11,2.8H87.117V-12.68H91.09Zm0-15.621H87.117v-2.66H91.09ZM100.84-.012a4.784,4.784,0,0,1-.381-.9,6.918,6.918,0,0,1-.24-1.055A4.845,4.845,0,0,1,98.947-.357a3.069,3.069,0,0,1-1.975.6,4.39,4.39,0,0,1-3.1-1.025,3.622,3.622,0,0,1-1.107-2.795,3.38,3.38,0,0,1,1.418-2.912,7.351,7.351,0,0,1,4.3-1.025h1.629v-.9a1.806,1.806,0,0,0-.387-1.242,1.506,1.506,0,0,0-1.184-.434,1.428,1.428,0,0,0-1.025.322,1.337,1.337,0,0,0-.334,1L93.34-8.777l-.023-.07a3.307,3.307,0,0,1,1.447-2.9A6.485,6.485,0,0,1,98.8-12.914a5.905,5.905,0,0,1,3.814,1.172,4.05,4.05,0,0,1,1.459,3.352v4.781a9.754,9.754,0,0,0,.17,1.875A10.041,10.041,0,0,0,104.754,0ZM98.051-2.578a2.413,2.413,0,0,0,1.283-.34,1.945,1.945,0,0,0,.779-.809V-5.4H98.52a1.791,1.791,0,0,0-1.371.457,1.644,1.644,0,0,0-.422,1.16,1.122,1.122,0,0,0,.369.873A1.369,1.369,0,0,0,98.051-2.578Z" transform="translate(588 6266)" fill="#12263f"/>
      <path id="Trazado_99919" data-name="Trazado 99919" d="M11.332-7.3H5.32v4.254h7.207V0H1.359V-17.062h11.18v3.047H5.32v3.668h6.012ZM15.422,0V-9.937h-1.84V-12.68h1.84v-.609a4.867,4.867,0,0,1,1.559-3.885,6.551,6.551,0,0,1,4.43-1.354,10.983,10.983,0,0,1,1.957.176q.973.176,2.168.5L25-14.73q-1.008-.258-1.682-.387a9.089,9.089,0,0,0-1.67-.129,2.477,2.477,0,0,0-1.676.51,1.815,1.815,0,0,0-.586,1.447v.609h2.484v2.742H19.383V0Zm11.93,0H23.379V-12.68h3.973ZM35.2-2.8A1.549,1.549,0,0,0,36.41-3.24a1.831,1.831,0,0,0,.4-1.271h3.609l.023.07a4.163,4.163,0,0,1-1.436,3.381A5.539,5.539,0,0,1,35.2.246a5.61,5.61,0,0,1-4.459-1.787A6.815,6.815,0,0,1,29.18-6.2v-.27a6.836,6.836,0,0,1,1.559-4.652,5.568,5.568,0,0,1,4.441-1.793,5.454,5.454,0,0,1,3.861,1.342,4.628,4.628,0,0,1,1.4,3.674l-.023.07H36.809A2.454,2.454,0,0,0,36.4-9.3a1.406,1.406,0,0,0-1.219-.568,1.628,1.628,0,0,0-1.6.92,5.689,5.689,0,0,0-.451,2.479v.27a5.668,5.668,0,0,0,.451,2.5A1.653,1.653,0,0,0,35.2-2.8ZM49.383-.012A4.784,4.784,0,0,1,49-.914a6.918,6.918,0,0,1-.24-1.055A4.845,4.845,0,0,1,47.49-.357a3.069,3.069,0,0,1-1.975.6,4.39,4.39,0,0,1-3.1-1.025,3.622,3.622,0,0,1-1.107-2.795,3.38,3.38,0,0,1,1.418-2.912,7.351,7.351,0,0,1,4.3-1.025h1.629v-.9a1.806,1.806,0,0,0-.387-1.242,1.506,1.506,0,0,0-1.184-.434,1.428,1.428,0,0,0-1.025.322,1.337,1.337,0,0,0-.334,1l-3.844-.012-.023-.07a3.307,3.307,0,0,1,1.447-2.9,6.485,6.485,0,0,1,4.037-1.166,5.905,5.905,0,0,1,3.814,1.172,4.05,4.05,0,0,1,1.459,3.352v4.781a9.754,9.754,0,0,0,.17,1.875A10.041,10.041,0,0,0,53.3,0ZM46.594-2.578a2.413,2.413,0,0,0,1.283-.34,1.945,1.945,0,0,0,.779-.809V-5.4H47.063a1.791,1.791,0,0,0-1.371.457,1.644,1.644,0,0,0-.422,1.16,1.122,1.122,0,0,0,.369.873A1.369,1.369,0,0,0,46.594-2.578ZM60.211-2.8a1.549,1.549,0,0,0,1.207-.439,1.831,1.831,0,0,0,.4-1.271h3.609l.023.07a4.163,4.163,0,0,1-1.436,3.381,5.539,5.539,0,0,1-3.8,1.307,5.61,5.61,0,0,1-4.459-1.787A6.815,6.815,0,0,1,54.188-6.2v-.27a6.836,6.836,0,0,1,1.559-4.652,5.568,5.568,0,0,1,4.441-1.793,5.454,5.454,0,0,1,3.861,1.342,4.628,4.628,0,0,1,1.4,3.674l-.023.07H61.816a2.454,2.454,0,0,0-.41-1.471,1.406,1.406,0,0,0-1.219-.568,1.628,1.628,0,0,0-1.6.92,5.689,5.689,0,0,0-.451,2.479v.27a5.668,5.668,0,0,0,.451,2.5A1.653,1.653,0,0,0,60.211-2.8Zm11,2.8H67.242V-12.68h3.973Zm0-15.621H67.242v-2.66h3.973ZM80.965-.012a4.784,4.784,0,0,1-.381-.9,6.918,6.918,0,0,1-.24-1.055A4.845,4.845,0,0,1,79.072-.357a3.069,3.069,0,0,1-1.975.6A4.39,4.39,0,0,1,74-.779a3.622,3.622,0,0,1-1.107-2.795,3.38,3.38,0,0,1,1.418-2.912,7.351,7.351,0,0,1,4.3-1.025h1.629v-.9a1.806,1.806,0,0,0-.387-1.242,1.506,1.506,0,0,0-1.184-.434,1.428,1.428,0,0,0-1.025.322,1.337,1.337,0,0,0-.334,1l-3.844-.012-.023-.07a3.307,3.307,0,0,1,1.447-2.9,6.485,6.485,0,0,1,4.037-1.166,5.905,5.905,0,0,1,3.814,1.172A4.05,4.05,0,0,1,84.2-8.391v4.781a9.754,9.754,0,0,0,.17,1.875A10.041,10.041,0,0,0,84.879,0ZM78.176-2.578a2.413,2.413,0,0,0,1.283-.34,1.945,1.945,0,0,0,.779-.809V-5.4H78.645a1.791,1.791,0,0,0-1.371.457,1.644,1.644,0,0,0-.422,1.16,1.122,1.122,0,0,0,.369.873A1.369,1.369,0,0,0,78.176-2.578Z" transform="translate(901 6266)" fill="#fff"/>
      <path id="Trazado_99920" data-name="Trazado 99920" d="M11.332-7.3H5.32v4.254h7.207V0H1.359V-17.062h11.18v3.047H5.32v3.668h6.012ZM15.164,0V-9.937H13.336V-12.68h1.828v-1.312a4.277,4.277,0,0,1,1.313-3.357,5.374,5.374,0,0,1,3.715-1.178,6.664,6.664,0,0,1,.92.064q.463.064,1.037.182l-.293,2.918q-.328-.059-.574-.088a5.166,5.166,0,0,0-.6-.029,1.583,1.583,0,0,0-1.148.387,1.465,1.465,0,0,0-.4,1.1v1.313h2.508v2.742H19.137V0Zm13.09.246A5.887,5.887,0,0,1,23.736-1.5,6.209,6.209,0,0,1,22.1-5.918v-.445A7.1,7.1,0,0,1,23.643-11.1,5.474,5.474,0,0,1,28.1-12.914a5.135,5.135,0,0,1,3.979,1.535,5.976,5.976,0,0,1,1.412,4.207V-5.1H26.227l-.023.07a2.462,2.462,0,0,0,.738,1.611,2.578,2.578,0,0,0,1.852.615,8.025,8.025,0,0,0,1.893-.187,11.93,11.93,0,0,0,1.729-.6l.949,2.414a7.248,7.248,0,0,1-2.2,1.008A10.167,10.167,0,0,1,28.254.246ZM28.1-9.867a1.634,1.634,0,0,0-1.4.6,3.028,3.028,0,0,0-.521,1.635l.023.059h3.422v-.3a2.635,2.635,0,0,0-.346-1.488A1.325,1.325,0,0,0,28.1-9.867ZM40.594-2.8A1.549,1.549,0,0,0,41.8-3.24a1.831,1.831,0,0,0,.4-1.271h3.609l.023.07A4.163,4.163,0,0,1,44.4-1.061a5.539,5.539,0,0,1-3.8,1.307,5.61,5.61,0,0,1-4.459-1.787A6.815,6.815,0,0,1,34.57-6.2v-.27a6.836,6.836,0,0,1,1.559-4.652,5.568,5.568,0,0,1,4.441-1.793,5.454,5.454,0,0,1,3.861,1.342,4.628,4.628,0,0,1,1.4,3.674l-.023.07H42.2a2.454,2.454,0,0,0-.41-1.471,1.406,1.406,0,0,0-1.219-.568,1.628,1.628,0,0,0-1.6.92,5.689,5.689,0,0,0-.451,2.479v.27a5.668,5.668,0,0,0,.451,2.5A1.653,1.653,0,0,0,40.594-2.8ZM52-15.832v3.152h2v2.742H52v5.813a1.422,1.422,0,0,0,.275.979.962.962,0,0,0,.744.3,3.981,3.981,0,0,0,.486-.023,4.21,4.21,0,0,0,.463-.094l.27,2.93a9.562,9.562,0,0,1-1.078.217A8.683,8.683,0,0,1,52.02.246,3.959,3.959,0,0,1,49.049-.8a4.6,4.6,0,0,1-1.014-3.3V-9.937h-1.77V-12.68h1.77v-3.152ZM60.07,0H56.1V-12.68H60.07Zm0-15.621H56.1v-2.66H60.07ZM67.242-5.227l.234,1.348.07.012L67.8-5.227,69.48-12.68h4.16L69.516,0H65.5L61.371-12.68h4.172ZM78.984,0H75.012V-12.68h3.973Zm0-15.621H75.012v-2.66h3.973Zm1.9,9.3A8.063,8.063,0,0,1,82.178-11.1a4.222,4.222,0,0,1,3.65-1.816,3.148,3.148,0,0,1,1.588.4,4.2,4.2,0,0,1,1.271,1.154v-6.926h3.961V0H89.18l-.27-1.547a4.263,4.263,0,0,1-1.342,1.33A3.348,3.348,0,0,1,85.8.246a4.262,4.262,0,0,1-3.633-1.734A7.5,7.5,0,0,1,80.883-6.07Zm3.961.246a5.265,5.265,0,0,0,.451,2.408,1.577,1.577,0,0,0,1.518.861,2.5,2.5,0,0,0,1.1-.229,1.963,1.963,0,0,0,.779-.674V-8.824a2.157,2.157,0,0,0-.773-.773,2.124,2.124,0,0,0-1.078-.27,1.581,1.581,0,0,0-1.523.973,5.987,5.987,0,0,0-.469,2.578ZM102.223-.012a4.784,4.784,0,0,1-.381-.9,6.918,6.918,0,0,1-.24-1.055A4.845,4.845,0,0,1,100.33-.357a3.069,3.069,0,0,1-1.975.6,4.39,4.39,0,0,1-3.1-1.025,3.622,3.622,0,0,1-1.107-2.795,3.38,3.38,0,0,1,1.418-2.912,7.351,7.351,0,0,1,4.3-1.025H101.5v-.9a1.806,1.806,0,0,0-.387-1.242,1.506,1.506,0,0,0-1.184-.434,1.428,1.428,0,0,0-1.025.322,1.337,1.337,0,0,0-.334,1l-3.844-.012-.023-.07a3.307,3.307,0,0,1,1.447-2.9,6.485,6.485,0,0,1,4.037-1.166A5.905,5.905,0,0,1,104-11.742a4.05,4.05,0,0,1,1.459,3.352v4.781a9.754,9.754,0,0,0,.17,1.875A10.041,10.041,0,0,0,106.137,0ZM99.434-2.578a2.413,2.413,0,0,0,1.283-.34,1.945,1.945,0,0,0,.779-.809V-5.4H99.9a1.791,1.791,0,0,0-1.371.457,1.644,1.644,0,0,0-.422,1.16,1.122,1.122,0,0,0,.369.873A1.369,1.369,0,0,0,99.434-2.578ZM107.1-6.316a8.063,8.063,0,0,1,1.295-4.781,4.222,4.222,0,0,1,3.65-1.816,3.148,3.148,0,0,1,1.588.4,4.2,4.2,0,0,1,1.271,1.154v-6.926h3.961V0h-3.469l-.27-1.547a4.263,4.263,0,0,1-1.342,1.33,3.348,3.348,0,0,1-1.764.463,4.262,4.262,0,0,1-3.633-1.734A7.5,7.5,0,0,1,107.1-6.07Zm3.961.246a5.265,5.265,0,0,0,.451,2.408,1.577,1.577,0,0,0,1.518.861,2.5,2.5,0,0,0,1.1-.229A1.963,1.963,0,0,0,114.9-3.7V-8.824a2.157,2.157,0,0,0-.773-.773,2.124,2.124,0,0,0-1.078-.27,1.581,1.581,0,0,0-1.523.973,5.987,5.987,0,0,0-.469,2.578Z" transform="translate(1177 6266)" fill="#fff"/>
      <path id="Trazado_99916" data-name="Trazado 99916" d="M14.461-5.754l.023.07A5.484,5.484,0,0,1,12.838-1.26,6.984,6.984,0,0,1,8.039.246a6.832,6.832,0,0,1-5.08-1.934A6.881,6.881,0,0,1,1.043-6.75v-3.562a7.033,7.033,0,0,1,1.846-5.057A6.425,6.425,0,0,1,7.77-17.309,7.522,7.522,0,0,1,12.791-15.8,5.329,5.329,0,0,1,14.52-11.4l-.035.07H10.629a3.136,3.136,0,0,0-.668-2.25,2.98,2.98,0,0,0-2.191-.68,2.317,2.317,0,0,0-2.051,1.072A5.07,5.07,0,0,0,5-10.336V-6.75a4.772,4.772,0,0,0,.785,2.871A2.615,2.615,0,0,0,8.039-2.8,2.505,2.505,0,0,0,10-3.48a3.408,3.408,0,0,0,.6-2.273Zm1.453-.7a6.7,6.7,0,0,1,1.617-4.658,5.755,5.755,0,0,1,4.512-1.8,5.77,5.77,0,0,1,4.523,1.8,6.7,6.7,0,0,1,1.617,4.658v.246a6.7,6.7,0,0,1-1.617,4.664,5.75,5.75,0,0,1-4.5,1.793,5.794,5.794,0,0,1-4.535-1.793,6.7,6.7,0,0,1-1.617-4.664Zm3.961.246a5.242,5.242,0,0,0,.5,2.5,1.772,1.772,0,0,0,1.693.908,1.751,1.751,0,0,0,1.664-.914,5.2,5.2,0,0,0,.5-2.5v-.246a5.216,5.216,0,0,0-.5-2.479,1.765,1.765,0,0,0-1.687-.932,1.74,1.74,0,0,0-1.67.938,5.275,5.275,0,0,0-.5,2.473ZM36.539-3.562a1.034,1.034,0,0,0-.533-.838,5.75,5.75,0,0,0-1.939-.662A7.656,7.656,0,0,1,30.727-6.4a3.04,3.04,0,0,1-1.125-2.5,3.565,3.565,0,0,1,1.406-2.842,5.784,5.784,0,0,1,3.809-1.166,6.54,6.54,0,0,1,4.031,1.131,3.325,3.325,0,0,1,1.43,2.924l-.023.07H36.41a1.57,1.57,0,0,0-.375-1.137,1.659,1.659,0,0,0-1.23-.387,1.609,1.609,0,0,0-1.043.34,1.065,1.065,0,0,0-.422.867,1.032,1.032,0,0,0,.486.855,5.5,5.5,0,0,0,1.963.633,7.885,7.885,0,0,1,3.445,1.365A3.131,3.131,0,0,1,40.348-3.68,3.358,3.358,0,0,1,38.83-.861,6.656,6.656,0,0,1,34.816.246a6.019,6.019,0,0,1-4.1-1.312A3.616,3.616,0,0,1,29.285-4l.023-.07h3.586a1.59,1.59,0,0,0,.545,1.3,2.4,2.4,0,0,0,1.482.4,1.979,1.979,0,0,0,1.207-.311A1.044,1.044,0,0,0,36.539-3.562Zm10.219-12.27v3.152h2v2.742h-2v5.813a1.422,1.422,0,0,0,.275.979.962.962,0,0,0,.744.3,3.981,3.981,0,0,0,.486-.023,4.21,4.21,0,0,0,.463-.094L49-.035a9.562,9.562,0,0,1-1.078.217,8.683,8.683,0,0,1-1.137.064A3.959,3.959,0,0,1,43.811-.8,4.6,4.6,0,0,1,42.8-4.1V-9.937h-1.77V-12.68H42.8v-3.152Zm3.4,9.375a6.7,6.7,0,0,1,1.617-4.658,5.755,5.755,0,0,1,4.512-1.8,5.77,5.77,0,0,1,4.523,1.8,6.7,6.7,0,0,1,1.617,4.658v.246a6.7,6.7,0,0,1-1.617,4.664,5.75,5.75,0,0,1-4.5,1.793,5.794,5.794,0,0,1-4.535-1.793,6.7,6.7,0,0,1-1.617-4.664Zm3.961.246a5.242,5.242,0,0,0,.5,2.5,1.772,1.772,0,0,0,1.693.908,1.751,1.751,0,0,0,1.664-.914,5.2,5.2,0,0,0,.5-2.5v-.246a5.216,5.216,0,0,0-.5-2.479,1.765,1.765,0,0,0-1.687-.932,1.74,1.74,0,0,0-1.67.938,5.275,5.275,0,0,0-.5,2.473Z" transform="translate(325 6371)" fill="#fff"/>
      <path id="Trazado_99917" data-name="Trazado 99917" d="M5.32-6.539V0H1.359V-17.062H7.3A7.376,7.376,0,0,1,12-15.691a4.521,4.521,0,0,1,1.734,3.75,3.734,3.734,0,0,1-.7,2.273A4.944,4.944,0,0,1,10.98-8.121a3.818,3.818,0,0,1,2.256,1.482,4.588,4.588,0,0,1,.686,2.584v1.078a6.8,6.8,0,0,0,.2,1.523,2.016,2.016,0,0,0,.691,1.219V0h-4.09a1.917,1.917,0,0,1-.609-1.277A11.356,11.356,0,0,1,9.973-3V-4.031a2.523,2.523,0,0,0-.645-1.863,2.557,2.557,0,0,0-1.887-.645Zm0-3.047h2a2.725,2.725,0,0,0,1.828-.545A1.952,1.952,0,0,0,9.785-11.7a2.251,2.251,0,0,0-.65-1.682A2.507,2.507,0,0,0,7.3-14.016H5.32ZM22.055.246A5.887,5.887,0,0,1,17.537-1.5,6.209,6.209,0,0,1,15.9-5.918v-.445A7.1,7.1,0,0,1,17.443-11.1,5.474,5.474,0,0,1,21.9-12.914a5.135,5.135,0,0,1,3.979,1.535,5.976,5.976,0,0,1,1.412,4.207V-5.1H20.027L20-5.027a2.462,2.462,0,0,0,.738,1.611,2.578,2.578,0,0,0,1.852.615,8.025,8.025,0,0,0,1.893-.187,11.93,11.93,0,0,0,1.729-.6l.949,2.414a7.249,7.249,0,0,1-2.2,1.008A10.167,10.167,0,0,1,22.055.246ZM21.9-9.867a1.634,1.634,0,0,0-1.4.6,3.028,3.028,0,0,0-.521,1.635L20-7.57h3.422v-.3a2.635,2.635,0,0,0-.346-1.488A1.325,1.325,0,0,0,21.9-9.867ZM34.395-2.8A1.549,1.549,0,0,0,35.6-3.24,1.831,1.831,0,0,0,36-4.512h3.609l.023.07A4.163,4.163,0,0,1,38.2-1.061a5.539,5.539,0,0,1-3.8,1.307,5.61,5.61,0,0,1-4.459-1.787A6.815,6.815,0,0,1,28.371-6.2v-.27a6.836,6.836,0,0,1,1.559-4.652,5.568,5.568,0,0,1,4.441-1.793,5.454,5.454,0,0,1,3.861,1.342,4.628,4.628,0,0,1,1.4,3.674l-.023.07H36A2.454,2.454,0,0,0,35.59-9.3a1.406,1.406,0,0,0-1.219-.568,1.628,1.628,0,0,0-1.6.92,5.689,5.689,0,0,0-.451,2.479v.27a5.668,5.668,0,0,0,.451,2.5A1.653,1.653,0,0,0,34.395-2.8Zm14.5.9A4.168,4.168,0,0,1,47.432-.311a3.84,3.84,0,0,1-2.068.557,3.755,3.755,0,0,1-3.088-1.383,6.741,6.741,0,0,1-1.119-4.277V-12.68h3.949v7.289a3.845,3.845,0,0,0,.381,2.039,1.333,1.333,0,0,0,1.178.551,3.233,3.233,0,0,0,1.113-.176A2.151,2.151,0,0,0,48.6-3.5V-12.68h3.961V0H49.371ZM61.746-9.3l-1.289-.012a2.195,2.195,0,0,0-1.113.252,1.554,1.554,0,0,0-.645.709V0H54.738V-12.68h3.727l.141,1.863a3.823,3.823,0,0,1,1.055-1.547,2.315,2.315,0,0,1,1.535-.551,2.945,2.945,0,0,1,.48.035,3.634,3.634,0,0,1,.445.105Zm8.063,5.742a1.034,1.034,0,0,0-.533-.838,5.75,5.75,0,0,0-1.939-.662A7.656,7.656,0,0,1,64-6.4a3.04,3.04,0,0,1-1.125-2.5,3.565,3.565,0,0,1,1.406-2.842,5.784,5.784,0,0,1,3.809-1.166,6.54,6.54,0,0,1,4.031,1.131,3.325,3.325,0,0,1,1.43,2.924l-.023.07H69.68A1.57,1.57,0,0,0,69.3-9.926a1.659,1.659,0,0,0-1.23-.387,1.609,1.609,0,0,0-1.043.34,1.065,1.065,0,0,0-.422.867,1.032,1.032,0,0,0,.486.855,5.5,5.5,0,0,0,1.963.633A7.885,7.885,0,0,1,72.5-6.252,3.131,3.131,0,0,1,73.617-3.68,3.358,3.358,0,0,1,72.1-.861,6.656,6.656,0,0,1,68.086.246a6.019,6.019,0,0,1-4.1-1.312A3.616,3.616,0,0,1,62.555-4l.023-.07h3.586a1.59,1.59,0,0,0,.545,1.3,2.4,2.4,0,0,0,1.482.4A1.979,1.979,0,0,0,69.4-2.678,1.044,1.044,0,0,0,69.809-3.562Zm5.145-2.895a6.7,6.7,0,0,1,1.617-4.658,5.755,5.755,0,0,1,4.512-1.8,5.77,5.77,0,0,1,4.523,1.8,6.7,6.7,0,0,1,1.617,4.658v.246a6.7,6.7,0,0,1-1.617,4.664,5.75,5.75,0,0,1-4.5,1.793A5.794,5.794,0,0,1,76.57-1.547a6.7,6.7,0,0,1-1.617-4.664Zm3.961.246a5.242,5.242,0,0,0,.5,2.5,1.772,1.772,0,0,0,1.693.908,1.751,1.751,0,0,0,1.664-.914,5.2,5.2,0,0,0,.5-2.5v-.246a5.216,5.216,0,0,0-.5-2.479,1.765,1.765,0,0,0-1.687-.932,1.74,1.74,0,0,0-1.67.938,5.275,5.275,0,0,0-.5,2.473ZM95.578-3.562a1.034,1.034,0,0,0-.533-.838,5.75,5.75,0,0,0-1.939-.662A7.656,7.656,0,0,1,89.766-6.4a3.04,3.04,0,0,1-1.125-2.5,3.565,3.565,0,0,1,1.406-2.842,5.784,5.784,0,0,1,3.809-1.166,6.54,6.54,0,0,1,4.031,1.131,3.325,3.325,0,0,1,1.43,2.924l-.023.07H95.449a1.57,1.57,0,0,0-.375-1.137,1.659,1.659,0,0,0-1.23-.387,1.609,1.609,0,0,0-1.043.34,1.065,1.065,0,0,0-.422.867,1.032,1.032,0,0,0,.486.855,5.5,5.5,0,0,0,1.963.633,7.885,7.885,0,0,1,3.445,1.365A3.131,3.131,0,0,1,99.387-3.68,3.358,3.358,0,0,1,97.869-.861,6.656,6.656,0,0,1,93.855.246a6.019,6.019,0,0,1-4.1-1.312A3.616,3.616,0,0,1,88.324-4l.023-.07h3.586a1.59,1.59,0,0,0,.545,1.3,2.4,2.4,0,0,0,1.482.4,1.979,1.979,0,0,0,1.207-.311A1.044,1.044,0,0,0,95.578-3.562Z" transform="translate(591 6371)" fill="#12263f"/>
      <path id="Trazado_99918" data-name="Trazado 99918" d="M5.32-5.848V0H1.359V-17.062H7.875a7.093,7.093,0,0,1,4.816,1.547,5.125,5.125,0,0,1,1.781,4.066,5.107,5.107,0,0,1-1.781,4.061A7.11,7.11,0,0,1,7.875-5.848Zm0-3.047H7.875A2.6,2.6,0,0,0,9.844-9.6a2.525,2.525,0,0,0,.68-1.822,2.632,2.632,0,0,0-.674-1.863,2.562,2.562,0,0,0-1.975-.727H5.32ZM23.438-9.3l-1.289-.012a2.195,2.195,0,0,0-1.113.252,1.554,1.554,0,0,0-.645.709V0H16.43V-12.68h3.727l.141,1.863a3.823,3.823,0,0,1,1.055-1.547,2.315,2.315,0,0,1,1.535-.551,2.945,2.945,0,0,1,.48.035,3.634,3.634,0,0,1,.445.105Zm.691,2.848a6.7,6.7,0,0,1,1.617-4.658,5.755,5.755,0,0,1,4.512-1.8,5.77,5.77,0,0,1,4.523,1.8A6.7,6.7,0,0,1,36.4-6.457v.246a6.7,6.7,0,0,1-1.617,4.664,5.75,5.75,0,0,1-4.5,1.793,5.794,5.794,0,0,1-4.535-1.793,6.7,6.7,0,0,1-1.617-4.664Zm3.961.246a5.242,5.242,0,0,0,.5,2.5,1.772,1.772,0,0,0,1.693.908,1.751,1.751,0,0,0,1.664-.914,5.2,5.2,0,0,0,.5-2.5v-.246a5.216,5.216,0,0,0-.5-2.479,1.765,1.765,0,0,0-1.687-.932,1.74,1.74,0,0,0-1.67.938,5.275,5.275,0,0,0-.5,2.473Zm9.527-.105A8.063,8.063,0,0,1,38.912-11.1a4.222,4.222,0,0,1,3.65-1.816,3.148,3.148,0,0,1,1.588.4,4.2,4.2,0,0,1,1.271,1.154v-6.926h3.961V0H45.914l-.27-1.547A4.263,4.263,0,0,1,44.3-.217a3.348,3.348,0,0,1-1.764.463,4.262,4.262,0,0,1-3.633-1.734A7.5,7.5,0,0,1,37.617-6.07Zm3.961.246a5.265,5.265,0,0,0,.451,2.408,1.577,1.577,0,0,0,1.518.861,2.5,2.5,0,0,0,1.1-.229,1.963,1.963,0,0,0,.779-.674V-8.824a2.157,2.157,0,0,0-.773-.773,2.124,2.124,0,0,0-1.078-.27,1.581,1.581,0,0,0-1.523.973,5.987,5.987,0,0,0-.469,2.578ZM59.273-1.9A4.168,4.168,0,0,1,57.814-.311a3.84,3.84,0,0,1-2.068.557,3.755,3.755,0,0,1-3.088-1.383,6.741,6.741,0,0,1-1.119-4.277V-12.68h3.949v7.289a3.845,3.845,0,0,0,.381,2.039,1.333,1.333,0,0,0,1.178.551,3.233,3.233,0,0,0,1.113-.176,2.151,2.151,0,0,0,.82-.527V-12.68h3.961V0H59.754Zm11.273-.9a1.549,1.549,0,0,0,1.207-.439,1.831,1.831,0,0,0,.4-1.271h3.609l.023.07A4.163,4.163,0,0,1,74.35-1.061a5.539,5.539,0,0,1-3.8,1.307,5.61,5.61,0,0,1-4.459-1.787A6.815,6.815,0,0,1,64.523-6.2v-.27a6.836,6.836,0,0,1,1.559-4.652,5.568,5.568,0,0,1,4.441-1.793,5.454,5.454,0,0,1,3.861,1.342,4.628,4.628,0,0,1,1.4,3.674l-.023.07H72.152a2.454,2.454,0,0,0-.41-1.471,1.406,1.406,0,0,0-1.219-.568,1.628,1.628,0,0,0-1.6.92,5.689,5.689,0,0,0-.451,2.479v.27a5.668,5.668,0,0,0,.451,2.5A1.653,1.653,0,0,0,70.547-2.8Zm11.4-13.031v3.152h2v2.742h-2v5.813a1.422,1.422,0,0,0,.275.979.962.962,0,0,0,.744.3,3.981,3.981,0,0,0,.486-.023,4.21,4.21,0,0,0,.463-.094l.27,2.93a9.562,9.562,0,0,1-1.078.217,8.683,8.683,0,0,1-1.137.064A3.959,3.959,0,0,1,79-.8a4.6,4.6,0,0,1-1.014-3.3V-9.937h-1.77V-12.68h1.77v-3.152Zm3.4,9.375a6.7,6.7,0,0,1,1.617-4.658,5.755,5.755,0,0,1,4.512-1.8A5.77,5.77,0,0,1,96-11.115a6.7,6.7,0,0,1,1.617,4.658v.246A6.7,6.7,0,0,1,96-1.547,5.75,5.75,0,0,1,91.5.246a5.794,5.794,0,0,1-4.535-1.793,6.7,6.7,0,0,1-1.617-4.664Zm3.961.246a5.242,5.242,0,0,0,.5,2.5A1.772,1.772,0,0,0,91.5-2.8a1.751,1.751,0,0,0,1.664-.914,5.2,5.2,0,0,0,.5-2.5v-.246a5.216,5.216,0,0,0-.5-2.479,1.765,1.765,0,0,0-1.687-.932,1.74,1.74,0,0,0-1.67.938,5.275,5.275,0,0,0-.5,2.473Zm16.664,2.648a1.034,1.034,0,0,0-.533-.838,5.75,5.75,0,0,0-1.939-.662A7.656,7.656,0,0,1,100.16-6.4a3.04,3.04,0,0,1-1.125-2.5,3.565,3.565,0,0,1,1.406-2.842,5.784,5.784,0,0,1,3.809-1.166,6.54,6.54,0,0,1,4.031,1.131,3.325,3.325,0,0,1,1.43,2.924l-.023.07h-3.844a1.57,1.57,0,0,0-.375-1.137,1.659,1.659,0,0,0-1.23-.387,1.609,1.609,0,0,0-1.043.34,1.065,1.065,0,0,0-.422.867,1.032,1.032,0,0,0,.486.855,5.5,5.5,0,0,0,1.963.633,7.885,7.885,0,0,1,3.445,1.365,3.131,3.131,0,0,1,1.113,2.572,3.358,3.358,0,0,1-1.518,2.818A6.656,6.656,0,0,1,104.25.246a6.019,6.019,0,0,1-4.1-1.312A3.616,3.616,0,0,1,98.719-4l.023-.07h3.586a1.59,1.59,0,0,0,.545,1.3,2.4,2.4,0,0,0,1.482.4,1.979,1.979,0,0,0,1.207-.311A1.044,1.044,0,0,0,105.973-3.562Z" transform="translate(888 6371)" fill="#fff"/>
      <path id="Trazado_99921" data-name="Trazado 99921" d="M5.32-6.539V0H1.359V-17.062H7.3A7.376,7.376,0,0,1,12-15.691a4.521,4.521,0,0,1,1.734,3.75,3.734,3.734,0,0,1-.7,2.273A4.944,4.944,0,0,1,10.98-8.121a3.818,3.818,0,0,1,2.256,1.482,4.588,4.588,0,0,1,.686,2.584v1.078a6.8,6.8,0,0,0,.2,1.523,2.016,2.016,0,0,0,.691,1.219V0h-4.09a1.917,1.917,0,0,1-.609-1.277A11.356,11.356,0,0,1,9.973-3V-4.031a2.523,2.523,0,0,0-.645-1.863,2.557,2.557,0,0,0-1.887-.645Zm0-3.047h2a2.725,2.725,0,0,0,1.828-.545A1.952,1.952,0,0,0,9.785-11.7a2.251,2.251,0,0,0-.65-1.682A2.507,2.507,0,0,0,7.3-14.016H5.32ZM22.055.246A5.887,5.887,0,0,1,17.537-1.5,6.209,6.209,0,0,1,15.9-5.918v-.445A7.1,7.1,0,0,1,17.443-11.1,5.474,5.474,0,0,1,21.9-12.914a5.135,5.135,0,0,1,3.979,1.535,5.976,5.976,0,0,1,1.412,4.207V-5.1H20.027L20-5.027a2.462,2.462,0,0,0,.738,1.611,2.578,2.578,0,0,0,1.852.615,8.025,8.025,0,0,0,1.893-.187,11.93,11.93,0,0,0,1.729-.6l.949,2.414a7.249,7.249,0,0,1-2.2,1.008A10.167,10.167,0,0,1,22.055.246ZM21.9-9.867a1.634,1.634,0,0,0-1.4.6,3.028,3.028,0,0,0-.521,1.635L20-7.57h3.422v-.3a2.635,2.635,0,0,0-.346-1.488A1.325,1.325,0,0,0,21.9-9.867Zm13.676,6.3a1.034,1.034,0,0,0-.533-.838,5.75,5.75,0,0,0-1.939-.662A7.656,7.656,0,0,1,29.766-6.4a3.04,3.04,0,0,1-1.125-2.5,3.565,3.565,0,0,1,1.406-2.842,5.784,5.784,0,0,1,3.809-1.166,6.54,6.54,0,0,1,4.031,1.131,3.325,3.325,0,0,1,1.43,2.924l-.023.07H35.449a1.57,1.57,0,0,0-.375-1.137,1.659,1.659,0,0,0-1.23-.387,1.609,1.609,0,0,0-1.043.34,1.065,1.065,0,0,0-.422.867,1.032,1.032,0,0,0,.486.855,5.5,5.5,0,0,0,1.963.633,7.885,7.885,0,0,1,3.445,1.365A3.131,3.131,0,0,1,39.387-3.68,3.358,3.358,0,0,1,37.869-.861,6.656,6.656,0,0,1,33.855.246a6.019,6.019,0,0,1-4.1-1.312A3.616,3.616,0,0,1,28.324-4l.023-.07h3.586a1.59,1.59,0,0,0,.545,1.3,2.4,2.4,0,0,0,1.482.4,1.979,1.979,0,0,0,1.207-.311A1.044,1.044,0,0,0,35.578-3.562ZM48.891-1.9A4.168,4.168,0,0,1,47.432-.311a3.84,3.84,0,0,1-2.068.557,3.755,3.755,0,0,1-3.088-1.383,6.741,6.741,0,0,1-1.119-4.277V-12.68h3.949v7.289a3.845,3.845,0,0,0,.381,2.039,1.333,1.333,0,0,0,1.178.551,3.233,3.233,0,0,0,1.113-.176A2.151,2.151,0,0,0,48.6-3.5V-12.68h3.961V0H49.371Zm10,1.9H54.914V-18.281h3.973Zm6.973-15.832v3.152h2v2.742h-2v5.813a1.422,1.422,0,0,0,.275.979.962.962,0,0,0,.744.3,3.981,3.981,0,0,0,.486-.023,4.21,4.21,0,0,0,.463-.094l.27,2.93A9.562,9.562,0,0,1,67.02.182a8.683,8.683,0,0,1-1.137.064A3.959,3.959,0,0,1,62.912-.8,4.6,4.6,0,0,1,61.9-4.1V-9.937h-1.77V-12.68H61.9v-3.152ZM77.109-.012a4.784,4.784,0,0,1-.381-.9,6.918,6.918,0,0,1-.24-1.055A4.845,4.845,0,0,1,75.217-.357a3.069,3.069,0,0,1-1.975.6,4.39,4.39,0,0,1-3.1-1.025,3.622,3.622,0,0,1-1.107-2.795,3.38,3.38,0,0,1,1.418-2.912,7.351,7.351,0,0,1,4.3-1.025h1.629v-.9A1.806,1.806,0,0,0,76-9.656a1.506,1.506,0,0,0-1.184-.434,1.428,1.428,0,0,0-1.025.322,1.337,1.337,0,0,0-.334,1l-3.844-.012-.023-.07a3.307,3.307,0,0,1,1.447-2.9,6.485,6.485,0,0,1,4.037-1.166,5.905,5.905,0,0,1,3.814,1.172,4.05,4.05,0,0,1,1.459,3.352v4.781a9.754,9.754,0,0,0,.17,1.875A10.041,10.041,0,0,0,81.023,0ZM74.32-2.578a2.413,2.413,0,0,0,1.283-.34,1.945,1.945,0,0,0,.779-.809V-5.4H74.789a1.791,1.791,0,0,0-1.371.457A1.644,1.644,0,0,0,73-3.785a1.122,1.122,0,0,0,.369.873A1.369,1.369,0,0,0,74.32-2.578Zm7.664-3.738A8.063,8.063,0,0,1,83.279-11.1a4.222,4.222,0,0,1,3.65-1.816,3.148,3.148,0,0,1,1.588.4,4.2,4.2,0,0,1,1.271,1.154v-6.926H93.75V0H90.281l-.27-1.547A4.263,4.263,0,0,1,88.67-.217a3.348,3.348,0,0,1-1.764.463,4.262,4.262,0,0,1-3.633-1.734A7.5,7.5,0,0,1,81.984-6.07Zm3.961.246A5.265,5.265,0,0,0,86.4-3.662a1.577,1.577,0,0,0,1.518.861,2.5,2.5,0,0,0,1.1-.229,1.963,1.963,0,0,0,.779-.674V-8.824a2.157,2.157,0,0,0-.773-.773,2.124,2.124,0,0,0-1.078-.27,1.581,1.581,0,0,0-1.523.973,5.987,5.987,0,0,0-.469,2.578Zm9.527-.387a6.7,6.7,0,0,1,1.617-4.658,5.755,5.755,0,0,1,4.512-1.8,5.77,5.77,0,0,1,4.523,1.8,6.7,6.7,0,0,1,1.617,4.658v.246a6.7,6.7,0,0,1-1.617,4.664,5.75,5.75,0,0,1-4.5,1.793A5.794,5.794,0,0,1,97.09-1.547a6.7,6.7,0,0,1-1.617-4.664Zm3.961.246a5.242,5.242,0,0,0,.5,2.5,1.772,1.772,0,0,0,1.693.908,1.751,1.751,0,0,0,1.664-.914,5.2,5.2,0,0,0,.5-2.5v-.246a5.216,5.216,0,0,0-.5-2.479,1.765,1.765,0,0,0-1.687-.932,1.74,1.74,0,0,0-1.67.938,5.275,5.275,0,0,0-.5,2.473ZM116.1-3.562a1.034,1.034,0,0,0-.533-.838,5.75,5.75,0,0,0-1.939-.662,7.656,7.656,0,0,1-3.34-1.342,3.04,3.04,0,0,1-1.125-2.5,3.565,3.565,0,0,1,1.406-2.842,5.784,5.784,0,0,1,3.809-1.166,6.54,6.54,0,0,1,4.031,1.131,3.325,3.325,0,0,1,1.43,2.924l-.023.07h-3.844a1.57,1.57,0,0,0-.375-1.137,1.659,1.659,0,0,0-1.23-.387,1.609,1.609,0,0,0-1.043.34,1.065,1.065,0,0,0-.422.867,1.032,1.032,0,0,0,.486.855,5.5,5.5,0,0,0,1.963.633,7.885,7.885,0,0,1,3.445,1.365,3.131,3.131,0,0,1,1.113,2.572,3.358,3.358,0,0,1-1.518,2.818A6.656,6.656,0,0,1,114.375.246a6.019,6.019,0,0,1-4.1-1.312A3.616,3.616,0,0,1,108.844-4l.023-.07h3.586a1.59,1.59,0,0,0,.545,1.3,2.4,2.4,0,0,0,1.482.4,1.979,1.979,0,0,0,1.207-.311A1.044,1.044,0,0,0,116.1-3.562Z" transform="translate(1176 6371)" fill="#fff"/>
    </g>
  </g>
</svg>
