<svg id="objetivo_2_" data-name="objetivo (2)" xmlns="http://www.w3.org/2000/svg" width="86.638" height="86.638" viewBox="0 0 86.638 86.638">
  <path id="Trazado_99862" data-name="Trazado 99862" d="M86.638,43.319a43.346,43.346,0,0,1-57.022,41.1,24.939,24.939,0,0,0,.166-2.862A24.708,24.708,0,0,0,2.214,57.022a43.323,43.323,0,1,1,84.424-13.7Z" transform="translate(0 0)" fill="#5f325a"/>
  <path id="Trazado_99863" data-name="Trazado 99863" d="M65.993,126.17q-.006.655-.035,1.3C64.583,157.6,26.1,167.742,8.461,143.288c-2.43-3.368-4.686-6.155-6.074-10.153a43.533,43.533,0,0,1-.843-25.7,34.86,34.86,0,0,1,64.45,18.738Z" transform="translate(0 -75.602)" fill="#463250"/>
  <path id="Trazado_99864" data-name="Trazado 99864" d="M78.717,125.858A34.877,34.877,0,0,1,37.34,160.106,43.423,43.423,0,0,1,9.611,132.377a34.86,34.86,0,1,1,69.106-6.518Z" transform="translate(-7.477 -75.602)" fill="#ffebdc"/>
  <path id="Trazado_99865" data-name="Trazado 99865" d="M191.184,267.092A6.092,6.092,0,1,1,185.092,261,6.092,6.092,0,0,1,191.184,267.092Z" transform="translate(-148.71 -216.835)" fill="#dc325f"/>
  <g id="Grupo_53610" data-name="Grupo 53610" transform="translate(6.599 20.475)">
    <path id="Trazado_99866" data-name="Trazado 99866" d="M126.937,191a17.937,17.937,0,1,0,17.937,17.937A17.937,17.937,0,0,0,126.937,191Zm0,28.726a10.789,10.789,0,1,1,10.789-10.789A10.789,10.789,0,0,1,126.937,219.726Z" transform="translate(-97.155 -179.155)" fill="#ff4b6e"/>
    <path id="Trazado_99867" data-name="Trazado 99867" d="M68.782,121a29.782,29.782,0,1,0,29.782,29.782A29.782,29.782,0,0,0,68.782,121Zm0,52.974a23.192,23.192,0,1,1,23.192-23.192A23.192,23.192,0,0,1,68.782,173.974Z" transform="translate(-39 -121)" fill="#ff4b6e"/>
  </g>
  <path id="Trazado_99868" data-name="Trazado 99868" d="M258.76,14.75,214.771,58.739a8.858,8.858,0,0,1-3.463,2.14h0a.846.846,0,0,1-1.07-1.07,8.861,8.861,0,0,1,2.14-3.463l43.989-43.989a1.692,1.692,0,0,1,2.393,0h0A1.692,1.692,0,0,1,258.76,14.75Z" transform="translate(-174.625 -9.854)" fill="#b9dcff"/>
  <path id="Trazado_99869" data-name="Trazado 99869" d="M271.071,24.04a3.384,3.384,0,0,1,0,4.786L256.712,43.185a3.384,3.384,0,1,1-4.786-4.786L266.285,24.04A3.384,3.384,0,0,1,271.071,24.04ZM294.424,9.994l-6.981-2.327L285.117.687a1,1,0,0,0-1.663-.393l-5.282,5.282a14.535,14.535,0,0,0-3.511,14.874,14.535,14.535,0,0,0,14.874-3.511l5.282-5.282A1,1,0,0,0,294.424,9.994Z" transform="translate(-208.473 0)" fill="#6e96dc"/>
  <path id="Trazado_99870" data-name="Trazado 99870" d="M285.4,20.451h0a14.535,14.535,0,0,1,3.511-14.874L294.195.295a1,1,0,0,1,1.663.393l2.327,6.98ZM263.864,37.2l4.786,4.786,11.965-11.965-4.786-4.786Z" transform="translate(-219.214 0)" fill="#506ea0"/>
</svg>
