<svg id="altavoz" xmlns="http://www.w3.org/2000/svg" width="86.638" height="86.638" viewBox="0 0 86.638 86.638">
  <path id="Trazado_99849" data-name="Trazado 99849" d="M86.638,43.319A43.319,43.319,0,1,1,43.319,0,43.319,43.319,0,0,1,86.638,43.319Z" fill="#7e325f"/>
  <path id="Trazado_99850" data-name="Trazado 99850" d="M136.769,323.537h-5.076A1.692,1.692,0,0,1,130,321.845V311.692A1.692,1.692,0,0,1,131.692,310h5.076a1.692,1.692,0,0,1,1.692,1.692v10.153A1.692,1.692,0,0,1,136.769,323.537Z" transform="translate(-108.002 -257.543)" fill="#c78b00"/>
  <path id="Trazado_99851" data-name="Trazado 99851" d="M195.382,159.395c-.281.009-.563.016-.846.016h0A24.536,24.536,0,0,1,170,134.875v-.338A24.536,24.536,0,0,1,194.536,110h0c.283,0,.565.007.846.016Z" transform="translate(-141.233 -91.386)" fill="#ebb410"/>
  <path id="Trazado_99852" data-name="Trazado 99852" d="M244.381,145.228a1.269,1.269,0,1,1,0,2.538H210.538a1.269,1.269,0,0,1,0-2.538Zm-40.612-2.877h2.9a54.6,54.6,0,0,0,38.607-15.992,1.269,1.269,0,1,0-1.795-1.795,51.72,51.72,0,0,1-36.812,15.248h-2.9a1.269,1.269,0,1,0,0,2.538Zm23.8,12.448a54.329,54.329,0,0,0-20.894-4.156h-2.9a1.269,1.269,0,1,0,0,2.538h2.9a51.719,51.719,0,0,1,36.812,15.248,1.269,1.269,0,0,0,1.795-1.795A54.324,54.324,0,0,0,227.565,154.8Z" transform="translate(-168.234 -103.178)" fill="#5f325a"/>
  <path id="Trazado_99853" data-name="Trazado 99853" d="M265.229,214.045c0,4.719-3.409,8.545-7.615,8.545S250,218.765,250,214.045s3.409-8.545,7.615-8.545S265.229,209.326,265.229,214.045Z" transform="translate(-207.696 -170.726)" fill="#d49b00"/>
  <path id="Trazado_99854" data-name="Trazado 99854" d="M49.072,134.979a56.809,56.809,0,0,0,5.076,24.156v.26c-.281.009-.563.016-.846.016h0A24.522,24.522,0,0,1,32.2,147.4H12.691A12.691,12.691,0,0,1,0,134.705H0a12.691,12.691,0,0,1,12.691-12.691H32.2A24.522,24.522,0,0,1,53.3,110h0c.283,0,.565.007.846.016v.26a56.809,56.809,0,0,0-5.076,24.156Z" transform="translate(0 -91.386)" fill="#f7d139"/>
  <path id="Trazado_99855" data-name="Trazado 99855" d="M25.877,239.2l2.645,28.034a43.337,43.337,0,0,1-15.653-9.917l-3.5-18.56A12.694,12.694,0,0,1,1.51,220.5a12.688,12.688,0,0,0,11.181,6.684H28.773A24.407,24.407,0,0,0,32.2,239.2Z" transform="translate(0 -183.188)" fill="#ebb410"/>
  <path id="Trazado_99856" data-name="Trazado 99856" d="M404.877,217.29a9.9,9.9,0,1,1,9.9-9.9A9.9,9.9,0,0,1,404.877,217.29Z" transform="translate(-328.14 -164.07)" fill="#ff6e91"/>
  <path id="Trazado_99857" data-name="Trazado 99857" d="M404.877,80.8a9.9,9.9,0,1,1,9.9-9.9A9.9,9.9,0,0,1,404.877,80.8Z" transform="translate(-328.14 -50.678)" fill="#ff784b"/>
  <path id="Trazado_99858" data-name="Trazado 99858" d="M404.877,353.778a9.9,9.9,0,1,1,9.9-9.9A9.9,9.9,0,0,1,404.877,353.778Z" transform="translate(-328.14 -277.462)" fill="#82aaf0"/>
  <path id="Trazado_99859" data-name="Trazado 99859" d="M421.664,75.145a1.221,1.221,0,0,1,.412-1.676l.835-.505a1.222,1.222,0,0,1,1.676.412l2.166,3.507,4.254-9.123a1.222,1.222,0,0,1,1.622-.59l.884.412a1.221,1.221,0,0,1,.59,1.621l-5.415,11.613a1.221,1.221,0,0,1-1.091.7c-.178,0-1.12.006-1.347,0a1.22,1.22,0,0,1-1.011-.588Z" transform="translate(-350.166 -55.71)" fill="#f0faa0"/>
  <path id="Trazado_99860" data-name="Trazado 99860" d="M421.664,211.633a1.221,1.221,0,0,1,.412-1.676l.835-.505a1.222,1.222,0,0,1,1.676.412l2.166,3.507,4.254-9.123a1.222,1.222,0,0,1,1.622-.59l.884.412a1.221,1.221,0,0,1,.59,1.621l-5.415,11.613a1.222,1.222,0,0,1-1.091.7c-.178,0-1.12.006-1.347,0a1.22,1.22,0,0,1-1.011-.588Z" transform="translate(-350.166 -169.102)" fill="#ffebdc"/>
  <path id="Trazado_99861" data-name="Trazado 99861" d="M433.513,340.559l-.884-.412a1.222,1.222,0,0,0-1.622.59l-4.254,9.123-2.166-3.507a1.222,1.222,0,0,0-1.676-.412l-.835.505a1.222,1.222,0,0,0-.412,1.676l3.575,5.789a1.22,1.22,0,0,0,1.011.588c.226.006,1.169,0,1.347,0a1.222,1.222,0,0,0,1.091-.7L434.1,342.18A1.221,1.221,0,0,0,433.513,340.559Z" transform="translate(-350.166 -282.493)" fill="#e1fffa"/>
</svg>
