<svg xmlns="http://www.w3.org/2000/svg" width="60" height="60" viewBox="0 0 60 60">
  <g id="Grupo_54430" data-name="Grupo 54430" transform="translate(-180 -9047)">
    <circle id="Elipse_4011" data-name="Elipse 4011" cx="30" cy="30" r="30" transform="translate(180 9047)" fill="#d64626"/>
    <path id="Trazado_102058" data-name="Trazado 102058" d="M16.3,29H1.479V25.777L8.042,18.57A14.172,14.172,0,0,0,9.976,15.9a4.533,4.533,0,0,0,.615-2.036,3.159,3.159,0,0,0-.557-1.97,2.111,2.111,0,0,0-1.787-.725,2.042,2.042,0,0,0-1.794.945,4.223,4.223,0,0,0-.637,2.41H.967l-.029-.088A6.64,6.64,0,0,1,2.886,9.422,7.176,7.176,0,0,1,8.247,7.364a7.784,7.784,0,0,1,5.405,1.721,6.064,6.064,0,0,1,1.9,4.739A6.243,6.243,0,0,1,14.5,17.406a44.738,44.738,0,0,1-3.867,4.607L8.042,25.118l.029.073H16.3Z" transform="translate(201 9059)" fill="#fff"/>
  </g>
</svg>
