<svg xmlns="http://www.w3.org/2000/svg" width="84" height="84" viewBox="0 0 84 84">
  <g id="Grupo_54437" data-name="Grupo 54437" transform="translate(-180 -10998)">
    <circle id="Elipse_5055" data-name="Elipse 5055" cx="42" cy="42" r="42" transform="translate(180 10998)" fill="#fed947"/>
    <g id="head" transform="translate(167.404 11015.534)">
      <g id="Grupo_53696" data-name="Grupo 53696" transform="translate(29.596)">
        <g id="Grupo_53695" data-name="Grupo 53695">
          <path id="Trazado_99932" data-name="Trazado 99932" d="M33.58,39.089a5.446,5.446,0,0,0,5.44,5.44,2.1,2.1,0,0,0,.25-.02l3.164-.469v3.184a1.708,1.708,0,0,0,1.717,1.707H65.142a1.717,1.717,0,0,0,1.717-1.717V33.289A19.486,19.486,0,1,0,33.58,19.494V22.02l-3.424,6.538a3.679,3.679,0,0,0,3.424,5.68S33.58,39.089,33.58,39.089Zm-.559-8.365h0a1.044,1.044,0,0,1,.17-.579l3.623-6.907a1.721,1.721,0,0,0,.2-.8V19.494A16.1,16.1,0,1,1,64,31.3a1.716,1.716,0,0,0-.559,1.258V45.517H45.877V42.063a1.716,1.716,0,0,0-.6-1.3,1.748,1.748,0,0,0-1.368-.4l-4.981.739a2.025,2.025,0,0,1-1.917-2.016V32.521A1.708,1.708,0,0,0,35.3,30.814H33.6A2.015,2.015,0,0,1,33.021,30.724Z" transform="translate(-29.596)" fill="#20287a"/>
        </g>
      </g>
      <path id="Trazado_99933" data-name="Trazado 99933" d="M120.557,268.8a5.032,5.032,0,0,0-6.1,7.9l5.089,5.089a1.433,1.433,0,0,0,2.027,0l5.089-5.089a5.032,5.032,0,0,0-6.1-7.9Zm4.075,5.872-4.075,4.075-4.075-4.075a2.165,2.165,0,1,1,3.061-3.061,1.434,1.434,0,0,0,2.027,0,2.165,2.165,0,1,1,3.061,3.061Zm0,0" transform="translate(-66.875 -255.485)" fill="#20287a"/>
    </g>
  </g>
</svg>
