<svg xmlns="http://www.w3.org/2000/svg" width="84" height="84" viewBox="0 0 84 84">
  <g id="Grupo_54438" data-name="Grupo 54438" transform="translate(-180 -11155)">
    <circle id="Elipse_5056" data-name="Elipse 5056" cx="42" cy="42" r="42" transform="translate(180 11155)" fill="#fed947"/>
    <g id="lealtad_1_" data-name="lealtad (1)" transform="translate(203.176 11173)">
      <path id="Trazado_99930" data-name="Trazado 99930" d="M120.557,268.8a5.032,5.032,0,0,0-6.1,7.9l5.089,5.089a1.433,1.433,0,0,0,2.027,0l5.089-5.089a5.032,5.032,0,0,0-6.1-7.9Zm4.075,5.872-4.075,4.075-4.075-4.075a2.165,2.165,0,1,1,3.061-3.061,1.434,1.434,0,0,0,2.027,0,2.165,2.165,0,1,1,3.061,3.061Zm0,0" transform="translate(-101.732 -242.485)" fill="#20287a"/>
      <path id="Trazado_99931" data-name="Trazado 99931" d="M24.824,19.436a10.646,10.646,0,1,0-12,0C1.8,23.266.5,33.531.5,36.749v5.394a6.8,6.8,0,0,0,6.788,6.788H30.36a6.8,6.8,0,0,0,6.788-6.788v-5.4c0-3.286-1.478-13.544-12.324-17.311Zm-13.779-8.79a7.779,7.779,0,1,1,7.779,7.779,7.788,7.788,0,0,1-7.779-7.779Zm23.236,31.5a3.925,3.925,0,0,1-3.92,3.92H24.926a1.6,1.6,0,0,1-1.6-1.6A1.674,1.674,0,0,1,25,42.789h4.568a1.434,1.434,0,0,0,1.434-1.434V35.214a1.434,1.434,0,1,0-2.867,0v4.709H25a4.54,4.54,0,0,0-4.543,4.544,4.463,4.463,0,0,0,.295,1.6H16.878a4.5,4.5,0,0,0-4.2-6.142H9.51V35.214a1.434,1.434,0,0,0-2.867,0v6.142a1.433,1.433,0,0,0,1.434,1.434h4.606a1.637,1.637,0,0,1,0,3.275h-5.4a3.925,3.925,0,0,1-3.92-3.92V36.749a15.456,15.456,0,0,1,30.913,0Zm0,0" transform="translate(0 0)" fill="#20287a"/>
    </g>
  </g>
</svg>
